G75*
G70*
%OFA0B0*%
%FSLAX24Y24*%
%IPPOS*%
%LPD*%
%AMOC8*
5,1,8,0,0,1.08239X$1,22.5*
%
%ADD10C,0.0060*%
%ADD11C,0.0040*%
%ADD12C,0.0050*%
%ADD13C,0.0080*%
%ADD14C,0.0030*%
%ADD15C,0.0020*%
%ADD16R,0.0500X0.0350*%
%ADD17C,0.0070*%
%ADD18C,0.0025*%
%ADD19C,0.0098*%
%ADD20R,0.0015X0.0015*%
%ADD21R,0.0180X0.0015*%
%ADD22R,0.0450X0.0015*%
%ADD23R,0.0585X0.0015*%
%ADD24R,0.0705X0.0015*%
%ADD25R,0.0795X0.0015*%
%ADD26R,0.0870X0.0015*%
%ADD27R,0.0960X0.0015*%
%ADD28R,0.1020X0.0015*%
%ADD29R,0.0030X0.0015*%
%ADD30R,0.1080X0.0015*%
%ADD31R,0.0150X0.0015*%
%ADD32R,0.0090X0.0015*%
%ADD33R,0.0105X0.0015*%
%ADD34R,0.0165X0.0015*%
%ADD35R,0.0045X0.0015*%
%ADD36R,0.1125X0.0015*%
%ADD37R,0.0210X0.0015*%
%ADD38R,0.0225X0.0015*%
%ADD39R,0.1170X0.0015*%
%ADD40R,0.0240X0.0015*%
%ADD41R,0.0255X0.0015*%
%ADD42R,0.1200X0.0015*%
%ADD43R,0.0270X0.0015*%
%ADD44R,0.0285X0.0015*%
%ADD45R,0.0120X0.0015*%
%ADD46R,0.1260X0.0015*%
%ADD47R,0.0315X0.0015*%
%ADD48R,0.0135X0.0015*%
%ADD49R,0.1290X0.0015*%
%ADD50R,0.1335X0.0015*%
%ADD51R,0.1365X0.0015*%
%ADD52R,0.1395X0.0015*%
%ADD53R,0.0075X0.0015*%
%ADD54R,0.1425X0.0015*%
%ADD55R,0.1455X0.0015*%
%ADD56R,0.1485X0.0015*%
%ADD57R,0.1515X0.0015*%
%ADD58R,0.0360X0.0015*%
%ADD59R,0.1530X0.0015*%
%ADD60R,0.0060X0.0015*%
%ADD61R,0.1560X0.0015*%
%ADD62R,0.1590X0.0015*%
%ADD63R,0.1605X0.0015*%
%ADD64R,0.1620X0.0015*%
%ADD65R,0.1650X0.0015*%
%ADD66R,0.1680X0.0015*%
%ADD67R,0.1710X0.0015*%
%ADD68R,0.0330X0.0015*%
%ADD69R,0.1740X0.0015*%
%ADD70R,0.0195X0.0015*%
%ADD71R,0.1755X0.0015*%
%ADD72R,0.0765X0.0015*%
%ADD73R,0.0720X0.0015*%
%ADD74R,0.0735X0.0015*%
%ADD75R,0.0690X0.0015*%
%ADD76R,0.0675X0.0015*%
%ADD77R,0.0645X0.0015*%
%ADD78R,0.0615X0.0015*%
%ADD79R,0.0660X0.0015*%
%ADD80R,0.0600X0.0015*%
%ADD81R,0.0630X0.0015*%
%ADD82R,0.0570X0.0015*%
%ADD83R,0.0555X0.0015*%
%ADD84R,0.0540X0.0015*%
%ADD85R,0.0525X0.0015*%
%ADD86R,0.0300X0.0015*%
%ADD87R,0.0345X0.0015*%
%ADD88R,0.0435X0.0015*%
%ADD89R,0.0510X0.0015*%
%ADD90R,0.0855X0.0015*%
%ADD91R,0.0840X0.0015*%
%ADD92R,0.0915X0.0015*%
%ADD93R,0.0930X0.0015*%
%ADD94R,0.0990X0.0015*%
%ADD95R,0.1050X0.0015*%
%ADD96R,0.0750X0.0015*%
%ADD97R,0.0825X0.0015*%
%ADD98R,0.1095X0.0015*%
%ADD99R,0.1110X0.0015*%
%ADD100R,0.0885X0.0015*%
%ADD101R,0.1155X0.0015*%
%ADD102R,0.1140X0.0015*%
%ADD103R,0.1185X0.0015*%
%ADD104R,0.1215X0.0015*%
%ADD105R,0.1245X0.0015*%
%ADD106R,0.0945X0.0015*%
%ADD107R,0.1275X0.0015*%
%ADD108R,0.0975X0.0015*%
%ADD109R,0.1320X0.0015*%
%ADD110R,0.1005X0.0015*%
%ADD111R,0.1065X0.0015*%
%ADD112R,0.1350X0.0015*%
%ADD113R,0.1440X0.0015*%
%ADD114R,0.1470X0.0015*%
%ADD115R,0.1500X0.0015*%
%ADD116R,0.1305X0.0015*%
%ADD117R,0.1230X0.0015*%
%ADD118R,0.1380X0.0015*%
%ADD119R,0.1545X0.0015*%
%ADD120R,0.1410X0.0015*%
%ADD121R,0.1575X0.0015*%
%ADD122R,0.1815X0.0015*%
%ADD123R,0.1800X0.0015*%
%ADD124R,0.1830X0.0015*%
%ADD125R,0.1845X0.0015*%
%ADD126R,0.1665X0.0015*%
%ADD127R,0.1635X0.0015*%
%ADD128R,0.1695X0.0015*%
%ADD129R,0.1860X0.0015*%
%ADD130R,0.1875X0.0015*%
%ADD131R,0.1890X0.0015*%
%ADD132R,0.1770X0.0015*%
%ADD133R,0.1725X0.0015*%
%ADD134R,0.1785X0.0015*%
%ADD135R,0.1905X0.0015*%
%ADD136R,0.0780X0.0015*%
%ADD137R,0.0810X0.0015*%
%ADD138R,0.2025X0.0015*%
%ADD139R,0.2040X0.0015*%
%ADD140R,0.0465X0.0015*%
%ADD141R,0.2190X0.0015*%
%ADD142R,0.2010X0.0015*%
%ADD143R,0.2175X0.0015*%
%ADD144R,0.2160X0.0015*%
%ADD145R,0.1995X0.0015*%
%ADD146R,0.2145X0.0015*%
%ADD147R,0.2130X0.0015*%
%ADD148R,0.2115X0.0015*%
%ADD149R,0.2100X0.0015*%
%ADD150R,0.2085X0.0015*%
%ADD151R,0.2070X0.0015*%
%ADD152R,0.2055X0.0015*%
%ADD153R,0.1980X0.0015*%
%ADD154R,0.1965X0.0015*%
%ADD155R,0.1950X0.0015*%
%ADD156R,0.1920X0.0015*%
%ADD157R,0.1935X0.0015*%
%ADD158R,0.0900X0.0015*%
%ADD159R,0.0390X0.0015*%
%ADD160R,0.0375X0.0015*%
%ADD161R,0.0405X0.0015*%
%ADD162C,0.0010*%
D10*
X005145Y004090D02*
X005572Y004090D01*
X005359Y004090D02*
X005359Y004731D01*
X005145Y004517D01*
X008645Y004517D02*
X008859Y004731D01*
X008859Y004090D01*
X009072Y004090D02*
X008645Y004090D01*
X011645Y004090D02*
X012072Y004090D01*
X011859Y004090D02*
X011859Y004731D01*
X011645Y004517D01*
X015960Y003560D02*
X015960Y002960D01*
X016060Y002960D01*
X016060Y002860D01*
X016410Y002060D02*
X016760Y002060D01*
X017710Y002060D01*
X018110Y002060D01*
X018460Y002860D02*
X018460Y002960D01*
X018560Y002960D01*
X018560Y003560D01*
X018460Y003560D01*
X018460Y003660D01*
X018110Y004460D02*
X017760Y004460D01*
X016760Y004460D01*
X016410Y004460D01*
X016060Y003660D02*
X016060Y003560D01*
X015960Y003560D01*
X017160Y003260D02*
X017162Y003280D01*
X017168Y003298D01*
X017177Y003316D01*
X017189Y003331D01*
X017204Y003343D01*
X017222Y003352D01*
X017240Y003358D01*
X017260Y003360D01*
X017280Y003358D01*
X017298Y003352D01*
X017316Y003343D01*
X017331Y003331D01*
X017343Y003316D01*
X017352Y003298D01*
X017358Y003280D01*
X017360Y003260D01*
X017358Y003240D01*
X017352Y003222D01*
X017343Y003204D01*
X017331Y003189D01*
X017316Y003177D01*
X017298Y003168D01*
X017280Y003162D01*
X017260Y003160D01*
X017240Y003162D01*
X017222Y003168D01*
X017204Y003177D01*
X017189Y003189D01*
X017177Y003204D01*
X017168Y003222D01*
X017162Y003240D01*
X017160Y003260D01*
X016560Y003260D02*
X016562Y003312D01*
X016568Y003364D01*
X016578Y003416D01*
X016591Y003466D01*
X016608Y003516D01*
X016629Y003564D01*
X016654Y003610D01*
X016682Y003654D01*
X016713Y003696D01*
X016747Y003736D01*
X016784Y003773D01*
X016824Y003807D01*
X016866Y003838D01*
X016910Y003866D01*
X016956Y003891D01*
X017004Y003912D01*
X017054Y003929D01*
X017104Y003942D01*
X017156Y003952D01*
X017208Y003958D01*
X017260Y003960D01*
X017312Y003958D01*
X017364Y003952D01*
X017416Y003942D01*
X017466Y003929D01*
X017516Y003912D01*
X017564Y003891D01*
X017610Y003866D01*
X017654Y003838D01*
X017696Y003807D01*
X017736Y003773D01*
X017773Y003736D01*
X017807Y003696D01*
X017838Y003654D01*
X017866Y003610D01*
X017891Y003564D01*
X017912Y003516D01*
X017929Y003466D01*
X017942Y003416D01*
X017952Y003364D01*
X017958Y003312D01*
X017960Y003260D01*
X017958Y003208D01*
X017952Y003156D01*
X017942Y003104D01*
X017929Y003054D01*
X017912Y003004D01*
X017891Y002956D01*
X017866Y002910D01*
X017838Y002866D01*
X017807Y002824D01*
X017773Y002784D01*
X017736Y002747D01*
X017696Y002713D01*
X017654Y002682D01*
X017610Y002654D01*
X017564Y002629D01*
X017516Y002608D01*
X017466Y002591D01*
X017416Y002578D01*
X017364Y002568D01*
X017312Y002562D01*
X017260Y002560D01*
X017208Y002562D01*
X017156Y002568D01*
X017104Y002578D01*
X017054Y002591D01*
X017004Y002608D01*
X016956Y002629D01*
X016910Y002654D01*
X016866Y002682D01*
X016824Y002713D01*
X016784Y002747D01*
X016747Y002784D01*
X016713Y002824D01*
X016682Y002866D01*
X016654Y002910D01*
X016629Y002956D01*
X016608Y003004D01*
X016591Y003054D01*
X016578Y003104D01*
X016568Y003156D01*
X016562Y003208D01*
X016560Y003260D01*
X023460Y002960D02*
X023560Y002960D01*
X023560Y002860D01*
X023460Y002960D02*
X023460Y003560D01*
X023560Y003560D01*
X023560Y003660D01*
X023910Y004460D02*
X024260Y004460D01*
X025260Y004460D01*
X025610Y004460D01*
X025960Y003660D02*
X025960Y003560D01*
X026060Y003560D01*
X026060Y002960D01*
X025960Y002960D01*
X025960Y002860D01*
X025610Y002060D02*
X025210Y002060D01*
X024260Y002060D01*
X023910Y002060D01*
X024660Y003260D02*
X024662Y003280D01*
X024668Y003298D01*
X024677Y003316D01*
X024689Y003331D01*
X024704Y003343D01*
X024722Y003352D01*
X024740Y003358D01*
X024760Y003360D01*
X024780Y003358D01*
X024798Y003352D01*
X024816Y003343D01*
X024831Y003331D01*
X024843Y003316D01*
X024852Y003298D01*
X024858Y003280D01*
X024860Y003260D01*
X024858Y003240D01*
X024852Y003222D01*
X024843Y003204D01*
X024831Y003189D01*
X024816Y003177D01*
X024798Y003168D01*
X024780Y003162D01*
X024760Y003160D01*
X024740Y003162D01*
X024722Y003168D01*
X024704Y003177D01*
X024689Y003189D01*
X024677Y003204D01*
X024668Y003222D01*
X024662Y003240D01*
X024660Y003260D01*
X024060Y003260D02*
X024062Y003312D01*
X024068Y003364D01*
X024078Y003416D01*
X024091Y003466D01*
X024108Y003516D01*
X024129Y003564D01*
X024154Y003610D01*
X024182Y003654D01*
X024213Y003696D01*
X024247Y003736D01*
X024284Y003773D01*
X024324Y003807D01*
X024366Y003838D01*
X024410Y003866D01*
X024456Y003891D01*
X024504Y003912D01*
X024554Y003929D01*
X024604Y003942D01*
X024656Y003952D01*
X024708Y003958D01*
X024760Y003960D01*
X024812Y003958D01*
X024864Y003952D01*
X024916Y003942D01*
X024966Y003929D01*
X025016Y003912D01*
X025064Y003891D01*
X025110Y003866D01*
X025154Y003838D01*
X025196Y003807D01*
X025236Y003773D01*
X025273Y003736D01*
X025307Y003696D01*
X025338Y003654D01*
X025366Y003610D01*
X025391Y003564D01*
X025412Y003516D01*
X025429Y003466D01*
X025442Y003416D01*
X025452Y003364D01*
X025458Y003312D01*
X025460Y003260D01*
X025458Y003208D01*
X025452Y003156D01*
X025442Y003104D01*
X025429Y003054D01*
X025412Y003004D01*
X025391Y002956D01*
X025366Y002910D01*
X025338Y002866D01*
X025307Y002824D01*
X025273Y002784D01*
X025236Y002747D01*
X025196Y002713D01*
X025154Y002682D01*
X025110Y002654D01*
X025064Y002629D01*
X025016Y002608D01*
X024966Y002591D01*
X024916Y002578D01*
X024864Y002568D01*
X024812Y002562D01*
X024760Y002560D01*
X024708Y002562D01*
X024656Y002568D01*
X024604Y002578D01*
X024554Y002591D01*
X024504Y002608D01*
X024456Y002629D01*
X024410Y002654D01*
X024366Y002682D01*
X024324Y002713D01*
X024284Y002747D01*
X024247Y002784D01*
X024213Y002824D01*
X024182Y002866D01*
X024154Y002910D01*
X024129Y002956D01*
X024108Y003004D01*
X024091Y003054D01*
X024078Y003104D01*
X024068Y003156D01*
X024062Y003208D01*
X024060Y003260D01*
X017030Y009990D02*
X011490Y009990D01*
X011490Y015360D01*
X011660Y015530D01*
X017030Y015530D01*
X017030Y009990D01*
X011725Y015075D02*
X011727Y015104D01*
X011733Y015133D01*
X011742Y015161D01*
X011756Y015187D01*
X011772Y015211D01*
X011792Y015233D01*
X011815Y015252D01*
X011839Y015268D01*
X011866Y015280D01*
X011894Y015289D01*
X011923Y015294D01*
X011952Y015295D01*
X011982Y015292D01*
X012010Y015285D01*
X012038Y015275D01*
X012063Y015260D01*
X012087Y015243D01*
X012108Y015223D01*
X012126Y015200D01*
X012141Y015174D01*
X012153Y015147D01*
X012161Y015119D01*
X012165Y015090D01*
X012165Y015060D01*
X012161Y015031D01*
X012153Y015003D01*
X012141Y014976D01*
X012126Y014950D01*
X012108Y014927D01*
X012087Y014907D01*
X012063Y014890D01*
X012038Y014875D01*
X012010Y014865D01*
X011982Y014858D01*
X011952Y014855D01*
X011923Y014856D01*
X011894Y014861D01*
X011866Y014870D01*
X011839Y014882D01*
X011815Y014898D01*
X011792Y014917D01*
X011772Y014939D01*
X011756Y014963D01*
X011742Y014989D01*
X011733Y015017D01*
X011727Y015046D01*
X011725Y015075D01*
X005310Y019260D02*
X005310Y024160D01*
X004960Y024160D01*
X004960Y024760D01*
X005310Y024760D01*
X005310Y025510D01*
X001210Y025510D01*
X001210Y024760D01*
X001560Y024760D01*
X001560Y024160D01*
X001210Y024160D01*
X001210Y019260D01*
X005310Y019260D01*
X001647Y018231D02*
X001647Y017590D01*
X001220Y018231D01*
X001220Y017590D01*
X001004Y017590D02*
X000790Y017590D01*
X000897Y017590D02*
X000897Y018231D01*
X000790Y018231D02*
X001004Y018231D01*
X002550Y024160D02*
X002552Y024213D01*
X002558Y024266D01*
X002568Y024318D01*
X002582Y024369D01*
X002599Y024419D01*
X002620Y024468D01*
X002645Y024515D01*
X002673Y024560D01*
X002705Y024603D01*
X002740Y024643D01*
X002777Y024680D01*
X002817Y024715D01*
X002860Y024747D01*
X002905Y024775D01*
X002952Y024800D01*
X003001Y024821D01*
X003051Y024838D01*
X003102Y024852D01*
X003154Y024862D01*
X003207Y024868D01*
X003260Y024870D01*
X003313Y024868D01*
X003366Y024862D01*
X003418Y024852D01*
X003469Y024838D01*
X003519Y024821D01*
X003568Y024800D01*
X003615Y024775D01*
X003660Y024747D01*
X003703Y024715D01*
X003743Y024680D01*
X003780Y024643D01*
X003815Y024603D01*
X003847Y024560D01*
X003875Y024515D01*
X003900Y024468D01*
X003921Y024419D01*
X003938Y024369D01*
X003952Y024318D01*
X003962Y024266D01*
X003968Y024213D01*
X003970Y024160D01*
X003968Y024107D01*
X003962Y024054D01*
X003952Y024002D01*
X003938Y023951D01*
X003921Y023901D01*
X003900Y023852D01*
X003875Y023805D01*
X003847Y023760D01*
X003815Y023717D01*
X003780Y023677D01*
X003743Y023640D01*
X003703Y023605D01*
X003660Y023573D01*
X003615Y023545D01*
X003568Y023520D01*
X003519Y023499D01*
X003469Y023482D01*
X003418Y023468D01*
X003366Y023458D01*
X003313Y023452D01*
X003260Y023450D01*
X003207Y023452D01*
X003154Y023458D01*
X003102Y023468D01*
X003051Y023482D01*
X003001Y023499D01*
X002952Y023520D01*
X002905Y023545D01*
X002860Y023573D01*
X002817Y023605D01*
X002777Y023640D01*
X002740Y023677D01*
X002705Y023717D01*
X002673Y023760D01*
X002645Y023805D01*
X002620Y023852D01*
X002599Y023901D01*
X002582Y023951D01*
X002568Y024002D01*
X002558Y024054D01*
X002552Y024107D01*
X002550Y024160D01*
X003303Y029790D02*
X003089Y030004D01*
X003730Y030004D01*
X003730Y030217D02*
X003730Y029790D01*
X007589Y030004D02*
X008230Y030004D01*
X008230Y030217D02*
X008230Y029790D01*
X007803Y029790D02*
X007589Y030004D01*
X012089Y030004D02*
X012730Y030004D01*
X012730Y030217D02*
X012730Y029790D01*
X012303Y029790D02*
X012089Y030004D01*
X023260Y018410D02*
X023260Y016110D01*
X031260Y016110D01*
X031260Y016860D01*
X031221Y016862D01*
X031182Y016868D01*
X031144Y016877D01*
X031107Y016890D01*
X031071Y016907D01*
X031038Y016927D01*
X031006Y016951D01*
X030977Y016977D01*
X030951Y017006D01*
X030927Y017038D01*
X030907Y017071D01*
X030890Y017107D01*
X030877Y017144D01*
X030868Y017182D01*
X030862Y017221D01*
X030860Y017260D01*
X030862Y017299D01*
X030868Y017338D01*
X030877Y017376D01*
X030890Y017413D01*
X030907Y017449D01*
X030927Y017482D01*
X030951Y017514D01*
X030977Y017543D01*
X031006Y017569D01*
X031038Y017593D01*
X031071Y017613D01*
X031107Y017630D01*
X031144Y017643D01*
X031182Y017652D01*
X031221Y017658D01*
X031260Y017660D01*
X031260Y018410D01*
X023260Y018410D01*
X030790Y019790D02*
X031217Y019790D01*
X031004Y019790D02*
X031004Y020431D01*
X030790Y020217D01*
X033303Y022790D02*
X033089Y023004D01*
X033730Y023004D01*
X033730Y023217D02*
X033730Y022790D01*
X029941Y027030D02*
X028579Y027030D01*
X028579Y029490D01*
X029941Y029490D01*
X029941Y027030D01*
X033730Y015217D02*
X033730Y014790D01*
X033730Y015004D02*
X033089Y015004D01*
X033303Y014790D01*
X001930Y011072D02*
X001930Y010645D01*
X001930Y010859D02*
X001289Y010859D01*
X001503Y010645D01*
D11*
X002241Y001402D02*
X002241Y000941D01*
X002241Y001095D02*
X002471Y001095D01*
X002548Y001172D01*
X002548Y001325D01*
X002471Y001402D01*
X002241Y001402D01*
X002701Y001172D02*
X002701Y001018D01*
X002778Y000941D01*
X002931Y000941D01*
X003008Y001018D01*
X003008Y001172D01*
X002931Y001248D01*
X002778Y001248D01*
X002701Y001172D01*
X003162Y001248D02*
X003162Y001018D01*
X003238Y000941D01*
X003315Y001018D01*
X003392Y000941D01*
X003468Y001018D01*
X003468Y001248D01*
X003622Y001172D02*
X003699Y001248D01*
X003852Y001248D01*
X003929Y001172D01*
X003929Y001095D01*
X003622Y001095D01*
X003622Y001018D02*
X003622Y001172D01*
X003622Y001018D02*
X003699Y000941D01*
X003852Y000941D01*
X004082Y000941D02*
X004082Y001248D01*
X004082Y001095D02*
X004236Y001248D01*
X004313Y001248D01*
X004926Y001248D02*
X005080Y001402D01*
X005080Y000941D01*
X005233Y000941D02*
X004926Y000941D01*
X005387Y000941D02*
X005694Y001248D01*
X005694Y001325D01*
X005617Y001402D01*
X005463Y001402D01*
X005387Y001325D01*
X005847Y001402D02*
X005847Y001095D01*
X006001Y000941D01*
X006154Y001095D01*
X006154Y001402D01*
X005694Y000941D02*
X005387Y000941D01*
X007164Y000898D02*
X007317Y000898D01*
X007241Y000898D02*
X007241Y001359D01*
X007317Y001359D02*
X007164Y001359D01*
X007471Y001282D02*
X007548Y001359D01*
X007701Y001359D01*
X007778Y001282D01*
X007778Y001205D01*
X007471Y000898D01*
X007778Y000898D01*
X007931Y000975D02*
X008008Y000898D01*
X008161Y000898D01*
X008238Y000975D01*
X008392Y001052D02*
X008698Y001052D01*
X008698Y001205D02*
X008622Y001205D01*
X008392Y001205D01*
X008468Y001359D02*
X008468Y000898D01*
X008622Y000898D02*
X008622Y001359D01*
X008852Y001282D02*
X008929Y001359D01*
X009082Y001359D01*
X009159Y001282D01*
X009159Y001205D01*
X008852Y000898D01*
X009159Y000898D01*
X008238Y001282D02*
X008161Y001359D01*
X008008Y001359D01*
X007931Y001282D01*
X007931Y000975D01*
X010664Y000898D02*
X010817Y000898D01*
X010741Y000898D02*
X010741Y001359D01*
X010817Y001359D02*
X010664Y001359D01*
X010971Y001282D02*
X011048Y001359D01*
X011201Y001359D01*
X011278Y001282D01*
X011278Y001205D01*
X010971Y000898D01*
X011278Y000898D01*
X011431Y000975D02*
X011508Y000898D01*
X011661Y000898D01*
X011738Y000975D01*
X011892Y001052D02*
X012198Y001052D01*
X012198Y001205D02*
X012122Y001205D01*
X011892Y001205D01*
X011968Y001359D02*
X011968Y000898D01*
X012122Y000898D02*
X012122Y001359D01*
X012352Y001205D02*
X012505Y001359D01*
X012505Y000898D01*
X012352Y000898D02*
X012659Y000898D01*
X011738Y001282D02*
X011661Y001359D01*
X011508Y001359D01*
X011431Y001282D01*
X011431Y000975D01*
X011467Y007232D02*
X011160Y007232D01*
X011160Y007692D01*
X011467Y007692D01*
X011621Y007616D02*
X011621Y007309D01*
X011698Y007232D01*
X011851Y007232D01*
X011928Y007309D01*
X011928Y007462D01*
X011774Y007462D01*
X011621Y007616D02*
X011698Y007692D01*
X011851Y007692D01*
X011928Y007616D01*
X012081Y007539D02*
X012081Y007232D01*
X012081Y007462D02*
X012388Y007462D01*
X012388Y007539D02*
X012388Y007232D01*
X012388Y007539D02*
X012235Y007692D01*
X012081Y007539D01*
X011314Y007462D02*
X011160Y007462D01*
X011007Y007692D02*
X011007Y007232D01*
X010700Y007232D02*
X010700Y007692D01*
X010854Y007539D01*
X011007Y007692D01*
X010547Y007692D02*
X010240Y007232D01*
X010086Y007155D02*
X009779Y007155D01*
X009626Y007232D02*
X009472Y007385D01*
X009549Y007385D02*
X009319Y007385D01*
X009319Y007232D02*
X009319Y007692D01*
X009549Y007692D01*
X009626Y007616D01*
X009626Y007462D01*
X009549Y007385D01*
X009165Y007385D02*
X009012Y007232D01*
X008859Y007385D01*
X008859Y007692D01*
X008796Y007824D02*
X008949Y007824D01*
X009026Y007901D01*
X009179Y007824D02*
X009486Y007824D01*
X009333Y007824D02*
X009333Y008285D01*
X009179Y008131D01*
X009026Y008208D02*
X008949Y008285D01*
X008796Y008285D01*
X008719Y008208D01*
X008719Y007901D01*
X008796Y007824D01*
X008565Y007824D02*
X008412Y007824D01*
X008489Y007824D02*
X008489Y008285D01*
X008565Y008285D02*
X008412Y008285D01*
X008552Y007692D02*
X008705Y007539D01*
X008705Y007232D01*
X008705Y007462D02*
X008398Y007462D01*
X008398Y007539D02*
X008552Y007692D01*
X008398Y007539D02*
X008398Y007232D01*
X009165Y007385D02*
X009165Y007692D01*
X010240Y007692D02*
X010547Y007232D01*
X007889Y013780D02*
X007582Y013780D01*
X007889Y014087D01*
X007889Y014164D01*
X007812Y014240D01*
X007659Y014240D01*
X007582Y014164D01*
X006968Y014164D02*
X006968Y014010D01*
X006891Y013933D01*
X006661Y013933D01*
X006661Y013780D02*
X006661Y014240D01*
X006891Y014240D01*
X006968Y014164D01*
X006815Y013933D02*
X006968Y013780D01*
X006508Y013780D02*
X006201Y013780D01*
X006201Y014240D01*
X006508Y014240D01*
X006354Y014010D02*
X006201Y014010D01*
X006047Y013933D02*
X006047Y013857D01*
X005971Y013780D01*
X005817Y013780D01*
X005740Y013857D01*
X005587Y013857D02*
X005587Y014240D01*
X005740Y014164D02*
X005740Y014087D01*
X005817Y014010D01*
X005971Y014010D01*
X006047Y013933D01*
X006047Y014164D02*
X005971Y014240D01*
X005817Y014240D01*
X005740Y014164D01*
X005587Y013857D02*
X005510Y013780D01*
X005357Y013780D01*
X005280Y013857D01*
X005280Y014240D01*
X005357Y015280D02*
X005510Y015280D01*
X005587Y015357D01*
X005587Y015740D01*
X005740Y015664D02*
X005740Y015587D01*
X005817Y015510D01*
X005971Y015510D01*
X006047Y015433D01*
X006047Y015357D01*
X005971Y015280D01*
X005817Y015280D01*
X005740Y015357D01*
X005740Y015664D02*
X005817Y015740D01*
X005971Y015740D01*
X006047Y015664D01*
X006201Y015740D02*
X006201Y015280D01*
X006508Y015280D01*
X006661Y015280D02*
X006661Y015740D01*
X006891Y015740D01*
X006968Y015664D01*
X006968Y015510D01*
X006891Y015433D01*
X006661Y015433D01*
X006815Y015433D02*
X006968Y015280D01*
X007582Y015280D02*
X007889Y015280D01*
X007735Y015280D02*
X007735Y015740D01*
X007582Y015587D01*
X006508Y015740D02*
X006201Y015740D01*
X006201Y015510D02*
X006354Y015510D01*
X005357Y015280D02*
X005280Y015357D01*
X005280Y015740D01*
X005280Y016780D02*
X005280Y017240D01*
X005510Y017240D01*
X005587Y017164D01*
X005587Y017010D01*
X005510Y016933D01*
X005280Y016933D01*
X005740Y016857D02*
X005740Y017164D01*
X005817Y017240D01*
X005971Y017240D01*
X006047Y017164D01*
X006047Y016857D01*
X005971Y016780D01*
X005817Y016780D01*
X005740Y016857D01*
X006201Y016780D02*
X006201Y017240D01*
X006508Y017240D02*
X006508Y016780D01*
X006354Y016933D01*
X006201Y016780D01*
X006661Y016780D02*
X006661Y017240D01*
X006968Y017240D01*
X007122Y017240D02*
X007352Y017240D01*
X007428Y017164D01*
X007428Y017010D01*
X007352Y016933D01*
X007122Y016933D01*
X007122Y016780D02*
X007122Y017240D01*
X007275Y016933D02*
X007428Y016780D01*
X006968Y016780D02*
X006661Y016780D01*
X006661Y017010D02*
X006815Y017010D01*
X001740Y009877D02*
X001740Y009723D01*
X001740Y009800D02*
X001280Y009800D01*
X001280Y009723D02*
X001280Y009877D01*
X001356Y009570D02*
X001280Y009493D01*
X001280Y009263D01*
X001740Y009263D01*
X001740Y009493D01*
X001663Y009570D01*
X001356Y009570D01*
X001356Y009109D02*
X001510Y009109D01*
X001587Y009032D01*
X001587Y008802D01*
X001740Y008802D02*
X001280Y008802D01*
X001280Y009032D01*
X001356Y009109D01*
X015780Y027780D02*
X016010Y027780D01*
X016087Y027857D01*
X016087Y028164D01*
X016010Y028240D01*
X015780Y028240D01*
X015780Y027780D01*
X016394Y027780D02*
X016394Y028240D01*
X016547Y028240D02*
X016240Y028240D01*
X016240Y028530D02*
X016240Y028837D01*
X016471Y028837D01*
X016547Y028760D01*
X016547Y028530D01*
X016701Y028607D02*
X016701Y028760D01*
X016778Y028837D01*
X017008Y028837D01*
X017161Y028837D02*
X017161Y028530D01*
X017008Y028530D02*
X016778Y028530D01*
X016701Y028607D01*
X017008Y028530D02*
X017008Y028990D01*
X017008Y029280D02*
X016778Y029280D01*
X016701Y029357D01*
X016701Y029510D01*
X016778Y029587D01*
X017008Y029587D01*
X017161Y029510D02*
X017161Y029357D01*
X017238Y029280D01*
X017391Y029280D01*
X017468Y029357D01*
X017468Y029510D01*
X017391Y029587D01*
X017238Y029587D01*
X017161Y029510D01*
X017161Y030030D02*
X017391Y030030D01*
X017468Y030107D01*
X017468Y030260D01*
X017391Y030337D01*
X017161Y030337D01*
X017161Y030490D02*
X017161Y030030D01*
X017008Y030183D02*
X016701Y030183D01*
X016701Y030107D02*
X016701Y030260D01*
X016778Y030337D01*
X016931Y030337D01*
X017008Y030260D01*
X017008Y030183D01*
X016931Y030030D02*
X016778Y030030D01*
X016701Y030107D01*
X016547Y030030D02*
X016317Y030030D01*
X016240Y030107D01*
X016240Y030337D01*
X016087Y030490D02*
X015780Y030490D01*
X015780Y030030D01*
X016087Y030030D01*
X015933Y030260D02*
X015780Y030260D01*
X016394Y029877D02*
X016471Y029877D01*
X016547Y029953D01*
X016547Y030337D01*
X016087Y029740D02*
X015933Y029740D01*
X016010Y029740D02*
X016010Y029357D01*
X015933Y029280D01*
X015857Y029280D01*
X015780Y029357D01*
X015933Y028990D02*
X016087Y028837D01*
X016087Y028530D01*
X016087Y028760D02*
X015780Y028760D01*
X015780Y028837D02*
X015780Y028530D01*
X015780Y028837D02*
X015933Y028990D01*
X016240Y029357D02*
X016317Y029433D01*
X016547Y029433D01*
X016547Y029510D02*
X016547Y029280D01*
X016317Y029280D01*
X016240Y029357D01*
X016317Y029587D02*
X016471Y029587D01*
X016547Y029510D01*
X017315Y028837D02*
X017391Y028837D01*
X017315Y028837D02*
X017161Y028683D01*
X017545Y028683D02*
X017852Y028683D01*
X017852Y028760D01*
X017775Y028837D01*
X017622Y028837D01*
X017545Y028760D01*
X017545Y028607D01*
X017622Y028530D01*
X017775Y028530D01*
X017852Y028240D02*
X017928Y028164D01*
X017928Y028087D01*
X017852Y028010D01*
X017622Y028010D01*
X017852Y028010D02*
X017928Y027933D01*
X017928Y027857D01*
X017852Y027780D01*
X017622Y027780D01*
X017622Y028240D01*
X017852Y028240D01*
X018159Y028087D02*
X018312Y028087D01*
X018389Y028010D01*
X018389Y027780D01*
X018159Y027780D01*
X018082Y027857D01*
X018159Y027933D01*
X018389Y027933D01*
X018542Y027780D02*
X018696Y027780D01*
X018619Y027780D02*
X018619Y028240D01*
X018542Y028240D01*
X018542Y028530D02*
X018696Y028530D01*
X018773Y028607D01*
X018926Y028530D02*
X018926Y028990D01*
X019003Y028837D02*
X019156Y028837D01*
X019233Y028760D01*
X019233Y028530D01*
X019386Y028530D02*
X019386Y028837D01*
X019386Y028683D02*
X019540Y028837D01*
X019617Y028837D01*
X019770Y028837D02*
X019847Y028837D01*
X019847Y028530D01*
X019770Y028530D02*
X019924Y028530D01*
X020077Y028530D02*
X020307Y028530D01*
X020384Y028607D01*
X020307Y028683D01*
X020154Y028683D01*
X020077Y028760D01*
X020154Y028837D01*
X020384Y028837D01*
X020537Y028837D02*
X020691Y028837D01*
X020614Y028914D02*
X020614Y028607D01*
X020691Y028530D01*
X020844Y028607D02*
X020844Y028760D01*
X020921Y028837D01*
X021075Y028837D01*
X021151Y028760D01*
X021151Y028683D01*
X020844Y028683D01*
X020844Y028607D02*
X020921Y028530D01*
X021075Y028530D01*
X021305Y028530D02*
X021305Y028837D01*
X021535Y028837D01*
X021612Y028760D01*
X021612Y028530D01*
X021765Y028530D02*
X021995Y028530D01*
X022072Y028607D01*
X021995Y028683D01*
X021842Y028683D01*
X021765Y028760D01*
X021842Y028837D01*
X022072Y028837D01*
X022225Y028760D02*
X022302Y028837D01*
X022456Y028837D01*
X022532Y028760D01*
X022532Y028683D01*
X022225Y028683D01*
X022225Y028607D02*
X022225Y028760D01*
X022225Y028607D02*
X022302Y028530D01*
X022456Y028530D01*
X022686Y028530D02*
X022686Y028837D01*
X022916Y028837D01*
X022993Y028760D01*
X022993Y028530D01*
X022993Y028240D02*
X023070Y028164D01*
X023070Y028087D01*
X022993Y028010D01*
X023070Y027933D01*
X023070Y027857D01*
X022993Y027780D01*
X022839Y027780D01*
X022763Y027857D01*
X022609Y027780D02*
X022302Y027780D01*
X022456Y027780D02*
X022456Y028240D01*
X022302Y028087D01*
X022149Y028164D02*
X021842Y027857D01*
X021919Y027780D01*
X022072Y027780D01*
X022149Y027857D01*
X022149Y028164D01*
X022072Y028240D01*
X021919Y028240D01*
X021842Y028164D01*
X021842Y027857D01*
X021688Y027780D02*
X021381Y027780D01*
X021688Y028087D01*
X021688Y028164D01*
X021612Y028240D01*
X021458Y028240D01*
X021381Y028164D01*
X020768Y028010D02*
X020768Y027857D01*
X020691Y027780D01*
X020461Y027780D01*
X020461Y027627D02*
X020461Y028087D01*
X020691Y028087D01*
X020768Y028010D01*
X020307Y028087D02*
X020307Y027780D01*
X020077Y027780D01*
X020000Y027857D01*
X020000Y028087D01*
X019847Y028087D02*
X019770Y028087D01*
X019617Y027933D01*
X019617Y027780D02*
X019617Y028087D01*
X019463Y028010D02*
X019463Y027933D01*
X019156Y027933D01*
X019156Y027857D02*
X019156Y028010D01*
X019233Y028087D01*
X019386Y028087D01*
X019463Y028010D01*
X019386Y027780D02*
X019233Y027780D01*
X019156Y027857D01*
X019003Y027780D02*
X018849Y027780D01*
X018926Y027780D02*
X018926Y028240D01*
X018849Y028240D01*
X018542Y028530D02*
X018466Y028607D01*
X018466Y028914D01*
X018542Y028990D01*
X018696Y028990D01*
X018773Y028914D01*
X018926Y028760D02*
X019003Y028837D01*
X019079Y029280D02*
X019003Y029357D01*
X019003Y029510D01*
X019079Y029587D01*
X019233Y029587D01*
X019310Y029510D01*
X019310Y029433D01*
X019003Y029433D01*
X019079Y029280D02*
X019233Y029280D01*
X019463Y029357D02*
X019463Y029510D01*
X019540Y029587D01*
X019770Y029587D01*
X019770Y029740D02*
X019770Y029280D01*
X019540Y029280D01*
X019463Y029357D01*
X019924Y029357D02*
X019924Y029510D01*
X020000Y029587D01*
X020154Y029587D01*
X020230Y029510D01*
X020230Y029433D01*
X019924Y029433D01*
X019924Y029357D02*
X020000Y029280D01*
X020154Y029280D01*
X020384Y029280D02*
X020384Y029587D01*
X020537Y029587D02*
X020384Y029433D01*
X020537Y029587D02*
X020614Y029587D01*
X020768Y029510D02*
X020844Y029587D01*
X021075Y029587D01*
X021228Y029510D02*
X021228Y029357D01*
X021305Y029280D01*
X021458Y029280D01*
X021535Y029433D02*
X021228Y029433D01*
X021228Y029510D02*
X021305Y029587D01*
X021458Y029587D01*
X021535Y029510D01*
X021535Y029433D01*
X021688Y029280D02*
X021688Y029587D01*
X021919Y029587D01*
X021995Y029510D01*
X021995Y029280D01*
X022609Y029357D02*
X022609Y029433D01*
X022763Y029587D01*
X022763Y029664D01*
X022686Y029740D01*
X022609Y029664D01*
X022609Y029587D01*
X022916Y029280D01*
X022916Y029433D02*
X022763Y029280D01*
X022686Y029280D01*
X022609Y029357D01*
X022839Y028240D02*
X022993Y028240D01*
X022839Y028240D02*
X022763Y028164D01*
X022916Y028010D02*
X022993Y028010D01*
X021075Y029357D02*
X020998Y029433D01*
X020844Y029433D01*
X020768Y029510D01*
X020768Y029280D02*
X020998Y029280D01*
X021075Y029357D01*
X020307Y030107D02*
X020230Y030030D01*
X020077Y030030D01*
X020000Y030107D01*
X020307Y030414D01*
X020307Y030107D01*
X020307Y030414D02*
X020230Y030490D01*
X020077Y030490D01*
X020000Y030414D01*
X020000Y030107D01*
X019847Y030107D02*
X019847Y030030D01*
X019770Y030030D01*
X019770Y030107D01*
X019847Y030107D01*
X019617Y030030D02*
X019310Y030030D01*
X019463Y030030D02*
X019463Y030490D01*
X019310Y030337D01*
X019156Y030337D02*
X019003Y030030D01*
X018849Y030337D01*
X018773Y029740D02*
X018849Y029664D01*
X018849Y029510D01*
X018773Y029433D01*
X018542Y029433D01*
X018542Y029280D02*
X018542Y029740D01*
X018773Y029740D01*
X018235Y030030D02*
X018159Y030107D01*
X018159Y030414D01*
X018082Y030337D02*
X018235Y030337D01*
X017928Y030260D02*
X017852Y030337D01*
X017698Y030337D01*
X017622Y030260D01*
X017622Y030107D01*
X017698Y030030D01*
X017852Y030030D01*
X017928Y030107D01*
X017928Y030260D01*
X017622Y029740D02*
X017622Y029280D01*
X017852Y029280D01*
X017928Y029357D01*
X017928Y029510D01*
X017852Y029587D01*
X017622Y029587D01*
X017775Y029067D02*
X017622Y028990D01*
X017008Y028240D02*
X017008Y027857D01*
X016931Y027780D01*
X016778Y027780D01*
X016701Y027857D01*
X016701Y028240D01*
X014508Y030664D02*
X014201Y030664D01*
X014355Y030664D02*
X014355Y031124D01*
X014201Y030971D01*
X014048Y030971D02*
X013971Y030971D01*
X013741Y030971D01*
X013741Y030817D02*
X014048Y030817D01*
X013971Y030664D02*
X013971Y031124D01*
X013818Y031124D02*
X013818Y030664D01*
X013588Y030741D02*
X013511Y030664D01*
X013357Y030664D01*
X013281Y030741D01*
X013281Y031048D01*
X013357Y031124D01*
X013511Y031124D01*
X013588Y031048D01*
X013127Y031048D02*
X013051Y031124D01*
X012820Y031124D01*
X012820Y030664D01*
X013051Y030664D01*
X013127Y030741D01*
X013127Y031048D01*
X012667Y030971D02*
X012667Y030664D01*
X012667Y030894D02*
X012360Y030894D01*
X012360Y030971D02*
X012513Y031124D01*
X012667Y030971D01*
X012360Y030971D02*
X012360Y030664D01*
X010008Y030664D02*
X009701Y030664D01*
X010008Y030971D01*
X010008Y031048D01*
X009932Y031124D01*
X009778Y031124D01*
X009701Y031048D01*
X009548Y030971D02*
X009471Y030971D01*
X009241Y030971D01*
X009241Y030817D02*
X009548Y030817D01*
X009471Y030664D02*
X009471Y031124D01*
X009318Y031124D02*
X009318Y030664D01*
X009088Y030741D02*
X009011Y030664D01*
X008857Y030664D01*
X008781Y030741D01*
X008781Y031048D01*
X008857Y031124D01*
X009011Y031124D01*
X009088Y031048D01*
X008627Y031048D02*
X008551Y031124D01*
X008320Y031124D01*
X008320Y030664D01*
X008551Y030664D01*
X008627Y030741D01*
X008627Y031048D01*
X008167Y030971D02*
X008167Y030664D01*
X008167Y030894D02*
X007860Y030894D01*
X007860Y030971D02*
X008013Y031124D01*
X008167Y030971D01*
X007860Y030971D02*
X007860Y030664D01*
X005508Y030741D02*
X005432Y030664D01*
X005278Y030664D01*
X005201Y030741D01*
X005048Y030817D02*
X004741Y030817D01*
X004741Y030971D02*
X004971Y030971D01*
X005048Y030971D01*
X004971Y031124D02*
X004971Y030664D01*
X004818Y030664D02*
X004818Y031124D01*
X004588Y031048D02*
X004511Y031124D01*
X004357Y031124D01*
X004281Y031048D01*
X004281Y030741D01*
X004357Y030664D01*
X004511Y030664D01*
X004588Y030741D01*
X004127Y030741D02*
X004051Y030664D01*
X003820Y030664D01*
X003820Y031124D01*
X004051Y031124D01*
X004127Y031048D01*
X004127Y030741D01*
X003667Y030664D02*
X003667Y030971D01*
X003513Y031124D01*
X003360Y030971D01*
X003360Y030664D01*
X003360Y030894D02*
X003667Y030894D01*
X005201Y031048D02*
X005278Y031124D01*
X005432Y031124D01*
X005508Y031048D01*
X005508Y030971D01*
X005432Y030894D01*
X005508Y030817D01*
X005508Y030741D01*
X005432Y030894D02*
X005355Y030894D01*
X019847Y029067D02*
X019847Y028990D01*
X030109Y022414D02*
X030186Y022490D01*
X030339Y022490D01*
X030416Y022414D01*
X030416Y022107D01*
X030339Y022030D01*
X030186Y022030D01*
X030109Y022107D01*
X030109Y022414D01*
X030263Y022183D02*
X030416Y022030D01*
X030570Y022030D02*
X030877Y022030D01*
X030723Y022030D02*
X030723Y022490D01*
X030570Y022337D01*
X038280Y022377D02*
X038280Y022070D01*
X038280Y022223D02*
X038740Y022223D01*
X038280Y021916D02*
X038280Y021609D01*
X038740Y021609D01*
X038740Y021456D02*
X038740Y021149D01*
X038280Y021149D01*
X038280Y021456D01*
X038510Y021609D02*
X038510Y021763D01*
X038510Y021302D02*
X038510Y021149D01*
X038740Y020995D02*
X038740Y020688D01*
X038280Y020688D01*
X038817Y020535D02*
X038817Y020228D01*
X038740Y020075D02*
X038587Y019921D01*
X038587Y019998D02*
X038587Y019768D01*
X038740Y019768D02*
X038280Y019768D01*
X038280Y019998D01*
X038356Y020075D01*
X038510Y020075D01*
X038587Y019998D01*
X038663Y019614D02*
X038356Y019614D01*
X038280Y019537D01*
X038280Y019384D01*
X038356Y019307D01*
X038663Y019307D01*
X038740Y019384D01*
X038740Y019537D01*
X038663Y019614D01*
X038280Y019154D02*
X038280Y018847D01*
X038280Y019000D02*
X038740Y019000D01*
X038663Y018693D02*
X038356Y018693D01*
X038280Y018617D01*
X038280Y018463D01*
X038356Y018386D01*
X038663Y018386D01*
X038740Y018463D01*
X038740Y018617D01*
X038663Y018693D01*
X038740Y018233D02*
X038280Y018233D01*
X038433Y018080D01*
X038280Y017926D01*
X038740Y017926D01*
X038280Y014877D02*
X038280Y014570D01*
X038280Y014723D02*
X038740Y014723D01*
X038740Y014416D02*
X038280Y014416D01*
X038510Y014416D02*
X038510Y014109D01*
X038510Y013956D02*
X038510Y013802D01*
X038510Y013956D02*
X038663Y013956D01*
X038740Y013879D01*
X038740Y013726D01*
X038663Y013649D01*
X038356Y013649D01*
X038280Y013726D01*
X038280Y013879D01*
X038356Y013956D01*
X038280Y014109D02*
X038740Y014109D01*
X038740Y013495D02*
X038740Y013342D01*
X038740Y013419D02*
X038280Y013419D01*
X038280Y013495D02*
X038280Y013342D01*
X038356Y013188D02*
X038510Y013188D01*
X038587Y013112D01*
X038587Y012881D01*
X038740Y012881D02*
X038280Y012881D01*
X038280Y013112D01*
X038356Y013188D01*
X038587Y013035D02*
X038740Y013188D01*
X038817Y012728D02*
X038817Y012421D01*
X038740Y012268D02*
X038587Y012114D01*
X038587Y012191D02*
X038587Y011961D01*
X038740Y011961D02*
X038280Y011961D01*
X038280Y012191D01*
X038356Y012268D01*
X038510Y012268D01*
X038587Y012191D01*
X038663Y011807D02*
X038356Y011807D01*
X038280Y011731D01*
X038280Y011577D01*
X038356Y011500D01*
X038663Y011500D01*
X038740Y011577D01*
X038740Y011731D01*
X038663Y011807D01*
X038280Y011347D02*
X038280Y011040D01*
X038280Y011193D02*
X038740Y011193D01*
X038663Y010886D02*
X038356Y010886D01*
X038280Y010810D01*
X038280Y010656D01*
X038356Y010580D01*
X038663Y010580D01*
X038740Y010656D01*
X038740Y010810D01*
X038663Y010886D01*
X038740Y010426D02*
X038280Y010426D01*
X038433Y010273D01*
X038280Y010119D01*
X038740Y010119D01*
X030877Y006414D02*
X030877Y006337D01*
X030570Y006030D01*
X030877Y006030D01*
X030416Y006030D02*
X030263Y006183D01*
X030339Y006030D02*
X030186Y006030D01*
X030109Y006107D01*
X030109Y006414D01*
X030186Y006490D01*
X030339Y006490D01*
X030416Y006414D01*
X030416Y006107D01*
X030339Y006030D01*
X030570Y006414D02*
X030646Y006490D01*
X030800Y006490D01*
X030877Y006414D01*
D12*
X033979Y009225D02*
X033979Y016295D01*
X037541Y016295D01*
X037541Y009225D01*
X033979Y009225D01*
X027775Y013710D02*
X027775Y013785D01*
X027700Y013860D01*
X027625Y013860D01*
X027700Y013860D02*
X027775Y013935D01*
X027775Y014010D01*
X027700Y014085D01*
X027550Y014085D01*
X027475Y014010D01*
X027314Y014010D02*
X027239Y014085D01*
X027089Y014085D01*
X027014Y014010D01*
X027014Y013710D01*
X027089Y013635D01*
X027239Y013635D01*
X027314Y013710D01*
X027475Y013710D02*
X027550Y013635D01*
X027700Y013635D01*
X027775Y013710D01*
X026857Y013635D02*
X026707Y013635D01*
X026782Y013635D02*
X026782Y014085D01*
X026707Y014085D02*
X026857Y014085D01*
X026835Y014535D02*
X027135Y014535D01*
X027295Y014535D02*
X027596Y014835D01*
X027596Y014910D01*
X027521Y014985D01*
X027370Y014985D01*
X027295Y014910D01*
X027295Y014535D02*
X027596Y014535D01*
X027756Y014610D02*
X027831Y014535D01*
X027981Y014535D01*
X028056Y014610D01*
X028056Y014910D01*
X027981Y014985D01*
X027831Y014985D01*
X027756Y014910D01*
X027756Y014835D01*
X027831Y014760D01*
X028056Y014760D01*
X028216Y014610D02*
X028291Y014535D01*
X028441Y014535D01*
X028516Y014610D01*
X028516Y014685D01*
X028441Y014760D01*
X028366Y014760D01*
X028441Y014760D02*
X028516Y014835D01*
X028516Y014910D01*
X028441Y014985D01*
X028291Y014985D01*
X028216Y014910D01*
X028677Y014985D02*
X028677Y014535D01*
X028902Y014535D01*
X028977Y014610D01*
X028977Y014910D01*
X028902Y014985D01*
X028677Y014985D01*
X026835Y014985D02*
X026835Y014535D01*
X033979Y017225D02*
X033979Y024295D01*
X037541Y024295D01*
X037541Y017225D01*
X033979Y017225D01*
X029673Y025985D02*
X029522Y025985D01*
X029447Y026060D01*
X029447Y026135D01*
X029522Y026210D01*
X029673Y026210D01*
X029748Y026135D01*
X029748Y026060D01*
X029673Y025985D01*
X029673Y026210D02*
X029748Y026285D01*
X029748Y026360D01*
X029673Y026435D01*
X029522Y026435D01*
X029447Y026360D01*
X029447Y026285D01*
X029522Y026210D01*
X029287Y025985D02*
X028987Y025985D01*
X029137Y025985D02*
X029137Y026435D01*
X028987Y026285D01*
X028827Y025985D02*
X028527Y025985D01*
X028677Y025985D02*
X028677Y026435D01*
X028527Y026285D01*
X028366Y025985D02*
X028066Y025985D01*
X028216Y025985D02*
X028216Y026435D01*
X028066Y026285D01*
X027906Y026210D02*
X027756Y026210D01*
X027906Y026210D02*
X027906Y026060D01*
X027831Y025985D01*
X027681Y025985D01*
X027606Y026060D01*
X027606Y026360D01*
X027681Y026435D01*
X027831Y026435D01*
X027906Y026360D01*
X027625Y026585D02*
X027325Y026585D01*
X027625Y026885D01*
X027625Y026960D01*
X027550Y027035D01*
X027400Y027035D01*
X027325Y026960D01*
X027164Y026960D02*
X027089Y027035D01*
X026939Y027035D01*
X026864Y026960D01*
X026864Y026660D01*
X026939Y026585D01*
X027089Y026585D01*
X027164Y026660D01*
X027145Y026435D02*
X027145Y025985D01*
X027446Y025985D01*
X027296Y026210D02*
X027145Y026210D01*
X026985Y026210D02*
X026910Y026135D01*
X026685Y026135D01*
X026685Y025985D02*
X026685Y026435D01*
X026910Y026435D01*
X026985Y026360D01*
X026985Y026210D01*
X026835Y026135D02*
X026985Y025985D01*
X027145Y026435D02*
X027446Y026435D01*
X026707Y026585D02*
X026557Y026585D01*
X026632Y026585D02*
X026632Y027035D01*
X026557Y027035D02*
X026707Y027035D01*
X015020Y027201D02*
X012736Y027201D01*
X012736Y030319D01*
X015020Y030319D01*
X015020Y027201D01*
X010520Y027201D02*
X008236Y027201D01*
X008236Y030319D01*
X010520Y030319D01*
X010520Y027201D01*
X006020Y027201D02*
X003736Y027201D01*
X003736Y030319D01*
X006020Y030319D01*
X006020Y027201D01*
X012235Y022396D02*
X012685Y022396D01*
X012685Y022546D02*
X012685Y022245D01*
X012385Y022245D02*
X012235Y022396D01*
X012235Y022085D02*
X012310Y022085D01*
X012460Y021935D01*
X012685Y021935D01*
X012460Y021935D02*
X012310Y021785D01*
X012235Y021785D01*
X004441Y011833D02*
X002079Y011833D01*
X002079Y006687D01*
X004441Y006687D01*
X004441Y011833D01*
X003701Y004284D02*
X003701Y002000D01*
X005819Y002000D01*
X005819Y004284D01*
X003701Y004284D01*
X007201Y004284D02*
X007201Y002000D01*
X009319Y002000D01*
X009319Y004284D01*
X007201Y004284D01*
X010201Y004284D02*
X010201Y002000D01*
X012319Y002000D01*
X012319Y004284D01*
X010201Y004284D01*
X016085Y001185D02*
X016085Y000735D01*
X016085Y000885D02*
X016310Y000885D01*
X016385Y000960D01*
X016385Y001110D01*
X016310Y001185D01*
X016085Y001185D01*
X016235Y000885D02*
X016385Y000735D01*
X016545Y000735D02*
X016545Y001185D01*
X016846Y001185D01*
X017006Y001110D02*
X017006Y001035D01*
X017081Y000960D01*
X017231Y000960D01*
X017306Y000885D01*
X017306Y000810D01*
X017231Y000735D01*
X017081Y000735D01*
X017006Y000810D01*
X016846Y000735D02*
X016545Y000735D01*
X016545Y000960D02*
X016696Y000960D01*
X017006Y001110D02*
X017081Y001185D01*
X017231Y001185D01*
X017306Y001110D01*
X017466Y001185D02*
X017466Y000735D01*
X017766Y000735D01*
X017616Y000960D02*
X017466Y000960D01*
X017466Y001185D02*
X017766Y001185D01*
X017927Y001185D02*
X018227Y001185D01*
X018077Y001185D02*
X018077Y000735D01*
X023085Y000810D02*
X023160Y000735D01*
X023310Y000735D01*
X023385Y000810D01*
X023385Y001185D01*
X023545Y001110D02*
X023545Y001035D01*
X023620Y000960D01*
X023771Y000960D01*
X023846Y000885D01*
X023846Y000810D01*
X023771Y000735D01*
X023620Y000735D01*
X023545Y000810D01*
X023545Y001110D02*
X023620Y001185D01*
X023771Y001185D01*
X023846Y001110D01*
X024006Y001185D02*
X024006Y000735D01*
X024306Y000735D01*
X024466Y000735D02*
X024466Y001185D01*
X024691Y001185D01*
X024766Y001110D01*
X024766Y000960D01*
X024691Y000885D01*
X024466Y000885D01*
X024616Y000885D02*
X024766Y000735D01*
X024927Y000660D02*
X025227Y000660D01*
X025387Y000735D02*
X025387Y001185D01*
X025462Y000960D02*
X025687Y000735D01*
X025847Y000735D02*
X026148Y000735D01*
X025997Y000960D02*
X025847Y000960D01*
X025847Y001185D02*
X025847Y000735D01*
X025847Y001185D02*
X026148Y001185D01*
X026308Y001185D02*
X026308Y001110D01*
X026458Y000960D01*
X026458Y000735D01*
X026458Y000960D02*
X026608Y001110D01*
X026608Y001185D01*
X025687Y001185D02*
X025387Y000885D01*
X024306Y001185D02*
X024006Y001185D01*
X024006Y000960D02*
X024156Y000960D01*
X023085Y000810D02*
X023085Y001185D01*
D13*
X013660Y020910D02*
X013660Y023610D01*
X013658Y023669D01*
X013652Y023727D01*
X013643Y023786D01*
X013629Y023843D01*
X013612Y023899D01*
X013591Y023954D01*
X013567Y024008D01*
X013539Y024060D01*
X013508Y024110D01*
X013474Y024158D01*
X013437Y024203D01*
X013396Y024246D01*
X013353Y024287D01*
X013308Y024324D01*
X013260Y024358D01*
X013210Y024389D01*
X013158Y024417D01*
X013104Y024441D01*
X013049Y024462D01*
X012993Y024479D01*
X012936Y024493D01*
X012877Y024502D01*
X012819Y024508D01*
X012760Y024510D01*
X012701Y024508D01*
X012643Y024502D01*
X012584Y024493D01*
X012527Y024479D01*
X012471Y024462D01*
X012416Y024441D01*
X012362Y024417D01*
X012310Y024389D01*
X012260Y024358D01*
X012212Y024324D01*
X012167Y024287D01*
X012124Y024246D01*
X012083Y024203D01*
X012046Y024158D01*
X012012Y024110D01*
X011981Y024060D01*
X011953Y024008D01*
X011929Y023954D01*
X011908Y023899D01*
X011891Y023843D01*
X011877Y023786D01*
X011868Y023727D01*
X011862Y023669D01*
X011860Y023610D01*
X011860Y020910D01*
X011862Y020851D01*
X011868Y020793D01*
X011877Y020734D01*
X011891Y020677D01*
X011908Y020621D01*
X011929Y020566D01*
X011953Y020512D01*
X011981Y020460D01*
X012012Y020410D01*
X012046Y020362D01*
X012083Y020317D01*
X012124Y020274D01*
X012167Y020233D01*
X012212Y020196D01*
X012260Y020162D01*
X012310Y020131D01*
X012362Y020103D01*
X012416Y020079D01*
X012471Y020058D01*
X012527Y020041D01*
X012584Y020027D01*
X012643Y020018D01*
X012701Y020012D01*
X012760Y020010D01*
X012819Y020012D01*
X012877Y020018D01*
X012936Y020027D01*
X012993Y020041D01*
X013049Y020058D01*
X013104Y020079D01*
X013158Y020103D01*
X013210Y020131D01*
X013260Y020162D01*
X013308Y020196D01*
X013353Y020233D01*
X013396Y020274D01*
X013437Y020317D01*
X013474Y020362D01*
X013508Y020410D01*
X013539Y020460D01*
X013567Y020512D01*
X013591Y020566D01*
X013612Y020621D01*
X013629Y020677D01*
X013643Y020734D01*
X013652Y020793D01*
X013658Y020851D01*
X013660Y020910D01*
D14*
X011625Y018295D02*
X011480Y018150D01*
X011674Y018150D01*
X011625Y018005D02*
X011625Y018295D01*
X011379Y018247D02*
X011331Y018295D01*
X011234Y018295D01*
X011186Y018247D01*
X011186Y018053D01*
X011234Y018005D01*
X011331Y018005D01*
X011379Y018053D01*
X007471Y016458D02*
X007471Y016168D01*
X007374Y016168D02*
X007568Y016168D01*
X007374Y016361D02*
X007471Y016458D01*
X007273Y016409D02*
X007225Y016458D01*
X007079Y016458D01*
X007079Y016168D01*
X007225Y016168D01*
X007273Y016216D01*
X007273Y016409D01*
X007225Y014958D02*
X007079Y014958D01*
X007079Y014668D01*
X007225Y014668D01*
X007273Y014716D01*
X007273Y014909D01*
X007225Y014958D01*
X007374Y014909D02*
X007422Y014958D01*
X007519Y014958D01*
X007568Y014909D01*
X007568Y014861D01*
X007374Y014668D01*
X007568Y014668D01*
X007519Y013458D02*
X007568Y013409D01*
X007568Y013361D01*
X007519Y013313D01*
X007568Y013264D01*
X007568Y013216D01*
X007519Y013168D01*
X007422Y013168D01*
X007374Y013216D01*
X007273Y013216D02*
X007273Y013409D01*
X007225Y013458D01*
X007079Y013458D01*
X007079Y013168D01*
X007225Y013168D01*
X007273Y013216D01*
X007374Y013409D02*
X007422Y013458D01*
X007519Y013458D01*
X007519Y013313D02*
X007471Y013313D01*
X003674Y015553D02*
X003625Y015505D01*
X003529Y015505D01*
X003480Y015553D01*
X003674Y015747D01*
X003674Y015553D01*
X003480Y015553D02*
X003480Y015747D01*
X003529Y015795D01*
X003625Y015795D01*
X003674Y015747D01*
X003379Y015505D02*
X003186Y015505D01*
X003282Y015505D02*
X003282Y015795D01*
X003186Y015698D01*
X003085Y015747D02*
X003036Y015795D01*
X002939Y015795D01*
X002891Y015747D01*
X002891Y015553D01*
X002939Y015505D01*
X003036Y015505D01*
X003085Y015553D01*
X001674Y015553D02*
X001674Y015747D01*
X001625Y015795D01*
X001529Y015795D01*
X001480Y015747D01*
X001480Y015698D01*
X001529Y015650D01*
X001674Y015650D01*
X001674Y015553D02*
X001625Y015505D01*
X001529Y015505D01*
X001480Y015553D01*
X001379Y015553D02*
X001331Y015505D01*
X001234Y015505D01*
X001186Y015553D01*
X001186Y015747D01*
X001234Y015795D01*
X001331Y015795D01*
X001379Y015747D01*
X010275Y006515D02*
X010420Y006515D01*
X010468Y006467D01*
X010468Y006370D01*
X010420Y006322D01*
X010275Y006322D01*
X010372Y006322D02*
X010468Y006225D01*
X010570Y006225D02*
X010763Y006225D01*
X010666Y006225D02*
X010666Y006515D01*
X010570Y006418D01*
X010275Y006515D02*
X010275Y006225D01*
X017323Y018725D02*
X017420Y018725D01*
X017468Y018773D01*
X017570Y018773D02*
X017618Y018725D01*
X017715Y018725D01*
X017763Y018773D01*
X017763Y018822D01*
X017715Y018870D01*
X017666Y018870D01*
X017715Y018870D02*
X017763Y018918D01*
X017763Y018967D01*
X017715Y019015D01*
X017618Y019015D01*
X017570Y018967D01*
X017468Y018967D02*
X017420Y019015D01*
X017323Y019015D01*
X017275Y018967D01*
X017275Y018773D01*
X017323Y018725D01*
X017275Y019725D02*
X017275Y020015D01*
X017420Y020015D01*
X017468Y019967D01*
X017468Y019870D01*
X017420Y019822D01*
X017275Y019822D01*
X017372Y019822D02*
X017468Y019725D01*
X017570Y019773D02*
X017618Y019725D01*
X017715Y019725D01*
X017763Y019773D01*
X017763Y019822D01*
X017715Y019870D01*
X017666Y019870D01*
X017715Y019870D02*
X017763Y019918D01*
X017763Y019967D01*
X017715Y020015D01*
X017618Y020015D01*
X017570Y019967D01*
X017570Y021225D02*
X017570Y021273D01*
X017763Y021467D01*
X017763Y021515D01*
X017570Y021515D01*
X017468Y021467D02*
X017420Y021515D01*
X017323Y021515D01*
X017275Y021467D01*
X017275Y021273D01*
X017323Y021225D01*
X017420Y021225D01*
X017468Y021273D01*
X017420Y022725D02*
X017468Y022773D01*
X017420Y022725D02*
X017323Y022725D01*
X017275Y022773D01*
X017275Y022967D01*
X017323Y023015D01*
X017420Y023015D01*
X017468Y022967D01*
X017570Y023015D02*
X017570Y022870D01*
X017666Y022918D01*
X017715Y022918D01*
X017763Y022870D01*
X017763Y022773D01*
X017715Y022725D01*
X017618Y022725D01*
X017570Y022773D01*
X017570Y023015D02*
X017763Y023015D01*
X019775Y023273D02*
X019823Y023225D01*
X019920Y023225D01*
X019968Y023273D01*
X020070Y023273D02*
X020070Y023322D01*
X020118Y023370D01*
X020215Y023370D01*
X020263Y023322D01*
X020263Y023273D01*
X020215Y023225D01*
X020118Y023225D01*
X020070Y023273D01*
X020118Y023370D02*
X020070Y023418D01*
X020070Y023467D01*
X020118Y023515D01*
X020215Y023515D01*
X020263Y023467D01*
X020263Y023418D01*
X020215Y023370D01*
X019968Y023467D02*
X019920Y023515D01*
X019823Y023515D01*
X019775Y023467D01*
X019775Y023273D01*
X022186Y021295D02*
X022331Y021295D01*
X022379Y021247D01*
X022379Y021150D01*
X022331Y021102D01*
X022186Y021102D01*
X022282Y021102D02*
X022379Y021005D01*
X022480Y021053D02*
X022529Y021005D01*
X022625Y021005D01*
X022674Y021053D01*
X022674Y021150D01*
X022625Y021198D01*
X022577Y021198D01*
X022480Y021150D01*
X022480Y021295D01*
X022674Y021295D01*
X022186Y021295D02*
X022186Y021005D01*
X021174Y019295D02*
X021077Y019247D01*
X020980Y019150D01*
X021125Y019150D01*
X021174Y019102D01*
X021174Y019053D01*
X021125Y019005D01*
X021029Y019005D01*
X020980Y019053D01*
X020980Y019150D01*
X020879Y019150D02*
X020831Y019102D01*
X020686Y019102D01*
X020782Y019102D02*
X020879Y019005D01*
X020879Y019150D02*
X020879Y019247D01*
X020831Y019295D01*
X020686Y019295D01*
X020686Y019005D01*
X014295Y024323D02*
X014295Y024420D01*
X014247Y024468D01*
X014247Y024570D02*
X014295Y024618D01*
X014295Y024715D01*
X014247Y024763D01*
X014198Y024763D01*
X014150Y024715D01*
X014150Y024570D01*
X014247Y024570D01*
X014150Y024570D02*
X014053Y024666D01*
X014005Y024763D01*
X014053Y024468D02*
X014005Y024420D01*
X014005Y024323D01*
X014053Y024275D01*
X014247Y024275D01*
X014295Y024323D01*
X028186Y023795D02*
X028186Y023505D01*
X028186Y023602D02*
X028331Y023602D01*
X028379Y023650D01*
X028379Y023747D01*
X028331Y023795D01*
X028186Y023795D01*
X028282Y023602D02*
X028379Y023505D01*
X028480Y023553D02*
X028480Y023602D01*
X028529Y023650D01*
X028625Y023650D01*
X028674Y023602D01*
X028674Y023553D01*
X028625Y023505D01*
X028529Y023505D01*
X028480Y023553D01*
X028529Y023650D02*
X028480Y023698D01*
X028480Y023747D01*
X028529Y023795D01*
X028625Y023795D01*
X028674Y023747D01*
X028674Y023698D01*
X028625Y023650D01*
X032823Y028725D02*
X032775Y028773D01*
X032775Y028967D01*
X032823Y029015D01*
X032920Y029015D01*
X032968Y028967D01*
X033070Y028967D02*
X033118Y029015D01*
X033215Y029015D01*
X033263Y028967D01*
X033263Y028918D01*
X033070Y028725D01*
X033263Y028725D01*
X032968Y028773D02*
X032920Y028725D01*
X032823Y028725D01*
X032823Y029725D02*
X032775Y029773D01*
X032775Y029967D01*
X032823Y030015D01*
X032920Y030015D01*
X032968Y029967D01*
X033070Y029918D02*
X033166Y030015D01*
X033166Y029725D01*
X033070Y029725D02*
X033263Y029725D01*
X032968Y029773D02*
X032920Y029725D01*
X032823Y029725D01*
X034391Y028795D02*
X034536Y028795D01*
X034585Y028747D01*
X034585Y028650D01*
X034536Y028602D01*
X034391Y028602D01*
X034488Y028602D02*
X034585Y028505D01*
X034686Y028505D02*
X034879Y028505D01*
X034782Y028505D02*
X034782Y028795D01*
X034686Y028698D01*
X034980Y028747D02*
X035029Y028795D01*
X035125Y028795D01*
X035174Y028747D01*
X034980Y028553D01*
X035029Y028505D01*
X035125Y028505D01*
X035174Y028553D01*
X035174Y028747D01*
X034980Y028747D02*
X034980Y028553D01*
X034391Y028505D02*
X034391Y028795D01*
X035275Y027515D02*
X035420Y027515D01*
X035468Y027467D01*
X035468Y027370D01*
X035420Y027322D01*
X035275Y027322D01*
X035372Y027322D02*
X035468Y027225D01*
X035570Y027225D02*
X035763Y027225D01*
X035666Y027225D02*
X035666Y027515D01*
X035570Y027418D01*
X035864Y027467D02*
X035913Y027515D01*
X036009Y027515D01*
X036058Y027467D01*
X036058Y027418D01*
X035864Y027225D01*
X036058Y027225D01*
X035275Y027225D02*
X035275Y027515D01*
X031715Y010015D02*
X031570Y009870D01*
X031763Y009870D01*
X031715Y009725D02*
X031715Y010015D01*
X031468Y009967D02*
X031468Y009870D01*
X031420Y009822D01*
X031275Y009822D01*
X031372Y009822D02*
X031468Y009725D01*
X031275Y009725D02*
X031275Y010015D01*
X031420Y010015D01*
X031468Y009967D01*
X029263Y009467D02*
X029263Y009273D01*
X029215Y009225D01*
X029118Y009225D01*
X029070Y009273D01*
X029118Y009370D02*
X029263Y009370D01*
X029263Y009467D02*
X029215Y009515D01*
X029118Y009515D01*
X029070Y009467D01*
X029070Y009418D01*
X029118Y009370D01*
X028968Y009370D02*
X028920Y009322D01*
X028775Y009322D01*
X028872Y009322D02*
X028968Y009225D01*
X028968Y009370D02*
X028968Y009467D01*
X028920Y009515D01*
X028775Y009515D01*
X028775Y009225D01*
X034275Y008015D02*
X034275Y007725D01*
X034275Y007822D02*
X034420Y007822D01*
X034468Y007870D01*
X034468Y007967D01*
X034420Y008015D01*
X034275Y008015D01*
X034372Y007822D02*
X034468Y007725D01*
X034570Y007725D02*
X034763Y007725D01*
X034666Y007725D02*
X034666Y008015D01*
X034570Y007918D01*
X034864Y007967D02*
X034913Y008015D01*
X035009Y008015D01*
X035058Y007967D01*
X035058Y007918D01*
X035009Y007870D01*
X035058Y007822D01*
X035058Y007773D01*
X035009Y007725D01*
X034913Y007725D01*
X034864Y007773D01*
X034961Y007870D02*
X035009Y007870D01*
X035275Y004515D02*
X035420Y004515D01*
X035468Y004467D01*
X035468Y004370D01*
X035420Y004322D01*
X035275Y004322D01*
X035372Y004322D02*
X035468Y004225D01*
X035570Y004225D02*
X035763Y004418D01*
X035763Y004467D01*
X035715Y004515D01*
X035618Y004515D01*
X035570Y004467D01*
X035570Y004225D02*
X035763Y004225D01*
X035275Y004225D02*
X035275Y004515D01*
D15*
X025260Y004460D02*
X025260Y004360D01*
X024260Y004360D01*
X024260Y004460D01*
X024260Y002160D02*
X024260Y002060D01*
X024260Y002160D02*
X025210Y002160D01*
X025210Y002060D01*
X017710Y002160D02*
X017710Y002060D01*
X017710Y002160D02*
X016760Y002160D01*
X016760Y002060D01*
X016760Y004360D02*
X017760Y004360D01*
X017760Y004460D01*
X016760Y004460D02*
X016760Y004360D01*
X005060Y019510D02*
X001460Y019510D01*
X001460Y022760D01*
X005060Y022760D01*
X005060Y019510D01*
D16*
X004260Y019085D03*
X003260Y019085D03*
X002260Y019085D03*
D17*
X002330Y021795D02*
X002540Y021795D01*
X002645Y021900D01*
X002869Y022110D02*
X003290Y022110D01*
X003185Y021795D02*
X003185Y022426D01*
X002869Y022110D01*
X002645Y022320D02*
X002540Y022426D01*
X002330Y022426D01*
X002225Y022320D01*
X002225Y021900D01*
X002330Y021795D01*
X002005Y021795D02*
X001795Y021795D01*
X001900Y021795D02*
X001900Y022426D01*
X001795Y022426D02*
X002005Y022426D01*
D18*
X006270Y016329D02*
X006329Y016270D01*
X006260Y016201D01*
X006201Y016260D01*
X006270Y016329D01*
X006270Y014829D02*
X006329Y014770D01*
X006260Y014701D01*
X006201Y014760D01*
X006270Y014829D01*
X006270Y013329D02*
X006329Y013270D01*
X006260Y013201D01*
X006201Y013260D01*
X006270Y013329D01*
D19*
X006368Y013103D03*
X006368Y014603D03*
X006368Y016103D03*
D20*
X015460Y008400D03*
X015715Y006180D03*
X017950Y005190D03*
X019675Y005565D03*
X019735Y005565D03*
X020140Y006180D03*
X021055Y006465D03*
X022120Y007665D03*
X022540Y007980D03*
X022570Y007980D03*
X022705Y008460D03*
X022735Y008460D03*
X024925Y008475D03*
X025300Y008415D03*
X024970Y007125D03*
X025105Y006180D03*
X026455Y006435D03*
X027535Y007650D03*
X027565Y007650D03*
X027595Y007650D03*
X027625Y007650D03*
X027655Y007650D03*
X027685Y007650D03*
X027715Y007650D03*
X027745Y007650D03*
X027775Y007650D03*
X027805Y007650D03*
X027835Y007650D03*
X027865Y007650D03*
X027895Y007650D03*
X027925Y007650D03*
X027955Y007650D03*
X027985Y007650D03*
X022990Y005295D03*
X022030Y005295D03*
X022000Y005295D03*
X020500Y005295D03*
X020470Y005295D03*
D21*
X020478Y005685D03*
X021618Y005685D03*
X023808Y005355D03*
X018063Y005190D03*
D22*
X018048Y005205D03*
X017898Y006225D03*
D23*
X017440Y005805D03*
X018055Y005220D03*
X018730Y005895D03*
X018745Y005925D03*
X018760Y006900D03*
X018760Y006915D03*
X019630Y006855D03*
X019645Y006825D03*
X019660Y006795D03*
X019615Y007725D03*
X019630Y007770D03*
X019630Y007785D03*
X019645Y007800D03*
X019645Y007815D03*
X020905Y007890D03*
X020920Y007875D03*
X021835Y007695D03*
X021835Y007680D03*
X021835Y006960D03*
X021835Y006945D03*
X021835Y006930D03*
X020995Y006840D03*
X020965Y006780D03*
X020965Y006765D03*
X020950Y006750D03*
X023260Y006900D03*
X023260Y006915D03*
X023275Y006945D03*
X023275Y006960D03*
X023290Y007005D03*
X023305Y007590D03*
X023290Y007650D03*
X023290Y007665D03*
X023275Y007695D03*
X023275Y007710D03*
X023275Y007725D03*
X023260Y007740D03*
X023260Y007755D03*
X024115Y007365D03*
X024115Y007335D03*
X024115Y007305D03*
X024115Y007275D03*
X024115Y007260D03*
X024115Y007230D03*
X024115Y007200D03*
X024130Y007095D03*
X024130Y007080D03*
X024145Y007020D03*
X024145Y007005D03*
X024160Y006960D03*
X024160Y006945D03*
X024175Y006915D03*
X024190Y006885D03*
X025630Y006825D03*
X025645Y006855D03*
X025660Y006885D03*
X025675Y006930D03*
X026575Y006810D03*
X026575Y006795D03*
X026590Y006765D03*
X027670Y006750D03*
X017425Y006825D03*
X017425Y006840D03*
X016540Y006795D03*
X016540Y006780D03*
X016525Y006765D03*
X016525Y006750D03*
X016510Y006735D03*
X016495Y007860D03*
X016480Y007890D03*
X016465Y007905D03*
X015220Y006810D03*
X015205Y006840D03*
X015190Y007740D03*
X015190Y007755D03*
X015205Y007785D03*
X015205Y007800D03*
D24*
X015340Y007980D03*
X016375Y007995D03*
X015340Y006660D03*
X017530Y006675D03*
X018610Y005715D03*
X018055Y005235D03*
X019765Y006660D03*
X020845Y006645D03*
X021895Y006750D03*
X021895Y007875D03*
X020800Y007995D03*
X019765Y007980D03*
X023140Y007935D03*
X023155Y007920D03*
X023125Y006690D03*
X025510Y006690D03*
X026680Y006675D03*
D25*
X027130Y006240D03*
X025450Y006660D03*
X024385Y006660D03*
X022705Y006270D03*
X021940Y006690D03*
X021940Y007935D03*
X023095Y007965D03*
X019825Y006630D03*
X018655Y006690D03*
X017890Y006300D03*
X017575Y005685D03*
X018055Y005250D03*
D26*
X018048Y005265D03*
X021978Y006660D03*
X021978Y007965D03*
D27*
X022743Y008295D03*
X022713Y006330D03*
X027123Y006285D03*
X018048Y005280D03*
D28*
X018048Y005295D03*
X015873Y008355D03*
X022713Y006360D03*
X027123Y006300D03*
D29*
X027738Y006390D03*
X027498Y007650D03*
X025713Y006495D03*
X024948Y005700D03*
X024948Y005295D03*
X023853Y005295D03*
X023778Y005325D03*
X022698Y005850D03*
X021663Y005310D03*
X021543Y005640D03*
X019593Y005295D03*
X017898Y006195D03*
X019998Y008430D03*
X023073Y008385D03*
X015183Y008220D03*
D30*
X015873Y008340D03*
X017883Y006405D03*
X018048Y005310D03*
D31*
X019608Y005310D03*
X022638Y005775D03*
X022998Y005310D03*
X024408Y005580D03*
X024528Y005415D03*
X024948Y005310D03*
D32*
X024843Y005385D03*
X024828Y005415D03*
X024813Y005445D03*
X024813Y005460D03*
X024813Y005550D03*
X024828Y005595D03*
X024633Y005655D03*
X024633Y005670D03*
X024633Y005685D03*
X024648Y005700D03*
X024618Y005625D03*
X024618Y005610D03*
X024618Y005595D03*
X024603Y005550D03*
X024603Y005535D03*
X024243Y005490D03*
X024243Y005475D03*
X024243Y005460D03*
X024228Y005520D03*
X024228Y005535D03*
X024228Y005550D03*
X024213Y005580D03*
X024213Y005595D03*
X024213Y005610D03*
X024198Y005625D03*
X024198Y005640D03*
X024198Y005655D03*
X024183Y005685D03*
X024183Y005700D03*
X024003Y005580D03*
X024003Y005565D03*
X024003Y005550D03*
X024003Y005460D03*
X024003Y005445D03*
X023958Y005355D03*
X023718Y005445D03*
X023718Y005460D03*
X023718Y005475D03*
X023718Y005490D03*
X023718Y005505D03*
X023718Y005520D03*
X023718Y005535D03*
X023718Y005550D03*
X023718Y005565D03*
X023733Y005595D03*
X023343Y005310D03*
X023133Y005445D03*
X023133Y005460D03*
X023133Y005475D03*
X023133Y005535D03*
X023133Y005550D03*
X023133Y005565D03*
X023133Y005580D03*
X022848Y005565D03*
X022848Y005550D03*
X022848Y005535D03*
X022848Y005490D03*
X022848Y005475D03*
X022848Y005460D03*
X022848Y005445D03*
X022863Y005415D03*
X022608Y005415D03*
X022608Y005430D03*
X022608Y005400D03*
X022608Y005370D03*
X022608Y005355D03*
X022608Y005340D03*
X022608Y005310D03*
X022608Y005460D03*
X022608Y005475D03*
X022608Y005490D03*
X022608Y005520D03*
X022608Y005535D03*
X022608Y005550D03*
X022608Y005580D03*
X022608Y005610D03*
X022608Y005625D03*
X022608Y005715D03*
X022608Y005730D03*
X022608Y005745D03*
X022668Y005835D03*
X022128Y005580D03*
X022143Y005550D03*
X022128Y005400D03*
X021903Y005385D03*
X021888Y005415D03*
X021888Y005430D03*
X021873Y005445D03*
X021888Y005580D03*
X021888Y005595D03*
X021903Y005610D03*
X021693Y005595D03*
X021693Y005580D03*
X021693Y005565D03*
X021693Y005550D03*
X021693Y005535D03*
X021693Y005520D03*
X021693Y005505D03*
X021693Y005490D03*
X021693Y005475D03*
X021693Y005460D03*
X021693Y005445D03*
X021693Y005430D03*
X021693Y005415D03*
X021693Y005400D03*
X021693Y005385D03*
X021693Y005370D03*
X021693Y005355D03*
X021693Y005340D03*
X021693Y005325D03*
X021438Y005325D03*
X021438Y005340D03*
X021438Y005355D03*
X021438Y005370D03*
X021438Y005385D03*
X021438Y005400D03*
X021438Y005415D03*
X021438Y005430D03*
X021438Y005445D03*
X021438Y005460D03*
X021438Y005475D03*
X021438Y005490D03*
X021438Y005505D03*
X021438Y005520D03*
X021438Y005535D03*
X021438Y005550D03*
X021438Y005580D03*
X021438Y005670D03*
X021438Y005685D03*
X021438Y005700D03*
X021243Y005700D03*
X021243Y005685D03*
X021243Y005670D03*
X021243Y005655D03*
X021243Y005640D03*
X021243Y005625D03*
X021243Y005610D03*
X021243Y005595D03*
X021243Y005580D03*
X021243Y005565D03*
X021243Y005550D03*
X021243Y005535D03*
X021243Y005520D03*
X021243Y005505D03*
X021243Y005490D03*
X021243Y005475D03*
X021243Y005460D03*
X021243Y005445D03*
X021243Y005430D03*
X021243Y005415D03*
X021243Y005400D03*
X021243Y005385D03*
X021243Y005370D03*
X021243Y005355D03*
X021243Y005340D03*
X021243Y005325D03*
X021243Y005310D03*
X021438Y005310D03*
X021048Y005310D03*
X020598Y005400D03*
X020598Y005535D03*
X020598Y005550D03*
X020598Y005565D03*
X020598Y005580D03*
X020583Y005610D03*
X020358Y005595D03*
X020343Y005580D03*
X020343Y005565D03*
X020343Y005550D03*
X020343Y005460D03*
X020343Y005445D03*
X020343Y005430D03*
X020358Y005400D03*
X019908Y005415D03*
X019908Y005385D03*
X019908Y005355D03*
X019908Y005340D03*
X019908Y005310D03*
X019908Y005445D03*
X019908Y005475D03*
X019908Y005490D03*
X019908Y005520D03*
X019908Y005535D03*
X019908Y005565D03*
X019908Y005670D03*
X019908Y005700D03*
X019908Y005730D03*
X019908Y005760D03*
X019908Y005790D03*
X019908Y005835D03*
X019713Y005415D03*
X019503Y005415D03*
X021243Y005760D03*
X021243Y005790D03*
X021243Y005805D03*
X021243Y005820D03*
X021243Y005835D03*
X024303Y005310D03*
X025068Y005400D03*
X025068Y005580D03*
X025068Y005595D03*
X025278Y005550D03*
X025278Y005535D03*
X025278Y005520D03*
X025278Y005505D03*
X025278Y005490D03*
X025278Y005475D03*
X025278Y005460D03*
X025278Y005445D03*
X025278Y005430D03*
X025278Y005415D03*
X025278Y005400D03*
X025278Y005385D03*
X025278Y005370D03*
X025278Y005355D03*
X025278Y005340D03*
X025278Y005325D03*
X025278Y005310D03*
X025278Y005670D03*
X025278Y005685D03*
X025278Y005700D03*
X025413Y005685D03*
D33*
X025405Y005670D03*
X025285Y005580D03*
X025285Y005565D03*
X025060Y005610D03*
X025045Y005625D03*
X024835Y005610D03*
X024820Y005580D03*
X024820Y005565D03*
X024820Y005475D03*
X024835Y005400D03*
X025060Y005385D03*
X024535Y005340D03*
X024535Y005325D03*
X024535Y005310D03*
X024295Y005325D03*
X024295Y005340D03*
X024220Y005565D03*
X024190Y005670D03*
X023995Y005595D03*
X023980Y005610D03*
X024010Y005535D03*
X024010Y005520D03*
X024010Y005505D03*
X024010Y005490D03*
X024010Y005475D03*
X023995Y005430D03*
X023995Y005415D03*
X023980Y005400D03*
X023740Y005400D03*
X023740Y005415D03*
X023725Y005430D03*
X023725Y005580D03*
X023740Y005610D03*
X023530Y005610D03*
X023530Y005625D03*
X023530Y005640D03*
X023530Y005655D03*
X023530Y005670D03*
X023530Y005685D03*
X023530Y005700D03*
X023530Y005715D03*
X023530Y005730D03*
X023530Y005745D03*
X023530Y005760D03*
X023530Y005775D03*
X023530Y005790D03*
X023530Y005805D03*
X023530Y005820D03*
X023530Y005835D03*
X023335Y005835D03*
X023335Y005820D03*
X023335Y005805D03*
X023335Y005790D03*
X023335Y005775D03*
X023335Y005760D03*
X023335Y005745D03*
X023335Y005730D03*
X023335Y005715D03*
X023335Y005700D03*
X023335Y005685D03*
X023335Y005670D03*
X023335Y005655D03*
X023335Y005640D03*
X023335Y005625D03*
X023335Y005610D03*
X023335Y005595D03*
X023335Y005580D03*
X023335Y005565D03*
X023335Y005550D03*
X023335Y005535D03*
X023335Y005520D03*
X023335Y005505D03*
X023335Y005490D03*
X023335Y005475D03*
X023335Y005460D03*
X023335Y005445D03*
X023335Y005430D03*
X023335Y005415D03*
X023335Y005400D03*
X023335Y005385D03*
X023335Y005370D03*
X023335Y005355D03*
X023335Y005340D03*
X023335Y005325D03*
X023530Y005325D03*
X023530Y005340D03*
X023530Y005355D03*
X023530Y005370D03*
X023530Y005385D03*
X023530Y005400D03*
X023530Y005415D03*
X023530Y005430D03*
X023530Y005445D03*
X023530Y005460D03*
X023530Y005475D03*
X023530Y005490D03*
X023530Y005505D03*
X023530Y005520D03*
X023530Y005535D03*
X023530Y005550D03*
X023530Y005565D03*
X023530Y005580D03*
X023530Y005595D03*
X023530Y005310D03*
X023125Y005415D03*
X023125Y005430D03*
X023110Y005400D03*
X023140Y005490D03*
X023140Y005505D03*
X023140Y005520D03*
X023125Y005595D03*
X023110Y005610D03*
X022870Y005610D03*
X022855Y005595D03*
X022855Y005580D03*
X022840Y005520D03*
X022840Y005505D03*
X022855Y005430D03*
X022870Y005400D03*
X022600Y005385D03*
X022600Y005325D03*
X022600Y005445D03*
X022600Y005505D03*
X022600Y005565D03*
X022600Y005595D03*
X022600Y005640D03*
X022615Y005760D03*
X022660Y005820D03*
X022120Y005610D03*
X022105Y005625D03*
X022135Y005535D03*
X022120Y005385D03*
X021895Y005400D03*
X021880Y005460D03*
X021880Y005475D03*
X021880Y005535D03*
X021880Y005550D03*
X021880Y005565D03*
X021910Y005625D03*
X021685Y005610D03*
X021445Y005610D03*
X021445Y005595D03*
X021445Y005565D03*
X021445Y005655D03*
X021235Y005775D03*
X021040Y005775D03*
X021040Y005790D03*
X021040Y005805D03*
X021040Y005820D03*
X021040Y005835D03*
X021040Y005760D03*
X021040Y005745D03*
X021040Y005730D03*
X021040Y005715D03*
X021040Y005700D03*
X021040Y005685D03*
X021040Y005670D03*
X021040Y005655D03*
X021040Y005640D03*
X021040Y005625D03*
X021040Y005610D03*
X021040Y005595D03*
X021040Y005580D03*
X021040Y005565D03*
X021040Y005550D03*
X021040Y005535D03*
X021040Y005520D03*
X021040Y005505D03*
X021040Y005490D03*
X021040Y005475D03*
X021040Y005460D03*
X021040Y005445D03*
X021040Y005430D03*
X021040Y005415D03*
X021040Y005400D03*
X021040Y005385D03*
X021040Y005370D03*
X021040Y005355D03*
X021040Y005340D03*
X021040Y005325D03*
X020590Y005385D03*
X020575Y005370D03*
X020365Y005385D03*
X020350Y005415D03*
X020350Y005475D03*
X020350Y005535D03*
X020365Y005610D03*
X020380Y005625D03*
X020155Y005595D03*
X020155Y005580D03*
X020155Y005565D03*
X020155Y005550D03*
X020155Y005535D03*
X020155Y005520D03*
X020155Y005505D03*
X020155Y005490D03*
X020155Y005475D03*
X020155Y005460D03*
X020155Y005445D03*
X020155Y005430D03*
X020155Y005415D03*
X020155Y005400D03*
X020155Y005385D03*
X020155Y005370D03*
X020155Y005355D03*
X020155Y005340D03*
X020155Y005325D03*
X020155Y005310D03*
X019900Y005325D03*
X019900Y005370D03*
X019900Y005400D03*
X019900Y005430D03*
X019900Y005460D03*
X019900Y005505D03*
X019900Y005550D03*
X019915Y005580D03*
X019900Y005655D03*
X019900Y005685D03*
X019900Y005715D03*
X019900Y005745D03*
X019900Y005775D03*
X019900Y005805D03*
X019900Y005820D03*
X020140Y005625D03*
X020140Y005610D03*
X019720Y005550D03*
X019720Y005535D03*
X019720Y005520D03*
X019720Y005505D03*
X019720Y005490D03*
X019720Y005475D03*
X019720Y005460D03*
X019720Y005445D03*
X019720Y005430D03*
X019705Y005400D03*
X019510Y005400D03*
X019495Y005430D03*
X019495Y005445D03*
X019495Y005460D03*
X019495Y005475D03*
X019495Y005490D03*
X019495Y005505D03*
X019495Y005520D03*
X019495Y005535D03*
X019495Y005550D03*
X019495Y005565D03*
X019495Y005580D03*
X019495Y005595D03*
X019495Y005610D03*
X019495Y005625D03*
X019495Y005640D03*
X019495Y005715D03*
X019495Y005730D03*
X019495Y005745D03*
X019495Y005760D03*
X019495Y005775D03*
X019495Y005790D03*
X024415Y005685D03*
X024415Y005670D03*
X024415Y005655D03*
D34*
X024415Y005565D03*
X024415Y005550D03*
X024535Y005445D03*
X024535Y005430D03*
X024295Y005430D03*
X024295Y005415D03*
X024295Y005445D03*
X023890Y005325D03*
X023860Y005310D03*
X023860Y005700D03*
X022990Y005700D03*
X022015Y005685D03*
X022015Y005310D03*
X020485Y005310D03*
X020080Y005670D03*
X024955Y005685D03*
X024970Y007155D03*
D35*
X025435Y005715D03*
X022990Y005715D03*
X022015Y005700D03*
X021715Y005310D03*
X021610Y005715D03*
X020485Y005700D03*
X020080Y005700D03*
D36*
X018055Y005325D03*
X020305Y008325D03*
X022720Y006405D03*
D37*
X021618Y005655D03*
X022008Y005325D03*
X020478Y005325D03*
X020478Y005670D03*
X019608Y005325D03*
X023868Y005685D03*
X024948Y005670D03*
X024948Y005325D03*
D38*
X025015Y005535D03*
X025345Y005625D03*
X025345Y005640D03*
X025345Y005655D03*
X024970Y007185D03*
X022990Y005685D03*
X022990Y005325D03*
X022615Y005655D03*
X022615Y005670D03*
X022615Y005685D03*
X022615Y005700D03*
X022015Y005670D03*
D39*
X022743Y008190D03*
X024918Y008325D03*
X018048Y005340D03*
D40*
X019608Y005340D03*
X020478Y005655D03*
X022008Y005655D03*
X022998Y005670D03*
X024948Y005655D03*
D41*
X024955Y005340D03*
X023860Y005340D03*
X023860Y005670D03*
X022990Y005340D03*
X022015Y005340D03*
X020470Y005340D03*
X019615Y005355D03*
X024970Y007200D03*
D42*
X024918Y008310D03*
X020313Y006330D03*
X018048Y005355D03*
X017868Y006495D03*
X015873Y008295D03*
D43*
X019608Y005370D03*
X020478Y005355D03*
X022008Y005355D03*
X022008Y005640D03*
X024948Y005640D03*
X024948Y005355D03*
X024963Y007215D03*
X024963Y007230D03*
D44*
X024970Y007245D03*
X023860Y005655D03*
X022990Y005655D03*
X022990Y005355D03*
X020470Y005640D03*
D45*
X020568Y005625D03*
X020478Y005535D03*
X020388Y005370D03*
X019923Y005610D03*
X019908Y005595D03*
X019698Y005385D03*
X019518Y005385D03*
X021453Y005640D03*
X021663Y005640D03*
X021678Y005625D03*
X022008Y005535D03*
X022098Y005370D03*
X021918Y005370D03*
X022893Y005385D03*
X022878Y005625D03*
X023103Y005625D03*
X023763Y005385D03*
X023973Y005625D03*
X024303Y005355D03*
X024528Y005355D03*
X024408Y005640D03*
X024828Y005535D03*
X024858Y005625D03*
X024858Y005370D03*
X025038Y005370D03*
X025293Y005595D03*
D46*
X024918Y006345D03*
X022743Y008145D03*
X018048Y005370D03*
X015873Y008280D03*
D47*
X017890Y006210D03*
X022735Y008445D03*
X024970Y007275D03*
X023860Y005640D03*
X023860Y005370D03*
X022990Y005370D03*
X022990Y005640D03*
D48*
X023095Y005385D03*
X022645Y005790D03*
X022645Y005805D03*
X021610Y005700D03*
X021460Y005625D03*
X020080Y005685D03*
X019930Y005625D03*
X023755Y005625D03*
X023965Y005385D03*
X024295Y005385D03*
X024295Y005400D03*
X024295Y005370D03*
X024535Y005370D03*
X024535Y005385D03*
X024535Y005400D03*
X024415Y005595D03*
X024415Y005610D03*
X024415Y005625D03*
X025300Y005610D03*
X024970Y007140D03*
D49*
X027123Y006405D03*
X020298Y008265D03*
X018048Y005385D03*
X015873Y008265D03*
D50*
X015880Y006375D03*
X018055Y005400D03*
X020305Y008250D03*
D51*
X020305Y006390D03*
X018055Y005415D03*
X015880Y006390D03*
X027130Y006450D03*
D52*
X024925Y006390D03*
X024925Y008250D03*
X020305Y008220D03*
X020305Y006405D03*
X018055Y005430D03*
X015880Y006405D03*
D53*
X020590Y005595D03*
X022120Y005595D03*
X022135Y005565D03*
X024235Y005505D03*
X024355Y005490D03*
X024355Y005475D03*
X024355Y005460D03*
X024370Y005535D03*
X024460Y005535D03*
X024460Y005520D03*
X024475Y005505D03*
X024475Y005490D03*
X024475Y005475D03*
X024475Y005460D03*
X024580Y005460D03*
X024580Y005475D03*
X024595Y005490D03*
X024595Y005505D03*
X024595Y005520D03*
X024610Y005565D03*
X024610Y005580D03*
X024625Y005640D03*
X024415Y005700D03*
X024820Y005430D03*
X025075Y005550D03*
X025075Y005565D03*
X025420Y005700D03*
D54*
X024925Y006405D03*
X020305Y008205D03*
X018055Y005445D03*
X015880Y006420D03*
X015865Y008205D03*
D55*
X015880Y006435D03*
X018055Y005460D03*
X020305Y006435D03*
X027130Y006525D03*
D56*
X020305Y006450D03*
X020290Y006465D03*
X018055Y005475D03*
X015880Y006450D03*
X015865Y008160D03*
D57*
X015865Y008145D03*
X015880Y006465D03*
X018055Y005490D03*
D58*
X020343Y006180D03*
X020478Y005520D03*
X020478Y005505D03*
X020478Y005490D03*
X022008Y005490D03*
X022008Y005505D03*
X022008Y005520D03*
X024948Y005520D03*
X024948Y005505D03*
X024948Y005490D03*
X015918Y006180D03*
D59*
X018063Y005505D03*
X020298Y008145D03*
X024918Y006450D03*
X027123Y006570D03*
X027123Y006585D03*
D60*
X024363Y005520D03*
X024363Y005505D03*
X023853Y005715D03*
D61*
X024918Y006465D03*
X027123Y006600D03*
X027123Y006615D03*
X020313Y006495D03*
X020298Y008115D03*
X018063Y005520D03*
D62*
X018063Y005535D03*
X020313Y006510D03*
X020298Y008100D03*
X015873Y008100D03*
X015873Y006510D03*
X024918Y006480D03*
X027123Y006645D03*
D63*
X027130Y006660D03*
X024925Y008160D03*
X020305Y006525D03*
X018055Y005550D03*
X015880Y006525D03*
X015865Y008085D03*
D64*
X018063Y005565D03*
X020298Y008085D03*
D65*
X020298Y008055D03*
X018063Y005595D03*
X018063Y005580D03*
X015888Y006555D03*
X024918Y006510D03*
X024918Y008130D03*
D66*
X024918Y008115D03*
X020313Y006570D03*
X018063Y005610D03*
D67*
X018063Y005625D03*
X018063Y005640D03*
D68*
X019608Y005655D03*
X019608Y005670D03*
X019608Y005685D03*
X019608Y005700D03*
X020028Y005640D03*
X024918Y006180D03*
D69*
X024918Y006570D03*
X024918Y008070D03*
X027123Y008070D03*
X027123Y008085D03*
X027123Y008100D03*
X027123Y008130D03*
X027123Y008160D03*
X027123Y008190D03*
X027123Y008220D03*
X027123Y008250D03*
X027123Y008265D03*
X027123Y008295D03*
X027123Y008325D03*
X027123Y008355D03*
X027123Y008370D03*
X027123Y008400D03*
X027123Y008040D03*
X027123Y008010D03*
X020313Y006615D03*
X018063Y005655D03*
D70*
X020080Y005655D03*
X021610Y005670D03*
X024970Y007170D03*
D71*
X027130Y008025D03*
X027130Y008055D03*
X027130Y008115D03*
X027130Y008145D03*
X027130Y008175D03*
X027130Y008205D03*
X027130Y008235D03*
X027130Y008280D03*
X027130Y008310D03*
X027130Y008340D03*
X027130Y008385D03*
X018070Y005670D03*
D72*
X018565Y005685D03*
X018670Y006705D03*
X020320Y006225D03*
X021925Y006705D03*
X021925Y007920D03*
X024925Y006225D03*
X015895Y006225D03*
X015385Y008010D03*
D73*
X015363Y007995D03*
X016413Y006645D03*
X017538Y005700D03*
X018693Y006735D03*
X019788Y007995D03*
X021903Y007890D03*
X021903Y006735D03*
X024333Y006690D03*
X025488Y006675D03*
X027123Y006225D03*
D74*
X024910Y008415D03*
X023125Y007950D03*
X021910Y007905D03*
X020770Y008010D03*
X019795Y006645D03*
X018685Y006720D03*
X018595Y005700D03*
X015385Y006600D03*
X015370Y006645D03*
X015880Y008415D03*
X022705Y006255D03*
X023110Y006675D03*
D75*
X023148Y006705D03*
X022698Y006240D03*
X021888Y006765D03*
X021888Y006780D03*
X020868Y006660D03*
X019758Y006675D03*
X018708Y006750D03*
X017898Y006270D03*
X017523Y005715D03*
X018633Y005730D03*
X016398Y007980D03*
X021888Y007860D03*
X024318Y006705D03*
X025533Y006705D03*
D76*
X024925Y006210D03*
X024295Y006720D03*
X024280Y006735D03*
X023170Y006735D03*
X023155Y006720D03*
X021880Y006795D03*
X021880Y007845D03*
X020830Y007980D03*
X019750Y007965D03*
X018715Y006765D03*
X019735Y006690D03*
X020320Y006210D03*
X018640Y005745D03*
X017500Y005730D03*
X017500Y006690D03*
X016435Y006660D03*
X015895Y006210D03*
X015325Y006675D03*
X015310Y006690D03*
X015325Y007965D03*
X023170Y007905D03*
X023185Y007890D03*
X024925Y008430D03*
X026650Y006690D03*
X027595Y006675D03*
D77*
X026635Y006705D03*
X025570Y006735D03*
X024970Y007305D03*
X024265Y006750D03*
X024250Y006765D03*
X023200Y006780D03*
X023185Y006765D03*
X023215Y007845D03*
X023200Y007875D03*
X022720Y008385D03*
X021865Y007815D03*
X021865Y007800D03*
X020845Y007965D03*
X019720Y007935D03*
X018730Y006810D03*
X019705Y006720D03*
X019720Y006705D03*
X020905Y006690D03*
X021865Y006825D03*
X021865Y006840D03*
X018670Y005775D03*
X017485Y005745D03*
X017470Y006720D03*
X016420Y007965D03*
X015295Y007935D03*
X015280Y007920D03*
X015280Y006720D03*
X015295Y006705D03*
D78*
X015250Y006750D03*
X015250Y006765D03*
X015235Y006780D03*
X015250Y007875D03*
X015265Y007890D03*
X016450Y007935D03*
X017440Y006780D03*
X017455Y006750D03*
X017455Y005775D03*
X017470Y005760D03*
X018700Y005820D03*
X018700Y005835D03*
X018745Y006840D03*
X018745Y006855D03*
X019690Y006750D03*
X019690Y007890D03*
X020335Y008430D03*
X020875Y007935D03*
X021850Y007755D03*
X021850Y007740D03*
X022750Y008400D03*
X023230Y007830D03*
X023230Y007815D03*
X023245Y007800D03*
X023230Y006840D03*
X023230Y006825D03*
X023215Y006810D03*
X024205Y006840D03*
X024220Y006825D03*
X024220Y006810D03*
X025600Y006780D03*
X026605Y006735D03*
X021850Y006870D03*
X021850Y006885D03*
D79*
X021873Y006810D03*
X020883Y006675D03*
X021873Y007830D03*
X023178Y006750D03*
X025548Y006720D03*
X027618Y006690D03*
X019743Y007950D03*
X018723Y006795D03*
X018723Y006780D03*
X017493Y006705D03*
X016458Y006675D03*
X015303Y007950D03*
X015888Y008430D03*
X018663Y005760D03*
D80*
X018708Y005850D03*
X018723Y005865D03*
X018723Y005880D03*
X018753Y006870D03*
X018753Y006885D03*
X019653Y006810D03*
X019668Y006780D03*
X019683Y006765D03*
X019653Y007830D03*
X019668Y007845D03*
X019668Y007860D03*
X019683Y007875D03*
X020883Y007920D03*
X020898Y007905D03*
X021843Y007725D03*
X021843Y007710D03*
X021843Y006915D03*
X021843Y006900D03*
X020943Y006735D03*
X020928Y006720D03*
X022698Y006225D03*
X023238Y006855D03*
X023253Y006870D03*
X023253Y006885D03*
X024183Y006900D03*
X024198Y006870D03*
X024198Y006855D03*
X023253Y007770D03*
X023253Y007785D03*
X025608Y006795D03*
X025623Y006810D03*
X025638Y006840D03*
X025653Y006870D03*
X026583Y006780D03*
X026598Y006750D03*
X027648Y006720D03*
X027663Y006735D03*
X017448Y006765D03*
X017433Y006795D03*
X017433Y006810D03*
X016503Y006720D03*
X017448Y005790D03*
X015228Y006795D03*
X015213Y006825D03*
X015213Y007815D03*
X015228Y007830D03*
X015228Y007845D03*
X015243Y007860D03*
X016458Y007920D03*
D81*
X016428Y007950D03*
X015273Y007905D03*
X015273Y006735D03*
X016473Y006690D03*
X016488Y006705D03*
X017463Y006735D03*
X017898Y006255D03*
X018678Y005790D03*
X018693Y005805D03*
X018738Y006825D03*
X019698Y006735D03*
X019698Y007905D03*
X019713Y007920D03*
X020868Y007950D03*
X021858Y007785D03*
X021858Y007770D03*
X021858Y006855D03*
X020913Y006705D03*
X023208Y006795D03*
X024228Y006795D03*
X024243Y006780D03*
X025578Y006750D03*
X025593Y006765D03*
X026613Y006720D03*
X027123Y006210D03*
X027633Y006705D03*
X023208Y007860D03*
D82*
X023283Y007680D03*
X023298Y007635D03*
X023298Y007620D03*
X023298Y007605D03*
X023313Y007575D03*
X023313Y007560D03*
X023313Y007545D03*
X023313Y007530D03*
X023313Y007515D03*
X023313Y007500D03*
X023328Y007440D03*
X023328Y007410D03*
X023328Y007395D03*
X023328Y007380D03*
X023328Y007365D03*
X023328Y007350D03*
X023328Y007335D03*
X023328Y007320D03*
X023328Y007305D03*
X023328Y007290D03*
X023328Y007275D03*
X023328Y007245D03*
X023313Y007125D03*
X023313Y007110D03*
X023313Y007095D03*
X023298Y007065D03*
X023298Y007050D03*
X023298Y007035D03*
X023298Y007020D03*
X023283Y006990D03*
X023283Y006975D03*
X023268Y006930D03*
X024123Y007110D03*
X024123Y007125D03*
X024123Y007140D03*
X024123Y007155D03*
X024123Y007170D03*
X024123Y007185D03*
X024123Y007215D03*
X024108Y007245D03*
X024108Y007290D03*
X024108Y007320D03*
X024108Y007350D03*
X024108Y007380D03*
X024138Y007065D03*
X024138Y007050D03*
X024138Y007035D03*
X024153Y006990D03*
X024153Y006975D03*
X024168Y006930D03*
X025668Y006915D03*
X025668Y006900D03*
X025683Y006945D03*
X025683Y006960D03*
X025698Y006975D03*
X025698Y006990D03*
X025698Y007005D03*
X025713Y007065D03*
X025728Y007350D03*
X026553Y006885D03*
X026553Y006870D03*
X026553Y006855D03*
X026568Y006840D03*
X026568Y006825D03*
X027678Y006765D03*
X027693Y006780D03*
X027693Y006795D03*
X021828Y006975D03*
X021828Y006990D03*
X021828Y007620D03*
X021828Y007635D03*
X021828Y007650D03*
X020958Y007800D03*
X020943Y007830D03*
X020943Y007845D03*
X020928Y007860D03*
X020988Y006825D03*
X020988Y006810D03*
X020973Y006795D03*
X020328Y006195D03*
X019638Y006840D03*
X019623Y006870D03*
X019623Y006885D03*
X019623Y006900D03*
X019608Y006915D03*
X019608Y006930D03*
X019578Y007530D03*
X019578Y007545D03*
X019578Y007560D03*
X019578Y007575D03*
X019578Y007590D03*
X019593Y007605D03*
X019593Y007620D03*
X019593Y007635D03*
X019593Y007650D03*
X019593Y007665D03*
X019608Y007680D03*
X019608Y007695D03*
X019608Y007710D03*
X019623Y007740D03*
X019623Y007755D03*
X018768Y007005D03*
X018768Y006990D03*
X018768Y006975D03*
X018768Y006960D03*
X018768Y006945D03*
X018768Y006930D03*
X018768Y006495D03*
X018768Y006075D03*
X018768Y006060D03*
X018768Y006030D03*
X018753Y005985D03*
X018753Y005970D03*
X018753Y005955D03*
X018738Y005940D03*
X018738Y005910D03*
X017433Y005820D03*
X017418Y006855D03*
X017418Y006870D03*
X017403Y006885D03*
X017403Y006900D03*
X017403Y006915D03*
X017403Y006930D03*
X017403Y006945D03*
X017403Y006960D03*
X016563Y006840D03*
X016548Y006825D03*
X016548Y006810D03*
X016518Y007815D03*
X016503Y007845D03*
X016488Y007875D03*
X015198Y007770D03*
X015183Y007725D03*
X015183Y007710D03*
X015168Y007680D03*
X015168Y007665D03*
X015168Y007650D03*
X015153Y007620D03*
X015153Y007605D03*
X015153Y007590D03*
X015153Y007575D03*
X015183Y006915D03*
X015183Y006900D03*
X015183Y006885D03*
X015198Y006870D03*
X015198Y006855D03*
D83*
X015175Y006930D03*
X015175Y006945D03*
X015160Y006960D03*
X015160Y006975D03*
X015160Y006990D03*
X015160Y007005D03*
X015160Y007020D03*
X015145Y007050D03*
X015145Y007065D03*
X015145Y007080D03*
X015145Y007095D03*
X015145Y007125D03*
X015145Y007530D03*
X015145Y007545D03*
X015145Y007560D03*
X015160Y007635D03*
X015175Y007695D03*
X016510Y007830D03*
X016525Y007800D03*
X016525Y007785D03*
X016540Y007755D03*
X016555Y007710D03*
X016585Y007560D03*
X016585Y007545D03*
X016570Y006855D03*
X017395Y006975D03*
X017395Y006990D03*
X017395Y007005D03*
X017395Y007020D03*
X017395Y007035D03*
X017395Y007050D03*
X017395Y007065D03*
X017395Y007080D03*
X017395Y007095D03*
X017395Y007110D03*
X017395Y007125D03*
X017395Y007140D03*
X017395Y007155D03*
X017395Y007170D03*
X017395Y007185D03*
X017395Y007200D03*
X017395Y007215D03*
X017395Y007230D03*
X017395Y007245D03*
X017395Y007260D03*
X017395Y007275D03*
X017395Y007290D03*
X017395Y007305D03*
X017395Y007320D03*
X017395Y007335D03*
X017395Y007350D03*
X017395Y007365D03*
X017395Y007380D03*
X017395Y007395D03*
X017395Y007410D03*
X017395Y007425D03*
X017395Y007440D03*
X017395Y007455D03*
X017395Y007470D03*
X017395Y007485D03*
X017395Y007500D03*
X017395Y007515D03*
X017395Y007530D03*
X017395Y007545D03*
X017395Y007560D03*
X017395Y007575D03*
X017395Y007590D03*
X017395Y007605D03*
X017395Y007620D03*
X017395Y007635D03*
X017395Y007650D03*
X017395Y007665D03*
X017395Y007680D03*
X017395Y007695D03*
X017395Y007710D03*
X017395Y007725D03*
X017395Y007740D03*
X017395Y007755D03*
X017395Y007770D03*
X017395Y007785D03*
X017395Y007800D03*
X017395Y007815D03*
X017395Y007830D03*
X017395Y007845D03*
X017395Y007860D03*
X017395Y007875D03*
X017395Y007890D03*
X017395Y007905D03*
X017395Y007920D03*
X017395Y007935D03*
X017395Y007950D03*
X017395Y007965D03*
X017395Y007980D03*
X017395Y007995D03*
X017395Y008010D03*
X017395Y008025D03*
X017395Y008040D03*
X017395Y008055D03*
X017395Y008070D03*
X017395Y008085D03*
X017395Y008100D03*
X017395Y008115D03*
X017395Y008130D03*
X017395Y008145D03*
X017395Y008160D03*
X017395Y008175D03*
X017395Y008190D03*
X017395Y008205D03*
X017395Y008220D03*
X017395Y008235D03*
X017395Y008250D03*
X017395Y008265D03*
X017395Y008280D03*
X017395Y008295D03*
X017395Y008310D03*
X017395Y008325D03*
X017395Y008340D03*
X017395Y008355D03*
X017395Y008370D03*
X017395Y008385D03*
X017395Y008400D03*
X018775Y008400D03*
X018775Y008385D03*
X018775Y008370D03*
X018775Y008355D03*
X018775Y008340D03*
X018775Y008325D03*
X018775Y008310D03*
X018775Y008295D03*
X018775Y008280D03*
X018775Y008265D03*
X018775Y008250D03*
X018775Y008235D03*
X018775Y008220D03*
X018775Y008205D03*
X018775Y008190D03*
X018775Y008175D03*
X018775Y008160D03*
X018775Y008145D03*
X018775Y008130D03*
X018775Y008115D03*
X018775Y008100D03*
X018775Y008085D03*
X018775Y008070D03*
X018775Y008055D03*
X018775Y008040D03*
X018775Y008025D03*
X018775Y008010D03*
X018775Y007995D03*
X018775Y007980D03*
X018775Y007965D03*
X018775Y007950D03*
X018775Y007935D03*
X018775Y007920D03*
X018775Y007905D03*
X018775Y007890D03*
X018775Y007875D03*
X018775Y007860D03*
X018775Y007845D03*
X018775Y007830D03*
X018775Y007815D03*
X018775Y007800D03*
X018775Y007785D03*
X018775Y007770D03*
X018775Y007755D03*
X018775Y007740D03*
X018775Y007725D03*
X018775Y007710D03*
X018775Y007695D03*
X018775Y007680D03*
X018775Y007665D03*
X018775Y007650D03*
X018775Y007635D03*
X018775Y007620D03*
X018775Y007605D03*
X018775Y007590D03*
X018775Y007575D03*
X018775Y007560D03*
X018775Y007545D03*
X018775Y007530D03*
X018775Y007515D03*
X018775Y007500D03*
X018775Y007485D03*
X018775Y007470D03*
X018775Y007455D03*
X018775Y007440D03*
X018775Y007425D03*
X018775Y007410D03*
X018775Y007395D03*
X018775Y007380D03*
X018775Y007365D03*
X018775Y007350D03*
X018775Y007335D03*
X018775Y007320D03*
X018775Y007305D03*
X018775Y007290D03*
X018775Y007275D03*
X018775Y007260D03*
X018775Y007245D03*
X018775Y007230D03*
X018775Y007215D03*
X018775Y007200D03*
X018775Y007185D03*
X018775Y007170D03*
X018775Y007155D03*
X018775Y007140D03*
X018775Y007125D03*
X018775Y007110D03*
X018775Y007095D03*
X018775Y007080D03*
X018775Y007065D03*
X018775Y007050D03*
X018775Y007035D03*
X018775Y007020D03*
X018775Y006480D03*
X018775Y006465D03*
X018775Y006450D03*
X018775Y006435D03*
X018775Y006420D03*
X018775Y006405D03*
X018775Y006390D03*
X018775Y006375D03*
X018775Y006360D03*
X018775Y006345D03*
X018775Y006330D03*
X018775Y006315D03*
X018775Y006300D03*
X018775Y006285D03*
X018775Y006270D03*
X018775Y006255D03*
X018775Y006240D03*
X018775Y006225D03*
X018775Y006210D03*
X018775Y006195D03*
X018775Y006180D03*
X018775Y006165D03*
X018775Y006150D03*
X018775Y006135D03*
X018775Y006120D03*
X018775Y006105D03*
X018775Y006090D03*
X018760Y006045D03*
X018760Y006015D03*
X018760Y006000D03*
X019600Y006945D03*
X019600Y006960D03*
X019600Y006975D03*
X019585Y006990D03*
X019585Y007005D03*
X019585Y007020D03*
X019585Y007035D03*
X019585Y007050D03*
X019570Y007080D03*
X019570Y007095D03*
X019570Y007110D03*
X019570Y007125D03*
X019570Y007140D03*
X019570Y007155D03*
X020995Y006855D03*
X021010Y007530D03*
X020980Y007740D03*
X020965Y007770D03*
X020965Y007785D03*
X020950Y007815D03*
X021820Y007665D03*
X021820Y007605D03*
X021820Y007590D03*
X021820Y007575D03*
X021820Y007560D03*
X021820Y007035D03*
X021820Y007020D03*
X021820Y007005D03*
X022690Y006210D03*
X023305Y007080D03*
X023320Y007140D03*
X023320Y007155D03*
X023320Y007170D03*
X023320Y007185D03*
X023320Y007200D03*
X023320Y007215D03*
X023320Y007230D03*
X023320Y007260D03*
X023320Y007425D03*
X023320Y007455D03*
X023320Y007470D03*
X023320Y007485D03*
X024925Y008445D03*
X025735Y007335D03*
X025735Y007320D03*
X025735Y007305D03*
X025735Y007290D03*
X025735Y007275D03*
X025735Y007260D03*
X025735Y007245D03*
X025735Y007230D03*
X025735Y007215D03*
X025735Y007200D03*
X025720Y007185D03*
X025720Y007170D03*
X025720Y007155D03*
X025720Y007140D03*
X025720Y007125D03*
X025720Y007110D03*
X025720Y007095D03*
X025720Y007080D03*
X025705Y007050D03*
X025705Y007035D03*
X025705Y007020D03*
X026530Y007020D03*
X026530Y007035D03*
X026530Y007050D03*
X026530Y007065D03*
X026530Y007080D03*
X026530Y007095D03*
X026530Y007110D03*
X026530Y007125D03*
X026530Y007140D03*
X026530Y007155D03*
X026530Y007170D03*
X026530Y007185D03*
X026530Y007200D03*
X026530Y007215D03*
X026530Y007230D03*
X026530Y007245D03*
X026530Y007260D03*
X026530Y007275D03*
X026530Y007290D03*
X026530Y007305D03*
X026530Y007320D03*
X026530Y007335D03*
X026530Y007350D03*
X026530Y007365D03*
X026530Y007380D03*
X026530Y007395D03*
X026530Y007410D03*
X026530Y007425D03*
X026530Y007440D03*
X026530Y007455D03*
X026530Y007470D03*
X026530Y007485D03*
X026530Y007500D03*
X026530Y007515D03*
X026530Y007530D03*
X026530Y007545D03*
X026530Y007560D03*
X026530Y007575D03*
X026530Y007590D03*
X026530Y007605D03*
X026530Y007620D03*
X026530Y007635D03*
X026530Y007650D03*
X026530Y007665D03*
X026530Y007680D03*
X026530Y007695D03*
X026530Y007710D03*
X026530Y007725D03*
X026530Y007740D03*
X026530Y007755D03*
X026530Y007770D03*
X026530Y007785D03*
X026530Y007800D03*
X026530Y007815D03*
X026530Y007830D03*
X026530Y007845D03*
X026530Y007860D03*
X026530Y007875D03*
X026530Y007890D03*
X026530Y007905D03*
X026530Y007920D03*
X026530Y007935D03*
X026530Y007950D03*
X026530Y007965D03*
X026530Y007980D03*
X026530Y007995D03*
X026530Y008415D03*
X026530Y008430D03*
X026530Y008445D03*
X026530Y008460D03*
X026530Y008475D03*
X026530Y008490D03*
X026530Y008505D03*
X026530Y008520D03*
X026530Y008535D03*
X026530Y008550D03*
X026530Y008565D03*
X026530Y008580D03*
X026530Y008595D03*
X026530Y008610D03*
X026530Y008625D03*
X026530Y008640D03*
X026530Y008655D03*
X026530Y008670D03*
X026530Y008685D03*
X026530Y008700D03*
X026530Y008715D03*
X026530Y008730D03*
X026530Y008745D03*
X026530Y008760D03*
X026530Y008775D03*
X026530Y008790D03*
X026530Y008805D03*
X026530Y008820D03*
X026530Y008835D03*
X026530Y008850D03*
X026530Y008865D03*
X026530Y008880D03*
X026530Y008895D03*
X026530Y008910D03*
X026530Y008925D03*
X026530Y008940D03*
X026530Y008955D03*
X026530Y008970D03*
X026530Y008985D03*
X026530Y009000D03*
X026530Y007005D03*
X026530Y006990D03*
X026530Y006975D03*
X026545Y006945D03*
X026545Y006930D03*
X026545Y006915D03*
X026545Y006900D03*
X027700Y006810D03*
X024925Y006195D03*
X017425Y005850D03*
X017425Y005835D03*
X017410Y005865D03*
X017410Y005880D03*
X015895Y006195D03*
D84*
X015153Y007035D03*
X015138Y007110D03*
X015138Y007140D03*
X015138Y007155D03*
X015888Y008445D03*
X016533Y007770D03*
X016548Y007740D03*
X016548Y007725D03*
X016563Y007695D03*
X016563Y007680D03*
X016563Y007665D03*
X016563Y007650D03*
X016578Y007635D03*
X016578Y007620D03*
X016578Y007605D03*
X016578Y007590D03*
X016578Y007575D03*
X016593Y007530D03*
X017898Y006240D03*
X017388Y005970D03*
X017403Y005910D03*
X017403Y005895D03*
X019578Y007065D03*
X021018Y007545D03*
X021018Y007560D03*
X021018Y007575D03*
X021018Y007590D03*
X021003Y007605D03*
X021003Y007620D03*
X021003Y007635D03*
X021003Y007650D03*
X021003Y007665D03*
X020988Y007680D03*
X020988Y007695D03*
X020988Y007710D03*
X020988Y007725D03*
X020973Y007755D03*
X021813Y007545D03*
X021813Y007530D03*
X021813Y007515D03*
X021813Y007500D03*
X021813Y007485D03*
X021813Y007110D03*
X021813Y007095D03*
X021813Y007080D03*
X021813Y007065D03*
X021813Y007050D03*
X021813Y006480D03*
X021813Y006450D03*
X021813Y006435D03*
X021813Y006405D03*
X021813Y008130D03*
X021813Y008145D03*
X021813Y008160D03*
X021813Y008175D03*
X021813Y008190D03*
X021813Y008205D03*
X021813Y008220D03*
X021813Y008235D03*
X021813Y008250D03*
X021813Y008265D03*
X021813Y008280D03*
X021813Y008295D03*
X021813Y008310D03*
X021813Y008325D03*
X021813Y008340D03*
X021813Y008355D03*
X021813Y008370D03*
X021813Y008385D03*
X021813Y008400D03*
X021813Y008415D03*
X021813Y008430D03*
X021813Y008445D03*
X021813Y008460D03*
X021813Y008475D03*
X021813Y008490D03*
X021813Y008505D03*
X021813Y008520D03*
X021813Y008535D03*
X021813Y008550D03*
X021813Y008565D03*
X021813Y008580D03*
X021813Y008595D03*
X021813Y008610D03*
X021813Y008625D03*
X021813Y008640D03*
X021813Y008655D03*
X021813Y008670D03*
X021813Y008685D03*
X021813Y008700D03*
X021813Y008715D03*
X021813Y008730D03*
X021813Y008745D03*
X021813Y008760D03*
X021813Y008775D03*
X021813Y008790D03*
X021813Y008805D03*
X021813Y008820D03*
X021813Y008835D03*
X021813Y008850D03*
X021813Y008865D03*
X021813Y008880D03*
X021813Y008895D03*
X021813Y008910D03*
X021813Y008925D03*
X021813Y008940D03*
X021813Y008955D03*
X021813Y008970D03*
X021813Y008985D03*
X021813Y009000D03*
X021813Y009015D03*
X021813Y009030D03*
X021813Y009045D03*
X021813Y009060D03*
X021813Y009075D03*
X021813Y009090D03*
X021813Y009105D03*
X021813Y009120D03*
X021813Y009135D03*
X021813Y009150D03*
X021813Y009165D03*
X021813Y009180D03*
X021813Y009195D03*
X021813Y009210D03*
X022743Y008415D03*
X020313Y008445D03*
X026538Y006960D03*
X027708Y006855D03*
X027708Y006840D03*
X027708Y006825D03*
X027723Y006870D03*
X027723Y006885D03*
X027723Y006900D03*
D85*
X027730Y006915D03*
X027730Y006930D03*
X027730Y006945D03*
X027730Y006960D03*
X027730Y006975D03*
X027745Y007035D03*
X027745Y007065D03*
X027745Y007095D03*
X027745Y007125D03*
X027745Y007155D03*
X027745Y007185D03*
X027745Y007215D03*
X027745Y007245D03*
X027745Y007275D03*
X027745Y007305D03*
X027745Y007335D03*
X027745Y007365D03*
X027745Y007395D03*
X027745Y007425D03*
X027745Y007455D03*
X027745Y007485D03*
X027745Y007515D03*
X027745Y007545D03*
X027745Y007575D03*
X027745Y007605D03*
X027745Y007635D03*
X021805Y007470D03*
X021805Y007455D03*
X021805Y007440D03*
X021805Y007425D03*
X021805Y007410D03*
X021805Y007395D03*
X021805Y007380D03*
X021805Y007365D03*
X021805Y007350D03*
X021805Y007335D03*
X021805Y007320D03*
X021805Y007305D03*
X021805Y007290D03*
X021805Y007275D03*
X021805Y007260D03*
X021805Y007245D03*
X021805Y007230D03*
X021805Y007215D03*
X021805Y007200D03*
X021805Y007185D03*
X021805Y007170D03*
X021805Y007155D03*
X021805Y007140D03*
X021805Y007125D03*
X021805Y006465D03*
X021805Y006420D03*
X021805Y006390D03*
X021805Y006375D03*
X021805Y006360D03*
X021805Y006345D03*
X021805Y006330D03*
X021805Y006315D03*
X021805Y006300D03*
X021805Y006285D03*
X021805Y006270D03*
X021805Y006255D03*
X021805Y006240D03*
X021805Y006225D03*
X017395Y005955D03*
X017395Y005940D03*
X017395Y005925D03*
X017380Y005985D03*
X017380Y006000D03*
X017380Y006015D03*
X017380Y006030D03*
X017380Y006045D03*
X017380Y006060D03*
X017380Y006075D03*
D86*
X022683Y006180D03*
X024963Y007260D03*
D87*
X027130Y006180D03*
D88*
X022690Y006195D03*
X022735Y008430D03*
D89*
X027123Y006195D03*
X027738Y006990D03*
X027738Y007005D03*
X027738Y007020D03*
X027738Y007050D03*
X027738Y007080D03*
X027738Y007110D03*
X027738Y007140D03*
X027738Y007170D03*
X027738Y007200D03*
X027738Y007230D03*
X027738Y007260D03*
X027738Y007290D03*
X027738Y007320D03*
X027738Y007350D03*
X027738Y007380D03*
X027738Y007410D03*
X027738Y007440D03*
X027738Y007470D03*
X027738Y007500D03*
X027738Y007530D03*
X027738Y007560D03*
X027738Y007590D03*
X027738Y007620D03*
D90*
X027130Y006255D03*
X024970Y007335D03*
X024925Y008400D03*
X020320Y006240D03*
X017890Y006315D03*
X015880Y006240D03*
D91*
X022743Y008340D03*
X024918Y006240D03*
D92*
X027115Y006270D03*
X022705Y006315D03*
X022000Y006645D03*
X015895Y006255D03*
D93*
X020313Y006255D03*
X022743Y008310D03*
X024918Y008385D03*
X024963Y007350D03*
X024918Y006255D03*
D94*
X024918Y006270D03*
X022713Y006345D03*
X020313Y006270D03*
X015888Y006270D03*
D95*
X015888Y006285D03*
X017883Y006390D03*
X020313Y006285D03*
X022743Y008265D03*
X024918Y006285D03*
X027123Y006315D03*
D96*
X024363Y006675D03*
X023088Y006660D03*
X021918Y006720D03*
X020808Y006630D03*
X019818Y008010D03*
X020313Y008415D03*
X022743Y008370D03*
X017898Y006285D03*
X017553Y006660D03*
X016383Y006630D03*
X016338Y008010D03*
D97*
X018640Y006675D03*
X020305Y008400D03*
X021955Y007950D03*
X021955Y006675D03*
X022705Y006285D03*
D98*
X022720Y006390D03*
X022750Y008235D03*
X015880Y006300D03*
D99*
X017883Y006420D03*
X017883Y006435D03*
X015873Y008325D03*
X020313Y006300D03*
X024918Y006300D03*
X027123Y006330D03*
X024918Y008340D03*
D100*
X023035Y007980D03*
X022705Y006300D03*
X020305Y008385D03*
X018610Y006660D03*
X017890Y006330D03*
D101*
X017875Y006465D03*
X015880Y006315D03*
X015880Y008310D03*
X020305Y008310D03*
X022750Y008205D03*
X022720Y006420D03*
X024925Y006315D03*
D102*
X027123Y006345D03*
X022743Y008220D03*
X020313Y006315D03*
X017883Y006450D03*
D103*
X017875Y006480D03*
X015880Y006330D03*
X022720Y006435D03*
X027130Y006360D03*
D104*
X027130Y006375D03*
X027100Y006390D03*
X024925Y006330D03*
X022720Y006450D03*
X022750Y008175D03*
X020305Y008295D03*
D105*
X020305Y008280D03*
X020305Y006345D03*
X022720Y006480D03*
X015880Y006345D03*
D106*
X017890Y006345D03*
X015880Y008370D03*
X020305Y008370D03*
D107*
X022750Y008130D03*
X024925Y008295D03*
X020305Y006360D03*
X015880Y006360D03*
D108*
X016255Y006600D03*
X017890Y006360D03*
X022030Y007980D03*
X024925Y008370D03*
D109*
X027123Y006420D03*
X024918Y006360D03*
X020313Y006375D03*
X015873Y008250D03*
D110*
X017890Y006375D03*
X020305Y008355D03*
X022750Y008280D03*
D111*
X022750Y008250D03*
X022720Y006375D03*
X024925Y008355D03*
X020305Y008340D03*
D112*
X020298Y008235D03*
X015888Y008220D03*
X015873Y008235D03*
X024918Y008265D03*
X024918Y006375D03*
D113*
X027123Y006495D03*
X027123Y006510D03*
X024918Y008235D03*
X020298Y008190D03*
X020313Y006420D03*
X015873Y008190D03*
D114*
X015873Y008175D03*
X020298Y008175D03*
X024918Y008220D03*
X024918Y006420D03*
D115*
X024918Y006435D03*
X024918Y008205D03*
X027123Y006555D03*
X027123Y006540D03*
X020298Y008160D03*
D116*
X024925Y008280D03*
X027130Y006435D03*
D117*
X022728Y006465D03*
X022743Y008160D03*
D118*
X027123Y006465D03*
D119*
X025240Y007365D03*
X024925Y008190D03*
X020305Y008130D03*
X020305Y006480D03*
X015880Y006480D03*
X015865Y008130D03*
D120*
X027123Y006480D03*
D121*
X027130Y006630D03*
X025225Y007380D03*
X024925Y008175D03*
X024895Y006495D03*
X015880Y006495D03*
X015865Y008115D03*
D122*
X018145Y006555D03*
X018145Y006540D03*
X022450Y006495D03*
D123*
X024918Y006615D03*
X024918Y008025D03*
X018153Y006525D03*
X018153Y006510D03*
D124*
X018138Y006570D03*
X022458Y006510D03*
X024918Y006630D03*
X024918Y008010D03*
D125*
X024925Y007995D03*
X024925Y006645D03*
X022465Y006540D03*
X022465Y006525D03*
X022465Y008115D03*
X018130Y006600D03*
X018130Y006585D03*
D126*
X020305Y006555D03*
X020290Y008040D03*
X015865Y008040D03*
X015865Y008055D03*
X024925Y006525D03*
D127*
X024925Y008145D03*
X020290Y008070D03*
X020305Y006540D03*
X015880Y006540D03*
X015865Y008070D03*
D128*
X015865Y008025D03*
X015880Y006585D03*
X015880Y006570D03*
X020305Y006585D03*
X020290Y008025D03*
X024925Y008100D03*
X024925Y006555D03*
X024925Y006540D03*
D129*
X024918Y007980D03*
X022473Y008100D03*
X022473Y006555D03*
X018123Y006615D03*
X018123Y006630D03*
D130*
X018115Y006645D03*
X022480Y006570D03*
X022480Y008085D03*
D131*
X022488Y008070D03*
X022488Y008055D03*
X022488Y006600D03*
X022488Y006585D03*
X024918Y007950D03*
X024918Y007965D03*
D132*
X024918Y008055D03*
X024918Y006585D03*
D133*
X024925Y008085D03*
X020305Y006600D03*
X015880Y006615D03*
D134*
X024925Y006600D03*
X024925Y008040D03*
D135*
X022495Y008040D03*
X022495Y006630D03*
X022495Y006615D03*
D136*
X022743Y008355D03*
X024963Y007320D03*
X015393Y006630D03*
D137*
X015888Y008400D03*
X023058Y006645D03*
D138*
X020305Y007170D03*
X020305Y007185D03*
X020305Y007200D03*
X020305Y007215D03*
X020305Y007230D03*
X020305Y007245D03*
X020305Y007275D03*
X020290Y007320D03*
X020290Y007350D03*
X020290Y007365D03*
X020290Y007380D03*
X020290Y007395D03*
X020290Y007410D03*
X020290Y007440D03*
X015880Y007200D03*
X015880Y007170D03*
X015865Y007245D03*
X015865Y007275D03*
X015865Y007290D03*
X015865Y007305D03*
X015865Y007320D03*
X015865Y007335D03*
X015865Y007350D03*
X015865Y007365D03*
X015865Y007380D03*
X015865Y007395D03*
X015865Y007410D03*
X015865Y007425D03*
X015865Y007440D03*
X015865Y007455D03*
D139*
X015873Y007260D03*
X015873Y007230D03*
X015873Y007215D03*
X015873Y007185D03*
X020298Y007260D03*
X020298Y007290D03*
X020298Y007305D03*
X020298Y007335D03*
X024918Y007785D03*
X024918Y007800D03*
X024918Y007815D03*
D140*
X024970Y007290D03*
D141*
X024918Y007395D03*
X024918Y007410D03*
X024918Y007425D03*
D142*
X024918Y007830D03*
X024918Y007845D03*
X020298Y007485D03*
X020298Y007470D03*
X020298Y007455D03*
X020298Y007425D03*
X015858Y007470D03*
X015858Y007485D03*
D143*
X024925Y007470D03*
X024925Y007440D03*
D144*
X024918Y007455D03*
X024918Y007485D03*
X024918Y007500D03*
X024918Y007515D03*
X024918Y007530D03*
X024918Y007545D03*
X024918Y007560D03*
D145*
X020290Y007515D03*
X020290Y007500D03*
X015865Y007500D03*
X015865Y007515D03*
D146*
X024925Y007575D03*
X024925Y007590D03*
D147*
X024918Y007605D03*
X024918Y007620D03*
X024918Y007635D03*
D148*
X024925Y007650D03*
X024925Y007665D03*
X024925Y007680D03*
D149*
X024918Y007695D03*
D150*
X024925Y007710D03*
X024925Y007725D03*
D151*
X024918Y007740D03*
X024918Y007755D03*
D152*
X024925Y007770D03*
D153*
X024918Y007860D03*
X024918Y007875D03*
D154*
X024925Y007890D03*
D155*
X024918Y007905D03*
D156*
X024918Y007920D03*
X024918Y007935D03*
X022503Y008010D03*
X022503Y008025D03*
D157*
X022510Y007995D03*
D158*
X022743Y008325D03*
X015888Y008385D03*
D159*
X015888Y008460D03*
D160*
X020320Y008460D03*
D161*
X024925Y008460D03*
D162*
X008660Y013290D02*
X008560Y013290D01*
X008635Y013365D01*
X008635Y013215D01*
X008512Y013215D02*
X008412Y013215D01*
X008365Y013215D02*
X008315Y013265D01*
X008340Y013265D02*
X008265Y013265D01*
X008265Y013215D02*
X008265Y013365D01*
X008340Y013365D01*
X008365Y013340D01*
X008365Y013290D01*
X008340Y013265D01*
X008412Y013315D02*
X008462Y013365D01*
X008462Y013215D01*
X008462Y014715D02*
X008462Y014865D01*
X008412Y014815D01*
X008365Y014790D02*
X008340Y014765D01*
X008265Y014765D01*
X008265Y014715D02*
X008265Y014865D01*
X008340Y014865D01*
X008365Y014840D01*
X008365Y014790D01*
X008315Y014765D02*
X008365Y014715D01*
X008412Y014715D02*
X008512Y014715D01*
X008560Y014715D02*
X008660Y014715D01*
X008610Y014715D02*
X008610Y014865D01*
X008560Y014815D01*
X008412Y016215D02*
X008412Y016240D01*
X008512Y016340D01*
X008512Y016365D01*
X008412Y016365D01*
X008365Y016340D02*
X008365Y016290D01*
X008340Y016265D01*
X008265Y016265D01*
X008265Y016215D02*
X008265Y016365D01*
X008340Y016365D01*
X008365Y016340D01*
X008315Y016265D02*
X008365Y016215D01*
M02*
