G75*
G70*
%OFA0B0*%
%FSLAX24Y24*%
%IPPOS*%
%LPD*%
%AMOC8*
5,1,8,0,0,1.08239X$1,22.5*
%
%ADD10C,0.1340*%
%ADD11C,0.0674*%
%ADD12C,0.0730*%
%ADD13C,0.0682*%
%ADD14C,0.0680*%
%ADD15C,0.0600*%
%ADD16C,0.1380*%
%ADD17R,0.0555X0.0555*%
%ADD18C,0.0848*%
%ADD19C,0.0671*%
%ADD20C,0.0611*%
%ADD21R,0.0476X0.0476*%
D10*
X001760Y001760D03*
X001760Y030260D03*
X038160Y030260D03*
X038160Y001760D03*
D11*
X011760Y003260D03*
X010760Y003260D03*
X008760Y003260D03*
X007760Y003260D03*
X005260Y003260D03*
X004260Y003260D03*
X004760Y027760D03*
X004760Y028760D03*
X004760Y029760D03*
X009260Y029760D03*
X009260Y028760D03*
X009260Y027760D03*
X013760Y027760D03*
X013760Y028760D03*
X013760Y029760D03*
D12*
X012760Y023260D03*
X012760Y021260D03*
D13*
X003760Y010260D03*
X002760Y010260D03*
X002760Y009260D03*
X002760Y008260D03*
X003760Y008260D03*
X003760Y009260D03*
X035260Y011260D03*
X036260Y011260D03*
X036260Y012260D03*
X035260Y012260D03*
X035260Y013260D03*
X036260Y013260D03*
X036260Y014260D03*
X035260Y014260D03*
X035260Y019260D03*
X036260Y019260D03*
X036260Y020260D03*
X035260Y020260D03*
X035260Y021260D03*
X036260Y021260D03*
X036260Y022260D03*
X035260Y022260D03*
D14*
X026340Y004150D02*
X025740Y004150D01*
X025740Y002370D02*
X026340Y002370D01*
X023780Y002370D02*
X023180Y002370D01*
X023180Y004150D02*
X023780Y004150D01*
X018840Y004150D02*
X018240Y004150D01*
X018240Y002370D02*
X018840Y002370D01*
X016280Y002370D02*
X015680Y002370D01*
X015680Y004150D02*
X016280Y004150D01*
X004260Y017960D02*
X004260Y018560D01*
X003260Y018560D02*
X003260Y017960D01*
X002260Y017960D02*
X002260Y018560D01*
D15*
X023760Y018500D02*
X023760Y019020D01*
X024760Y019020D02*
X024760Y018500D01*
X025760Y018500D02*
X025760Y019020D01*
X026760Y019020D02*
X026760Y018500D01*
X027760Y018500D02*
X027760Y019020D01*
X028760Y019020D02*
X028760Y018500D01*
X029760Y018500D02*
X029760Y019020D01*
X030760Y019020D02*
X030760Y018500D01*
X030760Y016020D02*
X030760Y015500D01*
X029760Y015500D02*
X029760Y016020D01*
X028760Y016020D02*
X028760Y015500D01*
X027760Y015500D02*
X027760Y016020D01*
X026760Y016020D02*
X026760Y015500D01*
X025760Y015500D02*
X025760Y016020D01*
X024760Y016020D02*
X024760Y015500D01*
X023760Y015500D02*
X023760Y016020D01*
D16*
X003260Y024160D03*
D17*
X013260Y014760D03*
X014260Y014260D03*
X012260Y011260D03*
X009760Y011760D03*
X014260Y007760D03*
X019260Y010260D03*
X019260Y012260D03*
X020760Y013760D03*
X020760Y016760D03*
X019760Y017760D03*
X017760Y017760D03*
X019260Y020760D03*
X021760Y020260D03*
X024760Y020760D03*
X019260Y024260D03*
X031260Y026260D03*
X032260Y024760D03*
X032260Y023260D03*
X031760Y021260D03*
X036760Y025260D03*
X034260Y025760D03*
X033260Y011260D03*
D18*
X022760Y022760D03*
D19*
X006260Y007760D03*
X002260Y004760D03*
X001760Y027760D03*
X031260Y003760D03*
X036260Y002260D03*
D20*
X029760Y012760D03*
X026260Y023260D03*
X018260Y026260D03*
X035760Y029260D03*
X010760Y009260D03*
X011760Y008260D03*
D21*
X020260Y021760D03*
X029260Y025260D03*
M02*
