G75*
G70*
%OFA0B0*%
%FSLAX24Y24*%
%IPPOS*%
%LPD*%
%AMOC8*
5,1,8,0,0,1.08239X$1,22.5*
%
%ADD10C,0.0594*%
%ADD11C,0.0650*%
%ADD12C,0.0602*%
%ADD13C,0.0600*%
%ADD14C,0.0520*%
%ADD15C,0.0320*%
%ADD16C,0.0240*%
%ADD17R,0.0475X0.0475*%
%ADD18C,0.0768*%
%ADD19C,0.0160*%
%ADD20C,0.0591*%
%ADD21C,0.0531*%
%ADD22R,0.0396X0.0396*%
D10*
X004260Y003260D03*
X005260Y003260D03*
X007760Y003260D03*
X008760Y003260D03*
X010760Y003260D03*
X011760Y003260D03*
X013760Y027760D03*
X013760Y028760D03*
X013760Y029760D03*
X009260Y029760D03*
X009260Y028760D03*
X009260Y027760D03*
X004760Y027760D03*
X004760Y028760D03*
X004760Y029760D03*
D11*
X012760Y023260D03*
X012760Y021260D03*
D12*
X003760Y010260D03*
X002760Y010260D03*
X002760Y009260D03*
X002760Y008260D03*
X003760Y008260D03*
X003760Y009260D03*
X035260Y011260D03*
X036260Y011260D03*
X036260Y012260D03*
X035260Y012260D03*
X035260Y013260D03*
X036260Y013260D03*
X036260Y014260D03*
X035260Y014260D03*
X035260Y019260D03*
X036260Y019260D03*
X036260Y020260D03*
X035260Y020260D03*
X035260Y021260D03*
X036260Y021260D03*
X036260Y022260D03*
X035260Y022260D03*
D13*
X026340Y004150D02*
X025740Y004150D01*
X025740Y002370D02*
X026340Y002370D01*
X023780Y002370D02*
X023180Y002370D01*
X023180Y004150D02*
X023780Y004150D01*
X018840Y004150D02*
X018240Y004150D01*
X018240Y002370D02*
X018840Y002370D01*
X016280Y002370D02*
X015680Y002370D01*
X015680Y004150D02*
X016280Y004150D01*
X004260Y017960D02*
X004260Y018560D01*
X003260Y018560D02*
X003260Y017960D01*
X002260Y017960D02*
X002260Y018560D01*
D14*
X023760Y018500D02*
X023760Y019020D01*
X024760Y019020D02*
X024760Y018500D01*
X025760Y018500D02*
X025760Y019020D01*
X026760Y019020D02*
X026760Y018500D01*
X027760Y018500D02*
X027760Y019020D01*
X028760Y019020D02*
X028760Y018500D01*
X029760Y018500D02*
X029760Y019020D01*
X030760Y019020D02*
X030760Y018500D01*
X030760Y016020D02*
X030760Y015500D01*
X029760Y015500D02*
X029760Y016020D01*
X028760Y016020D02*
X028760Y015500D01*
X027760Y015500D02*
X027760Y016020D01*
X026760Y016020D02*
X026760Y015500D01*
X025760Y015500D02*
X025760Y016020D01*
X024760Y016020D02*
X024760Y015500D01*
X023760Y015500D02*
X023760Y016020D01*
D15*
X002712Y001029D02*
X002503Y000820D01*
X006823Y000820D01*
X004940Y002703D01*
X004899Y002720D01*
X004720Y002899D01*
X004708Y002929D01*
X004685Y002897D01*
X004623Y002835D01*
X004552Y002784D01*
X004474Y002744D01*
X004390Y002717D01*
X004304Y002703D01*
X004260Y002703D01*
X004260Y003260D01*
X004260Y007260D01*
X003760Y007760D01*
X003760Y008260D01*
X004321Y008260D01*
X003760Y008260D01*
X003760Y008260D01*
X003760Y007699D01*
X003760Y008260D01*
X003760Y008260D01*
X003760Y008223D02*
X003760Y008223D01*
X003760Y007904D02*
X003760Y007904D01*
X003760Y007699D02*
X003716Y007699D01*
X003629Y007713D01*
X003545Y007740D01*
X003466Y007780D01*
X003394Y007832D01*
X003332Y007894D01*
X003313Y007920D01*
X003304Y007897D01*
X003123Y007716D01*
X002888Y007619D01*
X002632Y007619D01*
X002397Y007716D01*
X002216Y007897D01*
X002119Y008132D01*
X002119Y008138D01*
X000820Y009436D01*
X000820Y002503D01*
X001029Y002712D01*
X001301Y002869D01*
X001603Y002950D01*
X001917Y002950D01*
X002219Y002869D01*
X002491Y002712D01*
X002712Y002491D01*
X002869Y002219D01*
X002950Y001917D01*
X002950Y001603D01*
X002869Y001301D01*
X002712Y001029D01*
X002580Y000897D02*
X006746Y000897D01*
X006428Y001216D02*
X002820Y001216D01*
X002931Y001534D02*
X006109Y001534D01*
X005791Y001853D02*
X002950Y001853D01*
X002882Y002171D02*
X005472Y002171D01*
X005154Y002490D02*
X002713Y002490D01*
X002325Y002808D02*
X003935Y002808D01*
X003968Y002784D02*
X004046Y002744D01*
X004130Y002717D01*
X004216Y002703D01*
X004260Y002703D01*
X004260Y003260D01*
X004260Y003260D01*
X004260Y003817D01*
X004216Y003817D01*
X004130Y003803D01*
X004046Y003776D01*
X003968Y003736D01*
X003897Y003685D01*
X003835Y003623D01*
X003784Y003552D01*
X003744Y003474D01*
X003717Y003390D01*
X003703Y003304D01*
X003703Y003260D01*
X004260Y003260D01*
X004260Y003260D01*
X004260Y003260D01*
X004260Y003817D01*
X004304Y003817D01*
X004390Y003803D01*
X004474Y003776D01*
X004552Y003736D01*
X004623Y003685D01*
X004685Y003623D01*
X004708Y003591D01*
X004720Y003621D01*
X004899Y003800D01*
X005133Y003897D01*
X005387Y003897D01*
X005621Y003800D01*
X005800Y003621D01*
X005817Y003580D01*
X007517Y001880D01*
X008763Y001880D01*
X008734Y001909D01*
X008734Y001909D01*
X008234Y002409D01*
X008140Y002637D01*
X008140Y002739D01*
X008121Y002720D01*
X007887Y002623D01*
X007633Y002623D01*
X007399Y002720D01*
X007220Y002899D01*
X007123Y003133D01*
X007123Y003387D01*
X007140Y003427D01*
X007140Y003883D01*
X007234Y004111D01*
X007734Y004611D01*
X007909Y004786D01*
X008137Y004880D01*
X010140Y004880D01*
X010140Y009383D01*
X010234Y009611D01*
X010409Y009786D01*
X010637Y009880D01*
X010883Y009880D01*
X011111Y009786D01*
X011286Y009611D01*
X011380Y009383D01*
X011380Y008757D01*
X011409Y008786D01*
X011637Y008880D01*
X011883Y008880D01*
X012111Y008786D01*
X012286Y008611D01*
X012380Y008383D01*
X012380Y003427D01*
X012397Y003387D01*
X012397Y003133D01*
X012380Y003093D01*
X012380Y002637D01*
X012286Y002409D01*
X012111Y002234D01*
X011757Y001880D01*
X015265Y001880D01*
X015137Y002007D01*
X015040Y002243D01*
X015040Y002497D01*
X015137Y002733D01*
X015317Y002913D01*
X015553Y003010D01*
X016407Y003010D01*
X016643Y002913D01*
X016823Y002733D01*
X016920Y002497D01*
X016920Y002243D01*
X016823Y002007D01*
X016695Y001880D01*
X017825Y001880D01*
X017697Y002007D01*
X017600Y002243D01*
X017600Y002497D01*
X017697Y002733D01*
X017877Y002913D01*
X018113Y003010D01*
X018967Y003010D01*
X019203Y002913D01*
X019383Y002733D01*
X019480Y002497D01*
X019480Y002243D01*
X019383Y002007D01*
X019255Y001880D01*
X022765Y001880D01*
X022637Y002007D01*
X022540Y002243D01*
X022540Y002433D01*
X014333Y010640D01*
X012137Y010640D01*
X012034Y010683D01*
X011955Y010683D01*
X011830Y010734D01*
X011734Y010830D01*
X011683Y010955D01*
X011683Y011034D01*
X011640Y011137D01*
X011640Y011383D01*
X011683Y011486D01*
X011683Y011565D01*
X011734Y011690D01*
X011830Y011786D01*
X011955Y011837D01*
X012034Y011837D01*
X012102Y011866D01*
X012456Y012220D01*
X004984Y012220D01*
X003665Y010901D01*
X003888Y010901D01*
X004123Y010804D01*
X004304Y010623D01*
X004401Y010388D01*
X004401Y010132D01*
X004304Y009897D01*
X004167Y009760D01*
X004304Y009623D01*
X004401Y009388D01*
X004401Y009132D01*
X004304Y008897D01*
X004123Y008716D01*
X004100Y008707D01*
X004126Y008688D01*
X004188Y008626D01*
X004240Y008554D01*
X004280Y008475D01*
X004307Y008391D01*
X004321Y008304D01*
X004321Y008260D01*
X004321Y008216D01*
X004307Y008129D01*
X004280Y008045D01*
X004240Y007966D01*
X004188Y007894D01*
X004126Y007832D01*
X004054Y007780D01*
X003975Y007740D01*
X003891Y007713D01*
X003804Y007699D01*
X003760Y007699D01*
X004195Y007904D02*
X010140Y007904D01*
X010140Y007586D02*
X000820Y007586D01*
X000820Y007904D02*
X002213Y007904D01*
X002034Y008223D02*
X000820Y008223D01*
X000820Y008541D02*
X001715Y008541D01*
X001397Y008860D02*
X000820Y008860D01*
X000820Y009178D02*
X001078Y009178D01*
X000820Y007267D02*
X010140Y007267D01*
X010140Y006949D02*
X000820Y006949D01*
X000820Y006630D02*
X010140Y006630D01*
X010140Y006312D02*
X000820Y006312D01*
X000820Y005993D02*
X010140Y005993D01*
X010140Y005675D02*
X000820Y005675D01*
X000820Y005356D02*
X010140Y005356D01*
X010140Y005038D02*
X000820Y005038D01*
X000820Y004719D02*
X007842Y004719D01*
X007524Y004401D02*
X000820Y004401D01*
X000820Y004082D02*
X007222Y004082D01*
X007140Y003764D02*
X005657Y003764D01*
X005952Y003445D02*
X007140Y003445D01*
X007126Y003127D02*
X006270Y003127D01*
X006589Y002808D02*
X007311Y002808D01*
X006907Y002490D02*
X008201Y002490D01*
X008472Y002171D02*
X007226Y002171D01*
X007260Y001260D02*
X005260Y003260D01*
X004863Y003764D02*
X004498Y003764D01*
X004260Y003764D02*
X004260Y003764D01*
X004022Y003764D02*
X000820Y003764D01*
X000820Y003445D02*
X003735Y003445D01*
X003703Y003260D02*
X003703Y003216D01*
X003717Y003130D01*
X003744Y003046D01*
X003784Y002968D01*
X003835Y002897D01*
X003897Y002835D01*
X003968Y002784D01*
X004260Y002808D02*
X004260Y002808D01*
X004260Y003127D02*
X004260Y003127D01*
X004260Y003260D02*
X003703Y003260D01*
X003718Y003127D02*
X000820Y003127D01*
X000820Y002808D02*
X001195Y002808D01*
X004260Y003445D02*
X004260Y003445D01*
X004585Y002808D02*
X004811Y002808D01*
X007260Y001260D02*
X027760Y001260D01*
X028760Y002260D01*
X028760Y005208D01*
X029171Y005675D02*
X039070Y005675D01*
X039070Y005993D02*
X028847Y005993D01*
X029103Y005737D02*
X022840Y012000D01*
X022840Y017020D01*
X023720Y017900D01*
X023879Y017900D01*
X024100Y017991D01*
X024260Y018151D01*
X024420Y017991D01*
X024641Y017900D01*
X024879Y017900D01*
X025100Y017991D01*
X025260Y018151D01*
X025420Y017991D01*
X025641Y017900D01*
X025879Y017900D01*
X026100Y017991D01*
X026269Y018160D01*
X026305Y018248D01*
X026315Y018227D01*
X026363Y018161D01*
X026421Y018103D01*
X026487Y018055D01*
X026560Y018018D01*
X026638Y017993D01*
X026719Y017980D01*
X026760Y017980D01*
X026801Y017980D01*
X026882Y017993D01*
X026960Y018018D01*
X027033Y018055D01*
X027099Y018103D01*
X027157Y018161D01*
X027205Y018227D01*
X027242Y018300D01*
X027260Y018356D01*
X027278Y018300D01*
X027315Y018227D01*
X027363Y018161D01*
X027421Y018103D01*
X027487Y018055D01*
X027560Y018018D01*
X027638Y017993D01*
X027719Y017980D01*
X027760Y017980D01*
X027801Y017980D01*
X027882Y017993D01*
X027960Y018018D01*
X028033Y018055D01*
X028099Y018103D01*
X028157Y018161D01*
X028205Y018227D01*
X028215Y018248D01*
X028251Y018160D01*
X028420Y017991D01*
X028641Y017900D01*
X028879Y017900D01*
X029100Y017991D01*
X029260Y018151D01*
X029420Y017991D01*
X029641Y017900D01*
X029879Y017900D01*
X030100Y017991D01*
X030260Y018151D01*
X030420Y017991D01*
X030641Y017900D01*
X030879Y017900D01*
X031100Y017991D01*
X031220Y018111D01*
X031220Y017984D01*
X029856Y016620D01*
X029641Y016620D01*
X029420Y016529D01*
X029260Y016369D01*
X029100Y016529D01*
X028879Y016620D01*
X028641Y016620D01*
X028420Y016529D01*
X028251Y016360D01*
X028215Y016272D01*
X028205Y016293D01*
X028157Y016359D01*
X028099Y016417D01*
X028033Y016465D01*
X027960Y016502D01*
X027882Y016527D01*
X027801Y016540D01*
X027760Y016540D01*
X027760Y015760D01*
X026760Y015760D01*
X026760Y018760D01*
X026760Y020208D01*
X026723Y020297D02*
X024260Y022760D01*
X022760Y022760D01*
X023367Y021800D02*
X021679Y021800D01*
X021435Y021699D01*
X021418Y021681D01*
X021418Y021681D01*
X020454Y020718D01*
X020302Y020566D01*
X020220Y020367D01*
X020220Y018256D01*
X020190Y018286D01*
X020065Y018337D01*
X019881Y018337D01*
X019875Y018340D01*
X019645Y018340D01*
X019639Y018337D01*
X019455Y018337D01*
X019330Y018286D01*
X019300Y018256D01*
X019300Y020183D01*
X019565Y020183D01*
X019690Y020234D01*
X019786Y020330D01*
X019837Y020455D01*
X019837Y021065D01*
X019786Y021190D01*
X019690Y021286D01*
X019565Y021337D01*
X018955Y021337D01*
X018864Y021300D01*
X018653Y021300D01*
X018454Y021218D01*
X018302Y021066D01*
X018220Y020867D01*
X018220Y017984D01*
X014827Y014591D01*
X014786Y014690D01*
X014690Y014786D01*
X014565Y014837D01*
X013955Y014837D01*
X013837Y014789D01*
X013837Y015065D01*
X013786Y015190D01*
X013690Y015286D01*
X013565Y015337D01*
X012955Y015337D01*
X012864Y015300D01*
X001679Y015300D01*
X001435Y015199D01*
X001418Y015181D01*
X001418Y015181D01*
X000820Y014584D01*
X000820Y029517D01*
X001029Y029308D01*
X001301Y029151D01*
X001603Y029070D01*
X001917Y029070D01*
X002219Y029151D01*
X002491Y029308D01*
X002640Y029457D01*
X002640Y027288D01*
X002631Y027193D01*
X002640Y027166D01*
X002640Y027137D01*
X002676Y027049D01*
X002705Y026958D01*
X002723Y026936D01*
X002734Y026909D01*
X002802Y026841D01*
X004301Y025042D01*
X004095Y025248D01*
X003785Y025427D01*
X003439Y025520D01*
X003081Y025520D01*
X002735Y025427D01*
X002425Y025248D01*
X002172Y024995D01*
X001993Y024685D01*
X001900Y024339D01*
X001900Y023981D01*
X001993Y023635D01*
X002172Y023325D01*
X002425Y023072D01*
X002735Y022893D01*
X003081Y022800D01*
X003439Y022800D01*
X003785Y022893D01*
X004095Y023072D01*
X004348Y023325D01*
X004527Y023635D01*
X004620Y023981D01*
X004620Y024339D01*
X004527Y024685D01*
X004366Y024964D01*
X005140Y024036D01*
X005140Y020017D01*
X004323Y019200D01*
X004133Y019200D01*
X003897Y019103D01*
X003717Y018923D01*
X003707Y018897D01*
X003687Y018925D01*
X003625Y018987D01*
X003554Y019039D01*
X003475Y019079D01*
X003391Y019106D01*
X003304Y019120D01*
X003260Y019120D01*
X003260Y018260D01*
X003260Y018260D01*
X003260Y017400D01*
X003304Y017400D01*
X003391Y017414D01*
X003475Y017441D01*
X003554Y017481D01*
X003625Y017533D01*
X003687Y017595D01*
X003707Y017623D01*
X003717Y017597D01*
X003897Y017417D01*
X004133Y017320D01*
X004387Y017320D01*
X004623Y017417D01*
X004803Y017597D01*
X004900Y017833D01*
X004900Y018023D01*
X006075Y019198D01*
X006162Y019285D01*
X006267Y019390D01*
X006380Y019664D01*
X006380Y024232D01*
X006389Y024327D01*
X006380Y024354D01*
X006380Y024383D01*
X006344Y024471D01*
X006315Y024562D01*
X006297Y024584D01*
X006286Y024611D01*
X006218Y024679D01*
X003880Y027484D01*
X003880Y029877D01*
X004182Y030028D01*
X004123Y029887D01*
X004123Y029633D01*
X004220Y029399D01*
X004399Y029220D01*
X004429Y029208D01*
X004397Y029185D01*
X004335Y029123D01*
X004284Y029052D01*
X004244Y028974D01*
X004217Y028890D01*
X004203Y028804D01*
X004203Y028760D01*
X004203Y028716D01*
X004217Y028630D01*
X004244Y028546D01*
X004284Y028468D01*
X004335Y028397D01*
X004397Y028335D01*
X004429Y028312D01*
X004399Y028300D01*
X004220Y028121D01*
X004123Y027887D01*
X004123Y027633D01*
X004220Y027399D01*
X004399Y027220D01*
X004633Y027123D01*
X004887Y027123D01*
X005121Y027220D01*
X005300Y027399D01*
X005397Y027633D01*
X005397Y027887D01*
X005300Y028121D01*
X005121Y028300D01*
X005091Y028312D01*
X005123Y028335D01*
X005185Y028397D01*
X005236Y028468D01*
X005276Y028546D01*
X005303Y028630D01*
X005317Y028716D01*
X005317Y028760D01*
X005317Y028804D01*
X005303Y028890D01*
X005276Y028974D01*
X005236Y029052D01*
X005185Y029123D01*
X005168Y029140D01*
X008852Y029140D01*
X008835Y029123D01*
X008784Y029052D01*
X008744Y028974D01*
X008717Y028890D01*
X008703Y028804D01*
X008703Y028760D01*
X008703Y028716D01*
X008717Y028630D01*
X008744Y028546D01*
X008784Y028468D01*
X008835Y028397D01*
X008897Y028335D01*
X008929Y028312D01*
X008899Y028300D01*
X008720Y028121D01*
X008623Y027887D01*
X008623Y027633D01*
X008720Y027399D01*
X008899Y027220D01*
X009133Y027123D01*
X009387Y027123D01*
X009621Y027220D01*
X009800Y027399D01*
X009897Y027633D01*
X009897Y027887D01*
X009800Y028121D01*
X009621Y028300D01*
X009591Y028312D01*
X009623Y028335D01*
X009685Y028397D01*
X009736Y028468D01*
X009776Y028546D01*
X009803Y028630D01*
X009817Y028716D01*
X009817Y028760D01*
X009817Y028804D01*
X009803Y028890D01*
X009776Y028974D01*
X009736Y029052D01*
X009685Y029123D01*
X009668Y029140D01*
X013352Y029140D01*
X013335Y029123D01*
X013284Y029052D01*
X013244Y028974D01*
X013217Y028890D01*
X013203Y028804D01*
X013203Y028760D01*
X013203Y028716D01*
X013217Y028630D01*
X013244Y028546D01*
X013284Y028468D01*
X013335Y028397D01*
X013397Y028335D01*
X013429Y028312D01*
X013399Y028300D01*
X013220Y028121D01*
X013123Y027887D01*
X013123Y027633D01*
X013220Y027399D01*
X013399Y027220D01*
X013633Y027123D01*
X013887Y027123D01*
X014121Y027220D01*
X014300Y027399D01*
X014397Y027633D01*
X014397Y027887D01*
X014300Y028121D01*
X014121Y028300D01*
X014091Y028312D01*
X014123Y028335D01*
X014185Y028397D01*
X014236Y028468D01*
X014276Y028546D01*
X014303Y028630D01*
X014317Y028716D01*
X014317Y028760D01*
X014317Y028804D01*
X014303Y028890D01*
X014276Y028974D01*
X014236Y029052D01*
X014185Y029123D01*
X014168Y029140D01*
X019640Y029140D01*
X019640Y021637D01*
X019734Y021409D01*
X019773Y021370D01*
X019774Y021369D01*
X019869Y021274D01*
X019870Y021273D01*
X019909Y021234D01*
X020137Y021140D01*
X020383Y021140D01*
X020611Y021234D01*
X020650Y021273D01*
X020651Y021274D01*
X020746Y021369D01*
X020747Y021370D01*
X020786Y021409D01*
X020880Y021637D01*
X020880Y029140D01*
X022503Y029140D01*
X026234Y025409D01*
X026409Y025234D01*
X026637Y025140D01*
X028503Y025140D01*
X028773Y024870D01*
X028774Y024869D01*
X028869Y024774D01*
X028870Y024773D01*
X028909Y024734D01*
X029137Y024640D01*
X029383Y024640D01*
X029611Y024734D01*
X029650Y024773D01*
X029651Y024774D01*
X029746Y024869D01*
X029747Y024870D01*
X029786Y024909D01*
X029880Y025137D01*
X029880Y025383D01*
X029786Y025611D01*
X029747Y025650D01*
X029746Y025651D01*
X029651Y025746D01*
X029650Y025747D01*
X029111Y026286D01*
X028883Y026380D01*
X027017Y026380D01*
X023257Y030140D01*
X036340Y030140D01*
X038140Y025641D01*
X038140Y015517D01*
X037503Y014880D01*
X036880Y014880D01*
X036880Y014883D01*
X036786Y015111D01*
X036611Y015286D01*
X035822Y016075D01*
X035735Y016162D01*
X035630Y016267D01*
X035356Y016380D01*
X031249Y016380D01*
X031196Y016432D01*
X032066Y017302D01*
X032218Y017454D01*
X032300Y017653D01*
X032300Y020864D01*
X032337Y020955D01*
X032337Y021565D01*
X032290Y021680D01*
X034773Y021680D01*
X034716Y021623D01*
X034619Y021388D01*
X034619Y021132D01*
X034716Y020897D01*
X034897Y020716D01*
X034920Y020707D01*
X034894Y020688D01*
X034832Y020626D01*
X034780Y020554D01*
X034740Y020475D01*
X034713Y020391D01*
X034699Y020304D01*
X034699Y020260D01*
X035260Y020260D01*
X035260Y020260D01*
X034699Y020260D01*
X034699Y020216D01*
X034713Y020129D01*
X034740Y020045D01*
X034780Y019966D01*
X034832Y019894D01*
X034894Y019832D01*
X034920Y019813D01*
X034897Y019804D01*
X034716Y019623D01*
X034619Y019388D01*
X034619Y019132D01*
X034716Y018897D01*
X034897Y018716D01*
X035132Y018619D01*
X035388Y018619D01*
X035623Y018716D01*
X035760Y018853D01*
X035897Y018716D01*
X036132Y018619D01*
X036388Y018619D01*
X036623Y018716D01*
X036804Y018897D01*
X036901Y019132D01*
X036901Y019388D01*
X036804Y019623D01*
X036667Y019760D01*
X036804Y019897D01*
X036901Y020132D01*
X036901Y020388D01*
X036804Y020623D01*
X036667Y020760D01*
X036804Y020897D01*
X036901Y021132D01*
X036901Y021388D01*
X036804Y021623D01*
X036667Y021760D01*
X036804Y021897D01*
X036901Y022132D01*
X036901Y022388D01*
X036804Y022623D01*
X036623Y022804D01*
X036388Y022901D01*
X036132Y022901D01*
X035897Y022804D01*
X035760Y022667D01*
X035623Y022804D01*
X035388Y022901D01*
X035221Y022901D01*
X037003Y024683D01*
X037065Y024683D01*
X037190Y024734D01*
X037286Y024830D01*
X037337Y024955D01*
X037337Y025139D01*
X037340Y025145D01*
X037340Y025375D01*
X037337Y025381D01*
X037337Y025565D01*
X037286Y025690D01*
X037190Y025786D01*
X037065Y025837D01*
X036881Y025837D01*
X036875Y025840D01*
X036645Y025840D01*
X036639Y025837D01*
X036455Y025837D01*
X036330Y025786D01*
X036234Y025690D01*
X036183Y025565D01*
X036183Y025503D01*
X034520Y023840D01*
X032145Y023840D01*
X032139Y023837D01*
X031955Y023837D01*
X031830Y023786D01*
X031734Y023690D01*
X031683Y023565D01*
X031683Y023381D01*
X031680Y023375D01*
X031680Y023145D01*
X031683Y023139D01*
X031683Y022955D01*
X031730Y022840D01*
X030672Y022840D01*
X030412Y022733D01*
X030313Y022634D01*
X028431Y020752D01*
X028268Y020589D01*
X028180Y020375D01*
X028180Y019327D01*
X028157Y019359D01*
X028099Y019417D01*
X028033Y019465D01*
X027960Y019502D01*
X027882Y019527D01*
X027801Y019540D01*
X027760Y019540D01*
X027760Y018760D01*
X026760Y018760D01*
X027280Y018760D01*
X027760Y018760D01*
X027760Y020208D01*
X027797Y020297D02*
X029760Y022260D01*
X029760Y024708D01*
X029797Y024797D02*
X031260Y026260D01*
X031830Y025286D02*
X031955Y025337D01*
X032034Y025337D01*
X032137Y025380D01*
X033003Y025380D01*
X033683Y026059D01*
X033683Y026065D01*
X033734Y026190D01*
X033830Y026286D01*
X033955Y026337D01*
X034034Y026337D01*
X034137Y026380D01*
X034383Y026380D01*
X034486Y026337D01*
X034565Y026337D01*
X034690Y026286D01*
X034786Y026190D01*
X034837Y026065D01*
X034837Y025986D01*
X034880Y025883D01*
X034880Y025637D01*
X034837Y025534D01*
X034837Y025455D01*
X034786Y025330D01*
X034690Y025234D01*
X034565Y025183D01*
X034559Y025183D01*
X033822Y024445D01*
X033822Y024445D01*
X033735Y024358D01*
X033735Y024358D01*
X033630Y024253D01*
X033630Y024253D01*
X033356Y024140D01*
X032137Y024140D01*
X032034Y024183D01*
X031955Y024183D01*
X031830Y024234D01*
X031734Y024330D01*
X031683Y024455D01*
X031683Y024534D01*
X031640Y024637D01*
X031640Y024883D01*
X031683Y024986D01*
X031683Y025065D01*
X031734Y025190D01*
X031830Y025286D01*
X031698Y025103D02*
X029866Y025103D01*
X029864Y025422D02*
X033045Y025422D01*
X033363Y025740D02*
X029657Y025740D01*
X029338Y026059D02*
X033682Y026059D01*
X034129Y026377D02*
X028891Y026377D01*
X028760Y025760D02*
X029260Y025260D01*
X029662Y024785D02*
X031640Y024785D01*
X031683Y024466D02*
X020880Y024466D01*
X020880Y024148D02*
X032119Y024148D01*
X031934Y023829D02*
X020880Y023829D01*
X020880Y023511D02*
X031683Y023511D01*
X031680Y023192D02*
X020880Y023192D01*
X020880Y022874D02*
X031716Y022874D01*
X030412Y022733D02*
X030412Y022733D01*
X030235Y022555D02*
X020880Y022555D01*
X020880Y022237D02*
X029916Y022237D01*
X029598Y021918D02*
X020880Y021918D01*
X020865Y021600D02*
X021336Y021600D01*
X021435Y021699D02*
X021435Y021699D01*
X021017Y021281D02*
X020658Y021281D01*
X020699Y020963D02*
X019837Y020963D01*
X019837Y020644D02*
X020380Y020644D01*
X020220Y020326D02*
X019781Y020326D01*
X020220Y020007D02*
X019300Y020007D01*
X019300Y019689D02*
X020220Y019689D01*
X020220Y019370D02*
X019300Y019370D01*
X019300Y019052D02*
X020220Y019052D01*
X020220Y018733D02*
X019300Y018733D01*
X019300Y018415D02*
X020220Y018415D01*
X018220Y018415D02*
X005291Y018415D01*
X005610Y018733D02*
X018220Y018733D01*
X018220Y019052D02*
X005928Y019052D01*
X006075Y019198D02*
X006075Y019198D01*
X006162Y019285D02*
X006162Y019285D01*
X006247Y019370D02*
X018220Y019370D01*
X018220Y019689D02*
X006380Y019689D01*
X006380Y020007D02*
X018220Y020007D01*
X018220Y020326D02*
X006380Y020326D01*
X006380Y020644D02*
X012509Y020644D01*
X012628Y020595D02*
X012892Y020595D01*
X013137Y020696D01*
X013324Y020883D01*
X013425Y021128D01*
X013425Y021392D01*
X013324Y021637D01*
X013137Y021824D01*
X012892Y021925D01*
X012628Y021925D01*
X012383Y021824D01*
X012196Y021637D01*
X012095Y021392D01*
X012095Y021128D01*
X012196Y020883D01*
X012383Y020696D01*
X012628Y020595D01*
X013011Y020644D02*
X018220Y020644D01*
X018259Y020963D02*
X013357Y020963D01*
X013425Y021281D02*
X018607Y021281D01*
X019695Y021281D02*
X019862Y021281D01*
X019655Y021600D02*
X013339Y021600D01*
X012909Y021918D02*
X019640Y021918D01*
X019640Y022237D02*
X006380Y022237D01*
X006380Y022555D02*
X019640Y022555D01*
X019640Y022874D02*
X013314Y022874D01*
X013324Y022883D02*
X013425Y023128D01*
X013425Y023392D01*
X013324Y023637D01*
X013137Y023824D01*
X012892Y023925D01*
X012628Y023925D01*
X012383Y023824D01*
X012196Y023637D01*
X012095Y023392D01*
X012095Y023128D01*
X012196Y022883D01*
X012383Y022696D01*
X012628Y022595D01*
X012892Y022595D01*
X013137Y022696D01*
X013324Y022883D01*
X013425Y023192D02*
X019640Y023192D01*
X019640Y023511D02*
X013376Y023511D01*
X013124Y023829D02*
X019640Y023829D01*
X019640Y024148D02*
X006380Y024148D01*
X006380Y023829D02*
X012396Y023829D01*
X012144Y023511D02*
X006380Y023511D01*
X006380Y023192D02*
X012095Y023192D01*
X012206Y022874D02*
X006380Y022874D01*
X006380Y021918D02*
X012611Y021918D01*
X012181Y021600D02*
X006380Y021600D01*
X006380Y021281D02*
X012095Y021281D01*
X012163Y020963D02*
X006380Y020963D01*
X005140Y020963D02*
X000820Y020963D01*
X000820Y021281D02*
X005140Y021281D01*
X005140Y021600D02*
X000820Y021600D01*
X000820Y021918D02*
X005140Y021918D01*
X005140Y022237D02*
X000820Y022237D01*
X000820Y022555D02*
X005140Y022555D01*
X005140Y022874D02*
X003713Y022874D01*
X004215Y023192D02*
X005140Y023192D01*
X005140Y023511D02*
X004455Y023511D01*
X004579Y023829D02*
X005140Y023829D01*
X005047Y024148D02*
X004620Y024148D01*
X004586Y024466D02*
X004781Y024466D01*
X004516Y024785D02*
X004470Y024785D01*
X004250Y025103D02*
X004240Y025103D01*
X003985Y025422D02*
X003795Y025422D01*
X003720Y025740D02*
X000820Y025740D01*
X000820Y025422D02*
X002725Y025422D01*
X002280Y025103D02*
X000820Y025103D01*
X000820Y024785D02*
X002050Y024785D01*
X001934Y024466D02*
X000820Y024466D01*
X000820Y024148D02*
X001900Y024148D01*
X001941Y023829D02*
X000820Y023829D01*
X000820Y023511D02*
X002065Y023511D01*
X002305Y023192D02*
X000820Y023192D01*
X000820Y022874D02*
X002807Y022874D01*
X000820Y020644D02*
X005140Y020644D01*
X005140Y020326D02*
X000820Y020326D01*
X000820Y020007D02*
X005130Y020007D01*
X004812Y019689D02*
X000820Y019689D01*
X000820Y019370D02*
X004493Y019370D01*
X003846Y019052D02*
X003529Y019052D01*
X003260Y019052D02*
X003260Y019052D01*
X003260Y019120D02*
X003216Y019120D01*
X003129Y019106D01*
X003045Y019079D01*
X002966Y019039D01*
X002895Y018987D01*
X002833Y018925D01*
X002813Y018897D01*
X002803Y018923D01*
X002623Y019103D01*
X002387Y019200D01*
X002133Y019200D01*
X001897Y019103D01*
X001717Y018923D01*
X001620Y018687D01*
X001620Y017833D01*
X001717Y017597D01*
X001897Y017417D01*
X002133Y017320D01*
X002387Y017320D01*
X002623Y017417D01*
X002803Y017597D01*
X002813Y017623D01*
X002833Y017595D01*
X002895Y017533D01*
X002966Y017481D01*
X003045Y017441D01*
X003129Y017414D01*
X003216Y017400D01*
X003260Y017400D01*
X003260Y018260D01*
X003260Y018260D01*
X003260Y019120D01*
X002991Y019052D02*
X002674Y019052D01*
X003260Y018733D02*
X003260Y018733D01*
X003260Y018415D02*
X003260Y018415D01*
X003260Y018096D02*
X003260Y018096D01*
X003260Y017778D02*
X003260Y017778D01*
X003260Y017459D02*
X003260Y017459D01*
X003510Y017459D02*
X003856Y017459D01*
X004664Y017459D02*
X017695Y017459D01*
X017760Y017760D02*
X017760Y022708D01*
X017797Y022797D02*
X019260Y024260D01*
X019260Y025260D01*
X018260Y026260D01*
X015797Y028723D01*
X015708Y028760D02*
X013760Y028760D01*
X009260Y028760D01*
X004760Y028760D01*
X005317Y028760D01*
X004760Y028760D01*
X004760Y028760D01*
X004760Y028760D01*
X004203Y028760D01*
X004760Y028760D01*
X004228Y028925D02*
X003880Y028925D01*
X003880Y028607D02*
X004224Y028607D01*
X004387Y028288D02*
X003880Y028288D01*
X003880Y027970D02*
X004157Y027970D01*
X004123Y027651D02*
X003880Y027651D01*
X004007Y027333D02*
X004287Y027333D01*
X004272Y027014D02*
X019640Y027014D01*
X019640Y026696D02*
X004537Y026696D01*
X004803Y026377D02*
X019640Y026377D01*
X019640Y026059D02*
X005068Y026059D01*
X005334Y025740D02*
X019640Y025740D01*
X019640Y025422D02*
X005599Y025422D01*
X005865Y025103D02*
X019640Y025103D01*
X019640Y024785D02*
X006130Y024785D01*
X006346Y024466D02*
X019640Y024466D01*
X020880Y024785D02*
X028858Y024785D01*
X028540Y025103D02*
X020880Y025103D01*
X020880Y025422D02*
X026222Y025422D01*
X025903Y025740D02*
X020880Y025740D01*
X020880Y026059D02*
X025585Y026059D01*
X025266Y026377D02*
X020880Y026377D01*
X020880Y026696D02*
X024948Y026696D01*
X024629Y027014D02*
X020880Y027014D01*
X020880Y027333D02*
X024311Y027333D01*
X023992Y027651D02*
X020880Y027651D01*
X020880Y027970D02*
X023674Y027970D01*
X023355Y028288D02*
X020880Y028288D01*
X020880Y028607D02*
X023037Y028607D01*
X022718Y028925D02*
X020880Y028925D01*
X020260Y029760D02*
X020260Y021760D01*
X022256Y020720D02*
X023036Y020720D01*
X023418Y020339D01*
X023435Y020321D01*
X023679Y020220D01*
X024364Y020220D01*
X024455Y020183D01*
X025065Y020183D01*
X025190Y020234D01*
X025286Y020330D01*
X025337Y020455D01*
X025337Y021065D01*
X025286Y021190D01*
X025190Y021286D01*
X025065Y021337D01*
X024455Y021337D01*
X024364Y021300D01*
X023984Y021300D01*
X023718Y021566D01*
X023566Y021718D01*
X023367Y021800D01*
X023684Y021600D02*
X029279Y021600D01*
X028961Y021281D02*
X025195Y021281D01*
X025337Y020963D02*
X028642Y020963D01*
X028431Y020752D02*
X028431Y020752D01*
X028324Y020644D02*
X025337Y020644D01*
X025281Y020326D02*
X028180Y020326D01*
X027797Y020296D02*
X027784Y020281D01*
X027774Y020265D01*
X027766Y020247D01*
X027762Y020228D01*
X027760Y020208D01*
X028180Y020007D02*
X022340Y020007D01*
X022340Y019689D02*
X028180Y019689D01*
X028180Y019370D02*
X028145Y019370D01*
X027760Y019370D02*
X027760Y019370D01*
X027760Y019540D02*
X027719Y019540D01*
X027638Y019527D01*
X027560Y019502D01*
X027487Y019465D01*
X027421Y019417D01*
X027363Y019359D01*
X027315Y019293D01*
X027278Y019220D01*
X027260Y019164D01*
X027242Y019220D01*
X027205Y019293D01*
X027157Y019359D01*
X027099Y019417D01*
X027033Y019465D01*
X026960Y019502D01*
X026882Y019527D01*
X026801Y019540D01*
X026760Y019540D01*
X026760Y018760D01*
X026760Y018760D01*
X026760Y018760D01*
X027760Y018760D01*
X027760Y018760D01*
X027760Y018760D01*
X027760Y017980D01*
X027760Y018760D01*
X027760Y018760D01*
X027760Y019540D01*
X027375Y019370D02*
X027145Y019370D01*
X026760Y019370D02*
X026760Y019370D01*
X026760Y019540D02*
X026719Y019540D01*
X026638Y019527D01*
X026560Y019502D01*
X026487Y019465D01*
X026421Y019417D01*
X026363Y019359D01*
X026315Y019293D01*
X026305Y019272D01*
X026269Y019360D01*
X026100Y019529D01*
X025879Y019620D01*
X025641Y019620D01*
X025420Y019529D01*
X025260Y019369D01*
X025100Y019529D01*
X024879Y019620D01*
X024641Y019620D01*
X024420Y019529D01*
X024260Y019369D01*
X024100Y019529D01*
X023879Y019620D01*
X023641Y019620D01*
X023420Y019529D01*
X023251Y019360D01*
X023160Y019139D01*
X023160Y018980D01*
X022340Y018160D01*
X022340Y020375D01*
X022337Y020381D01*
X022337Y020565D01*
X022286Y020690D01*
X022256Y020720D01*
X022305Y020644D02*
X023112Y020644D01*
X023418Y020339D02*
X023418Y020339D01*
X023431Y020326D02*
X022340Y020326D01*
X022340Y019370D02*
X023261Y019370D01*
X023160Y019052D02*
X022340Y019052D01*
X022340Y018733D02*
X022913Y018733D01*
X022594Y018415D02*
X022340Y018415D01*
X023279Y017459D02*
X030695Y017459D01*
X030377Y017141D02*
X022961Y017141D01*
X022840Y016822D02*
X030058Y016822D01*
X029395Y016504D02*
X029125Y016504D01*
X028395Y016504D02*
X027955Y016504D01*
X027760Y016504D02*
X027760Y016504D01*
X027760Y016540D02*
X027719Y016540D01*
X027638Y016527D01*
X027560Y016502D01*
X027487Y016465D01*
X027421Y016417D01*
X027363Y016359D01*
X027315Y016293D01*
X027278Y016220D01*
X027260Y016164D01*
X027242Y016220D01*
X027205Y016293D01*
X027157Y016359D01*
X027099Y016417D01*
X027033Y016465D01*
X026960Y016502D01*
X026882Y016527D01*
X026801Y016540D01*
X026760Y016540D01*
X026760Y015760D01*
X027760Y015760D01*
X027760Y015760D01*
X027760Y015760D01*
X027760Y016540D01*
X027565Y016504D02*
X026955Y016504D01*
X026760Y016504D02*
X026760Y016504D01*
X026760Y016540D02*
X026719Y016540D01*
X026638Y016527D01*
X026560Y016502D01*
X026487Y016465D01*
X026421Y016417D01*
X026363Y016359D01*
X026315Y016293D01*
X026305Y016272D01*
X026269Y016360D01*
X026100Y016529D01*
X025879Y016620D01*
X025641Y016620D01*
X025420Y016529D01*
X025260Y016369D01*
X025100Y016529D01*
X024879Y016620D01*
X024641Y016620D01*
X024420Y016529D01*
X024260Y016369D01*
X024100Y016529D01*
X023879Y016620D01*
X023641Y016620D01*
X023420Y016529D01*
X023251Y016360D01*
X023160Y016139D01*
X023160Y015381D01*
X023251Y015160D01*
X023420Y014991D01*
X023641Y014900D01*
X023879Y014900D01*
X024100Y014991D01*
X024260Y015151D01*
X024420Y014991D01*
X024641Y014900D01*
X024879Y014900D01*
X025100Y014991D01*
X025180Y015071D01*
X025180Y013672D01*
X025287Y013412D01*
X025305Y013395D01*
X028768Y009931D01*
X028931Y009768D01*
X029145Y009680D01*
X036848Y009680D01*
X037108Y009787D01*
X037125Y009805D01*
X037125Y009805D01*
X038089Y010768D01*
X038252Y010931D01*
X038340Y011145D01*
X038340Y011875D01*
X038252Y012089D01*
X037752Y012589D01*
X037589Y012752D01*
X037375Y012840D01*
X036747Y012840D01*
X036804Y012897D01*
X036901Y013132D01*
X036901Y013388D01*
X036804Y013623D01*
X036787Y013640D01*
X037856Y013640D01*
X038130Y013753D01*
X038130Y013753D01*
X038235Y013858D01*
X038322Y013945D01*
X038322Y013945D01*
X039070Y014693D01*
X039070Y002533D01*
X038891Y002712D01*
X038619Y002869D01*
X038317Y002950D01*
X038003Y002950D01*
X037701Y002869D01*
X037429Y002712D01*
X037208Y002491D01*
X037051Y002219D01*
X036970Y001917D01*
X036970Y001603D01*
X037051Y001301D01*
X037208Y001029D01*
X037417Y000820D01*
X028197Y000820D01*
X028286Y000909D01*
X029111Y001734D01*
X029286Y001909D01*
X029380Y002137D01*
X029380Y005332D01*
X029286Y005559D01*
X029111Y005734D01*
X029103Y005737D01*
X029370Y005356D02*
X039070Y005356D01*
X039070Y005038D02*
X029380Y005038D01*
X029380Y004719D02*
X039070Y004719D01*
X039070Y004401D02*
X029380Y004401D01*
X029380Y004082D02*
X039070Y004082D01*
X039070Y003764D02*
X029380Y003764D01*
X029380Y003445D02*
X039070Y003445D01*
X039070Y003127D02*
X029380Y003127D01*
X029380Y002808D02*
X037595Y002808D01*
X037207Y002490D02*
X029380Y002490D01*
X029380Y002171D02*
X037038Y002171D01*
X036970Y001853D02*
X029229Y001853D01*
X028911Y001534D02*
X036989Y001534D01*
X037100Y001216D02*
X028592Y001216D01*
X028286Y000909D02*
X028286Y000909D01*
X028274Y000897D02*
X037340Y000897D01*
X038725Y002808D02*
X039070Y002808D01*
X039070Y006312D02*
X028529Y006312D01*
X028210Y006630D02*
X039070Y006630D01*
X039070Y006949D02*
X027892Y006949D01*
X027573Y007267D02*
X039070Y007267D01*
X039070Y007586D02*
X027255Y007586D01*
X026936Y007904D02*
X039070Y007904D01*
X039070Y008223D02*
X026618Y008223D01*
X026299Y008541D02*
X039070Y008541D01*
X039070Y008860D02*
X025981Y008860D01*
X025662Y009178D02*
X039070Y009178D01*
X039070Y009497D02*
X025344Y009497D01*
X025025Y009815D02*
X028885Y009815D01*
X028566Y010134D02*
X024707Y010134D01*
X024388Y010452D02*
X028248Y010452D01*
X027929Y010771D02*
X024070Y010771D01*
X023751Y011089D02*
X027611Y011089D01*
X027292Y011408D02*
X023433Y011408D01*
X023114Y011726D02*
X026974Y011726D01*
X026655Y012045D02*
X022840Y012045D01*
X022840Y012363D02*
X026337Y012363D01*
X026018Y012682D02*
X022840Y012682D01*
X022840Y013000D02*
X025700Y013000D01*
X025381Y013319D02*
X022840Y013319D01*
X022840Y013637D02*
X025194Y013637D01*
X025287Y013412D02*
X025287Y013412D01*
X025305Y013395D02*
X025305Y013395D01*
X025180Y013956D02*
X022840Y013956D01*
X022840Y014274D02*
X025180Y014274D01*
X025180Y014593D02*
X022840Y014593D01*
X022840Y014911D02*
X023614Y014911D01*
X023906Y014911D02*
X024614Y014911D01*
X024906Y014911D02*
X025180Y014911D01*
X026340Y014911D02*
X028289Y014911D01*
X028287Y014912D02*
X028305Y014895D01*
X029268Y013931D01*
X029431Y013768D01*
X029645Y013680D01*
X033303Y013680D01*
X033285Y013662D01*
X033198Y013575D01*
X033198Y013575D01*
X032909Y013286D01*
X032734Y013111D01*
X032640Y012883D01*
X032640Y011137D01*
X032683Y011034D01*
X032683Y010955D01*
X032730Y010840D01*
X029500Y010840D01*
X026340Y014000D01*
X026340Y015193D01*
X026363Y015161D01*
X026421Y015103D01*
X026487Y015055D01*
X026560Y015018D01*
X026638Y014993D01*
X026719Y014980D01*
X026760Y014980D01*
X026801Y014980D01*
X026882Y014993D01*
X026960Y015018D01*
X027033Y015055D01*
X027099Y015103D01*
X027157Y015161D01*
X027205Y015227D01*
X027242Y015300D01*
X027260Y015356D01*
X027278Y015300D01*
X027315Y015227D01*
X027363Y015161D01*
X027421Y015103D01*
X027487Y015055D01*
X027560Y015018D01*
X027638Y014993D01*
X027719Y014980D01*
X027760Y014980D01*
X027801Y014980D01*
X027882Y014993D01*
X027960Y015018D01*
X028033Y015055D01*
X028099Y015103D01*
X028157Y015161D01*
X028180Y015193D01*
X028180Y015172D01*
X028287Y014912D01*
X028287Y014912D01*
X028305Y014895D02*
X028305Y014895D01*
X028607Y014593D02*
X026340Y014593D01*
X026340Y014274D02*
X028926Y014274D01*
X029244Y013956D02*
X026385Y013956D01*
X026703Y013637D02*
X033260Y013637D01*
X033285Y013662D02*
X033285Y013662D01*
X032942Y013319D02*
X027022Y013319D01*
X027340Y013000D02*
X032688Y013000D01*
X032640Y012682D02*
X027659Y012682D01*
X027977Y012363D02*
X032640Y012363D01*
X032640Y012045D02*
X028296Y012045D01*
X028614Y011726D02*
X032640Y011726D01*
X032640Y011408D02*
X028933Y011408D01*
X029251Y011089D02*
X032660Y011089D01*
X033260Y011260D02*
X033260Y012760D01*
X033723Y013223D01*
X033812Y013260D02*
X035260Y013260D01*
X034846Y012640D02*
X034832Y012626D01*
X034780Y012554D01*
X034740Y012475D01*
X034713Y012391D01*
X034699Y012304D01*
X034699Y012260D01*
X035260Y012260D01*
X035260Y012260D01*
X034699Y012260D01*
X034699Y012216D01*
X034713Y012129D01*
X034740Y012045D01*
X034780Y011966D01*
X034832Y011894D01*
X034894Y011832D01*
X034920Y011813D01*
X034897Y011804D01*
X034716Y011623D01*
X034619Y011388D01*
X034619Y011132D01*
X034716Y010897D01*
X034773Y010840D01*
X033790Y010840D01*
X033837Y010955D01*
X033837Y011034D01*
X033880Y011137D01*
X033880Y012503D01*
X034017Y012640D01*
X034846Y012640D01*
X034708Y012363D02*
X033880Y012363D01*
X033880Y012045D02*
X034740Y012045D01*
X034819Y011726D02*
X033880Y011726D01*
X033880Y011408D02*
X034627Y011408D01*
X034637Y011089D02*
X033860Y011089D01*
X033724Y013223D02*
X033739Y013236D01*
X033755Y013246D01*
X033773Y013254D01*
X033792Y013258D01*
X033812Y013260D01*
X036260Y014260D02*
X037708Y014260D01*
X037797Y014297D02*
X038760Y015260D01*
X038760Y025760D01*
X036760Y030760D01*
X004260Y030760D01*
X003260Y030260D01*
X003260Y027260D01*
X005760Y024260D01*
X005760Y019812D01*
X005723Y019723D02*
X004260Y018260D01*
X004973Y018096D02*
X018220Y018096D01*
X018014Y017778D02*
X004877Y017778D01*
X003010Y017459D02*
X002664Y017459D01*
X001856Y017459D02*
X000820Y017459D01*
X000820Y017141D02*
X017377Y017141D01*
X017058Y016822D02*
X000820Y016822D01*
X000820Y016504D02*
X016740Y016504D01*
X016421Y016185D02*
X000820Y016185D01*
X000820Y015867D02*
X016103Y015867D01*
X015784Y015548D02*
X000820Y015548D01*
X000820Y015230D02*
X001509Y015230D01*
X001435Y015199D02*
X001435Y015199D01*
X001147Y014911D02*
X000820Y014911D01*
X000820Y014593D02*
X000829Y014593D01*
X004490Y011726D02*
X011770Y011726D01*
X011650Y011408D02*
X004171Y011408D01*
X003853Y011089D02*
X011660Y011089D01*
X011794Y010771D02*
X004156Y010771D01*
X004374Y010452D02*
X014521Y010452D01*
X014840Y010134D02*
X004401Y010134D01*
X004222Y009815D02*
X010480Y009815D01*
X010187Y009497D02*
X004356Y009497D01*
X004401Y009178D02*
X010140Y009178D01*
X010140Y008860D02*
X004266Y008860D01*
X004247Y008541D02*
X010140Y008541D01*
X010140Y008223D02*
X004321Y008223D01*
X003325Y007904D02*
X003307Y007904D01*
X007760Y003760D02*
X008260Y004260D01*
X010760Y004260D01*
X010760Y009260D01*
X011333Y009497D02*
X015477Y009497D01*
X015158Y009815D02*
X011040Y009815D01*
X011380Y009178D02*
X015795Y009178D01*
X016114Y008860D02*
X011933Y008860D01*
X011587Y008860D02*
X011380Y008860D01*
X011760Y008260D02*
X011760Y003260D01*
X011760Y002760D01*
X011260Y002260D01*
X009260Y002260D01*
X008760Y002760D01*
X008760Y003260D01*
X007760Y003260D02*
X007760Y003760D01*
X010760Y003260D02*
X010760Y004260D01*
X012380Y004401D02*
X015091Y004401D01*
X015137Y004513D02*
X015040Y004277D01*
X015040Y004023D01*
X015137Y003787D01*
X015317Y003607D01*
X015553Y003510D01*
X016407Y003510D01*
X016643Y003607D01*
X016823Y003787D01*
X016920Y004023D01*
X016920Y004277D01*
X016823Y004513D01*
X016643Y004693D01*
X016407Y004790D01*
X015553Y004790D01*
X015317Y004693D01*
X015137Y004513D01*
X015381Y004719D02*
X012380Y004719D01*
X012380Y005038D02*
X019936Y005038D01*
X019617Y005356D02*
X012380Y005356D01*
X012380Y005675D02*
X019299Y005675D01*
X018980Y005993D02*
X012380Y005993D01*
X012380Y006312D02*
X018662Y006312D01*
X018343Y006630D02*
X012380Y006630D01*
X012380Y006949D02*
X018025Y006949D01*
X017706Y007267D02*
X012380Y007267D01*
X012380Y007586D02*
X017388Y007586D01*
X017069Y007904D02*
X012380Y007904D01*
X012380Y008223D02*
X016751Y008223D01*
X016432Y008541D02*
X012315Y008541D01*
X012260Y011260D02*
X014538Y011260D01*
X014627Y011223D02*
X023480Y002370D01*
X022570Y002171D02*
X019450Y002171D01*
X019480Y002490D02*
X022484Y002490D01*
X022165Y002808D02*
X019307Y002808D01*
X018967Y003510D02*
X019203Y003607D01*
X019383Y003787D01*
X019480Y004023D01*
X019480Y004277D01*
X019383Y004513D01*
X019203Y004693D01*
X018967Y004790D01*
X018113Y004790D01*
X017877Y004693D01*
X017697Y004513D01*
X017600Y004277D01*
X017600Y004023D01*
X017697Y003787D01*
X017877Y003607D01*
X018113Y003510D01*
X018967Y003510D01*
X019359Y003764D02*
X021210Y003764D01*
X020891Y004082D02*
X019480Y004082D01*
X019429Y004401D02*
X020573Y004401D01*
X020254Y004719D02*
X019139Y004719D01*
X017941Y004719D02*
X016579Y004719D01*
X016869Y004401D02*
X017651Y004401D01*
X017600Y004082D02*
X016920Y004082D01*
X016799Y003764D02*
X017721Y003764D01*
X017773Y002808D02*
X016747Y002808D01*
X016920Y002490D02*
X017600Y002490D01*
X017630Y002171D02*
X016890Y002171D01*
X015213Y002808D02*
X012380Y002808D01*
X012394Y003127D02*
X021847Y003127D01*
X021528Y003445D02*
X012380Y003445D01*
X012380Y003764D02*
X015161Y003764D01*
X015040Y004082D02*
X012380Y004082D01*
X012319Y002490D02*
X015040Y002490D01*
X015070Y002171D02*
X012048Y002171D01*
X012281Y012045D02*
X004808Y012045D01*
X001643Y017778D02*
X000820Y017778D01*
X000820Y018096D02*
X001620Y018096D01*
X001620Y018415D02*
X000820Y018415D01*
X000820Y018733D02*
X001639Y018733D01*
X001846Y019052D02*
X000820Y019052D01*
X005723Y019724D02*
X005736Y019739D01*
X005746Y019755D01*
X005754Y019773D01*
X005758Y019792D01*
X005760Y019812D01*
X006267Y019390D02*
X006267Y019390D01*
X013746Y015230D02*
X015466Y015230D01*
X015147Y014911D02*
X013837Y014911D01*
X014826Y014593D02*
X014829Y014593D01*
X022840Y015230D02*
X023223Y015230D01*
X023160Y015548D02*
X022840Y015548D01*
X022840Y015867D02*
X023160Y015867D01*
X023179Y016185D02*
X022840Y016185D01*
X022840Y016504D02*
X023395Y016504D01*
X024125Y016504D02*
X024395Y016504D01*
X025125Y016504D02*
X025395Y016504D01*
X026125Y016504D02*
X026565Y016504D01*
X026760Y016540D02*
X026760Y015760D01*
X026760Y015760D01*
X026760Y015760D01*
X027240Y015760D01*
X027760Y015760D01*
X027760Y014980D01*
X027760Y015760D01*
X027760Y015760D01*
X027760Y015867D02*
X027760Y015867D01*
X027760Y016185D02*
X027760Y016185D01*
X027267Y016185D02*
X027253Y016185D01*
X026760Y016185D02*
X026760Y016185D01*
X026760Y015867D02*
X026760Y015867D01*
X026760Y015760D02*
X026760Y014980D01*
X026760Y015760D01*
X026760Y015760D01*
X026760Y015548D02*
X026760Y015548D01*
X026760Y015230D02*
X026760Y015230D01*
X027206Y015230D02*
X027314Y015230D01*
X027760Y015230D02*
X027760Y015230D01*
X027760Y015548D02*
X027760Y015548D01*
X030760Y015760D02*
X035208Y015760D01*
X035297Y015723D02*
X036260Y014760D01*
X036260Y014260D01*
X036790Y013637D02*
X039070Y013637D01*
X039070Y013319D02*
X036901Y013319D01*
X036846Y013000D02*
X039070Y013000D01*
X039070Y012682D02*
X037659Y012682D01*
X037977Y012363D02*
X039070Y012363D01*
X039070Y012045D02*
X038270Y012045D01*
X038340Y011726D02*
X039070Y011726D01*
X039070Y011408D02*
X038340Y011408D01*
X038317Y011089D02*
X039070Y011089D01*
X039070Y010771D02*
X038091Y010771D01*
X037772Y010452D02*
X039070Y010452D01*
X039070Y010134D02*
X037454Y010134D01*
X037135Y009815D02*
X039070Y009815D01*
X038235Y013858D02*
X038235Y013858D01*
X038332Y013956D02*
X039070Y013956D01*
X039070Y014274D02*
X038651Y014274D01*
X038969Y014593D02*
X039070Y014593D01*
X038140Y015548D02*
X036349Y015548D01*
X036667Y015230D02*
X037853Y015230D01*
X037534Y014911D02*
X036869Y014911D01*
X037708Y014260D02*
X037728Y014262D01*
X037747Y014266D01*
X037765Y014274D01*
X037781Y014284D01*
X037796Y014297D01*
X038140Y015867D02*
X036030Y015867D01*
X035822Y016075D02*
X035822Y016075D01*
X035712Y016185D02*
X038140Y016185D01*
X038140Y016504D02*
X031267Y016504D01*
X031586Y016822D02*
X038140Y016822D01*
X038140Y017141D02*
X031904Y017141D01*
X032220Y017459D02*
X038140Y017459D01*
X038140Y017778D02*
X032300Y017778D01*
X032300Y018096D02*
X038140Y018096D01*
X038140Y018415D02*
X032300Y018415D01*
X032300Y018733D02*
X034880Y018733D01*
X034652Y019052D02*
X032300Y019052D01*
X032300Y019370D02*
X034619Y019370D01*
X034782Y019689D02*
X032300Y019689D01*
X032300Y020007D02*
X034759Y020007D01*
X034702Y020326D02*
X032300Y020326D01*
X032300Y020644D02*
X034850Y020644D01*
X034689Y020963D02*
X032337Y020963D01*
X032337Y021281D02*
X034619Y021281D01*
X034707Y021600D02*
X032323Y021600D01*
X033375Y024148D02*
X034827Y024148D01*
X035146Y024466D02*
X033843Y024466D01*
X034161Y024785D02*
X035464Y024785D01*
X035783Y025103D02*
X034480Y025103D01*
X034824Y025422D02*
X036101Y025422D01*
X036284Y025740D02*
X034880Y025740D01*
X034837Y026059D02*
X037973Y026059D01*
X037845Y026377D02*
X034391Y026377D01*
X034260Y025760D02*
X033297Y024797D01*
X033208Y024760D02*
X032260Y024760D01*
X033208Y024760D02*
X033228Y024762D01*
X033247Y024766D01*
X033265Y024774D01*
X033281Y024784D01*
X033296Y024797D01*
X035512Y023192D02*
X038140Y023192D01*
X038140Y022874D02*
X036454Y022874D01*
X036066Y022874D02*
X035454Y022874D01*
X035831Y023511D02*
X038140Y023511D01*
X038140Y023829D02*
X036149Y023829D01*
X036468Y024148D02*
X038140Y024148D01*
X038140Y024466D02*
X036786Y024466D01*
X037240Y024785D02*
X038140Y024785D01*
X038140Y025103D02*
X037337Y025103D01*
X037337Y025422D02*
X038140Y025422D01*
X038100Y025740D02*
X037236Y025740D01*
X037718Y026696D02*
X026701Y026696D01*
X026383Y027014D02*
X037591Y027014D01*
X037463Y027333D02*
X026064Y027333D01*
X025746Y027651D02*
X037336Y027651D01*
X037208Y027970D02*
X025427Y027970D01*
X025109Y028288D02*
X037081Y028288D01*
X036954Y028607D02*
X024790Y028607D01*
X024472Y028925D02*
X036826Y028925D01*
X036699Y029244D02*
X024153Y029244D01*
X023835Y029562D02*
X036571Y029562D01*
X036444Y029881D02*
X023516Y029881D01*
X022760Y029760D02*
X026760Y025760D01*
X028760Y025760D01*
X029797Y024796D02*
X029784Y024781D01*
X029774Y024765D01*
X029766Y024747D01*
X029762Y024728D01*
X029760Y024708D01*
X026723Y020296D02*
X026736Y020281D01*
X026746Y020265D01*
X026754Y020247D01*
X026758Y020228D01*
X026760Y020208D01*
X026760Y019540D02*
X026760Y018760D01*
X026760Y017980D01*
X026760Y018760D01*
X026760Y018760D01*
X026760Y018733D02*
X026760Y018733D01*
X026760Y018415D02*
X026760Y018415D01*
X026760Y018096D02*
X026760Y018096D01*
X027089Y018096D02*
X027431Y018096D01*
X027760Y018096D02*
X027760Y018096D01*
X027760Y018415D02*
X027760Y018415D01*
X027760Y018733D02*
X027760Y018733D01*
X027760Y019052D02*
X027760Y019052D01*
X026760Y019052D02*
X026760Y019052D01*
X026375Y019370D02*
X026259Y019370D01*
X025261Y019370D02*
X025259Y019370D01*
X024261Y019370D02*
X024259Y019370D01*
X023435Y020321D02*
X023435Y020321D01*
X024205Y018096D02*
X024315Y018096D01*
X023598Y017778D02*
X031014Y017778D01*
X031205Y018096D02*
X031220Y018096D01*
X030315Y018096D02*
X030205Y018096D01*
X029315Y018096D02*
X029205Y018096D01*
X028315Y018096D02*
X028089Y018096D01*
X026431Y018096D02*
X026205Y018096D01*
X025315Y018096D02*
X025205Y018096D01*
X017760Y022708D02*
X017762Y022728D01*
X017766Y022747D01*
X017774Y022765D01*
X017784Y022781D01*
X017797Y022796D01*
X019640Y027333D02*
X014233Y027333D01*
X014397Y027651D02*
X019640Y027651D01*
X019640Y027970D02*
X014363Y027970D01*
X014133Y028288D02*
X019640Y028288D01*
X019640Y028607D02*
X014296Y028607D01*
X014317Y028760D02*
X013760Y028760D01*
X014317Y028760D01*
X014292Y028925D02*
X019640Y028925D01*
X020260Y029760D02*
X022760Y029760D01*
X020260Y029760D02*
X016760Y029760D01*
X016708Y029760D02*
X013760Y029760D01*
X009260Y029760D01*
X004760Y029760D01*
X004153Y029562D02*
X003880Y029562D01*
X003880Y029244D02*
X004376Y029244D01*
X004123Y029881D02*
X003887Y029881D01*
X002640Y029244D02*
X002379Y029244D01*
X002640Y028925D02*
X000820Y028925D01*
X000820Y028607D02*
X002640Y028607D01*
X002640Y028288D02*
X000820Y028288D01*
X000820Y027970D02*
X002640Y027970D01*
X002640Y027651D02*
X000820Y027651D01*
X000820Y027333D02*
X002640Y027333D01*
X002687Y027014D02*
X000820Y027014D01*
X000820Y026696D02*
X002923Y026696D01*
X003189Y026377D02*
X000820Y026377D01*
X000820Y026059D02*
X003454Y026059D01*
X005233Y027333D02*
X008787Y027333D01*
X008623Y027651D02*
X005397Y027651D01*
X005363Y027970D02*
X008657Y027970D01*
X008887Y028288D02*
X005133Y028288D01*
X005296Y028607D02*
X008724Y028607D01*
X008703Y028760D02*
X009260Y028760D01*
X009817Y028760D01*
X009260Y028760D01*
X009260Y028760D01*
X009260Y028760D01*
X008703Y028760D01*
X008728Y028925D02*
X005292Y028925D01*
X001141Y029244D02*
X000820Y029244D01*
X009633Y028288D02*
X013387Y028288D01*
X013224Y028607D02*
X009796Y028607D01*
X009792Y028925D02*
X013228Y028925D01*
X013203Y028760D02*
X013760Y028760D01*
X013760Y028760D01*
X013760Y028760D01*
X013203Y028760D01*
X013157Y027970D02*
X009863Y027970D01*
X009897Y027651D02*
X013123Y027651D01*
X013287Y027333D02*
X009733Y027333D01*
X015708Y028760D02*
X015728Y028758D01*
X015747Y028754D01*
X015765Y028746D01*
X015781Y028736D01*
X015796Y028723D01*
X016708Y029760D02*
X016728Y029762D01*
X016747Y029766D01*
X016765Y029774D01*
X016781Y029784D01*
X016796Y029797D01*
X035208Y015760D02*
X035228Y015758D01*
X035247Y015754D01*
X035265Y015746D01*
X035281Y015736D01*
X035296Y015723D01*
X035630Y016267D02*
X035630Y016267D01*
X035640Y018733D02*
X035880Y018733D01*
X036640Y018733D02*
X038140Y018733D01*
X038140Y019052D02*
X036868Y019052D01*
X036901Y019370D02*
X038140Y019370D01*
X038140Y019689D02*
X036738Y019689D01*
X036849Y020007D02*
X038140Y020007D01*
X038140Y020326D02*
X036901Y020326D01*
X036783Y020644D02*
X038140Y020644D01*
X038140Y020963D02*
X036831Y020963D01*
X036901Y021281D02*
X038140Y021281D01*
X038140Y021600D02*
X036813Y021600D01*
X036812Y021918D02*
X038140Y021918D01*
X038140Y022237D02*
X036901Y022237D01*
X036832Y022555D02*
X038140Y022555D01*
D16*
X035260Y022260D02*
X030812Y022260D01*
X030723Y022223D02*
X028760Y020260D01*
X028760Y018760D01*
X028760Y015760D02*
X028760Y015312D01*
X028797Y015223D02*
X029760Y014260D01*
X035260Y014260D01*
X035296Y015723D02*
X035281Y015736D01*
X035265Y015746D01*
X035247Y015754D01*
X035228Y015758D01*
X035208Y015760D01*
X036260Y012260D02*
X037260Y012260D01*
X037760Y011760D01*
X037760Y011260D01*
X036797Y010297D01*
X036708Y010260D02*
X029260Y010260D01*
X025797Y013723D01*
X025760Y013812D02*
X025760Y015760D01*
X025760Y013812D02*
X025762Y013792D01*
X025766Y013773D01*
X025774Y013755D01*
X025784Y013739D01*
X025797Y013724D01*
X028797Y015224D02*
X028784Y015239D01*
X028774Y015255D01*
X028766Y015273D01*
X028762Y015292D01*
X028760Y015312D01*
X023760Y018760D02*
X022297Y017297D01*
X022260Y017208D02*
X022260Y011760D01*
X028723Y005297D01*
X028723Y005296D02*
X028736Y005281D01*
X028746Y005265D01*
X028754Y005247D01*
X028758Y005228D01*
X028760Y005208D01*
X023480Y004150D02*
X023480Y008988D01*
X023443Y009077D02*
X021760Y010760D01*
X021760Y020260D01*
X019760Y017760D02*
X019760Y014812D01*
X022260Y017208D02*
X022262Y017228D01*
X022266Y017247D01*
X022274Y017265D01*
X022284Y017281D01*
X022297Y017296D01*
X019260Y012260D02*
X019260Y010260D01*
X023443Y009076D02*
X023456Y009061D01*
X023466Y009045D01*
X023474Y009027D01*
X023478Y009008D01*
X023480Y008988D01*
X036708Y010260D02*
X036728Y010262D01*
X036747Y010266D01*
X036765Y010274D01*
X036781Y010284D01*
X036796Y010297D01*
X030812Y022260D02*
X030792Y022258D01*
X030773Y022254D01*
X030755Y022246D01*
X030739Y022236D01*
X030724Y022223D01*
X032260Y023260D02*
X034708Y023260D01*
X034797Y023297D02*
X036760Y025260D01*
X034796Y023297D02*
X034781Y023284D01*
X034765Y023274D01*
X034747Y023266D01*
X034728Y023262D01*
X034708Y023260D01*
D17*
X032260Y023260D03*
X032260Y024760D03*
X031260Y026260D03*
X034260Y025760D03*
X036760Y025260D03*
X031760Y021260D03*
X024760Y020760D03*
X021760Y020260D03*
X019260Y020760D03*
X019760Y017760D03*
X020760Y016760D03*
X017760Y017760D03*
X014260Y014260D03*
X013260Y014760D03*
X009760Y011760D03*
X012260Y011260D03*
X014260Y007760D03*
X019260Y010260D03*
X019260Y012260D03*
X020760Y013760D03*
X033260Y011260D03*
X019260Y024260D03*
D18*
X022760Y022760D03*
D19*
X023260Y021260D02*
X021812Y021260D01*
X021723Y021223D02*
X020760Y020260D01*
X020760Y016760D01*
X018760Y017760D02*
X018760Y020760D01*
X019260Y020760D01*
X021724Y021223D02*
X021739Y021236D01*
X021755Y021246D01*
X021773Y021254D01*
X021792Y021258D01*
X021812Y021260D01*
X023260Y021260D02*
X023723Y020797D01*
X023812Y020760D02*
X024760Y020760D01*
X023812Y020760D02*
X023792Y020762D01*
X023773Y020766D01*
X023755Y020774D01*
X023739Y020784D01*
X023724Y020797D01*
X018760Y017760D02*
X012260Y011260D01*
X012708Y012760D02*
X004760Y012760D01*
X002797Y010797D01*
X002760Y010708D02*
X002760Y010260D01*
X002760Y010708D02*
X002762Y010728D01*
X002766Y010747D01*
X002774Y010765D01*
X002784Y010781D01*
X002797Y010796D01*
X000797Y010224D02*
X000784Y010239D01*
X000774Y010255D01*
X000766Y010273D01*
X000762Y010292D01*
X000760Y010312D01*
X000760Y013760D01*
X001723Y014723D01*
X001812Y014760D02*
X013260Y014760D01*
X014260Y014260D02*
X012797Y012797D01*
X012796Y012797D02*
X012781Y012784D01*
X012765Y012774D01*
X012747Y012766D01*
X012728Y012762D01*
X012708Y012760D01*
X014538Y011260D02*
X014558Y011258D01*
X014577Y011254D01*
X014595Y011246D01*
X014611Y011236D01*
X014626Y011223D01*
X014260Y007760D02*
X010297Y011723D01*
X010208Y011760D02*
X009760Y011760D01*
X010208Y011760D02*
X010228Y011758D01*
X010247Y011754D01*
X010265Y011746D01*
X010281Y011736D01*
X010296Y011723D01*
X002760Y008260D02*
X000797Y010223D01*
X001724Y014723D02*
X001739Y014736D01*
X001755Y014746D01*
X001773Y014754D01*
X001792Y014758D01*
X001812Y014760D01*
X019797Y014723D02*
X020760Y013760D01*
X019797Y014724D02*
X019784Y014739D01*
X019774Y014755D01*
X019766Y014773D01*
X019762Y014792D01*
X019760Y014812D01*
X029760Y015760D02*
X031760Y017760D01*
X031760Y021260D01*
D20*
X031260Y003760D03*
X036260Y002260D03*
X006260Y007760D03*
X002260Y004760D03*
X001760Y027760D03*
D21*
X018260Y026260D03*
X026260Y023260D03*
X035760Y029260D03*
X029760Y012760D03*
X011760Y008260D03*
X010760Y009260D03*
D22*
X020260Y021760D03*
X029260Y025260D03*
M02*
