G75*
G70*
%OFA0B0*%
%FSLAX24Y24*%
%IPPOS*%
%LPD*%
%AMOC8*
5,1,8,0,0,1.08239X$1,22.5*
%
%ADD10C,0.0000*%
%ADD11C,0.0060*%
%ADD12C,0.0040*%
%ADD13C,0.0050*%
%ADD14C,0.0080*%
%ADD15C,0.0030*%
%ADD16C,0.0020*%
%ADD17R,0.0500X0.0350*%
%ADD18C,0.0070*%
%ADD19C,0.0025*%
%ADD20C,0.0098*%
%ADD21C,0.0010*%
D10*
X000260Y000260D02*
X000260Y031756D01*
X039630Y031756D01*
X039630Y000260D01*
X000260Y000260D01*
X000630Y001260D02*
X000632Y001310D01*
X000638Y001360D01*
X000648Y001409D01*
X000662Y001457D01*
X000679Y001504D01*
X000700Y001549D01*
X000725Y001593D01*
X000753Y001634D01*
X000785Y001673D01*
X000819Y001710D01*
X000856Y001744D01*
X000896Y001774D01*
X000938Y001801D01*
X000982Y001825D01*
X001028Y001846D01*
X001075Y001862D01*
X001123Y001875D01*
X001173Y001884D01*
X001222Y001889D01*
X001273Y001890D01*
X001323Y001887D01*
X001372Y001880D01*
X001421Y001869D01*
X001469Y001854D01*
X001515Y001836D01*
X001560Y001814D01*
X001603Y001788D01*
X001644Y001759D01*
X001683Y001727D01*
X001719Y001692D01*
X001751Y001654D01*
X001781Y001614D01*
X001808Y001571D01*
X001831Y001527D01*
X001850Y001481D01*
X001866Y001433D01*
X001878Y001384D01*
X001886Y001335D01*
X001890Y001285D01*
X001890Y001235D01*
X001886Y001185D01*
X001878Y001136D01*
X001866Y001087D01*
X001850Y001039D01*
X001831Y000993D01*
X001808Y000949D01*
X001781Y000906D01*
X001751Y000866D01*
X001719Y000828D01*
X001683Y000793D01*
X001644Y000761D01*
X001603Y000732D01*
X001560Y000706D01*
X001515Y000684D01*
X001469Y000666D01*
X001421Y000651D01*
X001372Y000640D01*
X001323Y000633D01*
X001273Y000630D01*
X001222Y000631D01*
X001173Y000636D01*
X001123Y000645D01*
X001075Y000658D01*
X001028Y000674D01*
X000982Y000695D01*
X000938Y000719D01*
X000896Y000746D01*
X000856Y000776D01*
X000819Y000810D01*
X000785Y000847D01*
X000753Y000886D01*
X000725Y000927D01*
X000700Y000971D01*
X000679Y001016D01*
X000662Y001063D01*
X000648Y001111D01*
X000638Y001160D01*
X000632Y001210D01*
X000630Y001260D01*
X002610Y024160D02*
X002612Y024210D01*
X002618Y024260D01*
X002628Y024310D01*
X002641Y024358D01*
X002658Y024406D01*
X002679Y024452D01*
X002703Y024496D01*
X002731Y024538D01*
X002762Y024578D01*
X002796Y024615D01*
X002833Y024650D01*
X002872Y024681D01*
X002913Y024710D01*
X002957Y024735D01*
X003003Y024757D01*
X003050Y024775D01*
X003098Y024789D01*
X003147Y024800D01*
X003197Y024807D01*
X003247Y024810D01*
X003298Y024809D01*
X003348Y024804D01*
X003398Y024795D01*
X003446Y024783D01*
X003494Y024766D01*
X003540Y024746D01*
X003585Y024723D01*
X003628Y024696D01*
X003668Y024666D01*
X003706Y024633D01*
X003741Y024597D01*
X003774Y024558D01*
X003803Y024517D01*
X003829Y024474D01*
X003852Y024429D01*
X003871Y024382D01*
X003886Y024334D01*
X003898Y024285D01*
X003906Y024235D01*
X003910Y024185D01*
X003910Y024135D01*
X003906Y024085D01*
X003898Y024035D01*
X003886Y023986D01*
X003871Y023938D01*
X003852Y023891D01*
X003829Y023846D01*
X003803Y023803D01*
X003774Y023762D01*
X003741Y023723D01*
X003706Y023687D01*
X003668Y023654D01*
X003628Y023624D01*
X003585Y023597D01*
X003540Y023574D01*
X003494Y023554D01*
X003446Y023537D01*
X003398Y023525D01*
X003348Y023516D01*
X003298Y023511D01*
X003247Y023510D01*
X003197Y023513D01*
X003147Y023520D01*
X003098Y023531D01*
X003050Y023545D01*
X003003Y023563D01*
X002957Y023585D01*
X002913Y023610D01*
X002872Y023639D01*
X002833Y023670D01*
X002796Y023705D01*
X002762Y023742D01*
X002731Y023782D01*
X002703Y023824D01*
X002679Y023868D01*
X002658Y023914D01*
X002641Y023962D01*
X002628Y024010D01*
X002618Y024060D01*
X002612Y024110D01*
X002610Y024160D01*
X000630Y030760D02*
X000632Y030810D01*
X000638Y030860D01*
X000648Y030909D01*
X000662Y030957D01*
X000679Y031004D01*
X000700Y031049D01*
X000725Y031093D01*
X000753Y031134D01*
X000785Y031173D01*
X000819Y031210D01*
X000856Y031244D01*
X000896Y031274D01*
X000938Y031301D01*
X000982Y031325D01*
X001028Y031346D01*
X001075Y031362D01*
X001123Y031375D01*
X001173Y031384D01*
X001222Y031389D01*
X001273Y031390D01*
X001323Y031387D01*
X001372Y031380D01*
X001421Y031369D01*
X001469Y031354D01*
X001515Y031336D01*
X001560Y031314D01*
X001603Y031288D01*
X001644Y031259D01*
X001683Y031227D01*
X001719Y031192D01*
X001751Y031154D01*
X001781Y031114D01*
X001808Y031071D01*
X001831Y031027D01*
X001850Y030981D01*
X001866Y030933D01*
X001878Y030884D01*
X001886Y030835D01*
X001890Y030785D01*
X001890Y030735D01*
X001886Y030685D01*
X001878Y030636D01*
X001866Y030587D01*
X001850Y030539D01*
X001831Y030493D01*
X001808Y030449D01*
X001781Y030406D01*
X001751Y030366D01*
X001719Y030328D01*
X001683Y030293D01*
X001644Y030261D01*
X001603Y030232D01*
X001560Y030206D01*
X001515Y030184D01*
X001469Y030166D01*
X001421Y030151D01*
X001372Y030140D01*
X001323Y030133D01*
X001273Y030130D01*
X001222Y030131D01*
X001173Y030136D01*
X001123Y030145D01*
X001075Y030158D01*
X001028Y030174D01*
X000982Y030195D01*
X000938Y030219D01*
X000896Y030246D01*
X000856Y030276D01*
X000819Y030310D01*
X000785Y030347D01*
X000753Y030386D01*
X000725Y030427D01*
X000700Y030471D01*
X000679Y030516D01*
X000662Y030563D01*
X000648Y030611D01*
X000638Y030660D01*
X000632Y030710D01*
X000630Y030760D01*
X038030Y030760D02*
X038032Y030810D01*
X038038Y030860D01*
X038048Y030909D01*
X038062Y030957D01*
X038079Y031004D01*
X038100Y031049D01*
X038125Y031093D01*
X038153Y031134D01*
X038185Y031173D01*
X038219Y031210D01*
X038256Y031244D01*
X038296Y031274D01*
X038338Y031301D01*
X038382Y031325D01*
X038428Y031346D01*
X038475Y031362D01*
X038523Y031375D01*
X038573Y031384D01*
X038622Y031389D01*
X038673Y031390D01*
X038723Y031387D01*
X038772Y031380D01*
X038821Y031369D01*
X038869Y031354D01*
X038915Y031336D01*
X038960Y031314D01*
X039003Y031288D01*
X039044Y031259D01*
X039083Y031227D01*
X039119Y031192D01*
X039151Y031154D01*
X039181Y031114D01*
X039208Y031071D01*
X039231Y031027D01*
X039250Y030981D01*
X039266Y030933D01*
X039278Y030884D01*
X039286Y030835D01*
X039290Y030785D01*
X039290Y030735D01*
X039286Y030685D01*
X039278Y030636D01*
X039266Y030587D01*
X039250Y030539D01*
X039231Y030493D01*
X039208Y030449D01*
X039181Y030406D01*
X039151Y030366D01*
X039119Y030328D01*
X039083Y030293D01*
X039044Y030261D01*
X039003Y030232D01*
X038960Y030206D01*
X038915Y030184D01*
X038869Y030166D01*
X038821Y030151D01*
X038772Y030140D01*
X038723Y030133D01*
X038673Y030130D01*
X038622Y030131D01*
X038573Y030136D01*
X038523Y030145D01*
X038475Y030158D01*
X038428Y030174D01*
X038382Y030195D01*
X038338Y030219D01*
X038296Y030246D01*
X038256Y030276D01*
X038219Y030310D01*
X038185Y030347D01*
X038153Y030386D01*
X038125Y030427D01*
X038100Y030471D01*
X038079Y030516D01*
X038062Y030563D01*
X038048Y030611D01*
X038038Y030660D01*
X038032Y030710D01*
X038030Y030760D01*
X038030Y001260D02*
X038032Y001310D01*
X038038Y001360D01*
X038048Y001409D01*
X038062Y001457D01*
X038079Y001504D01*
X038100Y001549D01*
X038125Y001593D01*
X038153Y001634D01*
X038185Y001673D01*
X038219Y001710D01*
X038256Y001744D01*
X038296Y001774D01*
X038338Y001801D01*
X038382Y001825D01*
X038428Y001846D01*
X038475Y001862D01*
X038523Y001875D01*
X038573Y001884D01*
X038622Y001889D01*
X038673Y001890D01*
X038723Y001887D01*
X038772Y001880D01*
X038821Y001869D01*
X038869Y001854D01*
X038915Y001836D01*
X038960Y001814D01*
X039003Y001788D01*
X039044Y001759D01*
X039083Y001727D01*
X039119Y001692D01*
X039151Y001654D01*
X039181Y001614D01*
X039208Y001571D01*
X039231Y001527D01*
X039250Y001481D01*
X039266Y001433D01*
X039278Y001384D01*
X039286Y001335D01*
X039290Y001285D01*
X039290Y001235D01*
X039286Y001185D01*
X039278Y001136D01*
X039266Y001087D01*
X039250Y001039D01*
X039231Y000993D01*
X039208Y000949D01*
X039181Y000906D01*
X039151Y000866D01*
X039119Y000828D01*
X039083Y000793D01*
X039044Y000761D01*
X039003Y000732D01*
X038960Y000706D01*
X038915Y000684D01*
X038869Y000666D01*
X038821Y000651D01*
X038772Y000640D01*
X038723Y000633D01*
X038673Y000630D01*
X038622Y000631D01*
X038573Y000636D01*
X038523Y000645D01*
X038475Y000658D01*
X038428Y000674D01*
X038382Y000695D01*
X038338Y000719D01*
X038296Y000746D01*
X038256Y000776D01*
X038219Y000810D01*
X038185Y000847D01*
X038153Y000886D01*
X038125Y000927D01*
X038100Y000971D01*
X038079Y001016D01*
X038062Y001063D01*
X038048Y001111D01*
X038038Y001160D01*
X038032Y001210D01*
X038030Y001260D01*
D11*
X026060Y002960D02*
X026060Y003560D01*
X025960Y003560D01*
X025960Y003660D01*
X025960Y002960D02*
X025960Y002860D01*
X025960Y002960D02*
X026060Y002960D01*
X025610Y002060D02*
X025210Y002060D01*
X024260Y002060D01*
X023910Y002060D01*
X023560Y002860D02*
X023560Y002960D01*
X023460Y002960D01*
X023460Y003560D01*
X023560Y003560D01*
X023560Y003660D01*
X023910Y004460D02*
X024260Y004460D01*
X025260Y004460D01*
X025610Y004460D01*
X024660Y003260D02*
X024662Y003280D01*
X024668Y003298D01*
X024677Y003316D01*
X024689Y003331D01*
X024704Y003343D01*
X024722Y003352D01*
X024740Y003358D01*
X024760Y003360D01*
X024780Y003358D01*
X024798Y003352D01*
X024816Y003343D01*
X024831Y003331D01*
X024843Y003316D01*
X024852Y003298D01*
X024858Y003280D01*
X024860Y003260D01*
X024858Y003240D01*
X024852Y003222D01*
X024843Y003204D01*
X024831Y003189D01*
X024816Y003177D01*
X024798Y003168D01*
X024780Y003162D01*
X024760Y003160D01*
X024740Y003162D01*
X024722Y003168D01*
X024704Y003177D01*
X024689Y003189D01*
X024677Y003204D01*
X024668Y003222D01*
X024662Y003240D01*
X024660Y003260D01*
X024060Y003260D02*
X024062Y003312D01*
X024068Y003364D01*
X024078Y003416D01*
X024091Y003466D01*
X024108Y003516D01*
X024129Y003564D01*
X024154Y003610D01*
X024182Y003654D01*
X024213Y003696D01*
X024247Y003736D01*
X024284Y003773D01*
X024324Y003807D01*
X024366Y003838D01*
X024410Y003866D01*
X024456Y003891D01*
X024504Y003912D01*
X024554Y003929D01*
X024604Y003942D01*
X024656Y003952D01*
X024708Y003958D01*
X024760Y003960D01*
X024812Y003958D01*
X024864Y003952D01*
X024916Y003942D01*
X024966Y003929D01*
X025016Y003912D01*
X025064Y003891D01*
X025110Y003866D01*
X025154Y003838D01*
X025196Y003807D01*
X025236Y003773D01*
X025273Y003736D01*
X025307Y003696D01*
X025338Y003654D01*
X025366Y003610D01*
X025391Y003564D01*
X025412Y003516D01*
X025429Y003466D01*
X025442Y003416D01*
X025452Y003364D01*
X025458Y003312D01*
X025460Y003260D01*
X025458Y003208D01*
X025452Y003156D01*
X025442Y003104D01*
X025429Y003054D01*
X025412Y003004D01*
X025391Y002956D01*
X025366Y002910D01*
X025338Y002866D01*
X025307Y002824D01*
X025273Y002784D01*
X025236Y002747D01*
X025196Y002713D01*
X025154Y002682D01*
X025110Y002654D01*
X025064Y002629D01*
X025016Y002608D01*
X024966Y002591D01*
X024916Y002578D01*
X024864Y002568D01*
X024812Y002562D01*
X024760Y002560D01*
X024708Y002562D01*
X024656Y002568D01*
X024604Y002578D01*
X024554Y002591D01*
X024504Y002608D01*
X024456Y002629D01*
X024410Y002654D01*
X024366Y002682D01*
X024324Y002713D01*
X024284Y002747D01*
X024247Y002784D01*
X024213Y002824D01*
X024182Y002866D01*
X024154Y002910D01*
X024129Y002956D01*
X024108Y003004D01*
X024091Y003054D01*
X024078Y003104D01*
X024068Y003156D01*
X024062Y003208D01*
X024060Y003260D01*
X018560Y002960D02*
X018560Y003560D01*
X018460Y003560D01*
X018460Y003660D01*
X018460Y002960D02*
X018460Y002860D01*
X018460Y002960D02*
X018560Y002960D01*
X018110Y002060D02*
X017710Y002060D01*
X016760Y002060D01*
X016410Y002060D01*
X016060Y002860D02*
X016060Y002960D01*
X015960Y002960D01*
X015960Y003560D01*
X016060Y003560D01*
X016060Y003660D01*
X016410Y004460D02*
X016760Y004460D01*
X017760Y004460D01*
X018110Y004460D01*
X017160Y003260D02*
X017162Y003280D01*
X017168Y003298D01*
X017177Y003316D01*
X017189Y003331D01*
X017204Y003343D01*
X017222Y003352D01*
X017240Y003358D01*
X017260Y003360D01*
X017280Y003358D01*
X017298Y003352D01*
X017316Y003343D01*
X017331Y003331D01*
X017343Y003316D01*
X017352Y003298D01*
X017358Y003280D01*
X017360Y003260D01*
X017358Y003240D01*
X017352Y003222D01*
X017343Y003204D01*
X017331Y003189D01*
X017316Y003177D01*
X017298Y003168D01*
X017280Y003162D01*
X017260Y003160D01*
X017240Y003162D01*
X017222Y003168D01*
X017204Y003177D01*
X017189Y003189D01*
X017177Y003204D01*
X017168Y003222D01*
X017162Y003240D01*
X017160Y003260D01*
X016560Y003260D02*
X016562Y003312D01*
X016568Y003364D01*
X016578Y003416D01*
X016591Y003466D01*
X016608Y003516D01*
X016629Y003564D01*
X016654Y003610D01*
X016682Y003654D01*
X016713Y003696D01*
X016747Y003736D01*
X016784Y003773D01*
X016824Y003807D01*
X016866Y003838D01*
X016910Y003866D01*
X016956Y003891D01*
X017004Y003912D01*
X017054Y003929D01*
X017104Y003942D01*
X017156Y003952D01*
X017208Y003958D01*
X017260Y003960D01*
X017312Y003958D01*
X017364Y003952D01*
X017416Y003942D01*
X017466Y003929D01*
X017516Y003912D01*
X017564Y003891D01*
X017610Y003866D01*
X017654Y003838D01*
X017696Y003807D01*
X017736Y003773D01*
X017773Y003736D01*
X017807Y003696D01*
X017838Y003654D01*
X017866Y003610D01*
X017891Y003564D01*
X017912Y003516D01*
X017929Y003466D01*
X017942Y003416D01*
X017952Y003364D01*
X017958Y003312D01*
X017960Y003260D01*
X017958Y003208D01*
X017952Y003156D01*
X017942Y003104D01*
X017929Y003054D01*
X017912Y003004D01*
X017891Y002956D01*
X017866Y002910D01*
X017838Y002866D01*
X017807Y002824D01*
X017773Y002784D01*
X017736Y002747D01*
X017696Y002713D01*
X017654Y002682D01*
X017610Y002654D01*
X017564Y002629D01*
X017516Y002608D01*
X017466Y002591D01*
X017416Y002578D01*
X017364Y002568D01*
X017312Y002562D01*
X017260Y002560D01*
X017208Y002562D01*
X017156Y002568D01*
X017104Y002578D01*
X017054Y002591D01*
X017004Y002608D01*
X016956Y002629D01*
X016910Y002654D01*
X016866Y002682D01*
X016824Y002713D01*
X016784Y002747D01*
X016747Y002784D01*
X016713Y002824D01*
X016682Y002866D01*
X016654Y002910D01*
X016629Y002956D01*
X016608Y003004D01*
X016591Y003054D01*
X016578Y003104D01*
X016568Y003156D01*
X016562Y003208D01*
X016560Y003260D01*
X012072Y004090D02*
X011645Y004090D01*
X011859Y004090D02*
X011859Y004731D01*
X011645Y004517D01*
X009072Y004090D02*
X008645Y004090D01*
X008859Y004090D02*
X008859Y004731D01*
X008645Y004517D01*
X005572Y004090D02*
X005145Y004090D01*
X005359Y004090D02*
X005359Y004731D01*
X005145Y004517D01*
X011490Y009990D02*
X011490Y015360D01*
X011660Y015530D01*
X017030Y015530D01*
X017030Y009990D01*
X011490Y009990D01*
X011725Y015075D02*
X011727Y015104D01*
X011733Y015133D01*
X011742Y015161D01*
X011756Y015187D01*
X011772Y015211D01*
X011792Y015233D01*
X011815Y015252D01*
X011839Y015268D01*
X011866Y015280D01*
X011894Y015289D01*
X011923Y015294D01*
X011952Y015295D01*
X011982Y015292D01*
X012010Y015285D01*
X012038Y015275D01*
X012063Y015260D01*
X012087Y015243D01*
X012108Y015223D01*
X012126Y015200D01*
X012141Y015174D01*
X012153Y015147D01*
X012161Y015119D01*
X012165Y015090D01*
X012165Y015060D01*
X012161Y015031D01*
X012153Y015003D01*
X012141Y014976D01*
X012126Y014950D01*
X012108Y014927D01*
X012087Y014907D01*
X012063Y014890D01*
X012038Y014875D01*
X012010Y014865D01*
X011982Y014858D01*
X011952Y014855D01*
X011923Y014856D01*
X011894Y014861D01*
X011866Y014870D01*
X011839Y014882D01*
X011815Y014898D01*
X011792Y014917D01*
X011772Y014939D01*
X011756Y014963D01*
X011742Y014989D01*
X011733Y015017D01*
X011727Y015046D01*
X011725Y015075D01*
X005310Y019260D02*
X005310Y024160D01*
X004960Y024160D01*
X004960Y024760D01*
X005310Y024760D01*
X005310Y025510D01*
X001210Y025510D01*
X001210Y024760D01*
X001560Y024760D01*
X001560Y024160D01*
X001210Y024160D01*
X001210Y019260D01*
X005310Y019260D01*
X001647Y018231D02*
X001647Y017590D01*
X001220Y018231D01*
X001220Y017590D01*
X001004Y017590D02*
X000790Y017590D01*
X000897Y017590D02*
X000897Y018231D01*
X000790Y018231D02*
X001004Y018231D01*
X002550Y024160D02*
X002552Y024213D01*
X002558Y024266D01*
X002568Y024318D01*
X002582Y024369D01*
X002599Y024419D01*
X002620Y024468D01*
X002645Y024515D01*
X002673Y024560D01*
X002705Y024603D01*
X002740Y024643D01*
X002777Y024680D01*
X002817Y024715D01*
X002860Y024747D01*
X002905Y024775D01*
X002952Y024800D01*
X003001Y024821D01*
X003051Y024838D01*
X003102Y024852D01*
X003154Y024862D01*
X003207Y024868D01*
X003260Y024870D01*
X003313Y024868D01*
X003366Y024862D01*
X003418Y024852D01*
X003469Y024838D01*
X003519Y024821D01*
X003568Y024800D01*
X003615Y024775D01*
X003660Y024747D01*
X003703Y024715D01*
X003743Y024680D01*
X003780Y024643D01*
X003815Y024603D01*
X003847Y024560D01*
X003875Y024515D01*
X003900Y024468D01*
X003921Y024419D01*
X003938Y024369D01*
X003952Y024318D01*
X003962Y024266D01*
X003968Y024213D01*
X003970Y024160D01*
X003968Y024107D01*
X003962Y024054D01*
X003952Y024002D01*
X003938Y023951D01*
X003921Y023901D01*
X003900Y023852D01*
X003875Y023805D01*
X003847Y023760D01*
X003815Y023717D01*
X003780Y023677D01*
X003743Y023640D01*
X003703Y023605D01*
X003660Y023573D01*
X003615Y023545D01*
X003568Y023520D01*
X003519Y023499D01*
X003469Y023482D01*
X003418Y023468D01*
X003366Y023458D01*
X003313Y023452D01*
X003260Y023450D01*
X003207Y023452D01*
X003154Y023458D01*
X003102Y023468D01*
X003051Y023482D01*
X003001Y023499D01*
X002952Y023520D01*
X002905Y023545D01*
X002860Y023573D01*
X002817Y023605D01*
X002777Y023640D01*
X002740Y023677D01*
X002705Y023717D01*
X002673Y023760D01*
X002645Y023805D01*
X002620Y023852D01*
X002599Y023901D01*
X002582Y023951D01*
X002568Y024002D01*
X002558Y024054D01*
X002552Y024107D01*
X002550Y024160D01*
X003303Y029790D02*
X003089Y030004D01*
X003730Y030004D01*
X003730Y030217D02*
X003730Y029790D01*
X007589Y030004D02*
X008230Y030004D01*
X008230Y030217D02*
X008230Y029790D01*
X007803Y029790D02*
X007589Y030004D01*
X012089Y030004D02*
X012730Y030004D01*
X012730Y030217D02*
X012730Y029790D01*
X012303Y029790D02*
X012089Y030004D01*
X023260Y018410D02*
X023260Y016110D01*
X031260Y016110D01*
X031260Y016860D01*
X031221Y016862D01*
X031182Y016868D01*
X031144Y016877D01*
X031107Y016890D01*
X031071Y016907D01*
X031038Y016927D01*
X031006Y016951D01*
X030977Y016977D01*
X030951Y017006D01*
X030927Y017038D01*
X030907Y017071D01*
X030890Y017107D01*
X030877Y017144D01*
X030868Y017182D01*
X030862Y017221D01*
X030860Y017260D01*
X030862Y017299D01*
X030868Y017338D01*
X030877Y017376D01*
X030890Y017413D01*
X030907Y017449D01*
X030927Y017482D01*
X030951Y017514D01*
X030977Y017543D01*
X031006Y017569D01*
X031038Y017593D01*
X031071Y017613D01*
X031107Y017630D01*
X031144Y017643D01*
X031182Y017652D01*
X031221Y017658D01*
X031260Y017660D01*
X031260Y018410D01*
X023260Y018410D01*
X030790Y019790D02*
X031217Y019790D01*
X031004Y019790D02*
X031004Y020431D01*
X030790Y020217D01*
X033303Y022790D02*
X033089Y023004D01*
X033730Y023004D01*
X033730Y023217D02*
X033730Y022790D01*
X029941Y027030D02*
X028579Y027030D01*
X028579Y029490D01*
X029941Y029490D01*
X029941Y027030D01*
X033730Y015217D02*
X033730Y014790D01*
X033730Y015004D02*
X033089Y015004D01*
X033303Y014790D01*
X001930Y011072D02*
X001930Y010645D01*
X001930Y010859D02*
X001289Y010859D01*
X001503Y010645D01*
D12*
X001280Y009877D02*
X001280Y009723D01*
X001280Y009800D02*
X001740Y009800D01*
X001740Y009723D02*
X001740Y009877D01*
X001663Y009570D02*
X001356Y009570D01*
X001280Y009493D01*
X001280Y009263D01*
X001740Y009263D01*
X001740Y009493D01*
X001663Y009570D01*
X001510Y009109D02*
X001587Y009032D01*
X001587Y008802D01*
X001740Y008802D02*
X001280Y008802D01*
X001280Y009032D01*
X001356Y009109D01*
X001510Y009109D01*
X005357Y013780D02*
X005510Y013780D01*
X005587Y013857D01*
X005587Y014240D01*
X005740Y014164D02*
X005740Y014087D01*
X005817Y014010D01*
X005971Y014010D01*
X006047Y013933D01*
X006047Y013857D01*
X005971Y013780D01*
X005817Y013780D01*
X005740Y013857D01*
X005740Y014164D02*
X005817Y014240D01*
X005971Y014240D01*
X006047Y014164D01*
X006201Y014240D02*
X006201Y013780D01*
X006508Y013780D01*
X006661Y013780D02*
X006661Y014240D01*
X006891Y014240D01*
X006968Y014164D01*
X006968Y014010D01*
X006891Y013933D01*
X006661Y013933D01*
X006815Y013933D02*
X006968Y013780D01*
X007582Y013780D02*
X007889Y014087D01*
X007889Y014164D01*
X007812Y014240D01*
X007659Y014240D01*
X007582Y014164D01*
X007582Y013780D02*
X007889Y013780D01*
X006508Y014240D02*
X006201Y014240D01*
X006201Y014010D02*
X006354Y014010D01*
X005357Y013780D02*
X005280Y013857D01*
X005280Y014240D01*
X005357Y015280D02*
X005510Y015280D01*
X005587Y015357D01*
X005587Y015740D01*
X005740Y015664D02*
X005740Y015587D01*
X005817Y015510D01*
X005971Y015510D01*
X006047Y015433D01*
X006047Y015357D01*
X005971Y015280D01*
X005817Y015280D01*
X005740Y015357D01*
X005740Y015664D02*
X005817Y015740D01*
X005971Y015740D01*
X006047Y015664D01*
X006201Y015740D02*
X006201Y015280D01*
X006508Y015280D01*
X006661Y015280D02*
X006661Y015740D01*
X006891Y015740D01*
X006968Y015664D01*
X006968Y015510D01*
X006891Y015433D01*
X006661Y015433D01*
X006815Y015433D02*
X006968Y015280D01*
X007582Y015280D02*
X007889Y015280D01*
X007735Y015280D02*
X007735Y015740D01*
X007582Y015587D01*
X006508Y015740D02*
X006201Y015740D01*
X006201Y015510D02*
X006354Y015510D01*
X005357Y015280D02*
X005280Y015357D01*
X005280Y015740D01*
X005280Y016780D02*
X005280Y017240D01*
X005510Y017240D01*
X005587Y017164D01*
X005587Y017010D01*
X005510Y016933D01*
X005280Y016933D01*
X005740Y016857D02*
X005740Y017164D01*
X005817Y017240D01*
X005971Y017240D01*
X006047Y017164D01*
X006047Y016857D01*
X005971Y016780D01*
X005817Y016780D01*
X005740Y016857D01*
X006201Y016780D02*
X006201Y017240D01*
X006508Y017240D02*
X006508Y016780D01*
X006354Y016933D01*
X006201Y016780D01*
X006661Y016780D02*
X006661Y017240D01*
X006968Y017240D01*
X007122Y017240D02*
X007352Y017240D01*
X007428Y017164D01*
X007428Y017010D01*
X007352Y016933D01*
X007122Y016933D01*
X007122Y016780D02*
X007122Y017240D01*
X007275Y016933D02*
X007428Y016780D01*
X006968Y016780D02*
X006661Y016780D01*
X006661Y017010D02*
X006815Y017010D01*
X008412Y008285D02*
X008565Y008285D01*
X008489Y008285D02*
X008489Y007824D01*
X008565Y007824D02*
X008412Y007824D01*
X008719Y007901D02*
X008796Y007824D01*
X008949Y007824D01*
X009026Y007901D01*
X009179Y007824D02*
X009486Y007824D01*
X009333Y007824D02*
X009333Y008285D01*
X009179Y008131D01*
X009026Y008208D02*
X008949Y008285D01*
X008796Y008285D01*
X008719Y008208D01*
X008719Y007901D01*
X008622Y001359D02*
X008622Y000898D01*
X008468Y000898D02*
X008468Y001359D01*
X008392Y001205D02*
X008622Y001205D01*
X008698Y001205D01*
X008698Y001052D02*
X008392Y001052D01*
X008238Y000975D02*
X008161Y000898D01*
X008008Y000898D01*
X007931Y000975D01*
X007931Y001282D01*
X008008Y001359D01*
X008161Y001359D01*
X008238Y001282D01*
X007778Y001282D02*
X007778Y001205D01*
X007471Y000898D01*
X007778Y000898D01*
X007317Y000898D02*
X007164Y000898D01*
X007241Y000898D02*
X007241Y001359D01*
X007317Y001359D02*
X007164Y001359D01*
X007471Y001282D02*
X007548Y001359D01*
X007701Y001359D01*
X007778Y001282D01*
X008852Y001282D02*
X008929Y001359D01*
X009082Y001359D01*
X009159Y001282D01*
X009159Y001205D01*
X008852Y000898D01*
X009159Y000898D01*
X010664Y000898D02*
X010817Y000898D01*
X010741Y000898D02*
X010741Y001359D01*
X010817Y001359D02*
X010664Y001359D01*
X010971Y001282D02*
X011048Y001359D01*
X011201Y001359D01*
X011278Y001282D01*
X011278Y001205D01*
X010971Y000898D01*
X011278Y000898D01*
X011431Y000975D02*
X011508Y000898D01*
X011661Y000898D01*
X011738Y000975D01*
X011892Y001052D02*
X012198Y001052D01*
X012198Y001205D02*
X012122Y001205D01*
X011892Y001205D01*
X011968Y001359D02*
X011968Y000898D01*
X012122Y000898D02*
X012122Y001359D01*
X012352Y001205D02*
X012505Y001359D01*
X012505Y000898D01*
X012352Y000898D02*
X012659Y000898D01*
X011738Y001282D02*
X011661Y001359D01*
X011508Y001359D01*
X011431Y001282D01*
X011431Y000975D01*
X030109Y006107D02*
X030186Y006030D01*
X030339Y006030D01*
X030416Y006107D01*
X030416Y006414D01*
X030339Y006490D01*
X030186Y006490D01*
X030109Y006414D01*
X030109Y006107D01*
X030263Y006183D02*
X030416Y006030D01*
X030570Y006030D02*
X030877Y006337D01*
X030877Y006414D01*
X030800Y006490D01*
X030646Y006490D01*
X030570Y006414D01*
X030570Y006030D02*
X030877Y006030D01*
X038280Y010119D02*
X038433Y010273D01*
X038280Y010426D01*
X038740Y010426D01*
X038663Y010580D02*
X038356Y010580D01*
X038280Y010656D01*
X038280Y010810D01*
X038356Y010886D01*
X038663Y010886D01*
X038740Y010810D01*
X038740Y010656D01*
X038663Y010580D01*
X038280Y011040D02*
X038280Y011347D01*
X038280Y011193D02*
X038740Y011193D01*
X038663Y011500D02*
X038356Y011500D01*
X038280Y011577D01*
X038280Y011731D01*
X038356Y011807D01*
X038663Y011807D01*
X038740Y011731D01*
X038740Y011577D01*
X038663Y011500D01*
X038587Y011961D02*
X038587Y012191D01*
X038510Y012268D01*
X038356Y012268D01*
X038280Y012191D01*
X038280Y011961D01*
X038740Y011961D01*
X038587Y012114D02*
X038740Y012268D01*
X038817Y012421D02*
X038817Y012728D01*
X038740Y012881D02*
X038280Y012881D01*
X038280Y013112D01*
X038356Y013188D01*
X038510Y013188D01*
X038587Y013112D01*
X038587Y012881D01*
X038587Y013035D02*
X038740Y013188D01*
X038740Y013342D02*
X038740Y013495D01*
X038740Y013419D02*
X038280Y013419D01*
X038280Y013495D02*
X038280Y013342D01*
X038356Y013649D02*
X038663Y013649D01*
X038740Y013726D01*
X038740Y013879D01*
X038663Y013956D01*
X038510Y013956D01*
X038510Y013802D01*
X038356Y013649D02*
X038280Y013726D01*
X038280Y013879D01*
X038356Y013956D01*
X038280Y014109D02*
X038740Y014109D01*
X038510Y014109D02*
X038510Y014416D01*
X038280Y014416D02*
X038740Y014416D01*
X038740Y014723D02*
X038280Y014723D01*
X038280Y014570D02*
X038280Y014877D01*
X038280Y017926D02*
X038433Y018080D01*
X038280Y018233D01*
X038740Y018233D01*
X038663Y018386D02*
X038356Y018386D01*
X038280Y018463D01*
X038280Y018617D01*
X038356Y018693D01*
X038663Y018693D01*
X038740Y018617D01*
X038740Y018463D01*
X038663Y018386D01*
X038280Y018847D02*
X038280Y019154D01*
X038280Y019000D02*
X038740Y019000D01*
X038663Y019307D02*
X038356Y019307D01*
X038280Y019384D01*
X038280Y019537D01*
X038356Y019614D01*
X038663Y019614D01*
X038740Y019537D01*
X038740Y019384D01*
X038663Y019307D01*
X038587Y019768D02*
X038587Y019998D01*
X038510Y020075D01*
X038356Y020075D01*
X038280Y019998D01*
X038280Y019768D01*
X038740Y019768D01*
X038587Y019921D02*
X038740Y020075D01*
X038817Y020228D02*
X038817Y020535D01*
X038740Y020688D02*
X038740Y020995D01*
X038740Y021149D02*
X038280Y021149D01*
X038280Y021456D01*
X038280Y021609D02*
X038280Y021916D01*
X038280Y022070D02*
X038280Y022377D01*
X038280Y022223D02*
X038740Y022223D01*
X038510Y021763D02*
X038510Y021609D01*
X038740Y021609D02*
X038280Y021609D01*
X038510Y021302D02*
X038510Y021149D01*
X038740Y021149D02*
X038740Y021456D01*
X038740Y020688D02*
X038280Y020688D01*
X038280Y017926D02*
X038740Y017926D01*
X030877Y022030D02*
X030570Y022030D01*
X030723Y022030D02*
X030723Y022490D01*
X030570Y022337D01*
X030416Y022414D02*
X030416Y022107D01*
X030339Y022030D01*
X030186Y022030D01*
X030109Y022107D01*
X030109Y022414D01*
X030186Y022490D01*
X030339Y022490D01*
X030416Y022414D01*
X030263Y022183D02*
X030416Y022030D01*
X023070Y027857D02*
X023070Y027933D01*
X022993Y028010D01*
X022916Y028010D01*
X022993Y028010D02*
X023070Y028087D01*
X023070Y028164D01*
X022993Y028240D01*
X022839Y028240D01*
X022763Y028164D01*
X022763Y027857D02*
X022839Y027780D01*
X022993Y027780D01*
X023070Y027857D01*
X022609Y027780D02*
X022302Y027780D01*
X022456Y027780D02*
X022456Y028240D01*
X022302Y028087D01*
X022149Y028164D02*
X021842Y027857D01*
X021919Y027780D01*
X022072Y027780D01*
X022149Y027857D01*
X022149Y028164D01*
X022072Y028240D01*
X021919Y028240D01*
X021842Y028164D01*
X021842Y027857D01*
X021688Y027780D02*
X021381Y027780D01*
X021688Y028087D01*
X021688Y028164D01*
X021612Y028240D01*
X021458Y028240D01*
X021381Y028164D01*
X021305Y028530D02*
X021305Y028837D01*
X021535Y028837D01*
X021612Y028760D01*
X021612Y028530D01*
X021765Y028530D02*
X021995Y028530D01*
X022072Y028607D01*
X021995Y028683D01*
X021842Y028683D01*
X021765Y028760D01*
X021842Y028837D01*
X022072Y028837D01*
X022225Y028760D02*
X022302Y028837D01*
X022456Y028837D01*
X022532Y028760D01*
X022532Y028683D01*
X022225Y028683D01*
X022225Y028607D02*
X022225Y028760D01*
X022225Y028607D02*
X022302Y028530D01*
X022456Y028530D01*
X022686Y028530D02*
X022686Y028837D01*
X022916Y028837D01*
X022993Y028760D01*
X022993Y028530D01*
X022916Y029280D02*
X022609Y029587D01*
X022609Y029664D01*
X022686Y029740D01*
X022763Y029664D01*
X022763Y029587D01*
X022609Y029433D01*
X022609Y029357D01*
X022686Y029280D01*
X022763Y029280D01*
X022916Y029433D01*
X021995Y029510D02*
X021995Y029280D01*
X021995Y029510D02*
X021919Y029587D01*
X021688Y029587D01*
X021688Y029280D01*
X021535Y029433D02*
X021535Y029510D01*
X021458Y029587D01*
X021305Y029587D01*
X021228Y029510D01*
X021228Y029357D01*
X021305Y029280D01*
X021458Y029280D01*
X021535Y029433D02*
X021228Y029433D01*
X021075Y029357D02*
X020998Y029433D01*
X020844Y029433D01*
X020768Y029510D01*
X020844Y029587D01*
X021075Y029587D01*
X021075Y029357D02*
X020998Y029280D01*
X020768Y029280D01*
X020614Y029587D02*
X020537Y029587D01*
X020384Y029433D01*
X020384Y029280D02*
X020384Y029587D01*
X020230Y029510D02*
X020230Y029433D01*
X019924Y029433D01*
X019924Y029357D02*
X019924Y029510D01*
X020000Y029587D01*
X020154Y029587D01*
X020230Y029510D01*
X020154Y029280D02*
X020000Y029280D01*
X019924Y029357D01*
X019770Y029280D02*
X019540Y029280D01*
X019463Y029357D01*
X019463Y029510D01*
X019540Y029587D01*
X019770Y029587D01*
X019770Y029740D02*
X019770Y029280D01*
X019847Y029067D02*
X019847Y028990D01*
X019847Y028837D02*
X019847Y028530D01*
X019770Y028530D02*
X019924Y028530D01*
X020077Y028530D02*
X020307Y028530D01*
X020384Y028607D01*
X020307Y028683D01*
X020154Y028683D01*
X020077Y028760D01*
X020154Y028837D01*
X020384Y028837D01*
X020537Y028837D02*
X020691Y028837D01*
X020614Y028914D02*
X020614Y028607D01*
X020691Y028530D01*
X020844Y028607D02*
X020844Y028760D01*
X020921Y028837D01*
X021075Y028837D01*
X021151Y028760D01*
X021151Y028683D01*
X020844Y028683D01*
X020844Y028607D02*
X020921Y028530D01*
X021075Y028530D01*
X020691Y028087D02*
X020768Y028010D01*
X020768Y027857D01*
X020691Y027780D01*
X020461Y027780D01*
X020461Y027627D02*
X020461Y028087D01*
X020691Y028087D01*
X020307Y028087D02*
X020307Y027780D01*
X020077Y027780D01*
X020000Y027857D01*
X020000Y028087D01*
X019847Y028087D02*
X019770Y028087D01*
X019617Y027933D01*
X019617Y027780D02*
X019617Y028087D01*
X019463Y028010D02*
X019463Y027933D01*
X019156Y027933D01*
X019156Y027857D02*
X019156Y028010D01*
X019233Y028087D01*
X019386Y028087D01*
X019463Y028010D01*
X019386Y027780D02*
X019233Y027780D01*
X019156Y027857D01*
X019003Y027780D02*
X018849Y027780D01*
X018926Y027780D02*
X018926Y028240D01*
X018849Y028240D01*
X018619Y028240D02*
X018619Y027780D01*
X018542Y027780D02*
X018696Y027780D01*
X018389Y027780D02*
X018389Y028010D01*
X018312Y028087D01*
X018159Y028087D01*
X018159Y027933D02*
X018389Y027933D01*
X018389Y027780D02*
X018159Y027780D01*
X018082Y027857D01*
X018159Y027933D01*
X017928Y027933D02*
X017928Y027857D01*
X017852Y027780D01*
X017622Y027780D01*
X017622Y028240D01*
X017852Y028240D01*
X017928Y028164D01*
X017928Y028087D01*
X017852Y028010D01*
X017622Y028010D01*
X017852Y028010D02*
X017928Y027933D01*
X017775Y028530D02*
X017622Y028530D01*
X017545Y028607D01*
X017545Y028760D01*
X017622Y028837D01*
X017775Y028837D01*
X017852Y028760D01*
X017852Y028683D01*
X017545Y028683D01*
X017391Y028837D02*
X017315Y028837D01*
X017161Y028683D01*
X017161Y028530D02*
X017161Y028837D01*
X017008Y028837D02*
X016778Y028837D01*
X016701Y028760D01*
X016701Y028607D01*
X016778Y028530D01*
X017008Y028530D01*
X017008Y028990D01*
X017008Y029280D02*
X016778Y029280D01*
X016701Y029357D01*
X016701Y029510D01*
X016778Y029587D01*
X017008Y029587D01*
X017161Y029510D02*
X017161Y029357D01*
X017238Y029280D01*
X017391Y029280D01*
X017468Y029357D01*
X017468Y029510D01*
X017391Y029587D01*
X017238Y029587D01*
X017161Y029510D01*
X017161Y030030D02*
X017391Y030030D01*
X017468Y030107D01*
X017468Y030260D01*
X017391Y030337D01*
X017161Y030337D01*
X017161Y030490D02*
X017161Y030030D01*
X017008Y030183D02*
X016701Y030183D01*
X016701Y030107D02*
X016701Y030260D01*
X016778Y030337D01*
X016931Y030337D01*
X017008Y030260D01*
X017008Y030183D01*
X016931Y030030D02*
X016778Y030030D01*
X016701Y030107D01*
X016547Y030030D02*
X016317Y030030D01*
X016240Y030107D01*
X016240Y030337D01*
X016087Y030490D02*
X015780Y030490D01*
X015780Y030030D01*
X016087Y030030D01*
X015933Y030260D02*
X015780Y030260D01*
X016394Y029877D02*
X016471Y029877D01*
X016547Y029953D01*
X016547Y030337D01*
X016087Y029740D02*
X015933Y029740D01*
X016010Y029740D02*
X016010Y029357D01*
X015933Y029280D01*
X015857Y029280D01*
X015780Y029357D01*
X015933Y028990D02*
X016087Y028837D01*
X016087Y028530D01*
X016240Y028530D02*
X016240Y028837D01*
X016471Y028837D01*
X016547Y028760D01*
X016547Y028530D01*
X016547Y028240D02*
X016240Y028240D01*
X016394Y028240D02*
X016394Y027780D01*
X016701Y027857D02*
X016778Y027780D01*
X016931Y027780D01*
X017008Y027857D01*
X017008Y028240D01*
X016701Y028240D02*
X016701Y027857D01*
X016087Y027857D02*
X016087Y028164D01*
X016010Y028240D01*
X015780Y028240D01*
X015780Y027780D01*
X016010Y027780D01*
X016087Y027857D01*
X015780Y028530D02*
X015780Y028837D01*
X015933Y028990D01*
X015780Y028760D02*
X016087Y028760D01*
X016317Y029280D02*
X016240Y029357D01*
X016317Y029433D01*
X016547Y029433D01*
X016547Y029510D02*
X016547Y029280D01*
X016317Y029280D01*
X016317Y029587D02*
X016471Y029587D01*
X016547Y029510D01*
X017622Y029587D02*
X017852Y029587D01*
X017928Y029510D01*
X017928Y029357D01*
X017852Y029280D01*
X017622Y029280D01*
X017622Y029740D01*
X017698Y030030D02*
X017622Y030107D01*
X017622Y030260D01*
X017698Y030337D01*
X017852Y030337D01*
X017928Y030260D01*
X017928Y030107D01*
X017852Y030030D01*
X017698Y030030D01*
X018159Y030107D02*
X018235Y030030D01*
X018159Y030107D02*
X018159Y030414D01*
X018082Y030337D02*
X018235Y030337D01*
X018849Y030337D02*
X019003Y030030D01*
X019156Y030337D01*
X019310Y030337D02*
X019463Y030490D01*
X019463Y030030D01*
X019310Y030030D02*
X019617Y030030D01*
X019770Y030030D02*
X019847Y030030D01*
X019847Y030107D01*
X019770Y030107D01*
X019770Y030030D01*
X020000Y030107D02*
X020307Y030414D01*
X020307Y030107D01*
X020230Y030030D01*
X020077Y030030D01*
X020000Y030107D01*
X020000Y030414D01*
X020077Y030490D01*
X020230Y030490D01*
X020307Y030414D01*
X019310Y029510D02*
X019310Y029433D01*
X019003Y029433D01*
X019003Y029357D02*
X019003Y029510D01*
X019079Y029587D01*
X019233Y029587D01*
X019310Y029510D01*
X019233Y029280D02*
X019079Y029280D01*
X019003Y029357D01*
X018849Y029510D02*
X018773Y029433D01*
X018542Y029433D01*
X018542Y029280D02*
X018542Y029740D01*
X018773Y029740D01*
X018849Y029664D01*
X018849Y029510D01*
X018926Y028990D02*
X018926Y028530D01*
X018773Y028607D02*
X018696Y028530D01*
X018542Y028530D01*
X018466Y028607D01*
X018466Y028914D01*
X018542Y028990D01*
X018696Y028990D01*
X018773Y028914D01*
X018926Y028760D02*
X019003Y028837D01*
X019156Y028837D01*
X019233Y028760D01*
X019233Y028530D01*
X019386Y028530D02*
X019386Y028837D01*
X019386Y028683D02*
X019540Y028837D01*
X019617Y028837D01*
X019770Y028837D02*
X019847Y028837D01*
X018619Y028240D02*
X018542Y028240D01*
X017775Y029067D02*
X017622Y028990D01*
X014508Y030664D02*
X014201Y030664D01*
X014355Y030664D02*
X014355Y031124D01*
X014201Y030971D01*
X014048Y030971D02*
X013971Y030971D01*
X013741Y030971D01*
X013741Y030817D02*
X014048Y030817D01*
X013971Y030664D02*
X013971Y031124D01*
X013818Y031124D02*
X013818Y030664D01*
X013588Y030741D02*
X013511Y030664D01*
X013357Y030664D01*
X013281Y030741D01*
X013281Y031048D01*
X013357Y031124D01*
X013511Y031124D01*
X013588Y031048D01*
X013127Y031048D02*
X013051Y031124D01*
X012820Y031124D01*
X012820Y030664D01*
X013051Y030664D01*
X013127Y030741D01*
X013127Y031048D01*
X012667Y030971D02*
X012667Y030664D01*
X012667Y030894D02*
X012360Y030894D01*
X012360Y030971D02*
X012513Y031124D01*
X012667Y030971D01*
X012360Y030971D02*
X012360Y030664D01*
X010008Y030664D02*
X009701Y030664D01*
X010008Y030971D01*
X010008Y031048D01*
X009932Y031124D01*
X009778Y031124D01*
X009701Y031048D01*
X009548Y030971D02*
X009471Y030971D01*
X009241Y030971D01*
X009241Y030817D02*
X009548Y030817D01*
X009471Y030664D02*
X009471Y031124D01*
X009318Y031124D02*
X009318Y030664D01*
X009088Y030741D02*
X009011Y030664D01*
X008857Y030664D01*
X008781Y030741D01*
X008781Y031048D01*
X008857Y031124D01*
X009011Y031124D01*
X009088Y031048D01*
X008627Y031048D02*
X008551Y031124D01*
X008320Y031124D01*
X008320Y030664D01*
X008551Y030664D01*
X008627Y030741D01*
X008627Y031048D01*
X008167Y030971D02*
X008167Y030664D01*
X008167Y030894D02*
X007860Y030894D01*
X007860Y030971D02*
X008013Y031124D01*
X008167Y030971D01*
X007860Y030971D02*
X007860Y030664D01*
X005508Y030741D02*
X005432Y030664D01*
X005278Y030664D01*
X005201Y030741D01*
X005048Y030817D02*
X004741Y030817D01*
X004741Y030971D02*
X004971Y030971D01*
X005048Y030971D01*
X004971Y031124D02*
X004971Y030664D01*
X004818Y030664D02*
X004818Y031124D01*
X004588Y031048D02*
X004511Y031124D01*
X004357Y031124D01*
X004281Y031048D01*
X004281Y030741D01*
X004357Y030664D01*
X004511Y030664D01*
X004588Y030741D01*
X004127Y030741D02*
X004051Y030664D01*
X003820Y030664D01*
X003820Y031124D01*
X004051Y031124D01*
X004127Y031048D01*
X004127Y030741D01*
X003667Y030664D02*
X003667Y030971D01*
X003513Y031124D01*
X003360Y030971D01*
X003360Y030664D01*
X003360Y030894D02*
X003667Y030894D01*
X005201Y031048D02*
X005278Y031124D01*
X005432Y031124D01*
X005508Y031048D01*
X005508Y030971D01*
X005432Y030894D01*
X005508Y030817D01*
X005508Y030741D01*
X005432Y030894D02*
X005355Y030894D01*
X038280Y010119D02*
X038740Y010119D01*
D13*
X037541Y009225D02*
X033979Y009225D01*
X033979Y016295D01*
X037541Y016295D01*
X037541Y009225D01*
X027775Y013710D02*
X027700Y013635D01*
X027550Y013635D01*
X027475Y013710D01*
X027314Y013710D02*
X027239Y013635D01*
X027089Y013635D01*
X027014Y013710D01*
X027014Y014010D01*
X027089Y014085D01*
X027239Y014085D01*
X027314Y014010D01*
X027475Y014010D02*
X027550Y014085D01*
X027700Y014085D01*
X027775Y014010D01*
X027775Y013935D01*
X027700Y013860D01*
X027775Y013785D01*
X027775Y013710D01*
X027700Y013860D02*
X027625Y013860D01*
X026857Y013635D02*
X026707Y013635D01*
X026782Y013635D02*
X026782Y014085D01*
X026707Y014085D02*
X026857Y014085D01*
X033979Y017225D02*
X033979Y024295D01*
X037541Y024295D01*
X037541Y017225D01*
X033979Y017225D01*
X027625Y026585D02*
X027325Y026585D01*
X027625Y026885D01*
X027625Y026960D01*
X027550Y027035D01*
X027400Y027035D01*
X027325Y026960D01*
X027164Y026960D02*
X027089Y027035D01*
X026939Y027035D01*
X026864Y026960D01*
X026864Y026660D01*
X026939Y026585D01*
X027089Y026585D01*
X027164Y026660D01*
X026707Y026585D02*
X026557Y026585D01*
X026632Y026585D02*
X026632Y027035D01*
X026557Y027035D02*
X026707Y027035D01*
X015020Y027201D02*
X012736Y027201D01*
X012736Y030319D01*
X015020Y030319D01*
X015020Y027201D01*
X010520Y027201D02*
X008236Y027201D01*
X008236Y030319D01*
X010520Y030319D01*
X010520Y027201D01*
X006020Y027201D02*
X003736Y027201D01*
X003736Y030319D01*
X006020Y030319D01*
X006020Y027201D01*
X012235Y022396D02*
X012685Y022396D01*
X012685Y022546D02*
X012685Y022245D01*
X012385Y022245D02*
X012235Y022396D01*
X012235Y022085D02*
X012310Y022085D01*
X012460Y021935D01*
X012685Y021935D01*
X012460Y021935D02*
X012310Y021785D01*
X012235Y021785D01*
X004441Y011833D02*
X002079Y011833D01*
X002079Y006687D01*
X004441Y006687D01*
X004441Y011833D01*
X003701Y004284D02*
X003701Y002000D01*
X005819Y002000D01*
X005819Y004284D01*
X003701Y004284D01*
X007201Y004284D02*
X007201Y002000D01*
X009319Y002000D01*
X009319Y004284D01*
X007201Y004284D01*
X010201Y004284D02*
X010201Y002000D01*
X012319Y002000D01*
X012319Y004284D01*
X010201Y004284D01*
X016085Y001185D02*
X016085Y000735D01*
X016085Y000885D02*
X016310Y000885D01*
X016385Y000960D01*
X016385Y001110D01*
X016310Y001185D01*
X016085Y001185D01*
X016235Y000885D02*
X016385Y000735D01*
X016545Y000735D02*
X016545Y001185D01*
X016846Y001185D01*
X017006Y001110D02*
X017006Y001035D01*
X017081Y000960D01*
X017231Y000960D01*
X017306Y000885D01*
X017306Y000810D01*
X017231Y000735D01*
X017081Y000735D01*
X017006Y000810D01*
X016846Y000735D02*
X016545Y000735D01*
X016545Y000960D02*
X016696Y000960D01*
X017006Y001110D02*
X017081Y001185D01*
X017231Y001185D01*
X017306Y001110D01*
X017466Y001185D02*
X017466Y000735D01*
X017766Y000735D01*
X017616Y000960D02*
X017466Y000960D01*
X017466Y001185D02*
X017766Y001185D01*
X017927Y001185D02*
X018227Y001185D01*
X018077Y001185D02*
X018077Y000735D01*
X023085Y000810D02*
X023160Y000735D01*
X023310Y000735D01*
X023385Y000810D01*
X023385Y001185D01*
X023545Y001110D02*
X023545Y001035D01*
X023620Y000960D01*
X023771Y000960D01*
X023846Y000885D01*
X023846Y000810D01*
X023771Y000735D01*
X023620Y000735D01*
X023545Y000810D01*
X023545Y001110D02*
X023620Y001185D01*
X023771Y001185D01*
X023846Y001110D01*
X024006Y001185D02*
X024006Y000735D01*
X024306Y000735D01*
X024466Y000735D02*
X024466Y001185D01*
X024691Y001185D01*
X024766Y001110D01*
X024766Y000960D01*
X024691Y000885D01*
X024466Y000885D01*
X024616Y000885D02*
X024766Y000735D01*
X024927Y000660D02*
X025227Y000660D01*
X025387Y000735D02*
X025387Y001185D01*
X025462Y000960D02*
X025687Y000735D01*
X025847Y000735D02*
X026148Y000735D01*
X025997Y000960D02*
X025847Y000960D01*
X025847Y001185D02*
X025847Y000735D01*
X025847Y001185D02*
X026148Y001185D01*
X026308Y001185D02*
X026308Y001110D01*
X026458Y000960D01*
X026458Y000735D01*
X026458Y000960D02*
X026608Y001110D01*
X026608Y001185D01*
X025687Y001185D02*
X025387Y000885D01*
X024306Y001185D02*
X024006Y001185D01*
X024006Y000960D02*
X024156Y000960D01*
X023085Y000810D02*
X023085Y001185D01*
D14*
X013660Y020910D02*
X013660Y023610D01*
X013658Y023669D01*
X013652Y023727D01*
X013643Y023786D01*
X013629Y023843D01*
X013612Y023899D01*
X013591Y023954D01*
X013567Y024008D01*
X013539Y024060D01*
X013508Y024110D01*
X013474Y024158D01*
X013437Y024203D01*
X013396Y024246D01*
X013353Y024287D01*
X013308Y024324D01*
X013260Y024358D01*
X013210Y024389D01*
X013158Y024417D01*
X013104Y024441D01*
X013049Y024462D01*
X012993Y024479D01*
X012936Y024493D01*
X012877Y024502D01*
X012819Y024508D01*
X012760Y024510D01*
X012701Y024508D01*
X012643Y024502D01*
X012584Y024493D01*
X012527Y024479D01*
X012471Y024462D01*
X012416Y024441D01*
X012362Y024417D01*
X012310Y024389D01*
X012260Y024358D01*
X012212Y024324D01*
X012167Y024287D01*
X012124Y024246D01*
X012083Y024203D01*
X012046Y024158D01*
X012012Y024110D01*
X011981Y024060D01*
X011953Y024008D01*
X011929Y023954D01*
X011908Y023899D01*
X011891Y023843D01*
X011877Y023786D01*
X011868Y023727D01*
X011862Y023669D01*
X011860Y023610D01*
X011860Y020910D01*
X011862Y020851D01*
X011868Y020793D01*
X011877Y020734D01*
X011891Y020677D01*
X011908Y020621D01*
X011929Y020566D01*
X011953Y020512D01*
X011981Y020460D01*
X012012Y020410D01*
X012046Y020362D01*
X012083Y020317D01*
X012124Y020274D01*
X012167Y020233D01*
X012212Y020196D01*
X012260Y020162D01*
X012310Y020131D01*
X012362Y020103D01*
X012416Y020079D01*
X012471Y020058D01*
X012527Y020041D01*
X012584Y020027D01*
X012643Y020018D01*
X012701Y020012D01*
X012760Y020010D01*
X012819Y020012D01*
X012877Y020018D01*
X012936Y020027D01*
X012993Y020041D01*
X013049Y020058D01*
X013104Y020079D01*
X013158Y020103D01*
X013210Y020131D01*
X013260Y020162D01*
X013308Y020196D01*
X013353Y020233D01*
X013396Y020274D01*
X013437Y020317D01*
X013474Y020362D01*
X013508Y020410D01*
X013539Y020460D01*
X013567Y020512D01*
X013591Y020566D01*
X013612Y020621D01*
X013629Y020677D01*
X013643Y020734D01*
X013652Y020793D01*
X013658Y020851D01*
X013660Y020910D01*
D15*
X011625Y018295D02*
X011480Y018150D01*
X011674Y018150D01*
X011625Y018005D02*
X011625Y018295D01*
X011379Y018247D02*
X011331Y018295D01*
X011234Y018295D01*
X011186Y018247D01*
X011186Y018053D01*
X011234Y018005D01*
X011331Y018005D01*
X011379Y018053D01*
X007471Y016458D02*
X007471Y016168D01*
X007374Y016168D02*
X007568Y016168D01*
X007374Y016361D02*
X007471Y016458D01*
X007273Y016409D02*
X007225Y016458D01*
X007079Y016458D01*
X007079Y016168D01*
X007225Y016168D01*
X007273Y016216D01*
X007273Y016409D01*
X007225Y014958D02*
X007079Y014958D01*
X007079Y014668D01*
X007225Y014668D01*
X007273Y014716D01*
X007273Y014909D01*
X007225Y014958D01*
X007374Y014909D02*
X007422Y014958D01*
X007519Y014958D01*
X007568Y014909D01*
X007568Y014861D01*
X007374Y014668D01*
X007568Y014668D01*
X007519Y013458D02*
X007568Y013409D01*
X007568Y013361D01*
X007519Y013313D01*
X007568Y013264D01*
X007568Y013216D01*
X007519Y013168D01*
X007422Y013168D01*
X007374Y013216D01*
X007273Y013216D02*
X007273Y013409D01*
X007225Y013458D01*
X007079Y013458D01*
X007079Y013168D01*
X007225Y013168D01*
X007273Y013216D01*
X007374Y013409D02*
X007422Y013458D01*
X007519Y013458D01*
X007519Y013313D02*
X007471Y013313D01*
X003674Y015553D02*
X003625Y015505D01*
X003529Y015505D01*
X003480Y015553D01*
X003674Y015747D01*
X003674Y015553D01*
X003480Y015553D02*
X003480Y015747D01*
X003529Y015795D01*
X003625Y015795D01*
X003674Y015747D01*
X003379Y015505D02*
X003186Y015505D01*
X003282Y015505D02*
X003282Y015795D01*
X003186Y015698D01*
X003085Y015747D02*
X003036Y015795D01*
X002939Y015795D01*
X002891Y015747D01*
X002891Y015553D01*
X002939Y015505D01*
X003036Y015505D01*
X003085Y015553D01*
X001674Y015553D02*
X001674Y015747D01*
X001625Y015795D01*
X001529Y015795D01*
X001480Y015747D01*
X001480Y015698D01*
X001529Y015650D01*
X001674Y015650D01*
X001674Y015553D02*
X001625Y015505D01*
X001529Y015505D01*
X001480Y015553D01*
X001379Y015553D02*
X001331Y015505D01*
X001234Y015505D01*
X001186Y015553D01*
X001186Y015747D01*
X001234Y015795D01*
X001331Y015795D01*
X001379Y015747D01*
X010275Y006515D02*
X010420Y006515D01*
X010468Y006467D01*
X010468Y006370D01*
X010420Y006322D01*
X010275Y006322D01*
X010372Y006322D02*
X010468Y006225D01*
X010570Y006225D02*
X010763Y006225D01*
X010666Y006225D02*
X010666Y006515D01*
X010570Y006418D01*
X010275Y006515D02*
X010275Y006225D01*
X017323Y018725D02*
X017420Y018725D01*
X017468Y018773D01*
X017570Y018773D02*
X017618Y018725D01*
X017715Y018725D01*
X017763Y018773D01*
X017763Y018822D01*
X017715Y018870D01*
X017666Y018870D01*
X017715Y018870D02*
X017763Y018918D01*
X017763Y018967D01*
X017715Y019015D01*
X017618Y019015D01*
X017570Y018967D01*
X017468Y018967D02*
X017420Y019015D01*
X017323Y019015D01*
X017275Y018967D01*
X017275Y018773D01*
X017323Y018725D01*
X017275Y019725D02*
X017275Y020015D01*
X017420Y020015D01*
X017468Y019967D01*
X017468Y019870D01*
X017420Y019822D01*
X017275Y019822D01*
X017372Y019822D02*
X017468Y019725D01*
X017570Y019773D02*
X017618Y019725D01*
X017715Y019725D01*
X017763Y019773D01*
X017763Y019822D01*
X017715Y019870D01*
X017666Y019870D01*
X017715Y019870D02*
X017763Y019918D01*
X017763Y019967D01*
X017715Y020015D01*
X017618Y020015D01*
X017570Y019967D01*
X017570Y021225D02*
X017570Y021273D01*
X017763Y021467D01*
X017763Y021515D01*
X017570Y021515D01*
X017468Y021467D02*
X017420Y021515D01*
X017323Y021515D01*
X017275Y021467D01*
X017275Y021273D01*
X017323Y021225D01*
X017420Y021225D01*
X017468Y021273D01*
X017420Y022725D02*
X017468Y022773D01*
X017420Y022725D02*
X017323Y022725D01*
X017275Y022773D01*
X017275Y022967D01*
X017323Y023015D01*
X017420Y023015D01*
X017468Y022967D01*
X017570Y023015D02*
X017570Y022870D01*
X017666Y022918D01*
X017715Y022918D01*
X017763Y022870D01*
X017763Y022773D01*
X017715Y022725D01*
X017618Y022725D01*
X017570Y022773D01*
X017570Y023015D02*
X017763Y023015D01*
X019775Y023273D02*
X019823Y023225D01*
X019920Y023225D01*
X019968Y023273D01*
X020070Y023273D02*
X020070Y023322D01*
X020118Y023370D01*
X020215Y023370D01*
X020263Y023322D01*
X020263Y023273D01*
X020215Y023225D01*
X020118Y023225D01*
X020070Y023273D01*
X020118Y023370D02*
X020070Y023418D01*
X020070Y023467D01*
X020118Y023515D01*
X020215Y023515D01*
X020263Y023467D01*
X020263Y023418D01*
X020215Y023370D01*
X019968Y023467D02*
X019920Y023515D01*
X019823Y023515D01*
X019775Y023467D01*
X019775Y023273D01*
X022186Y021295D02*
X022331Y021295D01*
X022379Y021247D01*
X022379Y021150D01*
X022331Y021102D01*
X022186Y021102D01*
X022282Y021102D02*
X022379Y021005D01*
X022480Y021053D02*
X022529Y021005D01*
X022625Y021005D01*
X022674Y021053D01*
X022674Y021150D01*
X022625Y021198D01*
X022577Y021198D01*
X022480Y021150D01*
X022480Y021295D01*
X022674Y021295D01*
X022186Y021295D02*
X022186Y021005D01*
X021174Y019295D02*
X021077Y019247D01*
X020980Y019150D01*
X021125Y019150D01*
X021174Y019102D01*
X021174Y019053D01*
X021125Y019005D01*
X021029Y019005D01*
X020980Y019053D01*
X020980Y019150D01*
X020879Y019150D02*
X020831Y019102D01*
X020686Y019102D01*
X020782Y019102D02*
X020879Y019005D01*
X020879Y019150D02*
X020879Y019247D01*
X020831Y019295D01*
X020686Y019295D01*
X020686Y019005D01*
X014295Y024323D02*
X014295Y024420D01*
X014247Y024468D01*
X014247Y024570D02*
X014295Y024618D01*
X014295Y024715D01*
X014247Y024763D01*
X014198Y024763D01*
X014150Y024715D01*
X014150Y024570D01*
X014247Y024570D01*
X014150Y024570D02*
X014053Y024666D01*
X014005Y024763D01*
X014053Y024468D02*
X014005Y024420D01*
X014005Y024323D01*
X014053Y024275D01*
X014247Y024275D01*
X014295Y024323D01*
X028186Y023795D02*
X028186Y023505D01*
X028186Y023602D02*
X028331Y023602D01*
X028379Y023650D01*
X028379Y023747D01*
X028331Y023795D01*
X028186Y023795D01*
X028282Y023602D02*
X028379Y023505D01*
X028480Y023553D02*
X028480Y023602D01*
X028529Y023650D01*
X028625Y023650D01*
X028674Y023602D01*
X028674Y023553D01*
X028625Y023505D01*
X028529Y023505D01*
X028480Y023553D01*
X028529Y023650D02*
X028480Y023698D01*
X028480Y023747D01*
X028529Y023795D01*
X028625Y023795D01*
X028674Y023747D01*
X028674Y023698D01*
X028625Y023650D01*
X032823Y028725D02*
X032775Y028773D01*
X032775Y028967D01*
X032823Y029015D01*
X032920Y029015D01*
X032968Y028967D01*
X033070Y028967D02*
X033118Y029015D01*
X033215Y029015D01*
X033263Y028967D01*
X033263Y028918D01*
X033070Y028725D01*
X033263Y028725D01*
X032968Y028773D02*
X032920Y028725D01*
X032823Y028725D01*
X032823Y029725D02*
X032775Y029773D01*
X032775Y029967D01*
X032823Y030015D01*
X032920Y030015D01*
X032968Y029967D01*
X033070Y029918D02*
X033166Y030015D01*
X033166Y029725D01*
X033070Y029725D02*
X033263Y029725D01*
X032968Y029773D02*
X032920Y029725D01*
X032823Y029725D01*
X034391Y028795D02*
X034536Y028795D01*
X034585Y028747D01*
X034585Y028650D01*
X034536Y028602D01*
X034391Y028602D01*
X034488Y028602D02*
X034585Y028505D01*
X034686Y028505D02*
X034879Y028505D01*
X034782Y028505D02*
X034782Y028795D01*
X034686Y028698D01*
X034980Y028747D02*
X035029Y028795D01*
X035125Y028795D01*
X035174Y028747D01*
X034980Y028553D01*
X035029Y028505D01*
X035125Y028505D01*
X035174Y028553D01*
X035174Y028747D01*
X034980Y028747D02*
X034980Y028553D01*
X034391Y028505D02*
X034391Y028795D01*
X035275Y027515D02*
X035420Y027515D01*
X035468Y027467D01*
X035468Y027370D01*
X035420Y027322D01*
X035275Y027322D01*
X035372Y027322D02*
X035468Y027225D01*
X035570Y027225D02*
X035763Y027225D01*
X035666Y027225D02*
X035666Y027515D01*
X035570Y027418D01*
X035864Y027467D02*
X035913Y027515D01*
X036009Y027515D01*
X036058Y027467D01*
X036058Y027418D01*
X035864Y027225D01*
X036058Y027225D01*
X035275Y027225D02*
X035275Y027515D01*
X031715Y010015D02*
X031570Y009870D01*
X031763Y009870D01*
X031715Y009725D02*
X031715Y010015D01*
X031468Y009967D02*
X031468Y009870D01*
X031420Y009822D01*
X031275Y009822D01*
X031372Y009822D02*
X031468Y009725D01*
X031275Y009725D02*
X031275Y010015D01*
X031420Y010015D01*
X031468Y009967D01*
X034275Y008015D02*
X034275Y007725D01*
X034275Y007822D02*
X034420Y007822D01*
X034468Y007870D01*
X034468Y007967D01*
X034420Y008015D01*
X034275Y008015D01*
X034372Y007822D02*
X034468Y007725D01*
X034570Y007725D02*
X034763Y007725D01*
X034666Y007725D02*
X034666Y008015D01*
X034570Y007918D01*
X034864Y007967D02*
X034913Y008015D01*
X035009Y008015D01*
X035058Y007967D01*
X035058Y007918D01*
X035009Y007870D01*
X035058Y007822D01*
X035058Y007773D01*
X035009Y007725D01*
X034913Y007725D01*
X034864Y007773D01*
X034961Y007870D02*
X035009Y007870D01*
X035275Y004515D02*
X035420Y004515D01*
X035468Y004467D01*
X035468Y004370D01*
X035420Y004322D01*
X035275Y004322D01*
X035372Y004322D02*
X035468Y004225D01*
X035570Y004225D02*
X035763Y004418D01*
X035763Y004467D01*
X035715Y004515D01*
X035618Y004515D01*
X035570Y004467D01*
X035570Y004225D02*
X035763Y004225D01*
X035275Y004225D02*
X035275Y004515D01*
X028263Y007773D02*
X028263Y007967D01*
X028215Y008015D01*
X028118Y008015D01*
X028070Y007967D01*
X028070Y007918D01*
X028118Y007870D01*
X028263Y007870D01*
X028263Y007773D02*
X028215Y007725D01*
X028118Y007725D01*
X028070Y007773D01*
X027968Y007725D02*
X027872Y007822D01*
X027920Y007822D02*
X027775Y007822D01*
X027775Y007725D02*
X027775Y008015D01*
X027920Y008015D01*
X027968Y007967D01*
X027968Y007870D01*
X027920Y007822D01*
D16*
X025260Y004460D02*
X025260Y004360D01*
X024260Y004360D01*
X024260Y004460D01*
X024260Y002160D02*
X024260Y002060D01*
X024260Y002160D02*
X025210Y002160D01*
X025210Y002060D01*
X017710Y002160D02*
X017710Y002060D01*
X017710Y002160D02*
X016760Y002160D01*
X016760Y002060D01*
X016760Y004360D02*
X017760Y004360D01*
X017760Y004460D01*
X016760Y004460D02*
X016760Y004360D01*
X005060Y019510D02*
X001460Y019510D01*
X001460Y022760D01*
X005060Y022760D01*
X005060Y019510D01*
D17*
X004260Y019085D03*
X003260Y019085D03*
X002260Y019085D03*
D18*
X002330Y021795D02*
X002540Y021795D01*
X002645Y021900D01*
X002869Y022110D02*
X003290Y022110D01*
X003185Y021795D02*
X003185Y022426D01*
X002869Y022110D01*
X002645Y022320D02*
X002540Y022426D01*
X002330Y022426D01*
X002225Y022320D01*
X002225Y021900D01*
X002330Y021795D01*
X002005Y021795D02*
X001795Y021795D01*
X001900Y021795D02*
X001900Y022426D01*
X001795Y022426D02*
X002005Y022426D01*
D19*
X006270Y016329D02*
X006329Y016270D01*
X006260Y016201D01*
X006201Y016260D01*
X006270Y016329D01*
X006270Y014829D02*
X006329Y014770D01*
X006260Y014701D01*
X006201Y014760D01*
X006270Y014829D01*
X006270Y013329D02*
X006329Y013270D01*
X006260Y013201D01*
X006201Y013260D01*
X006270Y013329D01*
D20*
X006368Y013103D03*
X006368Y014603D03*
X006368Y016103D03*
D21*
X008265Y016215D02*
X008265Y016365D01*
X008340Y016365D01*
X008365Y016340D01*
X008365Y016290D01*
X008340Y016265D01*
X008265Y016265D01*
X008315Y016265D02*
X008365Y016215D01*
X008412Y016215D02*
X008412Y016240D01*
X008512Y016340D01*
X008512Y016365D01*
X008412Y016365D01*
X008462Y014865D02*
X008462Y014715D01*
X008412Y014715D02*
X008512Y014715D01*
X008560Y014715D02*
X008660Y014715D01*
X008610Y014715D02*
X008610Y014865D01*
X008560Y014815D01*
X008462Y014865D02*
X008412Y014815D01*
X008365Y014790D02*
X008340Y014765D01*
X008265Y014765D01*
X008265Y014715D02*
X008265Y014865D01*
X008340Y014865D01*
X008365Y014840D01*
X008365Y014790D01*
X008315Y014765D02*
X008365Y014715D01*
X008340Y013365D02*
X008365Y013340D01*
X008365Y013290D01*
X008340Y013265D01*
X008265Y013265D01*
X008265Y013215D02*
X008265Y013365D01*
X008340Y013365D01*
X008412Y013315D02*
X008462Y013365D01*
X008462Y013215D01*
X008412Y013215D02*
X008512Y013215D01*
X008560Y013290D02*
X008660Y013290D01*
X008635Y013215D02*
X008635Y013365D01*
X008560Y013290D01*
X008365Y013215D02*
X008315Y013265D01*
M02*
