G75*
G70*
%OFA0B0*%
%FSLAX24Y24*%
%IPPOS*%
%LPD*%
%AMOC8*
5,1,8,0,0,1.08239X$1,22.5*
%
%ADD10R,0.0220X0.0470*%
%ADD11R,0.0470X0.0220*%
%ADD12C,0.0594*%
%ADD13R,0.0790X0.0590*%
%ADD14R,0.0790X0.1500*%
%ADD15C,0.0650*%
%ADD16R,0.0630X0.0709*%
%ADD17R,0.0709X0.0630*%
%ADD18C,0.0602*%
%ADD19C,0.0600*%
%ADD20C,0.0520*%
%ADD21R,0.0472X0.0472*%
%ADD22R,0.0394X0.0551*%
%ADD23C,0.0240*%
%ADD24C,0.0320*%
%ADD25C,0.0160*%
%ADD26R,0.0475X0.0475*%
%ADD27C,0.0768*%
%ADD28C,0.0591*%
%ADD29C,0.0531*%
%ADD30R,0.0396X0.0396*%
D10*
X011898Y009689D03*
X012213Y009689D03*
X012528Y009689D03*
X012843Y009689D03*
X013158Y009689D03*
X013473Y009689D03*
X013788Y009689D03*
X014103Y009689D03*
X014417Y009689D03*
X014732Y009689D03*
X015047Y009689D03*
X015362Y009689D03*
X015677Y009689D03*
X015992Y009689D03*
X016307Y009689D03*
X016622Y009689D03*
X016622Y015831D03*
X016307Y015831D03*
X015992Y015831D03*
X015677Y015831D03*
X015362Y015831D03*
X015047Y015831D03*
X014732Y015831D03*
X014417Y015831D03*
X014103Y015831D03*
X013788Y015831D03*
X013473Y015831D03*
X013158Y015831D03*
X012843Y015831D03*
X012528Y015831D03*
X012213Y015831D03*
X011898Y015831D03*
D11*
X011189Y015122D03*
X011189Y014807D03*
X011189Y014492D03*
X011189Y014177D03*
X011189Y013862D03*
X011189Y013547D03*
X011189Y013232D03*
X011189Y012917D03*
X011189Y012603D03*
X011189Y012288D03*
X011189Y011973D03*
X011189Y011658D03*
X011189Y011343D03*
X011189Y011028D03*
X011189Y010713D03*
X011189Y010398D03*
X017331Y010398D03*
X017331Y010713D03*
X017331Y011028D03*
X017331Y011343D03*
X017331Y011658D03*
X017331Y011973D03*
X017331Y012288D03*
X017331Y012603D03*
X017331Y012917D03*
X017331Y013232D03*
X017331Y013547D03*
X017331Y013862D03*
X017331Y014177D03*
X017331Y014492D03*
X017331Y014807D03*
X017331Y015122D03*
D12*
X011760Y003260D03*
X010760Y003260D03*
X008760Y003260D03*
X007760Y003260D03*
X005260Y003260D03*
X004260Y003260D03*
X004760Y027760D03*
X004760Y028760D03*
X004760Y029760D03*
X009260Y029760D03*
X009260Y028760D03*
X009260Y027760D03*
X013760Y027760D03*
X013760Y028760D03*
X013760Y029760D03*
D13*
X030500Y029170D03*
X030500Y028270D03*
X030500Y027370D03*
D14*
X028020Y028260D03*
D15*
X012760Y023260D03*
X012760Y021260D03*
D16*
X015709Y021260D03*
X016811Y021260D03*
X016811Y019760D03*
X015709Y019760D03*
X015709Y018260D03*
X016811Y018260D03*
X019209Y019760D03*
X020311Y019760D03*
X016811Y022760D03*
X015709Y022760D03*
X009311Y015760D03*
X008209Y015760D03*
X008209Y014260D03*
X009311Y014260D03*
X009311Y012760D03*
X008209Y012760D03*
X004811Y016260D03*
X003709Y016260D03*
X002811Y016260D03*
X001709Y016260D03*
X031209Y009260D03*
X032311Y009260D03*
X034209Y007260D03*
X035311Y007260D03*
X035209Y026760D03*
X036311Y026760D03*
X032311Y030260D03*
X031209Y030260D03*
D17*
X032260Y028311D03*
X032260Y027209D03*
X033760Y027209D03*
X033760Y028311D03*
X029260Y024311D03*
X029260Y023209D03*
X021760Y022811D03*
X021760Y021709D03*
X019260Y021709D03*
X019260Y022811D03*
X014260Y022709D03*
X014260Y023811D03*
X012260Y019311D03*
X012260Y018209D03*
X009760Y006311D03*
X009760Y005209D03*
X028760Y007209D03*
X028760Y008311D03*
X034760Y004811D03*
X034760Y003709D03*
D18*
X035260Y011260D03*
X036260Y011260D03*
X036260Y012260D03*
X035260Y012260D03*
X035260Y013260D03*
X036260Y013260D03*
X036260Y014260D03*
X035260Y014260D03*
X035260Y019260D03*
X036260Y019260D03*
X036260Y020260D03*
X035260Y020260D03*
X035260Y021260D03*
X036260Y021260D03*
X036260Y022260D03*
X035260Y022260D03*
X003760Y010260D03*
X002760Y010260D03*
X002760Y009260D03*
X002760Y008260D03*
X003760Y008260D03*
X003760Y009260D03*
D19*
X003260Y017960D02*
X003260Y018560D01*
X004260Y018560D02*
X004260Y017960D01*
X002260Y017960D02*
X002260Y018560D01*
X015680Y004150D02*
X016280Y004150D01*
X016280Y002370D02*
X015680Y002370D01*
X018240Y002370D02*
X018840Y002370D01*
X018840Y004150D02*
X018240Y004150D01*
X023180Y004150D02*
X023780Y004150D01*
X023780Y002370D02*
X023180Y002370D01*
X025740Y002370D02*
X026340Y002370D01*
X026340Y004150D02*
X025740Y004150D01*
D20*
X025760Y015500D02*
X025760Y016020D01*
X026760Y016020D02*
X026760Y015500D01*
X027760Y015500D02*
X027760Y016020D01*
X028760Y016020D02*
X028760Y015500D01*
X029760Y015500D02*
X029760Y016020D01*
X030760Y016020D02*
X030760Y015500D01*
X030760Y018500D02*
X030760Y019020D01*
X029760Y019020D02*
X029760Y018500D01*
X028760Y018500D02*
X028760Y019020D01*
X027760Y019020D02*
X027760Y018500D01*
X026760Y018500D02*
X026760Y019020D01*
X025760Y019020D02*
X025760Y018500D01*
X024760Y018500D02*
X024760Y019020D01*
X023760Y019020D02*
X023760Y018500D01*
X023760Y016020D02*
X023760Y015500D01*
X024760Y015500D02*
X024760Y016020D01*
D21*
X006673Y016260D03*
X005847Y016260D03*
X005847Y014760D03*
X006673Y014760D03*
X006673Y013260D03*
X005847Y013260D03*
D22*
X030386Y008193D03*
X031134Y008193D03*
X030760Y007327D03*
X030760Y023327D03*
X030386Y024193D03*
X031134Y024193D03*
D23*
X030760Y023327D02*
X030679Y023245D01*
X030590Y023209D02*
X032157Y023209D01*
X032245Y023245D02*
X032260Y023260D01*
X032245Y023246D02*
X032230Y023233D01*
X032214Y023223D01*
X032196Y023215D01*
X032177Y023211D01*
X032157Y023209D01*
X030590Y023209D02*
X029260Y023209D01*
X030590Y023209D02*
X030610Y023211D01*
X030629Y023215D01*
X030647Y023223D01*
X030663Y023233D01*
X030678Y023246D01*
X033260Y021760D02*
X033260Y026260D01*
X032260Y027209D02*
X032245Y027223D01*
X032157Y027260D02*
X030760Y027260D01*
X030687Y027333D01*
X030598Y027370D02*
X030500Y027370D01*
X030598Y027370D02*
X030618Y027368D01*
X030637Y027364D01*
X030655Y027356D01*
X030671Y027346D01*
X030686Y027333D01*
X030505Y028274D02*
X030520Y028287D01*
X030536Y028297D01*
X030554Y028305D01*
X030573Y028309D01*
X030593Y028311D01*
X032260Y028311D01*
X032275Y028326D01*
X032260Y028311D02*
X032275Y028297D01*
X032363Y028260D02*
X032760Y028260D01*
X033260Y027760D01*
X032363Y028260D02*
X032343Y028262D01*
X032324Y028266D01*
X032306Y028274D01*
X032290Y028284D01*
X032275Y028297D01*
X032311Y028414D02*
X032311Y030260D01*
X031209Y030260D02*
X030984Y030036D01*
X030797Y030223D01*
X030708Y030260D02*
X025760Y030260D01*
X023797Y028297D01*
X023760Y028208D02*
X023760Y018760D01*
X021760Y020260D02*
X021760Y021709D01*
X016811Y021260D02*
X016811Y022760D01*
X013760Y027760D02*
X011297Y025297D01*
X009260Y027760D02*
X009260Y019760D01*
X010723Y018297D01*
X010223Y017297D02*
X007260Y020260D01*
X007260Y024208D01*
X007223Y024297D02*
X004760Y026760D01*
X004760Y027760D01*
X010260Y017208D02*
X010260Y016260D01*
X010653Y015867D01*
X008209Y015760D02*
X007260Y015760D01*
X006760Y016260D01*
X006673Y016260D01*
X005847Y016260D02*
X005847Y013260D01*
X006673Y013260D02*
X006760Y013260D01*
X007260Y012760D01*
X008260Y012760D01*
X008209Y014260D02*
X007260Y014260D01*
X006760Y014760D01*
X006673Y014760D01*
X023760Y028208D02*
X023762Y028228D01*
X023766Y028247D01*
X023774Y028265D01*
X023784Y028281D01*
X023797Y028296D01*
X030500Y028270D02*
X030505Y028275D01*
X030500Y029170D02*
X030500Y029499D01*
X030537Y029588D02*
X030984Y030036D01*
X030796Y030223D02*
X030781Y030236D01*
X030765Y030246D01*
X030747Y030254D01*
X030728Y030258D01*
X030708Y030260D01*
X030537Y029587D02*
X030524Y029572D01*
X030514Y029556D01*
X030506Y029538D01*
X030502Y029519D01*
X030500Y029499D01*
X032311Y028414D02*
X032309Y028394D01*
X032305Y028375D01*
X032297Y028357D01*
X032287Y028341D01*
X032274Y028326D01*
X032157Y027260D02*
X032177Y027258D01*
X032196Y027254D01*
X032214Y027246D01*
X032230Y027236D01*
X032245Y027223D01*
X034260Y024260D02*
X036260Y026260D01*
X036260Y026657D01*
X036297Y026745D02*
X036311Y026760D01*
X036297Y026745D02*
X036284Y026730D01*
X036274Y026714D01*
X036266Y026696D01*
X036262Y026677D01*
X036260Y026657D01*
X036760Y025260D02*
X037708Y025260D01*
X037797Y025223D02*
X038760Y024260D01*
X038760Y007260D01*
X037797Y006297D01*
X037708Y006260D02*
X037260Y006260D01*
X037708Y006260D02*
X037728Y006262D01*
X037747Y006266D01*
X037765Y006274D01*
X037781Y006284D01*
X037796Y006297D01*
X034259Y005260D02*
X027760Y005260D01*
X030363Y007209D02*
X030590Y007209D01*
X030679Y007245D02*
X030760Y007327D01*
X030678Y007246D02*
X030663Y007233D01*
X030647Y007223D01*
X030629Y007215D01*
X030610Y007211D01*
X030590Y007209D01*
X030363Y007209D02*
X030343Y007211D01*
X030324Y007215D01*
X030306Y007223D01*
X030290Y007233D01*
X030275Y007246D01*
X031134Y008193D02*
X031164Y008223D01*
X031253Y008260D02*
X033260Y008260D01*
X034173Y007347D01*
X034173Y007348D02*
X034185Y007333D01*
X034195Y007316D01*
X034203Y007298D01*
X034207Y007279D01*
X034209Y007260D01*
X031253Y008260D02*
X031233Y008258D01*
X031214Y008254D01*
X031196Y008246D01*
X031180Y008236D01*
X031165Y008223D01*
X030386Y009260D02*
X030386Y010834D01*
X030423Y010923D02*
X031010Y011510D01*
X029760Y012760D01*
X027797Y014723D01*
X027760Y014812D02*
X027760Y015760D01*
X027760Y014812D02*
X027762Y014792D01*
X027766Y014773D01*
X027774Y014755D01*
X027784Y014739D01*
X027797Y014724D01*
X031010Y011510D02*
X031760Y012260D01*
X035260Y012260D01*
X036260Y014260D02*
X036760Y014260D01*
X037760Y015260D01*
X037760Y021260D01*
X036797Y022223D01*
X036708Y022260D02*
X036260Y022260D01*
X036708Y022260D02*
X036728Y022258D01*
X036747Y022254D01*
X036765Y022246D01*
X036781Y022236D01*
X036796Y022223D01*
X035260Y021260D02*
X034812Y021260D01*
X034723Y021297D02*
X034260Y021760D01*
X034260Y024260D01*
X033260Y021760D02*
X034723Y020297D01*
X034812Y020260D02*
X035260Y020260D01*
X034812Y020260D02*
X034792Y020262D01*
X034773Y020266D01*
X034755Y020274D01*
X034739Y020284D01*
X034724Y020297D01*
X034812Y021260D02*
X034792Y021262D01*
X034773Y021266D01*
X034755Y021274D01*
X034739Y021284D01*
X034724Y021297D01*
X036260Y020260D02*
X036760Y020260D01*
X037260Y019760D01*
X037260Y018260D01*
X036297Y017297D01*
X036296Y017297D02*
X036281Y017284D01*
X036265Y017274D01*
X036247Y017266D01*
X036228Y017262D01*
X036208Y017260D01*
X030423Y010922D02*
X030410Y010907D01*
X030400Y010891D01*
X030392Y010873D01*
X030388Y010854D01*
X030386Y010834D01*
X029260Y008260D02*
X028760Y008260D01*
X037708Y025260D02*
X037728Y025258D01*
X037747Y025254D01*
X037765Y025246D01*
X037781Y025236D01*
X037796Y025223D01*
D24*
X002450Y001103D02*
X002374Y000820D01*
X016323Y000820D01*
X016234Y000909D01*
X015665Y001478D01*
X015665Y001478D01*
X015578Y001565D01*
X015473Y001670D01*
X015473Y001670D01*
X015427Y001782D01*
X015317Y001827D01*
X015137Y002007D01*
X015040Y002243D01*
X015040Y002497D01*
X015137Y002733D01*
X015317Y002913D01*
X015553Y003010D01*
X016407Y003010D01*
X016643Y002913D01*
X016823Y002733D01*
X016920Y002497D01*
X016920Y002243D01*
X016842Y002055D01*
X017017Y001880D01*
X017825Y001880D01*
X017697Y002007D01*
X017600Y002243D01*
X017600Y002497D01*
X017697Y002733D01*
X017877Y002913D01*
X018113Y003010D01*
X018967Y003010D01*
X019203Y002913D01*
X019383Y002733D01*
X019480Y002497D01*
X019480Y002243D01*
X019383Y002007D01*
X019255Y001880D01*
X022765Y001880D01*
X022637Y002007D01*
X022540Y002243D01*
X022540Y002497D01*
X022637Y002733D01*
X022817Y002913D01*
X023053Y003010D01*
X023907Y003010D01*
X024143Y002913D01*
X024323Y002733D01*
X024420Y002497D01*
X024420Y002243D01*
X024323Y002007D01*
X024195Y001880D01*
X025325Y001880D01*
X025197Y002007D01*
X025100Y002243D01*
X025100Y002497D01*
X025197Y002733D01*
X025377Y002913D01*
X025613Y003010D01*
X026467Y003010D01*
X026703Y002913D01*
X026883Y002733D01*
X026980Y002497D01*
X026980Y002243D01*
X026883Y002007D01*
X026755Y001880D01*
X032054Y001880D01*
X034066Y003891D01*
X034066Y004091D01*
X034117Y004216D01*
X034213Y004312D01*
X034220Y004315D01*
X034204Y004330D01*
X034175Y004373D01*
X034156Y004420D01*
X034146Y004471D01*
X034146Y004811D01*
X034760Y004811D01*
X034760Y004811D01*
X034760Y004811D01*
X035374Y004811D01*
X035374Y004471D01*
X035364Y004420D01*
X035345Y004373D01*
X035316Y004330D01*
X035300Y004315D01*
X035307Y004312D01*
X035403Y004216D01*
X035454Y004091D01*
X035454Y003326D01*
X035403Y003201D01*
X035307Y003106D01*
X035182Y003054D01*
X034982Y003054D01*
X032873Y000945D01*
X032873Y000945D01*
X032786Y000858D01*
X032748Y000820D01*
X037546Y000820D01*
X037470Y001103D01*
X037470Y001417D01*
X037551Y001719D01*
X037708Y001991D01*
X037929Y002212D01*
X038201Y002369D01*
X038503Y002450D01*
X038817Y002450D01*
X039070Y002382D01*
X039070Y006750D01*
X038125Y005805D01*
X038125Y005805D01*
X038108Y005787D01*
X038108Y005787D01*
X037848Y005680D01*
X037145Y005680D01*
X037139Y005683D01*
X036955Y005683D01*
X036830Y005734D01*
X036734Y005830D01*
X036683Y005955D01*
X036683Y006139D01*
X036680Y006145D01*
X036680Y006375D01*
X036683Y006381D01*
X036683Y006565D01*
X036734Y006690D01*
X036830Y006786D01*
X036955Y006837D01*
X037139Y006837D01*
X037145Y006840D01*
X037520Y006840D01*
X038180Y007500D01*
X038180Y014860D01*
X037252Y013931D01*
X037089Y013768D01*
X036875Y013680D01*
X036747Y013680D01*
X036804Y013623D01*
X036901Y013388D01*
X036901Y013132D01*
X036804Y012897D01*
X036667Y012760D01*
X036804Y012623D01*
X036901Y012388D01*
X036901Y012132D01*
X036804Y011897D01*
X036667Y011760D01*
X036804Y011623D01*
X036901Y011388D01*
X036901Y011132D01*
X036804Y010897D01*
X036623Y010716D01*
X036388Y010619D01*
X036132Y010619D01*
X035897Y010716D01*
X035760Y010853D01*
X035623Y010716D01*
X035388Y010619D01*
X035132Y010619D01*
X034897Y010716D01*
X034716Y010897D01*
X034619Y011132D01*
X034619Y011388D01*
X034716Y011623D01*
X034897Y011804D01*
X034920Y011813D01*
X034894Y011832D01*
X034832Y011894D01*
X034780Y011966D01*
X034740Y012045D01*
X034713Y012129D01*
X034699Y012216D01*
X034699Y012260D01*
X035260Y012260D01*
X035260Y012260D01*
X034699Y012260D01*
X034699Y012304D01*
X034713Y012391D01*
X034740Y012475D01*
X034780Y012554D01*
X034832Y012626D01*
X034894Y012688D01*
X034920Y012707D01*
X034897Y012716D01*
X034716Y012897D01*
X034619Y013132D01*
X034619Y013388D01*
X034716Y013623D01*
X034853Y013760D01*
X034716Y013897D01*
X034619Y014132D01*
X034619Y014388D01*
X034716Y014623D01*
X034897Y014804D01*
X035132Y014901D01*
X035388Y014901D01*
X035623Y014804D01*
X035760Y014667D01*
X035897Y014804D01*
X036132Y014901D01*
X036388Y014901D01*
X036524Y014845D01*
X037180Y015500D01*
X037180Y017360D01*
X036737Y016917D01*
X036734Y016909D01*
X036559Y016734D01*
X036332Y016640D01*
X035164Y016640D01*
X034890Y016753D01*
X034890Y016753D01*
X034785Y016858D01*
X034698Y016945D01*
X034698Y016945D01*
X032003Y019640D01*
X027517Y019640D01*
X027190Y019313D01*
X027205Y019293D01*
X027242Y019220D01*
X027260Y019164D01*
X027278Y019220D01*
X027315Y019293D01*
X027363Y019359D01*
X027421Y019417D01*
X027487Y019465D01*
X027560Y019502D01*
X027638Y019527D01*
X027719Y019540D01*
X027760Y019540D01*
X027760Y018760D01*
X027760Y018760D01*
X027760Y018760D01*
X027240Y018760D01*
X026760Y018760D01*
X026760Y018760D01*
X027760Y018760D01*
X027760Y017980D01*
X027801Y017980D01*
X027882Y017993D01*
X027960Y018018D01*
X028033Y018055D01*
X028099Y018103D01*
X028157Y018161D01*
X028205Y018227D01*
X028215Y018248D01*
X028251Y018160D01*
X028420Y017991D01*
X028641Y017900D01*
X028879Y017900D01*
X029100Y017991D01*
X029220Y018111D01*
X029220Y017984D01*
X029036Y017800D01*
X024564Y017800D01*
X024664Y017900D01*
X024879Y017900D01*
X025100Y017991D01*
X025260Y018151D01*
X025420Y017991D01*
X025641Y017900D01*
X025879Y017900D01*
X026100Y017991D01*
X026269Y018160D01*
X026305Y018248D01*
X026315Y018227D01*
X026363Y018161D01*
X026421Y018103D01*
X026487Y018055D01*
X026560Y018018D01*
X026638Y017993D01*
X026719Y017980D01*
X026760Y017980D01*
X026801Y017980D01*
X026882Y017993D01*
X026960Y018018D01*
X027033Y018055D01*
X027099Y018103D01*
X027157Y018161D01*
X027205Y018227D01*
X027242Y018300D01*
X027260Y018356D01*
X027278Y018300D01*
X027315Y018227D01*
X027363Y018161D01*
X027421Y018103D01*
X027487Y018055D01*
X027560Y018018D01*
X027638Y017993D01*
X027719Y017980D01*
X027760Y017980D01*
X027760Y018760D01*
X027760Y018760D01*
X027760Y019540D01*
X027801Y019540D01*
X027882Y019527D01*
X027960Y019502D01*
X028033Y019465D01*
X028099Y019417D01*
X028157Y019359D01*
X028205Y019293D01*
X028215Y019272D01*
X028251Y019360D01*
X028420Y019529D01*
X028641Y019620D01*
X028879Y019620D01*
X029100Y019529D01*
X029260Y019369D01*
X029420Y019529D01*
X029641Y019620D01*
X029879Y019620D01*
X030100Y019529D01*
X030260Y019369D01*
X030420Y019529D01*
X030641Y019620D01*
X030879Y019620D01*
X031100Y019529D01*
X031269Y019360D01*
X031360Y019139D01*
X031360Y018381D01*
X031300Y018236D01*
X031300Y017679D01*
X031199Y017435D01*
X031199Y017435D01*
X031181Y017418D01*
X031181Y017418D01*
X030218Y016454D01*
X030196Y016432D01*
X030260Y016369D01*
X030420Y016529D01*
X030641Y016620D01*
X030879Y016620D01*
X031100Y016529D01*
X031269Y016360D01*
X031360Y016139D01*
X031360Y015381D01*
X031269Y015160D01*
X031100Y014991D01*
X030879Y014900D01*
X030641Y014900D01*
X030420Y014991D01*
X030260Y015151D01*
X030100Y014991D01*
X029879Y014900D01*
X029641Y014900D01*
X029420Y014991D01*
X029260Y015151D01*
X029100Y014991D01*
X028879Y014900D01*
X028641Y014900D01*
X028420Y014991D01*
X028251Y015160D01*
X028215Y015248D01*
X028205Y015227D01*
X028157Y015161D01*
X028099Y015103D01*
X028033Y015055D01*
X027960Y015018D01*
X027882Y014993D01*
X027801Y014980D01*
X027760Y014980D01*
X027760Y015760D01*
X027760Y015760D01*
X026760Y015760D01*
X026760Y015760D01*
X027240Y015760D01*
X027760Y015760D01*
X027760Y015760D01*
X027760Y014980D01*
X027719Y014980D01*
X027638Y014993D01*
X027560Y015018D01*
X027487Y015055D01*
X027421Y015103D01*
X027363Y015161D01*
X027315Y015227D01*
X027278Y015300D01*
X027260Y015356D01*
X027242Y015300D01*
X027205Y015227D01*
X027157Y015161D01*
X027099Y015103D01*
X027033Y015055D01*
X026960Y015018D01*
X026882Y014993D01*
X026801Y014980D01*
X026760Y014980D01*
X026760Y015760D01*
X026760Y015760D01*
X026760Y014980D01*
X026719Y014980D01*
X026638Y014993D01*
X026560Y015018D01*
X026487Y015055D01*
X026421Y015103D01*
X026363Y015161D01*
X026315Y015227D01*
X026305Y015248D01*
X026269Y015160D01*
X026100Y014991D01*
X025879Y014900D01*
X025800Y014900D01*
X025800Y013179D01*
X025699Y012935D01*
X025699Y012935D01*
X025605Y012842D01*
X025529Y012766D01*
X025529Y012766D01*
X024961Y012198D01*
X025494Y012198D01*
X025738Y012096D01*
X025738Y012096D01*
X025756Y012079D01*
X025756Y012079D01*
X028869Y008966D01*
X029182Y008966D01*
X029307Y008914D01*
X029386Y008836D01*
X029589Y008752D01*
X029752Y008589D01*
X029792Y008492D01*
X029929Y008355D01*
X029929Y008494D01*
X029939Y008545D01*
X029959Y008592D01*
X029987Y008634D01*
X030023Y008671D01*
X030066Y008699D01*
X030113Y008719D01*
X030164Y008729D01*
X030386Y008729D01*
X030386Y008193D01*
X030386Y008193D01*
X030386Y008729D01*
X030599Y008729D01*
X030554Y008838D01*
X030554Y009682D01*
X030606Y009807D01*
X030701Y009903D01*
X030826Y009954D01*
X031591Y009954D01*
X031716Y009903D01*
X031812Y009807D01*
X031815Y009800D01*
X031830Y009816D01*
X031873Y009845D01*
X031920Y009864D01*
X031971Y009874D01*
X032311Y009874D01*
X032311Y009260D01*
X032311Y009260D01*
X032311Y009874D01*
X032652Y009874D01*
X032702Y009864D01*
X032749Y009845D01*
X032792Y009816D01*
X032828Y009780D01*
X032857Y009737D01*
X032876Y009690D01*
X032886Y009640D01*
X032886Y009260D01*
X032311Y009260D01*
X032311Y009260D01*
X032886Y009260D01*
X032886Y008880D01*
X032878Y008840D01*
X033375Y008840D01*
X033589Y008752D01*
X034386Y007954D01*
X034591Y007954D01*
X034691Y007913D01*
X034691Y008952D01*
X032961Y010683D01*
X032955Y010683D01*
X032830Y010734D01*
X032734Y010830D01*
X032683Y010955D01*
X032683Y011034D01*
X032640Y011137D01*
X032640Y011383D01*
X032683Y011486D01*
X032683Y011565D01*
X032734Y011690D01*
X032830Y011786D01*
X032955Y011837D01*
X033034Y011837D01*
X033137Y011880D01*
X033383Y011880D01*
X033486Y011837D01*
X033565Y011837D01*
X033690Y011786D01*
X033786Y011690D01*
X033837Y011565D01*
X033837Y011559D01*
X035626Y009771D01*
X035626Y009771D01*
X035713Y009684D01*
X035713Y009684D01*
X035818Y009579D01*
X035818Y009579D01*
X035931Y009305D01*
X035931Y007766D01*
X035966Y007682D01*
X035966Y006838D01*
X035914Y006713D01*
X035819Y006617D01*
X035694Y006566D01*
X034929Y006566D01*
X034804Y006617D01*
X034760Y006661D01*
X034716Y006617D01*
X034591Y006566D01*
X034337Y006566D01*
X034337Y006565D01*
X034337Y005955D01*
X034286Y005830D01*
X034190Y005734D01*
X034065Y005683D01*
X033455Y005683D01*
X033364Y005720D01*
X030153Y005720D01*
X029954Y005802D01*
X029802Y005954D01*
X029339Y006418D01*
X029339Y006418D01*
X029321Y006435D01*
X029321Y006435D01*
X029259Y006586D01*
X029182Y006554D01*
X028338Y006554D01*
X028213Y006606D01*
X028117Y006701D01*
X028110Y006720D01*
X022153Y006720D01*
X021954Y006802D01*
X021802Y006954D01*
X019074Y009683D01*
X018955Y009683D01*
X018830Y009734D01*
X018734Y009830D01*
X018683Y009955D01*
X018683Y010074D01*
X018269Y010488D01*
X017906Y010488D01*
X017906Y010220D01*
X017854Y010095D01*
X017758Y010000D01*
X017633Y009948D01*
X017072Y009948D01*
X017072Y009387D01*
X017020Y009262D01*
X016925Y009166D01*
X016800Y009114D01*
X014240Y009114D01*
X014115Y009166D01*
X014103Y009178D01*
X014102Y009178D01*
X014103Y009178D02*
X014090Y009166D01*
X013965Y009114D01*
X012438Y009114D01*
X012438Y008317D01*
X012366Y008143D01*
X012366Y008140D01*
X012274Y007917D01*
X012103Y007746D01*
X011880Y007654D01*
X011640Y007654D01*
X011417Y007746D01*
X011246Y007917D01*
X011154Y008140D01*
X011154Y008380D01*
X011246Y008603D01*
X011358Y008714D01*
X011358Y009094D01*
X011339Y009076D01*
X011274Y008917D01*
X011103Y008746D01*
X010880Y008654D01*
X010640Y008654D01*
X010417Y008746D01*
X010246Y008917D01*
X010154Y009140D01*
X010154Y009380D01*
X010246Y009603D01*
X010417Y009774D01*
X010576Y009839D01*
X010649Y009913D01*
X010649Y010136D01*
X010634Y010173D01*
X009936Y010173D01*
X009880Y010116D01*
X009880Y007068D01*
X009982Y006966D01*
X010182Y006966D01*
X010307Y006914D01*
X010403Y006819D01*
X010454Y006694D01*
X010454Y005929D01*
X010413Y005829D01*
X015018Y005829D01*
X015291Y005715D01*
X015291Y005715D01*
X015291Y005715D01*
X015396Y005611D01*
X015483Y005523D01*
X015483Y005523D01*
X016217Y004790D01*
X016407Y004790D01*
X016643Y004693D01*
X016823Y004513D01*
X016920Y004277D01*
X016920Y004023D01*
X016823Y003787D01*
X016643Y003607D01*
X016407Y003510D01*
X015553Y003510D01*
X015317Y003607D01*
X015137Y003787D01*
X015040Y004023D01*
X015040Y004213D01*
X014664Y004589D01*
X010266Y004589D01*
X010182Y004554D01*
X009338Y004554D01*
X009213Y004606D01*
X009179Y004640D01*
X004637Y004640D01*
X004409Y004734D01*
X002445Y006698D01*
X002445Y006698D01*
X002358Y006785D01*
X002253Y006890D01*
X002253Y006890D01*
X002140Y007164D01*
X002140Y008081D01*
X002119Y008132D01*
X002119Y008388D01*
X002216Y008623D01*
X002353Y008760D01*
X002216Y008897D01*
X002119Y009132D01*
X002119Y009388D01*
X002216Y009623D01*
X002353Y009760D01*
X002216Y009897D01*
X002119Y010132D01*
X002119Y010388D01*
X002216Y010623D01*
X002397Y010804D01*
X002632Y010901D01*
X002888Y010901D01*
X003123Y010804D01*
X003140Y010787D01*
X003140Y013003D01*
X001409Y014734D01*
X001234Y014909D01*
X001140Y015137D01*
X001140Y015679D01*
X001106Y015713D01*
X001054Y015838D01*
X001054Y016682D01*
X001089Y016766D01*
X001089Y017805D01*
X001202Y018079D01*
X001202Y018079D01*
X001307Y018184D01*
X001394Y018271D01*
X001394Y018271D01*
X001620Y018497D01*
X001620Y018687D01*
X001717Y018923D01*
X001897Y019103D01*
X002133Y019200D01*
X002387Y019200D01*
X002623Y019103D01*
X002803Y018923D01*
X002813Y018897D01*
X002833Y018925D01*
X002895Y018987D01*
X002966Y019039D01*
X003045Y019079D01*
X003129Y019106D01*
X003216Y019120D01*
X003260Y019120D01*
X003260Y018260D01*
X003260Y016260D01*
X003709Y016260D01*
X003709Y016260D01*
X003709Y016874D01*
X004049Y016874D01*
X004100Y016864D01*
X004140Y016848D01*
X004140Y017320D01*
X004133Y017320D01*
X003897Y017417D01*
X003717Y017597D01*
X003707Y017623D01*
X003687Y017595D01*
X003625Y017533D01*
X003554Y017481D01*
X003475Y017441D01*
X003391Y017414D01*
X003304Y017400D01*
X003260Y017400D01*
X003260Y018260D01*
X003260Y018260D01*
X003260Y018260D01*
X003260Y019120D01*
X003304Y019120D01*
X003391Y019106D01*
X003475Y019079D01*
X003554Y019039D01*
X003625Y018987D01*
X003687Y018925D01*
X003707Y018897D01*
X003717Y018923D01*
X003897Y019103D01*
X004133Y019200D01*
X004387Y019200D01*
X004623Y019103D01*
X004803Y018923D01*
X004900Y018687D01*
X004900Y018497D01*
X005111Y018286D01*
X005286Y018111D01*
X005380Y017883D01*
X005380Y016841D01*
X005414Y016807D01*
X005423Y016787D01*
X005543Y016836D01*
X005722Y016836D01*
X005731Y016840D01*
X005962Y016840D01*
X005971Y016836D01*
X006150Y016836D01*
X006260Y016791D01*
X006370Y016836D01*
X006549Y016836D01*
X006558Y016840D01*
X006875Y016840D01*
X006884Y016836D01*
X006977Y016836D01*
X007102Y016784D01*
X007198Y016689D01*
X007231Y016610D01*
X007500Y016340D01*
X007639Y016340D01*
X007701Y016403D01*
X007826Y016454D01*
X008591Y016454D01*
X008716Y016403D01*
X008760Y016359D01*
X008804Y016403D01*
X008929Y016454D01*
X009680Y016454D01*
X009680Y017020D01*
X006931Y019768D01*
X006768Y019931D01*
X006680Y020145D01*
X006680Y024020D01*
X004431Y026268D01*
X004268Y026431D01*
X004180Y026645D01*
X004180Y027496D01*
X004123Y027633D01*
X004123Y027887D01*
X004220Y028121D01*
X004399Y028300D01*
X004429Y028312D01*
X004397Y028335D01*
X004335Y028397D01*
X004284Y028468D01*
X004244Y028546D01*
X004217Y028630D01*
X004203Y028716D01*
X004203Y028760D01*
X004760Y028760D01*
X005317Y028760D01*
X005317Y028804D01*
X005303Y028890D01*
X005276Y028974D01*
X005236Y029052D01*
X005185Y029123D01*
X005123Y029185D01*
X005091Y029208D01*
X005121Y029220D01*
X005300Y029399D01*
X005397Y029633D01*
X005397Y029887D01*
X005300Y030121D01*
X005121Y030300D01*
X004887Y030397D01*
X004633Y030397D01*
X004399Y030300D01*
X004220Y030121D01*
X004123Y029887D01*
X004123Y029633D01*
X004220Y029399D01*
X004399Y029220D01*
X004429Y029208D01*
X004397Y029185D01*
X004335Y029123D01*
X004284Y029052D01*
X004244Y028974D01*
X004217Y028890D01*
X004203Y028804D01*
X004203Y028760D01*
X004760Y028760D01*
X004760Y028760D01*
X004760Y028760D01*
X005317Y028760D01*
X005317Y028716D01*
X005303Y028630D01*
X005276Y028546D01*
X005236Y028468D01*
X005185Y028397D01*
X005123Y028335D01*
X005091Y028312D01*
X005121Y028300D01*
X005300Y028121D01*
X005397Y027887D01*
X005397Y027633D01*
X005340Y027496D01*
X005340Y027000D01*
X007715Y024625D01*
X007803Y024412D01*
X007803Y024412D01*
X007840Y024324D01*
X007840Y020500D01*
X008680Y019660D01*
X008680Y027496D01*
X008623Y027633D01*
X008623Y027887D01*
X008720Y028121D01*
X008899Y028300D01*
X008929Y028312D01*
X008897Y028335D01*
X008835Y028397D01*
X008784Y028468D01*
X008744Y028546D01*
X008717Y028630D01*
X008703Y028716D01*
X008703Y028760D01*
X009260Y028760D01*
X009817Y028760D01*
X009817Y028804D01*
X009803Y028890D01*
X009776Y028974D01*
X009736Y029052D01*
X009685Y029123D01*
X009623Y029185D01*
X009591Y029208D01*
X009621Y029220D01*
X009800Y029399D01*
X009897Y029633D01*
X009897Y029887D01*
X009800Y030121D01*
X009621Y030300D01*
X009387Y030397D01*
X009133Y030397D01*
X008899Y030300D01*
X008720Y030121D01*
X008623Y029887D01*
X008623Y029633D01*
X008720Y029399D01*
X008899Y029220D01*
X008929Y029208D01*
X008897Y029185D01*
X008835Y029123D01*
X008784Y029052D01*
X008744Y028974D01*
X008717Y028890D01*
X008703Y028804D01*
X008703Y028760D01*
X009260Y028760D01*
X009260Y028760D01*
X009260Y028760D01*
X009817Y028760D01*
X009817Y028716D01*
X009803Y028630D01*
X009776Y028546D01*
X009736Y028468D01*
X009685Y028397D01*
X009623Y028335D01*
X009591Y028312D01*
X009621Y028300D01*
X009800Y028121D01*
X009897Y027887D01*
X009897Y027633D01*
X009840Y027496D01*
X009840Y020000D01*
X010640Y019200D01*
X010640Y025332D01*
X010734Y025559D01*
X010909Y025734D01*
X010917Y025737D01*
X013163Y027983D01*
X013220Y028121D01*
X013399Y028300D01*
X013429Y028312D01*
X013397Y028335D01*
X013335Y028397D01*
X013284Y028468D01*
X013244Y028546D01*
X013217Y028630D01*
X013203Y028716D01*
X013203Y028760D01*
X013760Y028760D01*
X014317Y028760D01*
X014317Y028804D01*
X014303Y028890D01*
X014276Y028974D01*
X014236Y029052D01*
X014185Y029123D01*
X014123Y029185D01*
X014091Y029208D01*
X014121Y029220D01*
X014300Y029399D01*
X014397Y029633D01*
X014397Y029887D01*
X014300Y030121D01*
X014121Y030300D01*
X013887Y030397D01*
X013633Y030397D01*
X013399Y030300D01*
X013220Y030121D01*
X013123Y029887D01*
X013123Y029633D01*
X013220Y029399D01*
X013399Y029220D01*
X013429Y029208D01*
X013397Y029185D01*
X013335Y029123D01*
X013284Y029052D01*
X013244Y028974D01*
X013217Y028890D01*
X013203Y028804D01*
X013203Y028760D01*
X013760Y028760D01*
X013760Y028760D01*
X013760Y028760D01*
X014317Y028760D01*
X014317Y028716D01*
X014303Y028630D01*
X014276Y028546D01*
X014236Y028468D01*
X014185Y028397D01*
X014123Y028335D01*
X014091Y028312D01*
X014121Y028300D01*
X014300Y028121D01*
X014397Y027887D01*
X014397Y027633D01*
X014300Y027399D01*
X014121Y027220D01*
X013983Y027163D01*
X011880Y025060D01*
X011880Y019886D01*
X011880Y019886D01*
X012260Y019886D01*
X012260Y019311D01*
X012260Y019311D01*
X012874Y019311D01*
X012874Y018971D01*
X012864Y018920D01*
X012845Y018873D01*
X012816Y018830D01*
X012800Y018815D01*
X012807Y018812D01*
X012903Y018716D01*
X012954Y018591D01*
X012954Y017829D01*
X013220Y017564D01*
X013220Y018867D01*
X013302Y019066D01*
X013720Y019484D01*
X013720Y020720D01*
X013160Y020720D01*
X013137Y020696D01*
X012892Y020595D01*
X012628Y020595D01*
X012383Y020696D01*
X012196Y020883D01*
X012095Y021128D01*
X012095Y021392D01*
X012196Y021637D01*
X012383Y021824D01*
X012628Y021925D01*
X012892Y021925D01*
X013137Y021824D01*
X013160Y021800D01*
X013720Y021800D01*
X013720Y022103D01*
X013713Y022106D01*
X013617Y022201D01*
X013566Y022326D01*
X013566Y023091D01*
X013617Y023216D01*
X013713Y023312D01*
X013720Y023315D01*
X013704Y023330D01*
X013675Y023373D01*
X013656Y023420D01*
X013646Y023471D01*
X013646Y023811D01*
X014260Y023811D01*
X014260Y023811D01*
X014260Y023811D01*
X014874Y023811D01*
X014874Y023471D01*
X014864Y023420D01*
X014845Y023373D01*
X014816Y023330D01*
X014800Y023315D01*
X014807Y023312D01*
X014903Y023216D01*
X014954Y023091D01*
X014954Y022769D01*
X015054Y022869D01*
X015054Y023182D01*
X015106Y023307D01*
X015201Y023403D01*
X015326Y023454D01*
X015639Y023454D01*
X015720Y023535D01*
X015720Y025036D01*
X015536Y025220D01*
X013984Y025220D01*
X013300Y024536D01*
X013300Y023660D01*
X013324Y023637D01*
X013425Y023392D01*
X013425Y023128D01*
X013324Y022883D01*
X013137Y022696D01*
X012892Y022595D01*
X012628Y022595D01*
X012383Y022696D01*
X012196Y022883D01*
X012095Y023128D01*
X012095Y023392D01*
X012196Y023637D01*
X012220Y023660D01*
X012220Y024867D01*
X012302Y025066D01*
X013302Y026066D01*
X013454Y026218D01*
X013653Y026300D01*
X015867Y026300D01*
X016066Y026218D01*
X016566Y025718D01*
X016718Y025566D01*
X016800Y025367D01*
X016800Y023374D01*
X016811Y023374D01*
X016811Y022760D01*
X016811Y022760D01*
X016811Y022760D01*
X016811Y022146D01*
X016471Y022146D01*
X016420Y022156D01*
X016373Y022175D01*
X016330Y022204D01*
X016315Y022220D01*
X016312Y022213D01*
X016216Y022117D01*
X016091Y022066D01*
X015778Y022066D01*
X015667Y021954D01*
X016091Y021954D01*
X016216Y021903D01*
X016312Y021807D01*
X016315Y021800D01*
X016330Y021816D01*
X016373Y021845D01*
X016420Y021864D01*
X016471Y021874D01*
X016811Y021874D01*
X016811Y021260D01*
X016811Y021260D01*
X016811Y021260D01*
X016811Y020646D01*
X016471Y020646D01*
X016420Y020656D01*
X016373Y020675D01*
X016330Y020704D01*
X016329Y020705D01*
X016329Y020413D01*
X016429Y020454D01*
X017194Y020454D01*
X017319Y020403D01*
X017414Y020307D01*
X017417Y020300D01*
X017867Y020300D01*
X018066Y020218D01*
X018218Y020066D01*
X018554Y019730D01*
X018554Y020182D01*
X018606Y020307D01*
X018640Y020341D01*
X018640Y021179D01*
X018617Y021201D01*
X018566Y021326D01*
X018566Y022091D01*
X018617Y022216D01*
X018713Y022312D01*
X018720Y022315D01*
X018704Y022330D01*
X018675Y022373D01*
X018656Y022420D01*
X018646Y022471D01*
X018646Y022811D01*
X019260Y022811D01*
X019260Y022811D01*
X019260Y022811D01*
X019874Y022811D01*
X019874Y022471D01*
X019864Y022420D01*
X019845Y022373D01*
X019816Y022330D01*
X019800Y022315D01*
X019807Y022312D01*
X019871Y022248D01*
X019909Y022286D01*
X020137Y022380D01*
X020383Y022380D01*
X020611Y022286D01*
X020650Y022247D01*
X020651Y022246D01*
X020746Y022151D01*
X020747Y022150D01*
X020786Y022111D01*
X020880Y021883D01*
X020880Y020341D01*
X020914Y020307D01*
X020966Y020182D01*
X020966Y019338D01*
X020914Y019213D01*
X020819Y019117D01*
X020801Y019110D01*
X020750Y018986D01*
X020750Y018986D01*
X020732Y018969D01*
X020732Y018969D01*
X020218Y018454D01*
X020091Y018327D01*
X020190Y018286D01*
X020286Y018190D01*
X020337Y018065D01*
X020337Y017455D01*
X020286Y017330D01*
X020256Y017300D01*
X020364Y017300D01*
X020455Y017337D01*
X021065Y017337D01*
X021190Y017286D01*
X021286Y017190D01*
X021327Y017091D01*
X022302Y018066D01*
X022454Y018218D01*
X022653Y018300D01*
X023193Y018300D01*
X023160Y018381D01*
X023160Y019139D01*
X023180Y019188D01*
X023180Y028348D01*
X023287Y028608D01*
X023287Y028608D01*
X023305Y028625D01*
X023305Y028625D01*
X025268Y030589D01*
X025431Y030752D01*
X025645Y030840D01*
X030639Y030840D01*
X030701Y030903D01*
X030826Y030954D01*
X031591Y030954D01*
X031716Y030903D01*
X031812Y030807D01*
X031815Y030800D01*
X031830Y030816D01*
X031873Y030845D01*
X031920Y030864D01*
X031971Y030874D01*
X032311Y030874D01*
X032311Y030260D01*
X032311Y030260D01*
X032311Y030260D01*
X032311Y029646D01*
X031971Y029646D01*
X031920Y029656D01*
X031873Y029675D01*
X031830Y029704D01*
X031815Y029720D01*
X031812Y029713D01*
X031716Y029617D01*
X031591Y029566D01*
X031335Y029566D01*
X031313Y029544D01*
X031235Y029466D01*
X031235Y028807D01*
X031183Y028682D01*
X031144Y028643D01*
X031145Y028641D01*
X031155Y028591D01*
X031155Y028270D01*
X030500Y028270D01*
X030500Y028270D01*
X031155Y028270D01*
X031155Y027949D01*
X031145Y027899D01*
X031144Y027897D01*
X031183Y027858D01*
X031191Y027840D01*
X031697Y027840D01*
X031675Y027873D01*
X031656Y027920D01*
X031646Y027971D01*
X031646Y028311D01*
X032260Y028311D01*
X032260Y028311D01*
X032260Y028311D01*
X032874Y028311D01*
X032874Y027971D01*
X032864Y027920D01*
X032845Y027873D01*
X032816Y027830D01*
X032800Y027815D01*
X032807Y027812D01*
X032903Y027716D01*
X032954Y027591D01*
X032954Y026826D01*
X032903Y026701D01*
X032807Y026606D01*
X032682Y026554D01*
X031838Y026554D01*
X031713Y026606D01*
X031639Y026680D01*
X030880Y026680D01*
X030880Y026137D01*
X030786Y025909D01*
X030611Y025734D01*
X029880Y025003D01*
X029880Y024841D01*
X029903Y024819D01*
X029954Y024694D01*
X029954Y024581D01*
X029959Y024592D01*
X029987Y024634D01*
X030023Y024671D01*
X030066Y024699D01*
X030113Y024719D01*
X030164Y024729D01*
X030386Y024729D01*
X030386Y024193D01*
X030386Y024193D01*
X030386Y024729D01*
X030608Y024729D01*
X030659Y024719D01*
X030692Y024705D01*
X030745Y024757D01*
X030870Y024809D01*
X031000Y024809D01*
X031011Y024813D01*
X031436Y024813D01*
X031683Y025059D01*
X031683Y025065D01*
X031734Y025190D01*
X031830Y025286D01*
X031955Y025337D01*
X032034Y025337D01*
X032137Y025380D01*
X032383Y025380D01*
X032486Y025337D01*
X032565Y025337D01*
X032690Y025286D01*
X032786Y025190D01*
X032837Y025065D01*
X032837Y024986D01*
X032880Y024883D01*
X032880Y024637D01*
X032837Y024534D01*
X032837Y024455D01*
X032786Y024330D01*
X032690Y024234D01*
X032565Y024183D01*
X032559Y024183D01*
X032255Y023878D01*
X032255Y023878D01*
X032217Y023840D01*
X032375Y023840D01*
X032381Y023837D01*
X032565Y023837D01*
X032690Y023786D01*
X032786Y023690D01*
X032837Y023565D01*
X032837Y023381D01*
X032840Y023375D01*
X032840Y023145D01*
X032837Y023139D01*
X032837Y022955D01*
X032786Y022830D01*
X032690Y022734D01*
X032565Y022683D01*
X032427Y022683D01*
X032297Y022629D01*
X029830Y022629D01*
X029807Y022606D01*
X029682Y022554D01*
X028838Y022554D01*
X028713Y022606D01*
X028617Y022701D01*
X028566Y022826D01*
X028566Y023591D01*
X028617Y023716D01*
X028661Y023760D01*
X028617Y023804D01*
X028566Y023929D01*
X028566Y024694D01*
X028617Y024819D01*
X028640Y024841D01*
X028640Y025383D01*
X028734Y025611D01*
X028773Y025650D01*
X028774Y025651D01*
X028869Y025746D01*
X028870Y025747D01*
X029640Y026517D01*
X029640Y027253D01*
X029734Y027481D01*
X029765Y027512D01*
X029765Y027733D01*
X029817Y027858D01*
X029856Y027897D01*
X029855Y027899D01*
X029845Y027949D01*
X029845Y028270D01*
X030500Y028270D01*
X030500Y028270D01*
X029845Y028270D01*
X029845Y028591D01*
X029855Y028641D01*
X029856Y028643D01*
X029817Y028682D01*
X029765Y028807D01*
X029765Y029533D01*
X029817Y029658D01*
X029839Y029680D01*
X026000Y029680D01*
X024340Y028020D01*
X024340Y021290D01*
X024455Y021337D01*
X024461Y021337D01*
X024872Y021749D01*
X025100Y021843D01*
X025100Y021843D01*
X025188Y021880D01*
X031883Y021880D01*
X031986Y021837D01*
X032065Y021837D01*
X032190Y021786D01*
X032286Y021690D01*
X032337Y021565D01*
X032337Y021486D01*
X032380Y021383D01*
X032380Y021137D01*
X032337Y021034D01*
X032337Y020955D01*
X032306Y020880D01*
X032383Y020880D01*
X032611Y020786D01*
X032786Y020611D01*
X035517Y017880D01*
X036060Y017880D01*
X036680Y018500D01*
X036680Y018773D01*
X036623Y018716D01*
X036388Y018619D01*
X036132Y018619D01*
X035897Y018716D01*
X035760Y018853D01*
X035623Y018716D01*
X035388Y018619D01*
X035132Y018619D01*
X034897Y018716D01*
X034716Y018897D01*
X034619Y019132D01*
X034619Y019388D01*
X034716Y019623D01*
X034897Y019804D01*
X034920Y019813D01*
X034894Y019832D01*
X034832Y019894D01*
X034780Y019966D01*
X034740Y020045D01*
X034713Y020129D01*
X034699Y020216D01*
X034699Y020260D01*
X035260Y020260D01*
X035260Y020260D01*
X034699Y020260D01*
X034699Y020304D01*
X034713Y020391D01*
X034740Y020475D01*
X034780Y020554D01*
X034832Y020626D01*
X034886Y020680D01*
X034672Y020680D01*
X034412Y020787D01*
X034412Y020787D01*
X034395Y020805D01*
X034395Y020805D01*
X033931Y021268D01*
X033768Y021431D01*
X033680Y021645D01*
X033680Y024375D01*
X033768Y024589D01*
X034320Y025140D01*
X034137Y025140D01*
X034034Y025183D01*
X033955Y025183D01*
X033830Y025234D01*
X033734Y025330D01*
X033683Y025455D01*
X033683Y025534D01*
X033640Y025637D01*
X033640Y025883D01*
X033683Y025986D01*
X033683Y026065D01*
X033734Y026190D01*
X033830Y026286D01*
X033955Y026337D01*
X033961Y026337D01*
X034177Y026554D01*
X033338Y026554D01*
X033213Y026606D01*
X033117Y026701D01*
X033066Y026826D01*
X033066Y027591D01*
X033117Y027716D01*
X033213Y027812D01*
X033220Y027815D01*
X033204Y027830D01*
X033175Y027873D01*
X033156Y027920D01*
X033146Y027971D01*
X033146Y028311D01*
X033760Y028311D01*
X033760Y028311D01*
X033760Y028311D01*
X034374Y028311D01*
X034374Y027971D01*
X034364Y027920D01*
X034348Y027880D01*
X034883Y027880D01*
X035111Y027786D01*
X035286Y027611D01*
X035442Y027454D01*
X035591Y027454D01*
X035716Y027403D01*
X035760Y027359D01*
X035804Y027403D01*
X035929Y027454D01*
X036694Y027454D01*
X036819Y027403D01*
X036914Y027307D01*
X036966Y027182D01*
X036966Y026338D01*
X036914Y026213D01*
X036836Y026134D01*
X036752Y025931D01*
X036660Y025840D01*
X037848Y025840D01*
X038108Y025733D01*
X038108Y025733D01*
X038125Y025715D01*
X038125Y025715D01*
X039070Y024770D01*
X039070Y029638D01*
X038817Y029570D01*
X038503Y029570D01*
X038201Y029651D01*
X037929Y029808D01*
X037708Y030029D01*
X037551Y030301D01*
X037470Y030603D01*
X037470Y030917D01*
X037545Y031196D01*
X002375Y031196D01*
X002450Y030917D01*
X002450Y030603D01*
X002369Y030301D01*
X002212Y030029D01*
X001991Y029808D01*
X001719Y029651D01*
X001417Y029570D01*
X001103Y029570D01*
X000820Y029646D01*
X000820Y002374D01*
X001103Y002450D01*
X001417Y002450D01*
X001719Y002369D01*
X001991Y002212D01*
X002212Y001991D01*
X002369Y001719D01*
X002450Y001417D01*
X002450Y001103D01*
X002450Y001216D02*
X015928Y001216D01*
X015609Y001534D02*
X002418Y001534D01*
X002292Y001853D02*
X015292Y001853D01*
X015070Y002171D02*
X002032Y002171D01*
X000820Y002490D02*
X015040Y002490D01*
X015213Y002808D02*
X012209Y002808D01*
X012121Y002720D02*
X012300Y002899D01*
X012397Y003133D01*
X012397Y003387D01*
X012300Y003621D01*
X012121Y003800D01*
X011887Y003897D01*
X011633Y003897D01*
X011399Y003800D01*
X011260Y003661D01*
X011121Y003800D01*
X010887Y003897D01*
X010633Y003897D01*
X010399Y003800D01*
X010220Y003621D01*
X010123Y003387D01*
X010123Y003133D01*
X010220Y002899D01*
X010399Y002720D01*
X010633Y002623D01*
X010887Y002623D01*
X011121Y002720D01*
X011260Y002859D01*
X011399Y002720D01*
X011633Y002623D01*
X011887Y002623D01*
X012121Y002720D01*
X012394Y003127D02*
X033301Y003127D01*
X033619Y003445D02*
X012373Y003445D01*
X012157Y003764D02*
X015161Y003764D01*
X015040Y004082D02*
X000820Y004082D01*
X000820Y003764D02*
X004022Y003764D01*
X004046Y003776D02*
X003968Y003736D01*
X003897Y003685D01*
X003835Y003623D01*
X003784Y003552D01*
X003744Y003474D01*
X003717Y003390D01*
X003703Y003304D01*
X003703Y003260D01*
X004260Y003260D01*
X004260Y003260D01*
X004260Y003817D01*
X004216Y003817D01*
X004130Y003803D01*
X004046Y003776D01*
X004260Y003764D02*
X004260Y003764D01*
X004260Y003817D02*
X004304Y003817D01*
X004390Y003803D01*
X004474Y003776D01*
X004552Y003736D01*
X004623Y003685D01*
X004685Y003623D01*
X004708Y003591D01*
X004720Y003621D01*
X004899Y003800D01*
X005133Y003897D01*
X005387Y003897D01*
X005621Y003800D01*
X005800Y003621D01*
X005897Y003387D01*
X005897Y003133D01*
X005800Y002899D01*
X005621Y002720D01*
X005387Y002623D01*
X005133Y002623D01*
X004899Y002720D01*
X004720Y002899D01*
X004708Y002929D01*
X004685Y002897D01*
X004623Y002835D01*
X004552Y002784D01*
X004474Y002744D01*
X004390Y002717D01*
X004304Y002703D01*
X004260Y002703D01*
X004260Y003260D01*
X004260Y003817D01*
X004498Y003764D02*
X004863Y003764D01*
X004260Y003445D02*
X004260Y003445D01*
X004260Y003260D02*
X004260Y003260D01*
X004260Y003260D01*
X004260Y002703D01*
X004216Y002703D01*
X004130Y002717D01*
X004046Y002744D01*
X003968Y002784D01*
X003897Y002835D01*
X003835Y002897D01*
X003784Y002968D01*
X003744Y003046D01*
X003717Y003130D01*
X003703Y003216D01*
X003703Y003260D01*
X004260Y003260D01*
X004260Y003127D02*
X004260Y003127D01*
X004260Y002808D02*
X004260Y002808D01*
X004585Y002808D02*
X004811Y002808D01*
X005709Y002808D02*
X007311Y002808D01*
X007399Y002720D02*
X007633Y002623D01*
X007887Y002623D01*
X008121Y002720D01*
X008260Y002859D01*
X008399Y002720D01*
X008633Y002623D01*
X008887Y002623D01*
X009121Y002720D01*
X009300Y002899D01*
X009397Y003133D01*
X009397Y003387D01*
X009300Y003621D01*
X009121Y003800D01*
X008887Y003897D01*
X008633Y003897D01*
X008399Y003800D01*
X008260Y003661D01*
X008121Y003800D01*
X007887Y003897D01*
X007633Y003897D01*
X007399Y003800D01*
X007220Y003621D01*
X007123Y003387D01*
X007123Y003133D01*
X007220Y002899D01*
X007399Y002720D01*
X007126Y003127D02*
X005894Y003127D01*
X005873Y003445D02*
X007147Y003445D01*
X007363Y003764D02*
X005657Y003764D01*
X004446Y004719D02*
X000820Y004719D01*
X000820Y004401D02*
X014853Y004401D01*
X014957Y005172D02*
X014942Y005185D01*
X014926Y005195D01*
X014908Y005203D01*
X014889Y005207D01*
X014869Y005209D01*
X009760Y005209D01*
X009760Y005260D02*
X004760Y005260D01*
X002797Y007223D01*
X002760Y007312D02*
X002760Y008260D01*
X002119Y008223D02*
X000820Y008223D01*
X000820Y008541D02*
X002182Y008541D01*
X002254Y008860D02*
X000820Y008860D01*
X000820Y009178D02*
X002119Y009178D01*
X002164Y009497D02*
X000820Y009497D01*
X000820Y009815D02*
X002298Y009815D01*
X002119Y010134D02*
X000820Y010134D01*
X000820Y010452D02*
X002146Y010452D01*
X002364Y010771D02*
X000820Y010771D01*
X000820Y011089D02*
X003140Y011089D01*
X003140Y011408D02*
X000820Y011408D01*
X000820Y011726D02*
X003140Y011726D01*
X003140Y012045D02*
X000820Y012045D01*
X000820Y012363D02*
X003140Y012363D01*
X003140Y012682D02*
X000820Y012682D01*
X000820Y013000D02*
X003140Y013000D01*
X002825Y013319D02*
X000820Y013319D01*
X000820Y013637D02*
X002506Y013637D01*
X002188Y013956D02*
X000820Y013956D01*
X000820Y014274D02*
X001869Y014274D01*
X001551Y014593D02*
X000820Y014593D01*
X000820Y014911D02*
X001233Y014911D01*
X001140Y015230D02*
X000820Y015230D01*
X000820Y015548D02*
X001140Y015548D01*
X001054Y015867D02*
X000820Y015867D01*
X000820Y016185D02*
X001054Y016185D01*
X001054Y016504D02*
X000820Y016504D01*
X000820Y016822D02*
X001089Y016822D01*
X001089Y017141D02*
X000820Y017141D01*
X000820Y017459D02*
X001089Y017459D01*
X001089Y017778D02*
X000820Y017778D01*
X000820Y018096D02*
X001219Y018096D01*
X001538Y018415D02*
X000820Y018415D01*
X000820Y018733D02*
X001639Y018733D01*
X001846Y019052D02*
X000820Y019052D01*
X000820Y019370D02*
X007330Y019370D01*
X007648Y019052D02*
X004674Y019052D01*
X004881Y018733D02*
X007967Y018733D01*
X008285Y018415D02*
X004982Y018415D01*
X005292Y018096D02*
X008604Y018096D01*
X008922Y017778D02*
X005380Y017778D01*
X005380Y017459D02*
X009241Y017459D01*
X009559Y017141D02*
X005380Y017141D01*
X005399Y016822D02*
X005508Y016822D01*
X004760Y016363D02*
X004762Y016343D01*
X004766Y016324D01*
X004774Y016306D01*
X004784Y016290D01*
X004797Y016275D01*
X004811Y016260D01*
X004760Y016363D02*
X004760Y017760D01*
X004260Y018260D01*
X003846Y019052D02*
X003529Y019052D01*
X003260Y019052D02*
X003260Y019052D01*
X002991Y019052D02*
X002674Y019052D01*
X003260Y018733D02*
X003260Y018733D01*
X003260Y018415D02*
X003260Y018415D01*
X003260Y018260D02*
X003260Y017400D01*
X003216Y017400D01*
X003129Y017414D01*
X003045Y017441D01*
X002966Y017481D01*
X002895Y017533D01*
X002833Y017595D01*
X002813Y017623D01*
X002803Y017597D01*
X002623Y017417D01*
X002387Y017320D01*
X002329Y017320D01*
X002329Y016815D01*
X002330Y016816D01*
X002373Y016845D01*
X002420Y016864D01*
X002471Y016874D01*
X002811Y016874D01*
X002811Y016260D01*
X002380Y016260D01*
X002380Y016260D01*
X002811Y016260D01*
X002811Y016260D01*
X002811Y016260D01*
X002811Y016260D01*
X002811Y015646D01*
X002471Y015646D01*
X002420Y015656D01*
X002380Y015672D01*
X002380Y015517D01*
X004017Y013880D01*
X005267Y013880D01*
X005267Y015596D01*
X005194Y015566D01*
X004429Y015566D01*
X004304Y015617D01*
X004208Y015713D01*
X004205Y015720D01*
X004190Y015704D01*
X004147Y015675D01*
X004100Y015656D01*
X004049Y015646D01*
X003709Y015646D01*
X003709Y016260D01*
X003709Y016260D01*
X003709Y016874D01*
X003368Y016874D01*
X003318Y016864D01*
X003271Y016845D01*
X003260Y016838D01*
X003249Y016845D01*
X003202Y016864D01*
X003152Y016874D01*
X002811Y016874D01*
X002811Y016260D01*
X003260Y016260D01*
X003386Y016260D02*
X003709Y016260D01*
X003709Y015646D01*
X003368Y015646D01*
X003318Y015656D01*
X003271Y015675D01*
X003260Y015682D01*
X003249Y015675D01*
X003202Y015656D01*
X003152Y015646D01*
X002811Y015646D01*
X002811Y016260D01*
X002760Y016260D01*
X002811Y016260D02*
X003709Y016260D01*
X003709Y016260D01*
X003709Y016185D02*
X003709Y016185D01*
X003709Y015867D02*
X003709Y015867D01*
X003386Y016260D02*
X002811Y016260D01*
X002811Y016260D01*
X002811Y016185D02*
X002811Y016185D01*
X002811Y015867D02*
X002811Y015867D01*
X002380Y015548D02*
X005267Y015548D01*
X005267Y015230D02*
X002667Y015230D01*
X002986Y014911D02*
X005267Y014911D01*
X005267Y014593D02*
X003304Y014593D01*
X003623Y014274D02*
X005267Y014274D01*
X005267Y013956D02*
X003941Y013956D01*
X003760Y013260D02*
X005847Y013260D01*
X006076Y012684D02*
X005970Y012640D01*
X004380Y012640D01*
X004380Y010880D01*
X009116Y010880D01*
X009370Y011134D01*
X009370Y011134D01*
X009388Y011152D01*
X009388Y011152D01*
X009632Y011253D01*
X010614Y011253D01*
X010614Y012377D01*
X009966Y012377D01*
X009966Y012338D01*
X009914Y012213D01*
X009819Y012117D01*
X009694Y012066D01*
X008929Y012066D01*
X008804Y012117D01*
X008760Y012161D01*
X008716Y012117D01*
X008591Y012066D01*
X007826Y012066D01*
X007701Y012117D01*
X007639Y012180D01*
X007145Y012180D01*
X006931Y012268D01*
X006768Y012431D01*
X006516Y012684D01*
X006370Y012684D01*
X006260Y012729D01*
X006150Y012684D01*
X006076Y012684D01*
X006070Y012682D02*
X006518Y012682D01*
X006837Y012363D02*
X004380Y012363D01*
X004380Y012045D02*
X010614Y012045D01*
X010614Y012363D02*
X009966Y012363D01*
X010614Y011726D02*
X004380Y011726D01*
X004380Y011408D02*
X010614Y011408D01*
X009325Y011089D02*
X004380Y011089D01*
X003760Y010260D02*
X003760Y013260D01*
X001760Y015260D01*
X001760Y016157D01*
X001723Y016245D02*
X001709Y016260D01*
X001709Y017657D01*
X001745Y017745D02*
X002260Y018260D01*
X001746Y017745D02*
X001733Y017730D01*
X001723Y017714D01*
X001715Y017696D01*
X001711Y017677D01*
X001709Y017657D01*
X002329Y017141D02*
X004140Y017141D01*
X003856Y017459D02*
X003510Y017459D01*
X003260Y017459D02*
X003260Y017459D01*
X003010Y017459D02*
X002664Y017459D01*
X002811Y016822D02*
X002811Y016822D01*
X002811Y016504D02*
X002811Y016504D01*
X002339Y016822D02*
X002329Y016822D01*
X001723Y016245D02*
X001736Y016230D01*
X001746Y016214D01*
X001754Y016196D01*
X001758Y016177D01*
X001760Y016157D01*
X003709Y016504D02*
X003709Y016504D01*
X003709Y016822D02*
X003709Y016822D01*
X003260Y017778D02*
X003260Y017778D01*
X003260Y018096D02*
X003260Y018096D01*
X000820Y019689D02*
X007011Y019689D01*
X006737Y020007D02*
X000820Y020007D01*
X000820Y020326D02*
X006680Y020326D01*
X006680Y020644D02*
X000820Y020644D01*
X000820Y020963D02*
X006680Y020963D01*
X006680Y021281D02*
X000820Y021281D01*
X000820Y021600D02*
X006680Y021600D01*
X006680Y021918D02*
X000820Y021918D01*
X000820Y022237D02*
X006680Y022237D01*
X006680Y022555D02*
X000820Y022555D01*
X000820Y022874D02*
X006680Y022874D01*
X006680Y023192D02*
X004003Y023192D01*
X004228Y023417D01*
X004388Y023693D01*
X004470Y024001D01*
X004470Y024319D01*
X004388Y024627D01*
X004228Y024903D01*
X004003Y025128D01*
X003727Y025288D01*
X003419Y025370D01*
X003101Y025370D01*
X002793Y025288D01*
X002517Y025128D01*
X002292Y024903D01*
X002132Y024627D01*
X002050Y024319D01*
X002050Y024001D01*
X002132Y023693D01*
X002292Y023417D01*
X002517Y023192D01*
X000820Y023192D01*
X000820Y023511D02*
X002238Y023511D01*
X002096Y023829D02*
X000820Y023829D01*
X000820Y024148D02*
X002050Y024148D01*
X002089Y024466D02*
X000820Y024466D01*
X000820Y024785D02*
X002223Y024785D01*
X002492Y025103D02*
X000820Y025103D01*
X000820Y025422D02*
X005278Y025422D01*
X004960Y025740D02*
X000820Y025740D01*
X000820Y026059D02*
X004641Y026059D01*
X004323Y026377D02*
X000820Y026377D01*
X000820Y026696D02*
X004180Y026696D01*
X004180Y027014D02*
X000820Y027014D01*
X000820Y027333D02*
X004180Y027333D01*
X004123Y027651D02*
X000820Y027651D01*
X000820Y027970D02*
X004157Y027970D01*
X004387Y028288D02*
X000820Y028288D01*
X000820Y028607D02*
X004224Y028607D01*
X004228Y028925D02*
X000820Y028925D01*
X000820Y029244D02*
X004376Y029244D01*
X004153Y029562D02*
X000820Y029562D01*
X002063Y029881D02*
X004123Y029881D01*
X004298Y030199D02*
X002310Y030199D01*
X002427Y030518D02*
X025197Y030518D01*
X024879Y030199D02*
X014222Y030199D01*
X014397Y029881D02*
X024560Y029881D01*
X024242Y029562D02*
X014367Y029562D01*
X014144Y029244D02*
X023923Y029244D01*
X023605Y028925D02*
X014292Y028925D01*
X014296Y028607D02*
X023287Y028607D01*
X023180Y028288D02*
X014133Y028288D01*
X014363Y027970D02*
X023180Y027970D01*
X023180Y027651D02*
X014397Y027651D01*
X014233Y027333D02*
X023180Y027333D01*
X023180Y027014D02*
X013834Y027014D01*
X013516Y026696D02*
X023180Y026696D01*
X023180Y026377D02*
X013197Y026377D01*
X013295Y026059D02*
X012879Y026059D01*
X012976Y025740D02*
X012560Y025740D01*
X012658Y025422D02*
X012242Y025422D01*
X012339Y025103D02*
X011923Y025103D01*
X011880Y024785D02*
X012220Y024785D01*
X012220Y024466D02*
X011880Y024466D01*
X011880Y024148D02*
X012220Y024148D01*
X012220Y023829D02*
X011880Y023829D01*
X011880Y023511D02*
X012144Y023511D01*
X012095Y023192D02*
X011880Y023192D01*
X011880Y022874D02*
X012206Y022874D01*
X011880Y022555D02*
X013566Y022555D01*
X013566Y022874D02*
X013314Y022874D01*
X013425Y023192D02*
X013607Y023192D01*
X013646Y023511D02*
X013376Y023511D01*
X013300Y023829D02*
X013646Y023829D01*
X013646Y023811D02*
X014260Y023811D01*
X014874Y023811D01*
X014874Y024152D01*
X014864Y024202D01*
X014845Y024249D01*
X014816Y024292D01*
X014780Y024328D01*
X014737Y024357D01*
X014690Y024376D01*
X014640Y024386D01*
X014260Y024386D01*
X013880Y024386D01*
X013830Y024376D01*
X013783Y024357D01*
X013740Y024328D01*
X013704Y024292D01*
X013675Y024249D01*
X013656Y024202D01*
X013646Y024152D01*
X013646Y023811D01*
X013646Y024148D02*
X013300Y024148D01*
X013300Y024466D02*
X015720Y024466D01*
X015720Y024148D02*
X014874Y024148D01*
X014874Y023829D02*
X015720Y023829D01*
X015696Y023511D02*
X014874Y023511D01*
X014913Y023192D02*
X015058Y023192D01*
X015054Y022874D02*
X014954Y022874D01*
X014260Y023811D02*
X014260Y023811D01*
X014260Y024386D01*
X014260Y023811D01*
X014260Y023829D02*
X014260Y023829D01*
X014260Y024148D02*
X014260Y024148D01*
X013548Y024785D02*
X015720Y024785D01*
X015653Y025103D02*
X013867Y025103D01*
X011875Y026696D02*
X009840Y026696D01*
X009840Y027014D02*
X012194Y027014D01*
X012512Y027333D02*
X009840Y027333D01*
X009897Y027651D02*
X012831Y027651D01*
X013149Y027970D02*
X009863Y027970D01*
X009633Y028288D02*
X013387Y028288D01*
X013224Y028607D02*
X009796Y028607D01*
X009792Y028925D02*
X013228Y028925D01*
X013376Y029244D02*
X009644Y029244D01*
X009867Y029562D02*
X013153Y029562D01*
X013123Y029881D02*
X009897Y029881D01*
X009722Y030199D02*
X013298Y030199D01*
X008876Y029244D02*
X005144Y029244D01*
X005292Y028925D02*
X008728Y028925D01*
X008724Y028607D02*
X005296Y028607D01*
X005133Y028288D02*
X008887Y028288D01*
X008657Y027970D02*
X005363Y027970D01*
X005397Y027651D02*
X008623Y027651D01*
X008680Y027333D02*
X005340Y027333D01*
X005340Y027014D02*
X008680Y027014D01*
X008680Y026696D02*
X005645Y026696D01*
X005963Y026377D02*
X008680Y026377D01*
X008680Y026059D02*
X006282Y026059D01*
X006600Y025740D02*
X008680Y025740D01*
X008680Y025422D02*
X006919Y025422D01*
X007237Y025103D02*
X008680Y025103D01*
X008680Y024785D02*
X007556Y024785D01*
X007781Y024466D02*
X008680Y024466D01*
X008680Y024148D02*
X007840Y024148D01*
X007840Y023829D02*
X008680Y023829D01*
X008680Y023511D02*
X007840Y023511D01*
X007840Y023192D02*
X008680Y023192D01*
X008680Y022874D02*
X007840Y022874D01*
X007840Y022555D02*
X008680Y022555D01*
X008680Y022237D02*
X007840Y022237D01*
X007840Y021918D02*
X008680Y021918D01*
X008680Y021600D02*
X007840Y021600D01*
X007840Y021281D02*
X008680Y021281D01*
X008680Y020963D02*
X007840Y020963D01*
X007840Y020644D02*
X008680Y020644D01*
X008680Y020326D02*
X008015Y020326D01*
X008333Y020007D02*
X008680Y020007D01*
X008680Y019689D02*
X008652Y019689D01*
X009840Y020007D02*
X010640Y020007D01*
X010640Y019689D02*
X010152Y019689D01*
X010470Y019370D02*
X010640Y019370D01*
X010640Y020326D02*
X009840Y020326D01*
X009840Y020644D02*
X010640Y020644D01*
X010640Y020963D02*
X009840Y020963D01*
X009840Y021281D02*
X010640Y021281D01*
X010640Y021600D02*
X009840Y021600D01*
X009840Y021918D02*
X010640Y021918D01*
X010640Y022237D02*
X009840Y022237D01*
X009840Y022555D02*
X010640Y022555D01*
X010640Y022874D02*
X009840Y022874D01*
X009840Y023192D02*
X010640Y023192D01*
X010640Y023511D02*
X009840Y023511D01*
X009840Y023829D02*
X010640Y023829D01*
X010640Y024148D02*
X009840Y024148D01*
X009840Y024466D02*
X010640Y024466D01*
X010640Y024785D02*
X009840Y024785D01*
X009840Y025103D02*
X010640Y025103D01*
X010677Y025422D02*
X009840Y025422D01*
X009840Y025740D02*
X010920Y025740D01*
X011238Y026059D02*
X009840Y026059D01*
X009840Y026377D02*
X011557Y026377D01*
X011260Y025208D02*
X011260Y017260D01*
X009680Y016822D02*
X007012Y016822D01*
X007337Y016504D02*
X009680Y016504D01*
X013006Y017778D02*
X013220Y017778D01*
X013220Y018096D02*
X012954Y018096D01*
X012954Y018415D02*
X013220Y018415D01*
X013220Y018733D02*
X012886Y018733D01*
X012874Y019052D02*
X013296Y019052D01*
X013606Y019370D02*
X012874Y019370D01*
X012874Y019311D02*
X012874Y019652D01*
X012864Y019702D01*
X012845Y019749D01*
X012816Y019792D01*
X012780Y019828D01*
X012737Y019857D01*
X012690Y019876D01*
X012640Y019886D01*
X012260Y019886D01*
X012260Y019311D01*
X012874Y019311D01*
X012867Y019689D02*
X013720Y019689D01*
X013720Y020007D02*
X011880Y020007D01*
X011880Y020326D02*
X013720Y020326D01*
X013720Y020644D02*
X013011Y020644D01*
X012509Y020644D02*
X011880Y020644D01*
X011880Y020963D02*
X012163Y020963D01*
X012095Y021281D02*
X011880Y021281D01*
X011880Y021600D02*
X012181Y021600D01*
X011880Y021918D02*
X012611Y021918D01*
X012909Y021918D02*
X013720Y021918D01*
X013603Y022237D02*
X011880Y022237D01*
X012260Y019689D02*
X012260Y019689D01*
X012260Y019370D02*
X012260Y019370D01*
X012260Y019311D02*
X012260Y019311D01*
X015709Y019760D02*
X015709Y021260D01*
X016179Y021918D02*
X018566Y021918D01*
X018566Y021600D02*
X017386Y021600D01*
X017386Y021640D02*
X017376Y021690D01*
X017357Y021737D01*
X017328Y021780D01*
X017292Y021816D01*
X017249Y021845D01*
X017202Y021864D01*
X017152Y021874D01*
X016811Y021874D01*
X016811Y021260D01*
X016811Y020646D01*
X017152Y020646D01*
X017202Y020656D01*
X017249Y020675D01*
X017292Y020704D01*
X017328Y020740D01*
X017357Y020783D01*
X017376Y020830D01*
X017386Y020880D01*
X017386Y021260D01*
X017386Y021640D01*
X017386Y021281D02*
X018584Y021281D01*
X018640Y020963D02*
X017386Y020963D01*
X017386Y021260D02*
X016811Y021260D01*
X017386Y021260D01*
X016811Y021260D02*
X016811Y021260D01*
X016811Y021281D02*
X016811Y021281D01*
X016811Y020963D02*
X016811Y020963D01*
X016329Y020644D02*
X018640Y020644D01*
X018624Y020326D02*
X017396Y020326D01*
X016811Y019760D02*
X015745Y018194D01*
X015709Y018260D02*
X015709Y018106D01*
X015711Y018126D01*
X015715Y018145D01*
X015723Y018163D01*
X015733Y018179D01*
X015746Y018194D01*
X016811Y018260D02*
X017760Y017760D01*
X017376Y017830D02*
X017364Y017800D01*
X019036Y017800D01*
X019183Y017946D01*
X019183Y018065D01*
X019234Y018190D01*
X019264Y018220D01*
X018679Y018220D01*
X018435Y018321D01*
X018435Y018321D01*
X018418Y018339D01*
X018418Y018339D01*
X017536Y019220D01*
X017417Y019220D01*
X017414Y019213D01*
X017319Y019117D01*
X017194Y019066D01*
X017089Y019066D01*
X016958Y018874D01*
X017152Y018874D01*
X017202Y018864D01*
X017249Y018845D01*
X017292Y018816D01*
X017328Y018780D01*
X017357Y018737D01*
X017376Y018690D01*
X017386Y018640D01*
X017386Y018260D01*
X016811Y018260D01*
X016811Y018260D01*
X017386Y018260D01*
X017386Y017880D01*
X017376Y017830D01*
X017386Y018096D02*
X019195Y018096D01*
X018342Y018415D02*
X017386Y018415D01*
X017358Y018733D02*
X018023Y018733D01*
X017705Y019052D02*
X017079Y019052D01*
X018277Y020007D02*
X018554Y020007D01*
X019223Y019775D02*
X019236Y019790D01*
X019246Y019806D01*
X019254Y019824D01*
X019258Y019843D01*
X019260Y019863D01*
X019260Y020760D01*
X019260Y021709D01*
X018638Y022237D02*
X017325Y022237D01*
X017328Y022240D02*
X017357Y022283D01*
X017376Y022330D01*
X017386Y022380D01*
X017386Y022760D01*
X017386Y023140D01*
X017376Y023190D01*
X017357Y023237D01*
X017328Y023280D01*
X017292Y023316D01*
X017249Y023345D01*
X017202Y023364D01*
X017152Y023374D01*
X016811Y023374D01*
X016811Y022760D01*
X016811Y022146D01*
X017152Y022146D01*
X017202Y022156D01*
X017249Y022175D01*
X017292Y022204D01*
X017328Y022240D01*
X017386Y022555D02*
X018646Y022555D01*
X018646Y022811D02*
X019260Y022811D01*
X021760Y022811D01*
X021760Y022811D01*
X022374Y022811D01*
X022374Y022471D01*
X022364Y022420D01*
X022345Y022373D01*
X022316Y022330D01*
X022300Y022315D01*
X022307Y022312D01*
X022403Y022216D01*
X022454Y022091D01*
X022454Y021326D01*
X022403Y021201D01*
X022340Y021139D01*
X022340Y020145D01*
X022337Y020139D01*
X022337Y019955D01*
X022286Y019830D01*
X022190Y019734D01*
X022065Y019683D01*
X021881Y019683D01*
X021875Y019680D01*
X021645Y019680D01*
X021639Y019683D01*
X021455Y019683D01*
X021330Y019734D01*
X021234Y019830D01*
X021183Y019955D01*
X021183Y020139D01*
X021180Y020145D01*
X021180Y021139D01*
X021117Y021201D01*
X021066Y021326D01*
X021066Y022091D01*
X021117Y022216D01*
X021213Y022312D01*
X021220Y022315D01*
X021204Y022330D01*
X021175Y022373D01*
X021156Y022420D01*
X021146Y022471D01*
X021146Y022811D01*
X021760Y022811D01*
X021760Y022811D01*
X022374Y022811D01*
X022374Y023152D01*
X022364Y023202D01*
X022345Y023249D01*
X022316Y023292D01*
X022280Y023328D01*
X022237Y023357D01*
X022190Y023376D01*
X022140Y023386D01*
X021760Y023386D01*
X021380Y023386D01*
X021330Y023376D01*
X021283Y023357D01*
X021240Y023328D01*
X021204Y023292D01*
X021175Y023249D01*
X021156Y023202D01*
X021146Y023152D01*
X021146Y022811D01*
X021760Y022811D01*
X021760Y023386D01*
X021760Y022811D01*
X021760Y022811D01*
X021760Y022874D02*
X021760Y022874D01*
X021760Y023192D02*
X021760Y023192D01*
X022366Y023192D02*
X023180Y023192D01*
X023180Y022874D02*
X022374Y022874D01*
X022374Y022555D02*
X023180Y022555D01*
X023180Y022237D02*
X022382Y022237D01*
X022454Y021918D02*
X023180Y021918D01*
X023180Y021600D02*
X022454Y021600D01*
X022436Y021281D02*
X023180Y021281D01*
X023180Y020963D02*
X022340Y020963D01*
X022340Y020644D02*
X023180Y020644D01*
X023180Y020326D02*
X022340Y020326D01*
X022337Y020007D02*
X023180Y020007D01*
X023180Y019689D02*
X022080Y019689D01*
X021440Y019689D02*
X020966Y019689D01*
X020966Y020007D02*
X021183Y020007D01*
X021180Y020326D02*
X020896Y020326D01*
X020880Y020644D02*
X021180Y020644D01*
X021180Y020963D02*
X020880Y020963D01*
X020880Y021281D02*
X021084Y021281D01*
X021066Y021600D02*
X020880Y021600D01*
X020866Y021918D02*
X021066Y021918D01*
X021138Y022237D02*
X020661Y022237D01*
X021146Y022555D02*
X019874Y022555D01*
X019874Y022811D02*
X019260Y022811D01*
X019260Y024260D01*
X019260Y023386D02*
X019260Y022811D01*
X019260Y023386D01*
X018880Y023386D01*
X018830Y023376D01*
X018783Y023357D01*
X018740Y023328D01*
X018704Y023292D01*
X018675Y023249D01*
X018656Y023202D01*
X018646Y023152D01*
X018646Y022811D01*
X018646Y022874D02*
X017386Y022874D01*
X017386Y022760D02*
X016811Y022760D01*
X016811Y022760D01*
X017386Y022760D01*
X017375Y023192D02*
X018654Y023192D01*
X019260Y023192D02*
X019260Y023192D01*
X019260Y023386D02*
X019640Y023386D01*
X019690Y023376D01*
X019737Y023357D01*
X019780Y023328D01*
X019816Y023292D01*
X019845Y023249D01*
X019864Y023202D01*
X019874Y023152D01*
X019874Y022811D01*
X019874Y022874D02*
X021146Y022874D01*
X021154Y023192D02*
X019866Y023192D01*
X019260Y022874D02*
X019260Y022874D01*
X019260Y022811D02*
X019260Y022811D01*
X020260Y021760D02*
X020260Y019760D01*
X020311Y019760D01*
X020966Y019370D02*
X023180Y019370D01*
X023160Y019052D02*
X020777Y019052D01*
X020497Y018733D02*
X023160Y018733D01*
X023160Y018415D02*
X020178Y018415D01*
X020325Y018096D02*
X022332Y018096D01*
X022014Y017778D02*
X020337Y017778D01*
X020337Y017459D02*
X021695Y017459D01*
X021377Y017141D02*
X021306Y017141D01*
X019209Y019760D02*
X019223Y019775D01*
X016811Y021600D02*
X016811Y021600D01*
X016811Y022237D02*
X016811Y022237D01*
X016811Y022555D02*
X016811Y022555D01*
X016811Y022874D02*
X016811Y022874D01*
X016811Y023192D02*
X016811Y023192D01*
X016800Y023511D02*
X023180Y023511D01*
X023180Y023829D02*
X016800Y023829D01*
X016800Y024148D02*
X023180Y024148D01*
X023180Y024466D02*
X016800Y024466D01*
X016800Y024785D02*
X023180Y024785D01*
X023180Y025103D02*
X016800Y025103D01*
X016778Y025422D02*
X023180Y025422D01*
X023180Y025740D02*
X016544Y025740D01*
X016225Y026059D02*
X023180Y026059D01*
X024340Y026059D02*
X029182Y026059D01*
X029500Y026377D02*
X024340Y026377D01*
X024340Y026696D02*
X029640Y026696D01*
X029640Y027014D02*
X024340Y027014D01*
X024340Y027333D02*
X027330Y027333D01*
X027337Y027317D02*
X027432Y027222D01*
X027557Y027170D01*
X028483Y027170D01*
X028608Y027222D01*
X028703Y027317D01*
X028755Y027442D01*
X028755Y029078D01*
X028703Y029203D01*
X028608Y029298D01*
X028483Y029350D01*
X027557Y029350D01*
X027432Y029298D01*
X027337Y029203D01*
X027285Y029078D01*
X027285Y027442D01*
X027337Y027317D01*
X027285Y027651D02*
X024340Y027651D01*
X024340Y027970D02*
X027285Y027970D01*
X027285Y028288D02*
X024608Y028288D01*
X024927Y028607D02*
X027285Y028607D01*
X027285Y028925D02*
X025245Y028925D01*
X025564Y029244D02*
X027378Y029244D01*
X028662Y029244D02*
X029765Y029244D01*
X029777Y029562D02*
X025882Y029562D01*
X025635Y030836D02*
X002450Y030836D01*
X002386Y031155D02*
X037534Y031155D01*
X037470Y030836D02*
X032762Y030836D01*
X032749Y030845D02*
X032702Y030864D01*
X032652Y030874D01*
X032311Y030874D01*
X032311Y030260D01*
X032311Y029646D01*
X032652Y029646D01*
X032702Y029656D01*
X032749Y029675D01*
X032792Y029704D01*
X032828Y029740D01*
X032857Y029783D01*
X032876Y029830D01*
X032886Y029880D01*
X032886Y030260D01*
X032886Y030640D01*
X032876Y030690D01*
X032857Y030737D01*
X032828Y030780D01*
X032792Y030816D01*
X032749Y030845D01*
X032886Y030518D02*
X037493Y030518D01*
X037610Y030199D02*
X032886Y030199D01*
X032886Y030260D02*
X032311Y030260D01*
X032886Y030260D01*
X032886Y029881D02*
X037857Y029881D01*
X039070Y029562D02*
X031331Y029562D01*
X031235Y029244D02*
X039070Y029244D01*
X039070Y028925D02*
X031235Y028925D01*
X031152Y028607D02*
X031646Y028607D01*
X031646Y028652D02*
X031646Y028311D01*
X032260Y028311D01*
X032874Y028311D01*
X032874Y028652D01*
X032864Y028702D01*
X032845Y028749D01*
X032816Y028792D01*
X032780Y028828D01*
X032737Y028857D01*
X032690Y028876D01*
X032640Y028886D01*
X032260Y028886D01*
X031880Y028886D01*
X031830Y028876D01*
X031783Y028857D01*
X031740Y028828D01*
X031704Y028792D01*
X031675Y028749D01*
X031656Y028702D01*
X031646Y028652D01*
X031646Y028288D02*
X031155Y028288D01*
X031155Y027970D02*
X031646Y027970D01*
X032260Y028311D02*
X032260Y028886D01*
X032260Y028311D01*
X032260Y028311D01*
X032260Y028607D02*
X032260Y028607D01*
X032874Y028607D02*
X033146Y028607D01*
X033146Y028652D02*
X033146Y028311D01*
X033760Y028311D01*
X034374Y028311D01*
X034374Y028652D01*
X034364Y028702D01*
X034345Y028749D01*
X034316Y028792D01*
X034280Y028828D01*
X034237Y028857D01*
X034190Y028876D01*
X034140Y028886D01*
X033760Y028886D01*
X033380Y028886D01*
X033330Y028876D01*
X033283Y028857D01*
X033240Y028828D01*
X033204Y028792D01*
X033175Y028749D01*
X033156Y028702D01*
X033146Y028652D01*
X033146Y028288D02*
X032874Y028288D01*
X032874Y027970D02*
X033146Y027970D01*
X033090Y027651D02*
X032930Y027651D01*
X032954Y027333D02*
X033066Y027333D01*
X033066Y027014D02*
X032954Y027014D01*
X032897Y026696D02*
X033123Y026696D01*
X033260Y026260D02*
X031260Y026260D01*
X030880Y026377D02*
X034000Y026377D01*
X033683Y026059D02*
X030848Y026059D01*
X030617Y025740D02*
X033640Y025740D01*
X033696Y025422D02*
X030298Y025422D01*
X029980Y025103D02*
X031698Y025103D01*
X032260Y024760D02*
X031730Y024230D01*
X031641Y024193D02*
X031134Y024193D01*
X031641Y024193D02*
X031661Y024195D01*
X031680Y024199D01*
X031698Y024207D01*
X031714Y024217D01*
X031729Y024230D01*
X032524Y024148D02*
X033680Y024148D01*
X033680Y023829D02*
X032586Y023829D01*
X032837Y023511D02*
X033680Y023511D01*
X033680Y023192D02*
X032840Y023192D01*
X032804Y022874D02*
X033680Y022874D01*
X033680Y022555D02*
X029685Y022555D01*
X028835Y022555D02*
X024340Y022555D01*
X024340Y022237D02*
X033680Y022237D01*
X033680Y021918D02*
X024340Y021918D01*
X024340Y021600D02*
X024723Y021600D01*
X025223Y021223D02*
X024760Y020760D01*
X025312Y021260D02*
X031760Y021260D01*
X032380Y021281D02*
X033919Y021281D01*
X033699Y021600D02*
X032323Y021600D01*
X032337Y020963D02*
X034237Y020963D01*
X034850Y020644D02*
X032753Y020644D01*
X033071Y020326D02*
X034702Y020326D01*
X034759Y020007D02*
X033390Y020007D01*
X033708Y019689D02*
X034782Y019689D01*
X034619Y019370D02*
X034027Y019370D01*
X034345Y019052D02*
X034652Y019052D01*
X034664Y018733D02*
X034880Y018733D01*
X034982Y018415D02*
X036594Y018415D01*
X036640Y018733D02*
X036680Y018733D01*
X036276Y018096D02*
X035301Y018096D01*
X035224Y017297D02*
X035239Y017284D01*
X035255Y017274D01*
X035273Y017266D01*
X035292Y017262D01*
X035312Y017260D01*
X036208Y017260D01*
X036647Y016822D02*
X037180Y016822D01*
X037180Y016504D02*
X031125Y016504D01*
X031341Y016185D02*
X037180Y016185D01*
X037180Y015867D02*
X031360Y015867D01*
X031360Y015548D02*
X037180Y015548D01*
X036909Y015230D02*
X031297Y015230D01*
X030906Y014911D02*
X036591Y014911D01*
X037594Y014274D02*
X038180Y014274D01*
X038180Y013956D02*
X037276Y013956D01*
X036790Y013637D02*
X038180Y013637D01*
X038180Y013319D02*
X036901Y013319D01*
X036846Y013000D02*
X038180Y013000D01*
X038180Y012682D02*
X036745Y012682D01*
X036901Y012363D02*
X038180Y012363D01*
X038180Y012045D02*
X036865Y012045D01*
X036701Y011726D02*
X038180Y011726D01*
X038180Y011408D02*
X036893Y011408D01*
X036883Y011089D02*
X038180Y011089D01*
X038180Y010771D02*
X036677Y010771D01*
X035843Y010771D02*
X035677Y010771D01*
X035263Y010134D02*
X038180Y010134D01*
X038180Y010452D02*
X034945Y010452D01*
X034843Y010771D02*
X034626Y010771D01*
X034637Y011089D02*
X034308Y011089D01*
X033989Y011408D02*
X034627Y011408D01*
X034819Y011726D02*
X033750Y011726D01*
X033260Y011260D02*
X035275Y009245D01*
X035311Y009157D02*
X035311Y007260D01*
X035966Y007267D02*
X037947Y007267D01*
X038180Y007586D02*
X035966Y007586D01*
X035931Y007904D02*
X038180Y007904D01*
X038180Y008223D02*
X035931Y008223D01*
X035931Y008541D02*
X038180Y008541D01*
X038180Y008860D02*
X035931Y008860D01*
X035931Y009178D02*
X038180Y009178D01*
X038180Y009497D02*
X035852Y009497D01*
X035582Y009815D02*
X038180Y009815D01*
X035311Y009157D02*
X035309Y009177D01*
X035305Y009196D01*
X035297Y009214D01*
X035287Y009230D01*
X035274Y009245D01*
X034691Y008860D02*
X032882Y008860D01*
X032886Y009178D02*
X034465Y009178D01*
X034147Y009497D02*
X032886Y009497D01*
X032793Y009815D02*
X033828Y009815D01*
X033510Y010134D02*
X027701Y010134D01*
X027383Y010452D02*
X033191Y010452D01*
X032794Y010771D02*
X027064Y010771D01*
X026746Y011089D02*
X032660Y011089D01*
X032650Y011408D02*
X026427Y011408D01*
X026109Y011726D02*
X032770Y011726D01*
X034740Y012045D02*
X025790Y012045D01*
X025445Y012682D02*
X034888Y012682D01*
X034708Y012363D02*
X025127Y012363D01*
X025726Y013000D02*
X034674Y013000D01*
X034619Y013319D02*
X025800Y013319D01*
X025800Y013637D02*
X034730Y013637D01*
X034692Y013956D02*
X025800Y013956D01*
X025800Y014274D02*
X034619Y014274D01*
X034704Y014593D02*
X025800Y014593D01*
X025906Y014911D02*
X028614Y014911D01*
X028906Y014911D02*
X029614Y014911D01*
X029906Y014911D02*
X030614Y014911D01*
X030395Y016504D02*
X030267Y016504D01*
X030586Y016822D02*
X034821Y016822D01*
X034503Y017141D02*
X030904Y017141D01*
X031209Y017459D02*
X034184Y017459D01*
X033866Y017778D02*
X031300Y017778D01*
X031300Y018096D02*
X033547Y018096D01*
X033229Y018415D02*
X031360Y018415D01*
X031360Y018733D02*
X032910Y018733D01*
X032592Y019052D02*
X031360Y019052D01*
X031259Y019370D02*
X032273Y019370D01*
X032260Y020260D02*
X027312Y020260D01*
X027223Y020223D02*
X025760Y018760D01*
X026205Y018096D02*
X026431Y018096D01*
X026760Y018096D02*
X026760Y018096D01*
X026760Y017980D02*
X026760Y018760D01*
X026760Y018760D01*
X026760Y017980D01*
X027089Y018096D02*
X027431Y018096D01*
X027760Y018096D02*
X027760Y018096D01*
X027760Y018415D02*
X027760Y018415D01*
X027760Y018733D02*
X027760Y018733D01*
X027760Y019052D02*
X027760Y019052D01*
X027760Y019370D02*
X027760Y019370D01*
X028145Y019370D02*
X028261Y019370D01*
X027375Y019370D02*
X027247Y019370D01*
X027224Y020223D02*
X027239Y020236D01*
X027255Y020246D01*
X027273Y020254D01*
X027292Y020258D01*
X027312Y020260D01*
X026760Y018733D02*
X026760Y018733D01*
X026760Y018415D02*
X026760Y018415D01*
X025315Y018096D02*
X025205Y018096D01*
X028089Y018096D02*
X028315Y018096D01*
X029205Y018096D02*
X029220Y018096D01*
X029259Y019370D02*
X029261Y019370D01*
X030259Y019370D02*
X030261Y019370D01*
X032260Y020260D02*
X035223Y017297D01*
X035640Y018733D02*
X035880Y018733D01*
X036961Y017141D02*
X037180Y017141D01*
X037913Y014593D02*
X038180Y014593D01*
X032311Y009815D02*
X032311Y009815D01*
X032311Y009497D02*
X032311Y009497D01*
X031829Y009815D02*
X031804Y009815D01*
X031253Y009216D02*
X031209Y009260D01*
X031253Y009216D02*
X031253Y008260D01*
X030554Y008860D02*
X029362Y008860D01*
X029771Y008541D02*
X029938Y008541D01*
X030386Y008541D02*
X030386Y008541D01*
X030386Y008223D02*
X030386Y008223D01*
X030554Y009178D02*
X028657Y009178D01*
X028338Y009497D02*
X030554Y009497D01*
X030614Y009815D02*
X028020Y009815D01*
X028189Y006630D02*
X010454Y006630D01*
X010454Y006312D02*
X029445Y006312D01*
X029763Y005993D02*
X010454Y005993D01*
X009760Y006311D02*
X009297Y006775D01*
X009260Y006863D02*
X009260Y010260D01*
X003760Y010260D01*
X004287Y009640D02*
X008640Y009640D01*
X008640Y006715D01*
X008753Y006441D01*
X008858Y006336D01*
X008945Y006249D01*
X008945Y006249D01*
X009066Y006129D01*
X009066Y005929D01*
X009086Y005880D01*
X005017Y005880D01*
X003380Y007517D01*
X003380Y007846D01*
X003394Y007832D01*
X003466Y007780D01*
X003545Y007740D01*
X003629Y007713D01*
X003716Y007699D01*
X003760Y007699D01*
X003760Y008260D01*
X004321Y008260D01*
X003760Y008260D01*
X003760Y008260D01*
X003760Y007699D01*
X003804Y007699D01*
X003891Y007713D01*
X003975Y007740D01*
X004054Y007780D01*
X004126Y007832D01*
X004188Y007894D01*
X004240Y007966D01*
X004280Y008045D01*
X004307Y008129D01*
X004321Y008216D01*
X004321Y008260D01*
X004321Y008304D01*
X004307Y008391D01*
X004280Y008475D01*
X004240Y008554D01*
X004188Y008626D01*
X004126Y008688D01*
X004100Y008707D01*
X004123Y008716D01*
X004304Y008897D01*
X004401Y009132D01*
X004401Y009388D01*
X004304Y009623D01*
X004287Y009640D01*
X004356Y009497D02*
X008640Y009497D01*
X008640Y009178D02*
X004401Y009178D01*
X004266Y008860D02*
X008640Y008860D01*
X008640Y008541D02*
X004247Y008541D01*
X004321Y008223D02*
X008640Y008223D01*
X008640Y007904D02*
X004195Y007904D01*
X003760Y007904D02*
X003760Y007904D01*
X003760Y008223D02*
X003760Y008223D01*
X003760Y008260D02*
X003760Y008260D01*
X003380Y007586D02*
X008640Y007586D01*
X008640Y007267D02*
X003630Y007267D01*
X003948Y006949D02*
X008640Y006949D01*
X008675Y006630D02*
X004267Y006630D01*
X004585Y006312D02*
X008883Y006312D01*
X008753Y006441D02*
X008753Y006441D01*
X009066Y005993D02*
X004904Y005993D01*
X004106Y005038D02*
X000820Y005038D01*
X000820Y005356D02*
X003787Y005356D01*
X003469Y005675D02*
X000820Y005675D01*
X000820Y005993D02*
X003150Y005993D01*
X002832Y006312D02*
X000820Y006312D01*
X000820Y006630D02*
X002513Y006630D01*
X002229Y006949D02*
X000820Y006949D01*
X000820Y007267D02*
X002140Y007267D01*
X002140Y007586D02*
X000820Y007586D01*
X000820Y007904D02*
X002140Y007904D01*
X002760Y007312D02*
X002762Y007292D01*
X002766Y007273D01*
X002774Y007255D01*
X002784Y007239D01*
X002797Y007224D01*
X003735Y003445D02*
X000820Y003445D01*
X000820Y003127D02*
X003718Y003127D01*
X003935Y002808D02*
X000820Y002808D01*
X002395Y000897D02*
X016246Y000897D01*
X016760Y001260D02*
X032259Y001260D01*
X032348Y001297D02*
X034760Y003709D01*
X034066Y004082D02*
X026980Y004082D01*
X026980Y004023D02*
X026980Y004277D01*
X026883Y004513D01*
X026703Y004693D01*
X026467Y004790D01*
X025613Y004790D01*
X025377Y004693D01*
X025197Y004513D01*
X025100Y004277D01*
X025100Y004023D01*
X025197Y003787D01*
X025377Y003607D01*
X025613Y003510D01*
X026467Y003510D01*
X026703Y003607D01*
X026883Y003787D01*
X026980Y004023D01*
X026859Y003764D02*
X033938Y003764D01*
X034164Y004401D02*
X026929Y004401D01*
X026639Y004719D02*
X034146Y004719D01*
X034146Y004811D02*
X034760Y004811D01*
X035374Y004811D01*
X035374Y005152D01*
X035364Y005202D01*
X035345Y005249D01*
X035316Y005292D01*
X035280Y005328D01*
X035237Y005357D01*
X035190Y005376D01*
X035140Y005386D01*
X034760Y005386D01*
X034380Y005386D01*
X034330Y005376D01*
X034283Y005357D01*
X034240Y005328D01*
X034204Y005292D01*
X034175Y005249D01*
X034156Y005202D01*
X034146Y005152D01*
X034146Y004811D01*
X034146Y005038D02*
X015969Y005038D01*
X015651Y005356D02*
X034282Y005356D01*
X034760Y005356D02*
X034760Y005356D01*
X034760Y005386D02*
X034760Y004811D01*
X034760Y004811D01*
X034760Y005386D01*
X034760Y005038D02*
X034760Y005038D01*
X035238Y005356D02*
X039070Y005356D01*
X039070Y005038D02*
X035374Y005038D01*
X035374Y004719D02*
X039070Y004719D01*
X039070Y004401D02*
X035356Y004401D01*
X035454Y004082D02*
X039070Y004082D01*
X039070Y003764D02*
X035454Y003764D01*
X035454Y003445D02*
X039070Y003445D01*
X039070Y003127D02*
X035328Y003127D01*
X034736Y002808D02*
X039070Y002808D01*
X039070Y002490D02*
X034417Y002490D01*
X034099Y002171D02*
X037888Y002171D01*
X037628Y001853D02*
X033780Y001853D01*
X033462Y001534D02*
X037502Y001534D01*
X037470Y001216D02*
X033143Y001216D01*
X032825Y000897D02*
X037525Y000897D01*
X032982Y002808D02*
X026807Y002808D01*
X026980Y002490D02*
X032664Y002490D01*
X032345Y002171D02*
X026950Y002171D01*
X025273Y002808D02*
X024247Y002808D01*
X024420Y002490D02*
X025100Y002490D01*
X025130Y002171D02*
X024390Y002171D01*
X023907Y003510D02*
X023053Y003510D01*
X022817Y003607D01*
X022637Y003787D01*
X022540Y004023D01*
X022540Y004277D01*
X022637Y004513D01*
X022817Y004693D01*
X023053Y004790D01*
X023907Y004790D01*
X024143Y004693D01*
X024323Y004513D01*
X024420Y004277D01*
X024420Y004023D01*
X024323Y003787D01*
X024143Y003607D01*
X023907Y003510D01*
X024299Y003764D02*
X025221Y003764D01*
X025100Y004082D02*
X024420Y004082D01*
X024369Y004401D02*
X025151Y004401D01*
X025441Y004719D02*
X024079Y004719D01*
X022881Y004719D02*
X019139Y004719D01*
X019203Y004693D02*
X018967Y004790D01*
X018113Y004790D01*
X017877Y004693D01*
X017697Y004513D01*
X017600Y004277D01*
X017600Y004023D01*
X017697Y003787D01*
X017877Y003607D01*
X018113Y003510D01*
X018967Y003510D01*
X019203Y003607D01*
X019383Y003787D01*
X019480Y004023D01*
X019480Y004277D01*
X019383Y004513D01*
X019203Y004693D01*
X019429Y004401D02*
X022591Y004401D01*
X022540Y004082D02*
X019480Y004082D01*
X019359Y003764D02*
X022661Y003764D01*
X022713Y002808D02*
X019307Y002808D01*
X019480Y002490D02*
X022540Y002490D01*
X022570Y002171D02*
X019450Y002171D01*
X017773Y002808D02*
X016747Y002808D01*
X016920Y002490D02*
X017600Y002490D01*
X017630Y002171D02*
X016890Y002171D01*
X016017Y002004D02*
X016004Y002019D01*
X015994Y002035D01*
X015986Y002053D01*
X015982Y002072D01*
X015980Y002092D01*
X015980Y002370D01*
X016017Y002003D02*
X016760Y001260D01*
X016799Y003764D02*
X017721Y003764D01*
X017600Y004082D02*
X016920Y004082D01*
X016869Y004401D02*
X017651Y004401D01*
X017941Y004719D02*
X016579Y004719D01*
X015980Y004150D02*
X014958Y005172D01*
X015332Y005675D02*
X039070Y005675D01*
X039070Y005993D02*
X038313Y005993D01*
X038632Y006312D02*
X039070Y006312D01*
X039070Y006630D02*
X038950Y006630D01*
X037628Y006949D02*
X035966Y006949D01*
X035831Y006630D02*
X036709Y006630D01*
X036680Y006312D02*
X034337Y006312D01*
X034337Y005993D02*
X036683Y005993D01*
X034791Y006630D02*
X034729Y006630D01*
X034691Y008223D02*
X034118Y008223D01*
X033799Y008541D02*
X034691Y008541D01*
X028223Y015230D02*
X028206Y015230D01*
X027760Y015230D02*
X027760Y015230D01*
X027760Y015548D02*
X027760Y015548D01*
X027314Y015230D02*
X027206Y015230D01*
X026760Y015230D02*
X026760Y015230D01*
X026760Y015548D02*
X026760Y015548D01*
X026314Y015230D02*
X026297Y015230D01*
X019260Y009497D02*
X017072Y009497D01*
X017072Y009815D02*
X018749Y009815D01*
X018623Y010134D02*
X017870Y010134D01*
X017906Y010452D02*
X018304Y010452D01*
X019578Y009178D02*
X016937Y009178D01*
X019897Y008860D02*
X012438Y008860D01*
X012438Y008541D02*
X020215Y008541D01*
X020534Y008223D02*
X012399Y008223D01*
X012261Y007904D02*
X020852Y007904D01*
X021171Y007586D02*
X009880Y007586D01*
X009880Y007904D02*
X011259Y007904D01*
X011154Y008223D02*
X009880Y008223D01*
X009880Y008541D02*
X011221Y008541D01*
X011216Y008860D02*
X011358Y008860D01*
X010304Y008860D02*
X009880Y008860D01*
X009880Y009178D02*
X010154Y009178D01*
X010202Y009497D02*
X009880Y009497D01*
X009880Y009815D02*
X010517Y009815D01*
X010649Y010134D02*
X009897Y010134D01*
X009880Y007267D02*
X021489Y007267D01*
X021808Y006949D02*
X010225Y006949D01*
X009297Y006775D02*
X009284Y006790D01*
X009274Y006806D01*
X009266Y006824D01*
X009262Y006843D01*
X009260Y006863D01*
X009157Y003764D02*
X010363Y003764D01*
X010147Y003445D02*
X009373Y003445D01*
X009394Y003127D02*
X010126Y003127D01*
X010311Y002808D02*
X009209Y002808D01*
X008311Y002808D02*
X008209Y002808D01*
X008157Y003764D02*
X008363Y003764D01*
X011157Y003764D02*
X011363Y003764D01*
X011311Y002808D02*
X011209Y002808D01*
X014260Y007760D02*
X014139Y007881D01*
X015902Y011568D02*
X015902Y015256D01*
X016130Y015256D01*
X016756Y015256D01*
X016756Y014000D01*
X016808Y013875D01*
X016820Y013862D01*
X016808Y013850D01*
X016756Y013725D01*
X016756Y011568D01*
X015902Y011568D01*
X015902Y011726D02*
X016756Y011726D01*
X016756Y012045D02*
X015902Y012045D01*
X015902Y012363D02*
X016756Y012363D01*
X016756Y012682D02*
X015902Y012682D01*
X015902Y013000D02*
X016756Y013000D01*
X016756Y013319D02*
X015902Y013319D01*
X015902Y013637D02*
X016756Y013637D01*
X016774Y013956D02*
X015902Y013956D01*
X015902Y014274D02*
X016756Y014274D01*
X016756Y014593D02*
X015902Y014593D01*
X015902Y014911D02*
X016756Y014911D01*
X016756Y015230D02*
X015902Y015230D01*
X006335Y016822D02*
X006185Y016822D01*
X003727Y023032D02*
X003419Y022950D01*
X003101Y022950D01*
X002793Y023032D01*
X002517Y023192D01*
X003727Y023032D02*
X004003Y023192D01*
X004282Y023511D02*
X006680Y023511D01*
X006680Y023829D02*
X004424Y023829D01*
X004470Y024148D02*
X006552Y024148D01*
X006234Y024466D02*
X004431Y024466D01*
X004297Y024785D02*
X005915Y024785D01*
X005597Y025103D02*
X004028Y025103D01*
X005367Y029562D02*
X008653Y029562D01*
X008623Y029881D02*
X005397Y029881D01*
X005222Y030199D02*
X008798Y030199D01*
X022745Y022775D02*
X022760Y022760D01*
X024340Y022874D02*
X028566Y022874D01*
X028566Y023192D02*
X024340Y023192D01*
X024340Y023511D02*
X028566Y023511D01*
X028607Y023829D02*
X024340Y023829D01*
X024340Y024148D02*
X028566Y024148D01*
X028566Y024466D02*
X024340Y024466D01*
X024340Y024785D02*
X028603Y024785D01*
X028640Y025103D02*
X024340Y025103D01*
X024340Y025422D02*
X028656Y025422D01*
X028863Y025740D02*
X024340Y025740D01*
X028709Y027333D02*
X029673Y027333D01*
X029765Y027651D02*
X028755Y027651D01*
X028755Y027970D02*
X029845Y027970D01*
X029845Y028288D02*
X028755Y028288D01*
X028755Y028607D02*
X029848Y028607D01*
X029765Y028925D02*
X028755Y028925D01*
X030500Y027370D02*
X030260Y027130D01*
X030260Y026260D01*
X029260Y025260D01*
X029260Y024311D01*
X029917Y024785D02*
X030811Y024785D01*
X030386Y024466D02*
X030386Y024466D01*
X032837Y024466D02*
X033718Y024466D01*
X033964Y024785D02*
X032880Y024785D01*
X032822Y025103D02*
X034283Y025103D01*
X034260Y025760D02*
X035173Y026673D01*
X035173Y026847D01*
X034760Y027260D01*
X033811Y027260D01*
X033760Y027209D01*
X034374Y027970D02*
X039070Y027970D01*
X039070Y028288D02*
X034374Y028288D01*
X034374Y028607D02*
X039070Y028607D01*
X039070Y027651D02*
X035246Y027651D01*
X035209Y026760D02*
X035207Y026741D01*
X035203Y026722D01*
X035195Y026704D01*
X035185Y026687D01*
X035173Y026672D01*
X036804Y026059D02*
X039070Y026059D01*
X039070Y026377D02*
X036966Y026377D01*
X036966Y026696D02*
X039070Y026696D01*
X039070Y027014D02*
X036966Y027014D01*
X036889Y027333D02*
X039070Y027333D01*
X039070Y025740D02*
X038090Y025740D01*
X038419Y025422D02*
X039070Y025422D01*
X039070Y025103D02*
X038737Y025103D01*
X039056Y024785D02*
X039070Y024785D01*
X033760Y028311D02*
X033760Y028886D01*
X033760Y028311D01*
X033760Y028311D01*
X033760Y028607D02*
X033760Y028607D01*
X032311Y029881D02*
X032311Y029881D01*
X032311Y030199D02*
X032311Y030199D01*
X032311Y030260D02*
X032311Y030260D01*
X032311Y030518D02*
X032311Y030518D01*
X032311Y030836D02*
X032311Y030836D01*
X031860Y030836D02*
X031783Y030836D01*
X032347Y001297D02*
X032332Y001284D01*
X032316Y001274D01*
X032298Y001266D01*
X032279Y001262D01*
X032259Y001260D01*
D25*
X034760Y004811D02*
X034348Y005223D01*
X034347Y005223D02*
X034332Y005236D01*
X034316Y005246D01*
X034298Y005254D01*
X034279Y005258D01*
X034259Y005260D01*
X033760Y006260D02*
X030260Y006260D01*
X029797Y006723D01*
X029760Y006812D02*
X029760Y007260D01*
X029297Y007723D01*
X029208Y007760D02*
X025260Y007760D01*
X021714Y011306D01*
X021626Y011343D02*
X017331Y011343D01*
X017331Y011658D02*
X025362Y011658D01*
X025450Y011621D02*
X028760Y008311D01*
X029260Y008260D02*
X030275Y007245D01*
X029760Y006812D02*
X029762Y006792D01*
X029766Y006773D01*
X029774Y006755D01*
X029784Y006739D01*
X029797Y006724D01*
X029296Y007723D02*
X029281Y007736D01*
X029265Y007746D01*
X029247Y007754D01*
X029228Y007758D01*
X029208Y007760D01*
X028745Y007223D02*
X028760Y007209D01*
X028657Y007260D02*
X022260Y007260D01*
X019260Y010260D01*
X018529Y010991D01*
X018441Y011028D02*
X017331Y011028D01*
X015260Y011028D01*
X015326Y011093D01*
X015260Y011028D02*
X014821Y011028D01*
X014733Y010991D02*
X014381Y010639D01*
X013510Y011510D01*
X012749Y010749D01*
X012661Y010713D02*
X011189Y010713D01*
X009765Y010713D01*
X009676Y010676D02*
X009260Y010260D01*
X009677Y010676D02*
X009692Y010689D01*
X009708Y010699D01*
X009726Y010707D01*
X009745Y010711D01*
X009765Y010713D01*
X010456Y011064D02*
X009760Y011760D01*
X010456Y011065D02*
X010471Y011052D01*
X010487Y011042D01*
X010505Y011034D01*
X010524Y011030D01*
X010544Y011028D01*
X011189Y011028D01*
X011189Y011343D02*
X012126Y011343D01*
X012214Y011306D02*
X012260Y011260D01*
X012214Y011306D02*
X012199Y011319D01*
X012183Y011329D01*
X012165Y011337D01*
X012146Y011341D01*
X012126Y011343D01*
X012661Y010713D02*
X012681Y010715D01*
X012700Y010719D01*
X012718Y010727D01*
X012734Y010737D01*
X012749Y010750D01*
X013510Y011510D02*
X012879Y012141D01*
X012843Y012229D02*
X012843Y015831D01*
X012843Y017126D01*
X012806Y017214D02*
X012260Y017760D01*
X012260Y018209D01*
X013158Y018811D02*
X013156Y018831D01*
X013152Y018850D01*
X013144Y018868D01*
X013134Y018884D01*
X013121Y018899D01*
X012760Y019260D01*
X012363Y019260D01*
X012275Y019297D02*
X012260Y019311D01*
X012275Y019297D02*
X012290Y019284D01*
X012306Y019274D01*
X012324Y019266D01*
X012343Y019262D01*
X012363Y019260D01*
X013158Y018811D02*
X013158Y015831D01*
X013473Y015831D02*
X013473Y016921D01*
X013509Y017009D02*
X013760Y017260D01*
X013760Y018760D01*
X014260Y019260D01*
X014260Y021260D01*
X012760Y021260D01*
X014260Y021260D02*
X014260Y022759D01*
X014262Y022779D01*
X014266Y022798D01*
X014274Y022816D01*
X014284Y022832D01*
X014297Y022847D01*
X014797Y021848D02*
X015709Y022760D01*
X016260Y023311D01*
X016260Y025260D01*
X015760Y025760D01*
X013760Y025760D01*
X012760Y024760D01*
X012760Y023260D01*
X014760Y021759D02*
X014760Y019260D01*
X014297Y018797D01*
X014260Y018708D02*
X014260Y017260D01*
X013824Y016824D01*
X013788Y016736D02*
X013788Y015831D01*
X014103Y015831D02*
X014103Y015154D01*
X014066Y015066D02*
X013760Y014760D01*
X013260Y014760D01*
X014066Y015066D02*
X014079Y015081D01*
X014089Y015097D01*
X014097Y015115D01*
X014101Y015134D01*
X014103Y015154D01*
X014103Y015831D02*
X014103Y016551D01*
X014139Y016639D02*
X014760Y017260D01*
X014760Y018759D01*
X014797Y018848D02*
X015709Y019760D01*
X016811Y019760D02*
X017760Y019760D01*
X018723Y018797D01*
X018812Y018760D02*
X019760Y018760D01*
X020275Y019275D01*
X020311Y019363D02*
X020311Y019760D01*
X020311Y019363D02*
X020309Y019343D01*
X020305Y019324D01*
X020297Y019306D01*
X020287Y019290D01*
X020274Y019275D01*
X018812Y018760D02*
X018792Y018762D01*
X018773Y018766D01*
X018755Y018774D01*
X018739Y018784D01*
X018724Y018797D01*
X019760Y017760D02*
X019297Y017297D01*
X019208Y017260D02*
X016760Y017260D01*
X016066Y016566D01*
X016066Y016565D02*
X016053Y016550D01*
X016043Y016534D01*
X016035Y016516D01*
X016031Y016497D01*
X016029Y016477D01*
X015992Y016389D02*
X015992Y015831D01*
X015677Y015831D02*
X015677Y014894D01*
X015714Y014806D02*
X016621Y013899D01*
X016709Y013862D02*
X017331Y013862D01*
X017331Y014177D02*
X017791Y014177D01*
X017879Y014141D02*
X018260Y013760D01*
X018260Y013312D01*
X018297Y013223D02*
X019260Y012260D01*
X020260Y012260D02*
X018064Y014456D01*
X017976Y014492D02*
X017331Y014492D01*
X017341Y014797D02*
X018672Y014797D01*
X018760Y014760D02*
X020760Y012760D01*
X022260Y012760D01*
X023760Y014260D01*
X023760Y015760D01*
X024760Y016208D02*
X024758Y016228D01*
X024754Y016247D01*
X024746Y016265D01*
X024736Y016281D01*
X024723Y016296D01*
X024723Y016297D02*
X024260Y016760D01*
X023760Y016760D01*
X020760Y013760D01*
X020260Y012260D02*
X024260Y012260D01*
X025223Y013223D01*
X025260Y013312D02*
X025260Y016260D01*
X025723Y016723D01*
X025812Y016760D02*
X029760Y016760D01*
X030723Y017723D01*
X030760Y017812D02*
X030760Y018760D01*
X029760Y018760D02*
X029760Y017812D01*
X029723Y017723D02*
X029260Y017260D01*
X023312Y017260D01*
X023223Y017223D02*
X021159Y015159D01*
X021070Y015122D02*
X017331Y015122D01*
X017331Y014807D02*
X017341Y014797D01*
X017976Y014492D02*
X017996Y014490D01*
X018015Y014486D01*
X018033Y014478D01*
X018049Y014468D01*
X018064Y014455D01*
X018672Y014797D02*
X018692Y014795D01*
X018711Y014791D01*
X018729Y014783D01*
X018745Y014773D01*
X018760Y014760D01*
X017879Y014140D02*
X017864Y014153D01*
X017848Y014163D01*
X017830Y014171D01*
X017811Y014175D01*
X017791Y014177D01*
X018260Y013312D02*
X018262Y013292D01*
X018266Y013273D01*
X018274Y013255D01*
X018284Y013239D01*
X018297Y013224D01*
X016709Y013862D02*
X016689Y013864D01*
X016670Y013868D01*
X016652Y013876D01*
X016636Y013886D01*
X016621Y013899D01*
X015714Y014806D02*
X015701Y014821D01*
X015691Y014837D01*
X015683Y014855D01*
X015679Y014874D01*
X015677Y014894D01*
X015677Y015831D02*
X015677Y017126D01*
X015714Y017214D02*
X015760Y017260D01*
X015847Y017296D02*
X016811Y018260D01*
X015709Y018260D02*
X015399Y017450D01*
X015362Y017362D02*
X015362Y015831D01*
X015362Y011182D01*
X015360Y011162D01*
X015356Y011143D01*
X015348Y011125D01*
X015338Y011109D01*
X015325Y011094D01*
X014821Y011028D02*
X014801Y011026D01*
X014782Y011022D01*
X014764Y011014D01*
X014748Y011004D01*
X014733Y010991D01*
X014417Y010551D02*
X014417Y009689D01*
X014103Y009689D02*
X014103Y008969D01*
X014139Y008881D02*
X015260Y007760D01*
X016708Y007760D01*
X016797Y007797D02*
X018760Y009760D01*
X021760Y006760D01*
X026208Y006760D01*
X026297Y006723D02*
X027760Y005260D01*
X026296Y006723D02*
X026281Y006736D01*
X026265Y006746D01*
X026247Y006754D01*
X026228Y006758D01*
X026208Y006760D01*
X028657Y007260D02*
X028677Y007258D01*
X028696Y007254D01*
X028714Y007246D01*
X028730Y007236D01*
X028745Y007223D01*
X025450Y011621D02*
X025435Y011634D01*
X025419Y011644D01*
X025401Y011652D01*
X025382Y011656D01*
X025362Y011658D01*
X025223Y013224D02*
X025236Y013239D01*
X025246Y013255D01*
X025254Y013273D01*
X025258Y013292D01*
X025260Y013312D01*
X024760Y015760D02*
X024760Y016208D01*
X025724Y016723D02*
X025739Y016736D01*
X025755Y016746D01*
X025773Y016754D01*
X025792Y016758D01*
X025812Y016760D01*
X024760Y018760D02*
X023797Y017797D01*
X023708Y017760D02*
X022760Y017760D01*
X020867Y015867D01*
X020779Y015831D02*
X016622Y015831D01*
X016307Y015831D02*
X016307Y016255D01*
X016344Y016344D02*
X016760Y016760D01*
X020760Y016760D01*
X020867Y015868D02*
X020852Y015855D01*
X020836Y015845D01*
X020818Y015837D01*
X020799Y015833D01*
X020779Y015831D01*
X021070Y015122D02*
X021090Y015124D01*
X021109Y015128D01*
X021127Y015136D01*
X021143Y015146D01*
X021158Y015159D01*
X023224Y017223D02*
X023239Y017236D01*
X023255Y017246D01*
X023273Y017254D01*
X023292Y017258D01*
X023312Y017260D01*
X023708Y017760D02*
X023728Y017762D01*
X023747Y017766D01*
X023765Y017774D01*
X023781Y017784D01*
X023796Y017797D01*
X025224Y021223D02*
X025239Y021236D01*
X025255Y021246D01*
X025273Y021254D01*
X025292Y021258D01*
X025312Y021260D01*
X022760Y022760D02*
X021863Y022760D01*
X021775Y022797D02*
X021760Y022811D01*
X021775Y022797D02*
X021790Y022784D01*
X021806Y022774D01*
X021824Y022766D01*
X021843Y022762D01*
X021863Y022760D01*
X019296Y017297D02*
X019281Y017284D01*
X019265Y017274D01*
X019247Y017266D01*
X019228Y017262D01*
X019208Y017260D01*
X016344Y016343D02*
X016331Y016328D01*
X016321Y016312D01*
X016313Y016294D01*
X016309Y016275D01*
X016307Y016255D01*
X015992Y016389D02*
X015994Y016409D01*
X015998Y016428D01*
X016006Y016446D01*
X016016Y016462D01*
X016029Y016477D01*
X015677Y017126D02*
X015679Y017146D01*
X015683Y017165D01*
X015691Y017183D01*
X015701Y017199D01*
X015714Y017214D01*
X015760Y017260D02*
X015779Y017262D01*
X015798Y017266D01*
X015816Y017274D01*
X015833Y017284D01*
X015848Y017296D01*
X015399Y017450D02*
X015386Y017435D01*
X015376Y017419D01*
X015368Y017401D01*
X015364Y017382D01*
X015362Y017362D01*
X014140Y016639D02*
X014127Y016624D01*
X014117Y016608D01*
X014109Y016590D01*
X014105Y016571D01*
X014103Y016551D01*
X013788Y016736D02*
X013790Y016756D01*
X013794Y016775D01*
X013802Y016793D01*
X013812Y016809D01*
X013825Y016824D01*
X013510Y017009D02*
X013497Y016994D01*
X013487Y016978D01*
X013479Y016960D01*
X013475Y016941D01*
X013473Y016921D01*
X012843Y017126D02*
X012841Y017146D01*
X012837Y017165D01*
X012829Y017183D01*
X012819Y017199D01*
X012806Y017214D01*
X012491Y016529D02*
X011760Y017260D01*
X011260Y017260D01*
X011760Y016760D02*
X010760Y016760D01*
X010760Y018208D01*
X010758Y018228D01*
X010754Y018247D01*
X010746Y018265D01*
X010736Y018281D01*
X010723Y018296D01*
X010223Y017296D02*
X010236Y017281D01*
X010246Y017265D01*
X010254Y017247D01*
X010258Y017228D01*
X010260Y017208D01*
X010653Y015868D02*
X010668Y015855D01*
X010684Y015845D01*
X010702Y015837D01*
X010721Y015833D01*
X010741Y015831D01*
X011898Y015831D01*
X012213Y015831D02*
X012213Y016255D01*
X012176Y016344D02*
X011760Y016760D01*
X012491Y016529D02*
X012504Y016514D01*
X012514Y016498D01*
X012522Y016480D01*
X012526Y016461D01*
X012528Y016441D01*
X012528Y015831D01*
X012213Y016255D02*
X012211Y016275D01*
X012207Y016294D01*
X012199Y016312D01*
X012189Y016328D01*
X012176Y016343D01*
X010260Y014811D02*
X009311Y015760D01*
X010260Y014811D02*
X010260Y013760D01*
X010473Y013547D01*
X011189Y013547D01*
X011189Y013232D02*
X010288Y013232D01*
X009260Y014260D01*
X009311Y012917D02*
X011189Y012917D01*
X012843Y012229D02*
X012845Y012209D01*
X012849Y012190D01*
X012857Y012172D01*
X012867Y012156D01*
X012880Y012141D01*
X014380Y010639D02*
X014393Y010624D01*
X014403Y010608D01*
X014411Y010590D01*
X014415Y010571D01*
X014417Y010551D01*
X014103Y009689D02*
X014103Y007969D01*
X014105Y007949D01*
X014109Y007930D01*
X014117Y007912D01*
X014127Y007896D01*
X014140Y007881D01*
X014140Y008881D02*
X014127Y008896D01*
X014117Y008912D01*
X014109Y008930D01*
X014105Y008949D01*
X014103Y008969D01*
X011898Y008450D02*
X011898Y009689D01*
X011189Y009741D02*
X011189Y010398D01*
X011189Y009741D02*
X011187Y009721D01*
X011183Y009702D01*
X011175Y009684D01*
X011165Y009668D01*
X011152Y009653D01*
X011153Y009653D02*
X010760Y009260D01*
X011898Y008450D02*
X011896Y008430D01*
X011892Y008411D01*
X011884Y008393D01*
X011874Y008377D01*
X011861Y008362D01*
X016708Y007760D02*
X016728Y007762D01*
X016747Y007766D01*
X016765Y007774D01*
X016781Y007784D01*
X016796Y007797D01*
X018760Y009760D02*
X017844Y010676D01*
X017755Y010713D02*
X017331Y010713D01*
X017755Y010713D02*
X017775Y010711D01*
X017794Y010707D01*
X017812Y010699D01*
X017828Y010689D01*
X017843Y010676D01*
X018441Y011028D02*
X018461Y011026D01*
X018480Y011022D01*
X018498Y011014D01*
X018514Y011004D01*
X018529Y010991D01*
X021626Y011343D02*
X021646Y011341D01*
X021665Y011337D01*
X021683Y011329D01*
X021699Y011319D01*
X021714Y011306D01*
X014417Y014469D02*
X014417Y015831D01*
X014417Y014469D02*
X014415Y014449D01*
X014411Y014430D01*
X014403Y014412D01*
X014393Y014396D01*
X014380Y014381D01*
X014381Y014381D02*
X014260Y014260D01*
X014260Y018708D02*
X014262Y018728D01*
X014266Y018747D01*
X014274Y018765D01*
X014284Y018781D01*
X014297Y018796D01*
X014760Y018759D02*
X014762Y018779D01*
X014766Y018798D01*
X014774Y018816D01*
X014784Y018832D01*
X014797Y018847D01*
X014760Y021759D02*
X014762Y021779D01*
X014766Y021798D01*
X014774Y021816D01*
X014784Y021832D01*
X014797Y021847D01*
X011260Y025208D02*
X011262Y025228D01*
X011266Y025247D01*
X011274Y025265D01*
X011284Y025281D01*
X011297Y025296D01*
X007260Y024208D02*
X007258Y024228D01*
X007254Y024247D01*
X007246Y024265D01*
X007236Y024281D01*
X007223Y024296D01*
X029723Y017724D02*
X029736Y017739D01*
X029746Y017755D01*
X029754Y017773D01*
X029758Y017792D01*
X029760Y017812D01*
X030723Y017724D02*
X030736Y017739D01*
X030746Y017755D01*
X030754Y017773D01*
X030758Y017792D01*
X030760Y017812D01*
X034260Y008760D02*
X034760Y008260D01*
D26*
X033760Y006260D03*
X037260Y006260D03*
X033260Y011260D03*
X024760Y020760D03*
X021760Y020260D03*
X019260Y020760D03*
X019760Y017760D03*
X020760Y016760D03*
X017760Y017760D03*
X014260Y014260D03*
X013260Y014760D03*
X009760Y011760D03*
X012260Y011260D03*
X014260Y007760D03*
X019260Y010260D03*
X019260Y012260D03*
X020760Y013760D03*
X031760Y021260D03*
X032260Y023260D03*
X032260Y024760D03*
X031260Y026260D03*
X034260Y025760D03*
X036760Y025260D03*
X019260Y024260D03*
D27*
X022760Y022760D03*
D28*
X006260Y007760D03*
X002260Y004760D03*
X001760Y027760D03*
X031260Y003760D03*
X036260Y002260D03*
D29*
X029760Y012760D03*
X026260Y023260D03*
X018260Y026260D03*
X035760Y029260D03*
X010760Y009260D03*
X011760Y008260D03*
D30*
X020260Y021760D03*
X029260Y025260D03*
M02*
